<svg width="24" height="25" viewBox="0 0 24 25" fill="none" xmlns="http://www.w3.org/2000/svg">
<path fill-rule="evenodd" clip-rule="evenodd" d="M12 0.160156C5.376 0.160156 0 5.53616 0 12.1602C0 18.7842 5.376 24.1602 12 24.1602C18.624 24.1602 24 18.7842 24 12.1602C24 5.53616 18.624 0.160156 12 0.160156ZM12 2.16016C6.48 2.16016 2 6.64016 2 12.1602C2 17.6802 6.48 22.1602 12 22.1602C17.52 22.1602 22 17.6802 22 12.1602C22 6.64016 17.52 2.16016 12 2.16016ZM8.42463 16.7257C8.70244 17.004 9.07956 17.1603 9.47277 17.1602C9.86599 17.1603 10.2431 17.004 10.5209 16.7257L18.5969 8.65095C18.9379 8.30987 18.9379 7.75697 18.5969 7.41589C18.2558 7.07491 17.7029 7.07491 17.3618 7.41589L9.47277 15.3049L6.4908 12.323C6.14971 11.982 5.59682 11.982 5.25573 12.323C4.91476 12.664 4.91476 13.2169 5.25573 13.558L8.42463 16.7257Z" fill="white"/>
</svg>
