<svg width="24" height="25" viewBox="0 0 24 25" fill="none" xmlns="http://www.w3.org/2000/svg">
<g clip-path="url(#clip0_1_38892)">
<path d="M12 9.5V13.5" stroke="#C43B3B" stroke-width="2" stroke-linecap="round" stroke-linejoin="round"/>
<path d="M10.3635 4.09119L2.25747 17.6252C2.09037 17.9146 2.00194 18.2427 2.00098 18.5768C2.00003 18.911 2.08658 19.2396 2.25202 19.5299C2.41746 19.8203 2.65604 20.0622 2.94401 20.2317C3.23199 20.4013 3.55933 20.4924 3.89347 20.4962H20.1075C20.4415 20.4923 20.7686 20.4011 21.0565 20.2317C21.3443 20.0622 21.5828 19.8204 21.7482 19.5302C21.9136 19.24 22.0002 18.9116 21.9994 18.5776C21.9986 18.2435 21.9103 17.9155 21.7435 17.6262L13.6375 4.09019C13.4669 3.80869 13.2267 3.57593 12.9399 3.41439C12.6532 3.25284 12.3296 3.16797 12.0005 3.16797C11.6713 3.16797 11.3478 3.25284 11.061 3.41439C10.7743 3.57593 10.534 3.80869 10.3635 4.09019V4.09119Z" stroke="#C43B3B" stroke-width="2" stroke-linecap="round" stroke-linejoin="round"/>
<path d="M12 16.5H12.01" stroke="#C43B3B" stroke-width="2" stroke-linecap="round" stroke-linejoin="round"/>
</g>
<defs>
<clipPath id="clip0_1_38892">
<rect width="24" height="24" fill="white" transform="translate(0 0.5)"/>
</clipPath>
</defs>
</svg>
