<svg xmlns="http://www.w3.org/2000/svg" width="20" height="21" viewBox="0 0 20 21" fill="none">
<path d="M15.0164 10.7752L13.9997 9.75858C13.7581 9.55025 13.6164 9.24192 13.6081 8.90026C13.5914 8.52526 13.7414 8.15027 14.0164 7.87527L15.0164 6.87528C15.883 6.00862 16.208 5.1753 15.933 4.51697C15.6664 3.86698 14.8414 3.50865 13.6247 3.50865H4.91649V2.79199C4.91649 2.45032 4.63316 2.16699 4.2915 2.16699C3.94983 2.16699 3.6665 2.45032 3.6665 2.79199V18.2085C3.6665 18.5502 3.94983 18.8335 4.2915 18.8335C4.63316 18.8335 4.91649 18.5502 4.91649 18.2085V14.1419H13.6247C14.8247 14.1419 15.6331 13.7752 15.908 13.1169C16.183 12.4586 15.8664 11.6336 15.0164 10.7752Z" fill="#C6B437"/>
</svg>