<svg xmlns="http://www.w3.org/2000/svg" width="20" height="20" viewBox="0 0 20 20" fill="none">
  <g clip-path="url(#clip0_2097_44584)">
    <path d="M9.9999 1.39258C10.7957 1.39258 11.5374 1.78174 11.9915 2.43173L12.079 2.56507L18.8406 13.855C19.0461 14.2108 19.1579 14.6131 19.1656 15.024C19.1732 15.4348 19.0765 15.841 18.8844 16.2042C18.6923 16.5675 18.4111 16.8761 18.0672 17.1012C17.7234 17.3262 17.328 17.4602 16.9182 17.4908L16.7557 17.4974H3.23497C2.82473 17.4928 2.42234 17.3843 2.06537 17.1821C1.7084 16.9799 1.40849 16.6905 1.19363 16.341C0.978767 15.9915 0.855959 15.5932 0.83667 15.1834C0.817381 14.7736 0.902239 14.3656 1.08332 13.9975L1.16582 13.8433L7.92409 2.56173C8.14047 2.20491 8.44516 1.90988 8.80876 1.70509C9.17236 1.5003 9.5826 1.39267 9.9999 1.39258ZM10.0082 12.5008L9.9024 12.5066C9.69986 12.5307 9.51319 12.6283 9.37775 12.7808C9.24231 12.9333 9.16751 13.1302 9.16751 13.3341C9.16751 13.5381 9.24231 13.735 9.37775 13.8875C9.51319 14.04 9.69986 14.1375 9.9024 14.1616L9.9999 14.1675L10.1057 14.1616C10.3083 14.1375 10.4949 14.04 10.6304 13.8875C10.7658 13.735 10.8406 13.5381 10.8406 13.3341C10.8406 13.1302 10.7658 12.9333 10.6304 12.7808C10.4949 12.6283 10.3083 12.5307 10.1057 12.5066L10.0082 12.5008ZM9.9999 6.66753C9.79579 6.66755 9.59879 6.74249 9.44626 6.87812C9.29374 7.01375 9.19629 7.20064 9.17241 7.40335L9.16658 7.50085V10.8342L9.17241 10.9316C9.1965 11.1342 9.29404 11.3209 9.44654 11.4563C9.59905 11.5917 9.79593 11.6665 9.9999 11.6665C10.2039 11.6665 10.4008 11.5917 10.5533 11.4563C10.7058 11.3209 10.8033 11.1342 10.8274 10.9316L10.8332 10.8342V7.50085L10.8274 7.40335C10.8035 7.20064 10.7061 7.01375 10.5535 6.87812C10.401 6.74249 10.204 6.66755 9.9999 6.66753Z" fill="white"/>
  </g>
  <defs>
    <clipPath id="clip0_2097_44584">
      <rect width="19.9998" height="19.9998" fill="white"/>
    </clipPath>
  </defs>
</svg>