<svg width="136" height="42" viewBox="0 0 136 42" fill="none" xmlns="http://www.w3.org/2000/svg">
<rect x="0.923828" y="0.5" width="134" height="41" rx="7.5" fill="white" stroke="#13243E"/>
<path fill-rule="evenodd" clip-rule="evenodd" d="M45.7996 28.0027H50.4902L51.6662 31.1333H53.8236L49.1329 19.4373H47.1862L42.5996 31.1333H44.6609L45.7996 28.0027ZM49.8902 26.4027H46.3969L47.6396 23.0373C47.8156 22.52 47.9809 22.016 48.1329 21.52C48.2982 22.08 48.4689 22.592 48.6396 23.0533L49.8902 26.4027Z" fill="black"/>
<path fill-rule="evenodd" clip-rule="evenodd" d="M54.5889 22.4213C54.6315 23.1982 54.6529 23.9093 54.6529 24.5547L54.6369 34.7707L56.6315 34.6V30.992C57.1946 31.1893 57.7869 31.2903 58.3835 31.2907C59.1417 31.3055 59.8896 31.1128 60.5462 30.7333C61.1844 30.3455 61.6915 29.7751 62.0022 29.096C62.3735 28.2777 62.5558 27.3864 62.5355 26.488C62.5633 25.6641 62.4076 24.8443 62.0795 24.088C61.8457 23.5379 61.4531 23.07 60.952 22.7441C60.4508 22.4182 59.8639 22.2492 59.2662 22.2587C58.7564 22.2653 58.2542 22.3822 57.7939 22.6014C57.3336 22.8205 56.9261 23.1366 56.5995 23.528C56.5737 23.1566 56.5257 22.787 56.4555 22.4213H54.5889ZM60.5062 26.6C60.5062 27.6667 60.3009 28.4667 59.8955 29C59.6891 29.2643 59.4216 29.4745 59.1159 29.6125C58.8102 29.7504 58.4756 29.812 58.1409 29.792C57.8773 29.791 57.6145 29.7624 57.3569 29.7067C57.1173 29.6585 56.8845 29.5815 56.6635 29.4773V24.8107C56.9372 24.521 57.2527 24.2738 57.5995 24.0773C57.926 23.8976 58.2935 23.8057 58.6662 23.8107C58.9249 23.804 59.1814 23.8602 59.4136 23.9745C59.6459 24.0887 59.8469 24.2576 59.9995 24.4667C60.3373 24.9164 60.5062 25.6276 60.5062 26.6Z" fill="black"/>
<path fill-rule="evenodd" clip-rule="evenodd" d="M63.6855 22.4213C63.7282 23.1982 63.7495 23.9093 63.7495 24.5547L63.7468 34.7707L65.7415 34.6V30.992C66.3046 31.1893 66.8969 31.2903 67.4935 31.2907C68.2518 31.3059 68.9997 31.1131 69.6562 30.7333C70.2953 30.3459 70.8035 29.7755 71.1148 29.096C71.4816 28.2767 71.6593 27.3853 71.6348 26.488C71.6626 25.6641 71.5069 24.8443 71.1788 24.088C70.945 23.5379 70.5524 23.07 70.0513 22.7441C69.5501 22.4182 68.9632 22.2492 68.3655 22.2587C67.3646 22.2587 66.4757 22.6818 65.6988 23.528C65.6735 23.1564 65.6245 22.7867 65.5522 22.4213H63.6855ZM69.6082 26.6C69.6082 27.6542 69.4055 28.4542 69.0002 29C68.7934 29.264 68.5258 29.4739 68.2203 29.6118C67.9147 29.7498 67.5802 29.8116 67.2455 29.792C66.9819 29.791 66.7191 29.7624 66.4615 29.7067C66.2222 29.6577 65.9895 29.5807 65.7682 29.4773V24.8107C66.0419 24.521 66.3574 24.2738 66.7042 24.0773C67.0308 23.898 67.3982 23.8062 67.7708 23.8107C68.0296 23.804 68.286 23.8602 68.5183 23.9745C68.7505 24.0887 68.9515 24.2576 69.1042 24.4667C69.4402 24.9164 69.6082 25.6276 69.6082 26.6Z" fill="black"/>
<path d="M75.3011 30.5813C74.4484 30.1146 73.7561 29.4019 73.3144 28.536C72.8309 27.5581 72.593 26.4772 72.6211 25.3867C72.5865 24.2199 72.8626 23.065 73.4211 22.04C73.9254 21.1505 74.6829 20.4312 75.5971 19.9733C76.5579 19.5039 77.6158 19.2673 78.6851 19.2827C79.3336 19.2799 79.98 19.3551 80.6104 19.5067C81.2001 19.6455 81.7725 19.8494 82.3171 20.1147L81.7998 21.648C80.8565 21.1722 79.8187 20.9134 78.7624 20.8907C78.0169 20.8782 77.2811 21.0622 76.6291 21.424C76.0104 21.7791 75.5132 22.3126 75.2024 22.9547C74.845 23.7162 74.6714 24.5511 74.6958 25.392C74.6825 26.1496 74.8147 26.9028 75.0851 27.6107C75.3306 28.2372 75.7625 28.7734 76.3224 29.1467C76.9603 29.5458 77.7039 29.7429 78.4558 29.712C78.8454 29.711 79.2343 29.678 79.6184 29.6133C79.9902 29.5542 80.3554 29.4596 80.7091 29.3307V26.952H78.0051V25.4027H82.6478V30.3333C81.9742 30.6472 81.2688 30.8877 80.5438 31.0507C79.8248 31.2163 79.0895 31.3004 78.3518 31.3013C77.29 31.3268 76.2395 31.0789 75.3011 30.5813Z" fill="black"/>
<path fill-rule="evenodd" clip-rule="evenodd" d="M89.5942 29.9787C89.6111 30.3665 89.6574 30.7525 89.7329 31.1333L91.5942 31.136C91.5515 30.4 91.5302 29.8542 91.5302 29.4987V26.032C91.5649 25.2577 91.4121 24.4866 91.0849 23.784C90.8231 23.2593 90.3865 22.8424 89.8502 22.6053C89.2405 22.3605 88.587 22.2434 87.9302 22.2613C87.3103 22.2593 86.6922 22.3273 86.0875 22.464C85.6068 22.5672 85.1371 22.7163 84.6849 22.9093L84.9995 24.36C85.413 24.172 85.8434 24.0238 86.2849 23.9173C86.7305 23.799 87.1891 23.7363 87.6502 23.7307C88.165 23.6967 88.6725 23.8662 89.0635 24.2027C89.3906 24.5191 89.5542 25.0613 89.5542 25.8293V26C89.0304 25.9252 88.502 25.8878 87.9729 25.888C86.5524 25.8862 85.5382 26.1378 84.9302 26.6427C84.6313 26.8854 84.393 27.1945 84.2342 27.5453C84.0755 27.8962 84.0006 28.2792 84.0155 28.664C83.9995 29.1713 84.1261 29.673 84.3809 30.112C84.6115 30.4987 84.9523 30.8079 85.3595 31C85.7883 31.2008 86.2568 31.302 86.7302 31.296C87.3087 31.3052 87.8807 31.1734 88.3969 30.912C88.8545 30.6842 89.2616 30.3668 89.5942 29.9787ZM89.5542 28.7893C89.2679 29.1019 88.9226 29.3547 88.5382 29.5333C88.1592 29.7252 87.7416 29.8283 87.3169 29.8347C86.9774 29.8535 86.6435 29.7419 86.3835 29.5227C86.2611 29.3975 86.167 29.2475 86.1077 29.0828C86.0483 28.918 86.0251 28.7425 86.0395 28.568C86.0322 28.3661 86.0709 28.1651 86.1527 27.9803C86.2345 27.7955 86.3572 27.6317 86.5115 27.5013C86.828 27.2347 87.3978 27.1013 88.2209 27.1013C88.6665 27.1076 89.1116 27.137 89.5542 27.1893V28.7893Z" fill="black"/>
<path d="M93.0723 29.0427V18.7493L95.0563 18.5893V28.688C95.0281 28.9683 95.0948 29.25 95.2457 29.488C95.3219 29.5699 95.4158 29.6334 95.5202 29.6736C95.6246 29.7138 95.7368 29.7297 95.8483 29.72C96.0292 29.7122 96.2084 29.6817 96.3817 29.6293L96.6163 31.0587C96.393 31.143 96.1616 31.2037 95.9257 31.24C95.6711 31.2842 95.4133 31.3073 95.155 31.3093C93.7665 31.3004 93.0723 30.5449 93.0723 29.0427Z" fill="black"/>
<path d="M98.0342 29.0427V18.7493L100.021 18.5893V28.688C99.9926 28.9683 100.059 29.25 100.21 29.488C100.286 29.5699 100.38 29.6334 100.485 29.6736C100.589 29.7138 100.701 29.7297 100.813 29.72C100.994 29.7122 101.172 29.6817 101.346 29.6293L101.578 31.0587C101.355 31.143 101.125 31.2038 100.89 31.24C100.635 31.2843 100.376 31.3075 100.117 31.3093C98.7302 31.3004 98.0359 30.5449 98.0342 29.0427Z" fill="black"/>
<path fill-rule="evenodd" clip-rule="evenodd" d="M104.04 27.032H109.739V26.496C109.749 25.7653 109.613 25.0399 109.339 24.3627C109.089 23.741 108.662 23.206 108.112 22.824C107.502 22.4218 106.781 22.2195 106.051 22.2453C105.315 22.2309 104.589 22.421 103.955 22.7947C103.336 23.1773 102.843 23.7338 102.539 24.3947C102.181 25.1734 102.007 26.0235 102.029 26.88C102.007 27.6973 102.171 28.509 102.509 29.2533C102.816 29.8958 103.318 30.4243 103.944 30.7627C104.667 31.1359 105.472 31.3195 106.285 31.296C107.42 31.3132 108.544 31.0705 109.571 30.5867L109.133 29.2213C108.736 29.3897 108.325 29.5235 107.904 29.6213C107.492 29.7184 107.071 29.7685 106.648 29.7707C105 29.7707 104.131 28.8578 104.04 27.032ZM107.261 24.2027C107.612 24.6478 107.8 25.199 107.795 25.7653L104.088 25.76C104.14 25.1851 104.371 24.6407 104.747 24.2027C104.908 24.03 105.104 23.8932 105.322 23.8013C105.54 23.7094 105.774 23.6645 106.011 23.6693C106.246 23.6609 106.479 23.7044 106.695 23.7965C106.912 23.8887 107.105 24.0274 107.261 24.2027Z" fill="black"/>
<path d="M111.248 24.6107C111.248 24.1333 111.224 23.4027 111.181 22.424H113.048C113.08 22.6667 113.109 22.9573 113.141 23.2907C113.173 23.624 113.189 23.9013 113.2 24.112C113.401 23.7721 113.629 23.4493 113.883 23.1467C114.103 22.8881 114.369 22.672 114.667 22.5093C114.98 22.3401 115.332 22.2547 115.688 22.2613C115.958 22.2547 116.228 22.288 116.488 22.36L116.237 24.088C115.925 23.9976 115.597 23.9746 115.275 24.0206C114.954 24.0666 114.645 24.1805 114.371 24.3547C113.929 24.6827 113.545 25.0809 113.232 25.5333V31.1333H111.248V24.6107Z" fill="black"/>
<path d="M117.597 34.6987C117.354 34.6593 117.114 34.6014 116.88 34.5253L117.243 33.072C117.41 33.1172 117.58 33.1536 117.752 33.1813C117.944 33.2154 118.138 33.2333 118.333 33.2347C119.222 33.2347 119.884 32.6667 120.317 31.5307L120.448 31.208L117.235 22.424H119.368L121 27.3333C121.209 27.9648 121.378 28.6087 121.507 29.2613C121.659 28.632 121.835 28.0027 122.04 27.3733L123.667 22.424H125.675L122.475 31.248C122.233 31.9588 121.904 32.6368 121.496 33.2667C121.185 33.7424 120.759 34.1329 120.259 34.4027C119.722 34.6646 119.13 34.7927 118.533 34.776C118.22 34.7772 117.907 34.7513 117.597 34.6987Z" fill="black"/>
<path d="M42.5996 8.30133H46.1462L46.0476 9.16H43.6342V10.8213H45.9089V11.6213H43.6342V13.4613H46.1756L46.0876 14.3333H42.5996V8.30133Z" fill="black"/>
<path d="M48.5967 11.256L46.7301 8.30133H47.9141L49.1834 10.472L50.5167 8.30133H51.6661L49.7994 11.2187L51.8181 14.3333H50.6181L49.1807 11.96L47.7167 14.3333H46.5674L48.5967 11.256Z" fill="black"/>
<path fill-rule="evenodd" clip-rule="evenodd" d="M54.2106 8.30133H52.584V14.3333H53.6267V12.0107C53.8903 12.0619 54.1581 12.0895 54.4267 12.0933C54.8135 12.1008 55.1968 12.0187 55.5466 11.8533C55.8615 11.7028 56.1256 11.4637 56.3066 11.1653C56.4922 10.848 56.5846 10.4848 56.5733 10.1173C56.5881 9.86008 56.5406 9.60307 56.4347 9.36814C56.3289 9.13321 56.1678 8.92733 55.9653 8.768C55.5582 8.45689 54.9733 8.30133 54.2106 8.30133ZM55.4573 10.6059C55.3998 10.7528 55.3111 10.8854 55.1973 10.9947C54.9229 11.2129 54.5763 11.3196 54.2267 11.2933C54.0254 11.2882 53.8248 11.2677 53.6267 11.232V9.09866H54.192C54.5426 9.07554 54.8919 9.16122 55.192 9.344C55.3098 9.43929 55.4023 9.56212 55.4614 9.70165C55.5204 9.84117 55.5442 9.99309 55.5307 10.144C55.5399 10.3015 55.5149 10.4591 55.4573 10.6059Z" fill="black"/>
<path d="M57.6025 8.30133H58.6425V13.4427H61.1385L61.0505 14.3333H57.6025V8.30133Z" fill="black"/>
<path fill-rule="evenodd" clip-rule="evenodd" d="M61.7088 12.9707C61.932 13.4198 62.285 13.7914 62.7221 14.0373C63.2055 14.3045 63.7513 14.438 64.3034 14.424C64.8744 14.437 65.4392 14.3029 65.9434 14.0347C66.4002 13.7801 66.7714 13.3959 67.0101 12.9307C67.2714 12.4072 67.4005 11.8276 67.3861 11.2427C67.3978 10.6958 67.2799 10.1539 67.0421 9.66133C66.8214 9.21308 66.4712 8.84146 66.0368 8.59466C65.5553 8.33365 65.0136 8.20397 64.4661 8.21866C63.8871 8.19802 63.3127 8.32852 62.7994 8.59733C62.341 8.84972 61.9692 9.23446 61.7328 9.70133C61.4748 10.2193 61.3467 10.7922 61.3594 11.3707C61.3464 11.9242 61.4662 12.4729 61.7088 12.9707ZM66.0768 12.4987C65.9433 12.8251 65.7148 13.1039 65.4208 13.2987C65.105 13.5076 64.7327 13.6146 64.3541 13.6053C63.9892 13.6244 63.6277 13.5266 63.3222 13.3261C63.0167 13.1257 62.7832 12.833 62.6554 12.4907C62.5116 12.1165 62.441 11.7182 62.4474 11.3173C62.4417 10.9283 62.517 10.5423 62.6688 10.184C62.8057 9.85235 63.0353 9.56719 63.3301 9.36266C63.6548 9.16398 64.0281 9.05883 64.4088 9.05883C64.7894 9.05883 65.1627 9.16398 65.4874 9.36266C65.7674 9.56185 65.9811 9.84057 66.1008 10.1627C66.2344 10.5345 66.2995 10.9276 66.2928 11.3227C66.2998 11.7251 66.2264 12.125 66.0768 12.4987Z" fill="black"/>
<path fill-rule="evenodd" clip-rule="evenodd" d="M70.4349 8.30133H68.5469V14.3333H69.5976V11.9333H70.3629L71.9336 14.3333H73.1469L71.2803 11.6667C71.4924 11.5866 71.6905 11.4731 71.8669 11.3307C72.0643 11.1671 72.2259 10.9647 72.3416 10.736C72.4739 10.4752 72.5399 10.1857 72.5336 9.89333C72.5461 9.66846 72.5041 9.44389 72.4112 9.2387C72.3184 9.03351 72.1774 8.85374 72.0003 8.71467C71.5386 8.40754 70.9881 8.26218 70.4349 8.30133ZM70.8509 11.008C70.6427 11.1094 70.4132 11.1597 70.1816 11.1547L69.5896 11.1653V9.104H70.3443C70.6386 9.08443 70.9316 9.15815 71.1816 9.31467C71.2808 9.39283 71.3591 9.49443 71.4094 9.61033C71.4597 9.72622 71.4803 9.85279 71.4696 9.97867C71.4733 10.1968 71.417 10.4117 71.3069 10.6C71.1966 10.7764 71.0385 10.9179 70.8509 11.008Z" fill="black"/>
<path d="M73.96 8.30133H77.5147L77.4134 9.16H75.0134V10.8213H77.2667V11.6213H74.992V13.4613H77.5334L77.456 14.3333H73.96V8.30133Z" fill="black"/>
<path d="M81.3809 8.30133H82.4209V14.3333H81.3809V8.30133Z" fill="black"/>
<path d="M85.1763 9.17066H83.3096L83.4003 8.30133H88.0936L87.9976 9.17066H86.219V14.3333H85.1763V9.17066Z" fill="black"/>
<path fill-rule="evenodd" clip-rule="evenodd" d="M91.6021 12.9707C91.8243 13.4196 92.1764 13.7912 92.6127 14.0373C93.0977 14.3054 93.6455 14.4389 94.1994 14.424C94.7705 14.4377 95.3354 14.3036 95.8394 14.0347C96.2967 13.7808 96.6681 13.3965 96.9061 12.9307C97.1695 12.4078 97.2995 11.8279 97.2847 11.2427C97.2956 10.6956 97.1768 10.1537 96.9381 9.66134C96.7182 9.21252 96.3678 8.84068 95.9327 8.59467C95.4478 8.32659 94.9 8.19309 94.3461 8.20801C93.7697 8.1931 93.1994 8.32721 92.6901 8.59734C92.2321 8.85039 91.8605 9.23495 91.6234 9.70134C91.3654 10.2193 91.2373 10.7922 91.2501 11.3707C91.2365 11.9246 91.3573 12.4736 91.6021 12.9707ZM95.9674 12.4987C95.8341 12.8244 95.6066 13.103 95.3141 13.2987C94.9986 13.5061 94.6276 13.6131 94.2501 13.6053C93.8721 13.6195 93.4991 13.515 93.1834 13.3067C92.8951 13.1035 92.6733 12.8196 92.5461 12.4907C92.4022 12.1165 92.3316 11.7182 92.3381 11.3173C92.3336 10.9284 92.4089 10.5427 92.5594 10.184C92.6963 9.85236 92.9259 9.5672 93.2207 9.36267C93.5458 9.16375 93.9196 9.05849 94.3007 9.05849C94.6819 9.05849 95.0556 9.16375 95.3807 9.36267C95.6599 9.56201 95.8727 9.84077 95.9914 10.1627C96.125 10.5345 96.1901 10.9276 96.1834 11.3227C96.1904 11.7251 96.117 12.125 95.9674 12.4987Z" fill="black"/>
<path d="M98.4395 8.30133H99.6342L102.618 12.976C102.591 12.5307 102.58 12.1227 102.58 11.7467V8.30133H103.546V14.3333H102.388L99.3595 9.584C99.3888 10.1173 99.4048 10.6 99.4048 11.0187V14.3333H98.4395V8.30133Z" fill="black"/>
<path fill-rule="evenodd" clip-rule="evenodd" d="M27.9327 8.33334H16.8634C11.6447 8.33334 9.73535 10.2427 9.73535 15.4613V26.5387C9.73535 31.7573 11.6447 33.6667 16.8634 33.6667H27.9327C33.1514 33.6667 35.0634 31.7573 35.0634 26.5387V15.4613C35.0687 10.2427 33.1594 8.33334 27.9327 8.33334Z" fill="#C8102E"/>
<path fill-rule="evenodd" clip-rule="evenodd" d="M14.7518 21H15.4238V24.3147H14.7518V22.968H13.2345V24.3147H12.5625V21H13.2345V22.3333H14.7518V21ZM18.5385 22.896C18.5385 23.4293 18.2718 23.7227 17.7865 23.7227C17.3011 23.7227 17.0291 23.4293 17.0291 22.8667V21H16.3571V22.8933C16.3571 23.824 16.8745 24.3573 17.7758 24.3573C18.6771 24.3573 19.2105 23.824 19.2105 22.864V21H18.5385V22.896ZM25.5518 21L26.3038 23.2773L27.0371 21H27.7358L26.5811 24.3147H26.0185L25.2665 22.1387L24.5171 24.3147H23.9598L22.8051 21H23.5198L24.2531 23.28L24.9998 21H25.5518ZM28.9385 22.8853H30.1625V22.2853H28.9385V21.608H30.7145V21H28.2771V24.3067H30.7785V23.7093H28.9385V22.8853ZM32.2425 24.3067H31.5785V21H32.2425V24.3067ZM20.5385 23.6213L20.2371 24.3093H19.5518L20.9998 21H21.5918L23.0451 24.3093H22.3518L22.0665 23.624L20.5385 23.6213ZM21.7998 23.024H20.7891L21.2931 21.84L21.7998 23.024Z" fill="white"/>
<path d="M22.4025 16.784C21.2846 16.7833 20.2127 16.3389 19.4222 15.5484C18.6317 14.7579 18.1873 13.6859 18.1865 12.568H18.7812C18.7812 13.5284 19.1627 14.4495 19.8419 15.1287C20.521 15.8078 21.4421 16.1893 22.4025 16.1893C23.363 16.1893 24.2841 15.8078 24.9632 15.1287C25.6423 14.4495 26.0239 13.5284 26.0239 12.568H26.6185C26.6178 13.6859 26.1734 14.7579 25.3829 15.5484C24.5924 16.3389 23.5205 16.7833 22.4025 16.784Z" fill="white"/>
</svg>
