<svg  viewBox="0 0 20 16" fill="none" xmlns="http://www.w3.org/2000/svg">
<g clip-path="url(#clip0_604_7844)">
<mask id="mask0_604_7844" style="mask-type:alpha" maskUnits="userSpaceOnUse" x="0" y="0" width="20" height="16">
<path d="M18.0952 0H1.90476C0.852791 0 0 0.955126 0 2.13333V13.8667C0 15.0449 0.852791 16 1.90476 16H18.0952C19.1472 16 20 15.0449 20 13.8667V2.13333C20 0.955126 19.1472 0 18.0952 0Z" fill="white"/>
</mask>
<g mask="url(#mask0_604_7844)">
<path d="M18.0952 0H1.90476C0.852791 0 0 0.955126 0 2.13333V13.8667C0 15.0449 0.852791 16 1.90476 16H18.0952C19.1472 16 20 15.0449 20 13.8667V2.13333C20 0.955126 19.1472 0 18.0952 0Z" fill="#00773C"/>
<path fill-rule="evenodd" clip-rule="evenodd" d="M15.2368 10.6666V9.59998H4.76066L6.66542 10.6666H12.3797C12.3797 11.2554 13.0197 11.7333 13.8083 11.7333C14.5968 11.7333 15.2368 11.2554 15.2368 10.6666ZM8.31304 4.16638C8.30161 4.16638 8.28447 4.17278 8.26256 4.18772C8.21113 4.22612 8.11018 4.34452 8.10637 4.48105C8.10351 4.55892 8.09018 4.55892 8.13494 4.60905C8.16732 4.66025 8.20161 4.65598 8.26637 4.61652C8.30447 4.58452 8.31685 4.56638 8.33018 4.51412C8.34542 4.42878 8.24732 4.55678 8.23494 4.45865C8.21304 4.36905 8.27589 4.33065 8.33494 4.24532C8.33685 4.20265 8.33685 4.17065 8.31304 4.16852V4.16638ZM9.26827 4.17172C9.24923 4.17598 9.22732 4.20372 9.19589 4.26558C9.17399 4.33172 9.0778 4.43198 9.14828 4.63892C9.20351 4.77012 9.22732 4.98238 9.20161 5.22025C9.16161 5.28745 9.15399 5.31092 9.10161 5.37812C9.02923 5.46665 8.94923 5.44425 8.89018 5.41012C8.83304 5.36745 8.78923 5.34612 8.76351 5.21172C8.76828 4.99838 8.7797 4.64425 8.74447 4.56958C8.69304 4.45438 8.60732 4.49492 8.57113 4.53012C8.39685 4.71145 8.31018 5.01332 8.25685 5.25545C8.20923 5.43038 8.15685 5.37918 8.12066 5.30878C8.03208 5.21492 8.02542 4.48745 7.91875 4.60798C7.74732 5.15625 8.01685 5.75678 8.20447 5.69812C8.3378 5.76212 8.42351 5.47412 8.47875 5.15945C8.51685 5.07092 8.54542 5.06025 8.56447 5.10612C8.5597 5.52425 8.59304 5.61812 8.68827 5.74398C8.90161 5.92958 9.07875 5.76745 9.09304 5.75252L9.2597 5.56692C9.2978 5.52425 9.34542 5.51998 9.3978 5.55838C9.44923 5.61172 9.44256 5.70025 9.55018 5.76105C9.64351 5.80372 9.83875 5.77172 9.88351 5.68318C9.94542 5.56585 9.9597 5.52532 9.98828 5.48052C10.0321 5.41652 10.1073 5.44532 10.1073 5.46558C10.1007 5.50292 10.0568 5.54025 10.0864 5.60425C10.1388 5.64692 10.1511 5.61918 10.1816 5.60958C10.2902 5.55198 10.3721 5.28745 10.3721 5.28745C10.3768 5.18932 10.3273 5.19678 10.2959 5.21705C10.253 5.24585 10.2511 5.25545 10.2102 5.28425C10.1559 5.29278 10.053 5.33225 10.0026 5.24372C9.95018 5.13705 9.95018 4.98985 9.91018 4.88105C9.91018 4.87465 9.84066 4.71358 9.90447 4.70398C9.93589 4.71038 10.0064 4.73065 10.0168 4.66558C10.0511 4.60158 9.94351 4.42025 9.87018 4.33065C9.80732 4.25278 9.7197 4.24318 9.63494 4.32212C9.57494 4.38398 9.58447 4.45225 9.57208 4.51732C9.5578 4.59198 9.56066 4.68478 9.62923 4.78398C9.68828 4.91412 9.79589 5.08265 9.7597 5.31945C9.7597 5.31945 9.6978 5.43252 9.58828 5.41758C9.54066 5.40692 9.46637 5.38558 9.42637 5.05492C9.3978 4.80638 9.43399 4.45758 9.34066 4.29438C9.31875 4.23358 9.30066 4.17385 9.27018 4.17705L9.26827 4.17172ZM8.96542 4.19945C8.93685 4.20265 8.90542 4.23998 8.8797 4.31145C8.8578 4.36692 8.83018 4.65278 8.83494 4.65278C8.81589 4.73812 8.91399 4.77438 8.95875 4.66558C9.02542 4.46292 9.02542 4.37758 9.02923 4.29438C9.0197 4.23038 8.99399 4.19838 8.96542 4.20052V4.19945ZM10.0826 4.22078C10.054 4.22505 10.0302 4.24425 10.0216 4.29332C10.0092 4.40638 10.0159 4.46932 10.033 4.56425C10.0454 4.62825 10.1283 4.73278 10.1683 4.79465C10.3616 5.08585 10.5492 5.37812 10.7283 5.67998C10.7568 5.90612 10.7759 6.12585 10.7902 6.34558C10.8207 6.82558 10.8283 7.42292 10.8026 7.92958C10.8826 7.93278 11.0121 7.78345 11.0568 7.56692C11.0854 7.26398 11.0473 6.64958 11.0435 6.47038L11.034 6.21652C11.2435 6.60052 11.4454 7.00585 11.6435 7.44958C11.7168 7.41118 11.7007 6.95358 11.6588 6.88958C11.4988 6.50558 11.2778 6.12585 11.2083 5.97972C11.1826 5.92638 11.0959 5.78025 10.994 5.61065C10.9749 5.36745 10.954 5.16265 10.9407 5.10078C10.9073 4.84478 11.034 5.12958 11.0168 4.98132C10.9749 4.72532 10.8492 4.55252 10.7007 4.31785C10.653 4.24318 10.653 4.22612 10.5797 4.33705C10.5368 4.44905 10.5368 4.54292 10.5511 4.63038C10.5302 4.59838 10.5064 4.56212 10.4721 4.51518L10.2292 4.28478C10.1959 4.25812 10.1311 4.21758 10.0826 4.22078ZM13.393 4.26025C13.3788 4.25812 13.3645 4.26558 13.3454 4.29438C13.3121 4.32638 13.2768 4.38718 13.2788 4.46505C13.2854 4.59838 13.3073 4.73598 13.3149 4.87038L13.3245 4.92372C13.3111 4.90665 13.2997 4.89172 13.293 4.88532C13.0578 4.60798 13.4007 4.83838 13.2473 4.62612C13.1188 4.46612 13.0807 4.41705 12.9711 4.32105C12.914 4.28265 12.8816 4.20585 12.8635 4.33598C12.8559 4.45012 12.8483 4.58345 12.854 4.67945C12.854 4.73278 12.9045 4.83412 12.9473 4.89278C13.1035 5.10932 13.2635 5.33865 13.4235 5.57758C13.4578 6.06505 13.4664 6.51198 13.4997 7.00052C13.4959 7.20958 13.4388 7.48692 13.3854 7.51252C13.3854 7.51252 13.3016 7.56585 13.2464 7.50718C13.2054 7.48905 13.0445 7.20532 13.0445 7.20532C12.9616 7.11998 12.9064 7.14452 12.8483 7.20532C12.6864 7.38025 12.6121 7.70878 12.5026 7.93492C12.474 7.98505 12.3949 8.02878 12.3064 7.93065C12.0807 7.58505 12.2111 7.09332 12.1845 7.22025C11.9845 7.47412 12.0721 7.89438 12.1178 7.98505C12.1845 8.13438 12.2378 8.23038 12.3654 8.30185C12.4845 8.39785 12.5749 8.33918 12.6264 8.26985C12.7445 8.13332 12.7464 7.78238 12.8016 7.71305C12.8397 7.58505 12.9378 7.60638 12.9854 7.66398C13.033 7.73865 13.0864 7.78665 13.154 7.82718C13.2645 7.93598 13.3959 7.95518 13.5254 7.85598C13.614 7.80052 13.6721 7.72798 13.7235 7.58505C13.7807 7.41865 13.7521 6.54398 13.7397 6.05758L13.9873 6.45865C14.0216 6.88532 14.0378 7.30665 14.0254 7.70985C14.0178 7.78985 14.2759 7.47092 14.273 7.31945C14.273 7.18825 14.2749 7.06772 14.273 6.95678C14.3997 7.18078 14.5207 7.40798 14.6349 7.63945C14.7064 7.59678 14.6826 7.14558 14.6378 7.08478C14.5178 6.85865 14.3635 6.61545 14.2445 6.42558C14.2207 6.18772 14.1892 5.90718 14.174 5.82078C14.1521 5.68638 14.1292 5.48478 14.0949 5.32585C14.0854 5.26505 14.0568 5.06665 14.0664 5.04852C14.0797 5.00265 14.133 5.04852 14.1588 4.99732C14.1968 4.94932 14.0235 4.44265 13.9349 4.29972C13.9035 4.23572 13.8454 4.25705 13.7749 4.36372C13.7083 4.43198 13.733 4.58985 13.7578 4.74025C13.8226 5.12425 13.8816 5.51252 13.9273 5.90292C13.8416 5.75892 13.7368 5.58612 13.634 5.42078L13.6207 5.34612C13.6207 5.33758 13.6073 5.03145 13.5949 4.95892C13.5921 4.92905 13.5854 4.92052 13.614 4.92478C13.6426 4.95252 13.6464 4.95358 13.6645 4.96318C13.6949 4.96745 13.7216 4.91198 13.7026 4.85972L13.4264 4.29012C13.4168 4.27625 13.4035 4.26345 13.3883 4.26132L13.393 4.26025ZM4.85018 4.27092C4.7978 4.26878 4.74256 4.30292 4.76447 4.37225C4.75113 4.40958 4.86351 4.53545 4.88351 4.60478C4.8997 4.65492 4.86447 4.81278 4.90256 4.82878C4.93589 4.84478 4.98256 4.71785 4.9997 4.60158C5.00923 4.53758 5.00256 4.31785 4.86923 4.27305C4.86256 4.27092 4.85589 4.27092 4.84828 4.26985L4.85018 4.27092ZM14.5835 4.27092C14.5711 4.27305 14.5568 4.29225 14.5359 4.34558C14.4835 4.44158 14.4654 4.61225 14.4864 4.76158C14.6102 5.71092 14.7054 6.63038 14.7245 7.47092C14.713 7.55198 14.7092 7.59465 14.6768 7.69492C14.6026 7.80158 14.5207 7.93385 14.4435 7.99785C14.3673 8.06185 14.2035 8.12372 14.1502 8.17065C13.9788 8.27945 13.9788 8.40532 14.1159 8.41065C14.3521 8.37865 14.6321 8.35732 14.8245 8.03198C14.8759 7.94132 14.9368 7.69385 14.9388 7.54132C14.9578 6.65598 14.9292 5.78665 14.8102 5.14558C14.8026 5.08158 14.7778 4.93972 14.7873 4.92158C14.8016 4.87678 14.8788 4.92478 14.9064 4.87465C14.9473 4.82772 14.7064 4.48318 14.6226 4.33598C14.6054 4.29972 14.594 4.26878 14.5807 4.27198L14.5835 4.27092ZM12.1045 4.28585C12.0949 4.28798 12.0816 4.30505 12.0549 4.34452C11.9883 4.58558 11.9654 4.78185 11.9911 4.93332C12.1626 5.92532 12.334 6.82665 12.3073 7.77065C12.3873 7.77065 12.4807 7.56478 12.5207 7.35998C12.5426 7.07732 12.5054 6.90558 12.4997 6.74132C12.493 6.57492 12.3321 5.23092 12.2997 5.10612C12.2597 4.86932 12.4559 5.07412 12.4349 4.93758C12.3664 4.76265 12.1968 4.51092 12.1454 4.35838C12.1264 4.31785 12.1226 4.28052 12.1073 4.28372L12.1045 4.28585ZM6.07208 4.30505C6.05304 4.30932 6.03113 4.32852 6.02447 4.35838C6.0197 4.37972 6.03208 4.41492 6.01494 4.42558C6.00542 4.43625 5.96923 4.42878 5.97113 4.37225C5.97113 4.35305 5.95875 4.33385 5.95208 4.32212C5.94447 4.31785 5.9397 4.31678 5.92637 4.31678C5.91018 4.31678 5.91018 4.32212 5.90161 4.33812C5.8978 4.35305 5.89208 4.36798 5.89208 4.38505C5.89018 4.40638 5.88256 4.41172 5.87018 4.41492C5.85494 4.41492 5.8578 4.41705 5.84637 4.40745C5.83685 4.39998 5.82923 4.39678 5.82923 4.38185C5.82923 4.36585 5.82542 4.33918 5.82161 4.33065C5.81494 4.31998 5.80447 4.31572 5.79304 4.31252C5.73018 4.31252 5.72637 4.39572 5.72923 4.42558C5.72447 4.43198 5.72256 4.57492 5.80828 4.61545C5.92256 4.67732 6.1397 4.65065 6.13208 4.44265C6.13208 4.42452 6.12732 4.36265 6.12542 4.34665C6.11399 4.31465 6.09208 4.30398 6.07113 4.30718L6.07208 4.30505ZM7.62066 4.30718C7.58066 4.30932 7.54447 4.32212 7.51589 4.33918C7.4397 4.42132 7.42066 4.55252 7.48161 4.63465C7.53875 4.66665 7.59875 4.73065 7.5597 4.76798C7.39399 4.96532 6.96256 5.29705 6.94066 5.35785V5.36425H6.94447V5.36638C6.96637 5.38238 7.23685 5.38238 7.26637 5.36638H7.26828C7.36161 5.32692 7.80161 4.76372 7.80161 4.76372C7.77875 4.74238 7.7578 4.72532 7.73494 4.70292C7.71018 4.67945 7.71304 4.65598 7.73494 4.63252C7.84351 4.56212 7.80923 4.40532 7.75208 4.33385C7.70447 4.31038 7.66066 4.30185 7.62066 4.30505V4.30718ZM11.6683 4.30718C11.6568 4.31038 11.6426 4.32852 11.6207 4.38185C11.5683 4.47785 11.533 4.64318 11.5378 4.79785C11.6502 5.67252 11.6845 6.43732 11.7588 7.31198C11.7645 7.39732 11.753 7.51892 11.7035 7.56798C11.5168 7.78558 11.2492 8.05225 10.9578 8.17598C10.9264 8.21545 11.0359 8.38292 11.1768 8.38292C11.413 8.35092 11.6207 8.20372 11.8149 7.81225C11.8654 7.72158 11.9559 7.52638 11.9578 7.37492C11.9768 6.48745 11.9197 5.79625 11.7997 5.15625C11.793 5.09225 11.7978 5.01758 11.8073 5.00052C11.8226 4.97918 11.874 5.00052 11.9026 4.95038C11.9426 4.90345 11.794 4.52052 11.7102 4.37438C11.693 4.33705 11.6835 4.30718 11.6683 4.30825V4.30718ZM5.3978 4.33598C5.36542 4.34025 5.33494 4.36798 5.3197 4.41065C5.31494 4.54932 5.31399 4.68798 5.32923 4.81812C5.38637 5.04532 5.40256 5.24478 5.43018 5.47625C5.4397 5.78772 5.27018 5.61065 5.2778 5.45705C5.31589 5.25652 5.30637 4.94185 5.27208 4.86185C5.24351 4.78185 5.21304 4.76265 5.14637 4.77652C5.09399 4.77225 4.9578 4.93652 4.9197 5.21385C4.9197 5.21385 4.88732 5.35465 4.87399 5.48052C4.85494 5.62238 4.77113 5.72372 4.71208 5.46132C4.66161 5.26932 4.63113 4.79998 4.54637 4.90878C4.52161 5.27572 4.49304 5.92212 4.77113 5.98825C5.10828 6.02452 4.92161 5.35038 5.04351 5.22772C5.06732 5.16905 5.11018 5.16798 5.11304 5.24372V5.81652C5.10923 6.00212 5.2178 6.05758 5.30351 6.09598C5.39208 6.08852 5.45018 6.09172 5.48447 6.18772L5.52732 7.17972C5.52732 7.17972 5.73113 7.24372 5.74066 6.62185C5.75018 6.25598 5.67399 5.94985 5.71875 5.87838C5.72066 5.80798 5.80066 5.80372 5.85589 5.83892C5.94447 5.90825 5.98351 5.99358 6.12066 5.95945C6.33018 5.89545 6.45399 5.78238 6.45685 5.60318C6.44732 5.43252 6.42828 5.26185 6.36161 5.09118C6.37113 5.06132 6.32351 4.98132 6.33304 4.95038C6.36923 5.01438 6.42637 5.01012 6.4378 4.95038C6.40351 4.81918 6.34828 4.69438 6.25875 4.64105C6.18542 4.56638 6.0778 4.58238 6.0378 4.73385C6.01875 4.90878 6.09494 5.11572 6.20923 5.28532C6.23208 5.35145 6.26637 5.46132 6.25113 5.56052C6.19113 5.59892 6.13113 5.58185 6.0797 5.52318C6.0797 5.52318 5.91494 5.38452 5.91494 5.35252C5.9597 5.03785 5.92447 5.00052 5.90066 4.91518C5.88351 4.79358 5.83208 4.75518 5.79113 4.67198C5.74923 4.62185 5.69304 4.62185 5.66732 4.67198C5.59304 4.81385 5.62732 5.11998 5.68066 5.25545C5.71875 5.38132 5.7778 5.46025 5.75018 5.46025C5.72732 5.52958 5.6797 5.51358 5.64542 5.43145C5.5978 5.26078 5.58637 5.00905 5.58637 4.89492C5.57208 4.75412 5.55589 4.45225 5.47208 4.37545C5.45018 4.34132 5.42447 4.32958 5.39875 4.33278L5.3978 4.33598ZM6.58066 4.33598C6.56447 4.34025 6.54542 4.35092 6.52351 4.35732C6.45208 4.38185 6.38542 4.45118 6.40637 4.58558C6.49208 5.16158 6.54637 5.60212 6.63113 6.17812C6.64351 6.24638 6.59304 6.33492 6.52828 6.32745C6.4178 6.24212 6.39018 6.07145 6.20161 6.07998C6.06447 6.07998 5.90828 6.24852 5.88923 6.40852C5.86637 6.53652 5.85875 6.67518 5.88923 6.78612C5.98447 6.91412 6.10066 6.90132 6.20161 6.87145C6.28447 6.83412 6.35399 6.74345 6.38256 6.76478C6.40161 6.79998 6.38066 7.09972 5.99208 7.33012C5.75208 7.45172 5.56161 7.47945 5.45875 7.26185C5.39589 7.12532 5.46447 6.60478 5.30827 6.72425C4.84542 8.05972 6.39113 8.24532 6.56351 6.77972C6.57494 6.73705 6.60828 6.69652 6.63304 6.70718C6.64256 6.71252 6.65208 6.72852 6.65589 6.75838C6.6197 8.08532 5.4597 8.17705 5.26351 7.75892C5.21399 7.66078 5.1997 7.44105 5.19494 7.31092C5.18542 7.23092 5.16828 7.18505 5.14732 7.16692C5.0997 7.12745 5.03685 7.23092 5.02351 7.40905C5.00447 7.55305 5.00923 7.59252 5.00923 7.73118C5.07208 8.77972 6.56447 8.32852 6.80732 7.46452C6.92732 7.01652 6.80447 6.67838 6.84542 6.63678L6.84827 6.63465H6.85113L6.85589 6.63252C7.00447 6.81172 7.21208 6.65385 7.2578 6.59305C7.27685 6.56105 7.32637 6.53972 7.36066 6.58238C7.47494 6.67412 7.67875 6.63038 7.72066 6.46505C7.74542 6.30505 7.76637 6.14078 7.77113 5.96905C7.69494 5.99572 7.63399 6.01492 7.60923 6.04372C7.60351 6.05118 7.5997 6.05972 7.5978 6.06825L7.57875 6.21012C7.57875 6.21545 7.57685 6.21865 7.57494 6.22078C7.57208 6.22825 7.56542 6.23358 7.56161 6.23678C7.53494 6.25278 7.48828 6.24425 7.48542 6.20052C7.45018 6.01918 7.30256 5.99572 7.21304 6.27838C7.15304 6.33172 7.04161 6.34238 7.03208 6.26132C7.04637 6.07145 6.9778 6.04585 6.84161 6.13545L6.71018 5.02612C6.76732 5.02292 6.81875 5.06878 6.87208 4.99625C6.81494 4.79998 6.69589 4.40105 6.62828 4.36265H6.62637L6.61685 4.35198C6.61685 4.34985 6.61399 4.34878 6.61208 4.34772L6.60828 4.34132C6.60447 4.34132 6.60066 4.33918 6.59875 4.33812C6.59208 4.33598 6.58637 4.33598 6.5797 4.33598H6.58066ZM11.1921 4.34025C11.133 4.33812 11.0683 4.37972 11.093 4.46292C11.0778 4.50878 11.2197 4.66238 11.2426 4.74558C11.2835 4.87358 11.2111 4.99838 11.254 5.01652C11.294 5.03572 11.3492 4.88318 11.3683 4.74132C11.393 4.62612 11.3207 4.39145 11.2159 4.34345L11.1921 4.34132V4.34025ZM7.59875 4.47998C7.62542 4.47785 7.6578 4.50558 7.67494 4.54398C7.69113 4.58665 7.68256 4.62612 7.65589 4.63358C7.62732 4.64105 7.59113 4.61438 7.57399 4.57172C7.55685 4.52905 7.56447 4.48958 7.59304 4.48212H7.59875V4.47998ZM14.2626 4.67412C14.2083 4.67198 14.1483 4.71678 14.173 4.80745C14.1597 4.85652 14.2873 5.02292 14.3092 5.11465C14.3283 5.17865 14.2807 5.38772 14.3188 5.40692C14.3549 5.42825 14.4045 5.26185 14.4235 5.10825C14.4349 5.02292 14.3797 4.72958 14.2854 4.67732C14.2788 4.67518 14.2711 4.67305 14.2635 4.67305L14.2626 4.67412ZM10.5768 4.77652C10.5835 4.80105 10.5883 4.82558 10.5911 4.85118C10.6026 4.90452 10.6121 4.95785 10.6216 5.01332C10.5797 4.94718 10.5454 4.89385 10.5292 4.87465C10.434 4.74665 10.5311 4.79145 10.5768 4.77652ZM11.4273 5.24372C11.4064 5.24798 11.3864 5.26825 11.3797 5.30025C11.374 5.31945 11.3873 5.35358 11.3702 5.36425C11.3607 5.37492 11.3226 5.36852 11.3254 5.31092C11.3254 5.29172 11.313 5.27145 11.3064 5.26078C11.2988 5.25545 11.294 5.25332 11.2807 5.25332C11.2645 5.25332 11.2645 5.25865 11.2559 5.27465C11.2521 5.28958 11.2464 5.30452 11.2464 5.32265C11.2464 5.34398 11.2388 5.35038 11.2254 5.35465C11.2102 5.35465 11.213 5.35465 11.2007 5.34718C11.193 5.33652 11.1845 5.33438 11.1845 5.31945C11.1845 5.30345 11.1816 5.27892 11.1768 5.26825C11.1702 5.25758 11.1607 5.25438 11.1483 5.25012C11.0864 5.25012 11.0816 5.33118 11.0854 5.36105C11.0816 5.36745 11.0788 5.51252 11.1645 5.55305C11.2807 5.61385 11.4978 5.58505 11.4883 5.37812C11.4883 5.35998 11.4835 5.29812 11.4826 5.28212C11.4702 5.25012 11.4483 5.23945 11.4283 5.24265L11.4273 5.24372ZM7.55113 5.28638C7.5378 5.28638 7.51875 5.29065 7.49685 5.30558C7.39494 5.36745 7.35589 5.55092 7.42066 5.65758C7.4778 5.75358 7.57304 5.71838 7.58542 5.71838C7.68542 5.73332 7.74447 5.50932 7.74447 5.50932C7.74447 5.50932 7.74732 5.44532 7.63018 5.56478C7.57875 5.57545 7.57304 5.55412 7.5597 5.52212C7.54828 5.46558 7.55018 5.40478 7.57399 5.34825C7.58542 5.31305 7.57399 5.29065 7.55113 5.28852V5.28638ZM13.0302 5.31518C12.973 5.31198 12.913 5.35358 12.8968 5.43998C12.8968 5.49118 12.9178 5.51892 12.914 5.56585C12.9092 5.59252 12.8854 5.60852 12.8264 5.57865C12.8359 5.56798 12.7883 5.49545 12.7883 5.49545C12.7435 5.46345 12.6835 5.49545 12.6435 5.52532C12.6216 5.57012 12.6054 5.64585 12.6302 5.72265C12.6949 5.85812 12.9188 6.08852 13.0254 6.09065C13.0273 5.96905 13.0378 5.80692 13.0445 5.70665C13.0464 5.66825 13.054 5.62665 13.0873 5.61705C13.1197 5.60638 13.1759 5.65332 13.1759 5.61385C13.1702 5.53705 13.1568 5.42185 13.1188 5.36852C13.0978 5.33652 13.0645 5.31732 13.0311 5.31518H13.0302ZM8.49399 5.73865L8.49113 5.74185C8.49113 5.74185 8.48923 5.74185 8.48827 5.74398C8.47685 5.75465 8.46351 5.77598 8.43399 5.79732C8.38351 5.86132 8.37494 5.90718 8.37685 6.03518C8.38066 6.04905 8.47208 6.33705 8.55113 6.53865C8.60447 6.74878 8.65304 6.98985 8.6178 7.21705C8.49399 7.51785 8.24637 7.78772 8.00542 7.93492C7.88161 7.97758 7.77685 7.96265 7.74828 7.93278C7.6778 7.87945 7.67685 7.78345 7.68161 7.76852V7.76532C7.88351 7.60745 8.11494 7.47945 8.29589 7.05385C8.34923 6.89065 8.36637 6.79252 8.31304 6.54185C8.29208 6.44585 8.26542 6.37118 8.20828 6.30292H8.21018C8.24447 6.28478 8.33399 6.35838 8.34828 6.31358C8.32637 6.19198 8.25304 6.03092 8.17208 5.94772C8.0997 5.87305 8.0197 5.86558 7.95494 5.93278C7.88066 5.97972 7.86542 6.14612 7.90066 6.29118C7.94066 6.39998 8.04827 6.41918 8.12447 6.63998C8.12637 6.65492 8.15018 6.80532 8.11208 6.86718C8.0797 6.97598 7.67875 7.33012 7.65018 7.35145L7.64732 7.35358L7.64542 7.35572H7.64351H7.64161V7.35252C7.6397 7.34398 7.64161 7.32052 7.64161 7.28532C7.63875 7.21918 7.66351 7.06878 7.66066 7.04212V7.03998C7.52732 7.13598 7.48256 7.42932 7.45875 7.51678C7.12256 7.77598 6.74161 7.96905 6.52161 8.23145C6.40732 8.43412 7.31018 8.00318 7.41494 7.95092L7.4178 7.95412C7.43875 7.97865 7.4397 8.06398 7.4997 8.14185C7.59494 8.28372 7.79304 8.37118 7.98732 8.31678C8.31304 8.18558 8.50161 7.93705 8.69208 7.66078C8.71875 7.61812 8.76161 7.58185 8.80161 7.61598C8.93208 7.94452 9.31113 8.17918 9.7997 8.20265C9.91399 8.04905 9.8597 7.97332 9.81399 7.94132C9.7997 7.93065 9.57113 7.83038 9.53494 7.73118C9.51304 7.63945 9.56732 7.55732 9.67589 7.49652C9.99018 7.45385 10.2988 7.40585 10.5978 7.29812C10.6007 7.18505 10.6597 7.01758 10.6997 6.94398C10.7283 6.89385 10.7445 6.88852 10.7511 6.88212V6.87998H10.753V6.87678V6.86612L10.7016 6.83198L9.69875 6.82772C9.68637 6.82238 9.6778 6.81705 9.67208 6.81172L9.67018 6.80852C9.67018 6.80852 9.66827 6.80852 9.66827 6.80638C9.66827 6.80425 9.66637 6.80425 9.66637 6.80425V6.80532V6.80318V6.80105V6.79892L9.66827 6.79572C9.67304 6.78932 9.68542 6.78185 9.6997 6.77438C9.9397 6.73918 10.3645 6.66132 10.393 6.20372C10.3883 5.96478 10.3016 5.80905 10.0407 5.76638C9.84827 5.78238 9.71113 5.99038 9.73304 6.21865C9.72351 6.27945 9.75208 6.39998 9.69494 6.41385C9.32732 6.45225 8.92542 6.71038 8.91209 6.89598H8.91018H8.90827H8.90637C8.90637 6.89812 8.90447 6.89812 8.90351 6.89812H8.8997H8.8978H8.89399C8.87018 6.88958 8.8397 6.84478 8.84447 6.78398C8.83018 6.46398 8.73685 6.10132 8.59208 5.82398C8.5397 5.76532 8.51589 5.74185 8.50256 5.73865H8.4997H8.49685H8.49494H8.49399ZM9.45399 5.90718C9.43494 5.91145 9.41304 5.93065 9.40637 5.96265C9.40161 5.98398 9.41589 6.01812 9.39875 6.02878C9.38923 6.03945 9.35113 6.03305 9.35304 5.97545C9.35304 5.95732 9.34066 5.93705 9.33399 5.92532C9.32637 5.91998 9.32161 5.91892 9.30923 5.91892C9.29304 5.91892 9.29208 5.92318 9.28351 5.93812C9.27875 5.95305 9.27399 5.97012 9.27399 5.98612C9.27209 6.00745 9.26447 6.01385 9.25208 6.01598C9.23685 6.01598 9.24066 6.01918 9.22828 6.01065C9.22066 6.00212 9.21113 5.99785 9.21113 5.98292C9.21113 5.96692 9.20828 5.94025 9.20447 5.92958C9.1978 5.92212 9.18732 5.91892 9.17589 5.91465C9.11208 5.91465 9.10923 5.99465 9.11208 6.02558C9.10732 6.03092 9.10447 6.17492 9.19018 6.21545C9.30447 6.27732 9.58066 6.24105 9.51399 6.04158C9.51399 6.02345 9.50923 5.96158 9.50828 5.94558C9.49589 5.91358 9.47399 5.90292 9.45304 5.90612L9.45399 5.90718ZM13.3254 6.08532H13.3159C13.3159 6.08532 12.7807 6.51198 12.7683 6.52692C12.7149 6.58025 12.7416 6.76478 12.7683 6.74345C12.8064 6.75945 13.3445 6.35092 13.334 6.30292C13.3578 6.30505 13.3692 6.09278 13.3245 6.08425L13.3254 6.08532ZM9.9597 6.14932C9.98066 6.14612 10.0092 6.15465 10.0359 6.17065C10.0768 6.19838 10.1026 6.23678 10.0978 6.26665V6.27092C10.0959 6.27092 10.0959 6.27092 10.0959 6.27305V6.27518C10.0959 6.27518 10.094 6.27518 10.094 6.27732C10.094 6.27945 10.0911 6.28158 10.0892 6.28372C10.0702 6.30505 10.0264 6.30078 9.98447 6.27305C9.94447 6.24852 9.92066 6.20905 9.92256 6.18132V6.17812L9.92732 6.16745C9.92732 6.16745 9.92732 6.16532 9.92923 6.16425L9.93399 6.15785C9.94066 6.15252 9.94923 6.14718 9.9597 6.14718V6.14932ZM5.27589 6.25598C4.9997 6.26238 4.59304 6.66345 4.58256 6.88532L5.45875 6.41598C5.41113 6.33492 5.45589 6.26238 5.27589 6.25598ZM6.17399 6.39465C6.20066 6.39678 6.22923 6.41172 6.24447 6.45438C6.2578 6.49385 6.24447 6.53438 6.22828 6.55465V6.55785C6.21494 6.57492 6.17494 6.56852 6.14542 6.56852C6.11018 6.56638 6.09304 6.55998 6.07208 6.52798C6.06066 6.49065 6.09113 6.45545 6.10542 6.42985L6.11208 6.41918C6.12161 6.40852 6.14066 6.39998 6.1597 6.39785L6.17208 6.39572L6.17399 6.39465ZM13.2216 6.51945C13.1711 6.52585 13.1245 6.57812 13.1454 6.66132C13.1321 6.71038 13.2121 6.88212 13.234 6.97278C13.253 7.03678 13.2092 7.22132 13.2483 7.23945C13.2845 7.26078 13.3788 7.13278 13.3759 6.96852C13.3854 6.88318 13.3492 6.57385 13.2549 6.52265C13.2435 6.51945 13.2321 6.51838 13.2207 6.51945H13.2216ZM7.23685 6.82238C7.19304 6.82558 7.15399 6.85118 7.17208 6.92052C7.16923 6.96958 7.29589 7.03038 7.30256 7.14452C7.3197 7.19358 7.27399 7.34718 7.31208 7.35998C7.34637 7.37598 7.39399 7.25332 7.41208 7.14238C7.42161 7.08052 7.36828 6.86505 7.27875 6.82558C7.26447 6.82132 7.25018 6.82025 7.23589 6.82132L7.23685 6.82238ZM9.02732 7.09545H9.03875C9.15113 7.12958 9.31494 7.13385 9.4578 7.14878C9.57494 7.15945 9.63208 7.25972 9.52447 7.30345C9.41589 7.34398 9.31209 7.37812 9.31209 7.55092C9.32542 7.63625 9.32161 7.68105 9.31018 7.70025C9.31018 7.70345 9.30732 7.70558 9.30637 7.70665C9.30637 7.70665 9.30637 7.70878 9.30447 7.70878V7.71092H9.30161L9.29494 7.71412H9.29018C9.26447 7.71945 9.22732 7.69278 9.1997 7.67572C9.13304 7.62238 8.94732 7.49438 8.92066 7.21705C8.91685 7.15305 8.95875 7.09972 9.02542 7.09438L9.02732 7.09545ZM4.65208 7.30878C4.64542 7.30878 4.63304 7.33225 4.61399 7.35892C4.44828 7.65225 4.43304 8.09065 4.52447 8.22292C4.57208 8.28372 4.65208 8.31145 4.71113 8.29225C4.81589 8.24212 4.86066 8.00638 4.83494 7.92105C4.80161 7.86025 4.77399 7.85065 4.7397 7.90185C4.66637 8.06718 4.63494 7.95305 4.63018 7.85918C4.61875 7.68532 4.63399 7.52318 4.65113 7.39518C4.66066 7.33118 4.66066 7.30665 4.65113 7.30665L4.65208 7.30878ZM10.2683 7.69492C10.2559 7.69492 10.2435 7.69705 10.2302 7.70558C10.2273 7.70558 10.1121 7.79092 10.0749 7.85278C10.0521 7.87198 10.0559 7.88798 10.0616 7.92212C10.0788 7.96798 10.1092 7.95412 10.1454 7.93278C10.193 7.92425 10.2149 7.95945 10.2121 8.02238C10.1902 8.10238 10.2216 8.13118 10.2216 8.13652C10.2216 8.14078 10.2664 8.18452 10.3197 8.15038C10.4311 8.10238 10.5007 8.05438 10.6578 8.01705C10.6988 8.01705 10.6959 7.89332 10.6311 7.88905C10.5454 7.89332 10.4692 7.89972 10.3835 7.97438C10.3311 7.98718 10.3226 7.95092 10.3102 7.91892C10.2968 7.83998 10.3407 7.78452 10.3311 7.72478C10.333 7.72798 10.3045 7.69918 10.2673 7.69705L10.2683 7.69492ZM13.8645 7.84425L13.7883 7.85278C13.754 7.86025 13.7426 7.87732 13.7359 7.92425C13.7388 7.99358 13.7768 7.99038 13.8168 8.01812C13.8397 8.05012 13.8549 8.07998 13.8149 8.13545C13.7768 8.17278 13.7511 8.19412 13.713 8.23145C13.6968 8.26558 13.6845 8.31678 13.7397 8.33385C13.8397 8.36585 14.0711 8.19732 14.0711 8.19518C14.1092 8.16318 14.0959 8.10238 14.093 8.10238C14.0702 8.07465 14.0207 8.09172 13.9883 8.08638C13.9721 8.08638 13.9216 8.07785 13.9445 8.02665C13.9654 7.99465 13.973 7.97652 13.9873 7.93705C14.0016 7.89865 13.9873 7.87305 13.9321 7.85172C13.9035 7.84532 13.8845 7.84318 13.8626 7.84425H13.8645ZM12.4807 11.9616C12.7378 11.9754 12.9778 11.9648 13.233 11.9786C13.2749 12.017 13.2549 12.1066 13.2283 12.1216L13.2235 12.1237H13.2207H13.2168L13.0016 12.1173V12.1034C12.9807 12.0373 12.8378 12.0416 12.8035 12.0928V12.096C12.8016 12.096 12.8007 12.0992 12.8007 12.1002L12.7988 12.1056V12.1184C12.6845 12.1344 12.5845 12.1141 12.4721 12.1098C12.4388 12.064 12.4435 11.9818 12.4816 11.9605L12.4807 11.9616Z" fill="white"/>
</g>
</g>
<defs>
<clipPath id="clip0_604_7844">
<rect width="20" height="16" fill="white"/>
</clipPath>
</defs>
</svg>
