<svg width="12" height="6" viewBox="0 0 12 6" fill="none" xmlns="http://www.w3.org/2000/svg">
<path d="M0.972656 1.27148C0.820312 1.13086 0.744141 0.960938 0.744141 0.761719C0.744141 0.550781 0.820312 0.369141 0.972656 0.216797C1.11328 0.0761719 1.28906 0.00585938 1.5 0.00585938C1.71094 0.00585938 1.88672 0.0761719 2.02734 0.216797L6 4.18945L9.97266 0.216797C10.1133 0.0761719 10.2891 0.00585938 10.5 0.00585938C10.7109 0.00585938 10.8867 0.0761719 11.0273 0.216797C11.1797 0.369141 11.2559 0.550781 11.2559 0.761719C11.2559 0.960938 11.1797 1.13086 11.0273 1.27148L6.52734 5.77148C6.38672 5.92383 6.21094 6 6 6C5.78906 6 5.61328 5.92383 5.47266 5.77148L0.972656 1.27148Z" fill="#1A1A1A"/>
</svg>
