<svg width="12" height="7" viewBox="0 0 12 7" fill="none" xmlns="http://www.w3.org/2000/svg">
<path d="M0.972656 5.22852C0.820312 5.36914 0.744141 5.53906 0.744141 5.73828C0.744141 5.94922 0.820312 6.13086 0.972656 6.2832C1.11328 6.42383 1.28906 6.49414 1.5 6.49414C1.71094 6.49414 1.88672 6.42383 2.02734 6.2832L6 2.31055L9.97266 6.2832C10.1133 6.42383 10.2891 6.49414 10.5 6.49414C10.7109 6.49414 10.8867 6.42383 11.0273 6.2832C11.1797 6.13086 11.2559 5.94922 11.2559 5.73828C11.2559 5.53906 11.1797 5.36914 11.0273 5.22852L6.52734 0.728516C6.38672 0.576172 6.21094 0.5 6 0.5C5.78906 0.5 5.61328 0.576172 5.47266 0.728516L0.972656 5.22852Z" fill="#1A1A1A"/>
</svg>
