<svg xmlns="http://www.w3.org/2000/svg" width="36" height="37" viewBox="0 0 36 37" fill="none">
<rect y="0.5" width="36" height="36" rx="18" fill="#E2E7EC"/>
<path fill-rule="evenodd" clip-rule="evenodd" d="M21.363 12.4854C21.3511 12.7688 21.3385 13.0655 21.3385 13.1903C21.3475 13.1908 21.3643 13.1892 21.3871 13.1869C21.58 13.1677 22.2007 13.1061 22.1246 13.9489C21.9557 15.828 21.2709 15.5947 21.1727 15.5612C21.1666 15.5591 21.1628 15.5578 21.1614 15.5578C20.7844 16.7691 20.1983 17.5391 19.6259 18.0264C18.7409 18.7803 17.8835 18.863 17.8697 18.863C17.8444 18.8653 17.8191 18.8653 17.7961 18.8653C17.7835 18.8653 17.7715 18.8647 17.7594 18.8642C17.7473 18.8636 17.7352 18.863 17.7226 18.863C17.7065 18.863 16.8445 18.7803 15.9549 18.0172C15.3848 17.5276 14.8033 16.7599 14.4286 15.5578C14.4272 15.5578 14.4234 15.5591 14.4173 15.5612C14.3191 15.5946 13.6343 15.828 13.4654 13.9488C13.3894 13.1083 14.0098 13.17 14.2029 13.1892C14.2257 13.1914 14.2426 13.1931 14.2516 13.1926C14.2516 13.0663 14.239 12.7686 14.227 12.4849C14.216 12.2267 14.2056 11.9801 14.2056 11.8848C14.2056 9.94717 15.7779 8.375 17.7157 8.375H17.7226H17.7295H17.7962H17.8628H17.8697H17.8766C19.8144 8.375 21.3868 9.94487 21.3845 11.8825C21.3845 11.978 21.374 12.2262 21.363 12.4854ZM26.0088 24.5883C26.0341 24.6596 26.0525 24.7331 26.064 24.8113C26.0732 24.8779 26.0801 24.9492 26.0801 25.0181C26.0801 25.7674 25.4732 26.3742 24.7238 26.3742H23.4297H17.8714H17.7979H17.7243C16.4891 26.3757 15.254 26.3752 14.0188 26.3747C13.4012 26.3745 12.7836 26.3742 12.166 26.3742H10.8719C10.1225 26.3742 9.51562 25.7674 9.51562 25.0181C9.51562 24.9491 9.52022 24.8779 9.53172 24.8112C9.54321 24.7354 9.5616 24.6596 9.58688 24.5883C9.76848 23.8872 10.1845 22.6162 10.373 22.0462C10.3937 21.9473 10.4259 21.8508 10.4673 21.7611V21.7588C10.5822 21.5106 10.7707 21.3038 11.0029 21.1635C11.0167 21.152 11.0466 21.136 11.0856 21.1176C11.1017 21.1084 11.1178 21.1015 11.1339 21.0946C11.5914 20.8808 12.9959 20.3177 12.9959 20.3177C13.6993 20.0143 14.4257 19.7546 15.1681 19.4902C15.2992 20.0419 16.5588 23.7057 16.7611 24.2136L16.9197 20.8119C16.8795 20.7506 16.8486 20.6827 16.8179 20.6153C16.8082 20.5941 16.7986 20.573 16.7887 20.5521L16.2738 19.5362C16.6439 19.8327 17.1864 20.0189 17.791 20.0189C18.4093 20.0189 18.9633 19.8235 19.3334 19.5155L18.8093 20.5522C18.7994 20.5731 18.7897 20.5943 18.7801 20.6155C18.7494 20.6829 18.7185 20.7507 18.6783 20.8119L18.8369 24.2137C19.0368 23.7057 20.2942 20.0442 20.4275 19.4926C21.17 19.7569 21.8964 20.0166 22.5998 20.32C22.5998 20.32 24.0044 20.8809 24.4618 21.0969C24.4699 21.1004 24.478 21.1045 24.4861 21.1085C24.4941 21.1125 24.5021 21.1165 24.5101 21.1199C24.5492 21.1406 24.579 21.1567 24.5928 21.1659C24.825 21.3038 25.0135 21.5107 25.1284 21.7589V21.7612C25.1698 21.8508 25.202 21.9474 25.2227 22.0462C25.4112 22.6162 25.8272 23.8896 26.0088 24.5883Z" fill="#CAD1D9"/>
</svg>