<svg width="20" height="20" viewBox="0 0 20 20" fill="none" xmlns="http://www.w3.org/2000/svg">
<g clip-path="url(#clip0_889_30767)">
<path d="M11.0238 0.767976C10.8813 0.650476 10.6925 0.601726 10.51 0.635476L0.51 2.51048C0.21375 2.56548 0 2.82298 0 3.12423V16.8742C0 17.1742 0.21375 17.433 0.51 17.488L10.51 19.363C10.5475 19.3705 10.5875 19.3742 10.625 19.3742C10.7688 19.3742 10.9113 19.3242 11.0238 19.2305C11.1675 19.1117 11.25 18.9342 11.25 18.7492V1.24923C11.25 1.06298 11.1675 0.886726 11.0238 0.767976ZM10 17.9955L1.25 16.3555V3.64298L10 2.00298V17.9955Z" fill="#109BDE"/>
<path d="M19.375 3.125H10.625C10.28 3.125 10 3.405 10 3.75C10 4.095 10.28 4.375 10.625 4.375H18.75V15.625H10.625C10.28 15.625 10 15.905 10 16.25C10 16.595 10.28 16.875 10.625 16.875H19.375C19.72 16.875 20 16.595 20 16.25V3.75C20 3.405 19.72 3.125 19.375 3.125Z" fill="#109BDE"/>
<path d="M13.125 5.625H10.625C10.28 5.625 10 5.905 10 6.25C10 6.595 10.28 6.875 10.625 6.875H13.125C13.47 6.875 13.75 6.595 13.75 6.25C13.75 5.905 13.47 5.625 13.125 5.625Z" fill="#109BDE"/>
<path d="M13.125 8.125H10.625C10.28 8.125 10 8.405 10 8.75C10 9.095 10.28 9.375 10.625 9.375H13.125C13.47 9.375 13.75 9.095 13.75 8.75C13.75 8.405 13.47 8.125 13.125 8.125Z" fill="#109BDE"/>
<path d="M13.125 10.625H10.625C10.28 10.625 10 10.905 10 11.25C10 11.595 10.28 11.875 10.625 11.875H13.125C13.47 11.875 13.75 11.595 13.75 11.25C13.75 10.905 13.47 10.625 13.125 10.625Z" fill="#109BDE"/>
<path d="M13.125 13.125H10.625C10.28 13.125 10 13.405 10 13.75C10 14.095 10.28 14.375 10.625 14.375H13.125C13.47 14.375 13.75 14.095 13.75 13.75C13.75 13.405 13.47 13.125 13.125 13.125Z" fill="#109BDE"/>
<path d="M16.875 5.625H15.625C15.28 5.625 15 5.905 15 6.25C15 6.595 15.28 6.875 15.625 6.875H16.875C17.22 6.875 17.5 6.595 17.5 6.25C17.5 5.905 17.22 5.625 16.875 5.625Z" fill="#109BDE"/>
<path d="M16.875 8.125H15.625C15.28 8.125 15 8.405 15 8.75C15 9.095 15.28 9.375 15.625 9.375H16.875C17.22 9.375 17.5 9.095 17.5 8.75C17.5 8.405 17.22 8.125 16.875 8.125Z" fill="#109BDE"/>
<path d="M16.875 10.625H15.625C15.28 10.625 15 10.905 15 11.25C15 11.595 15.28 11.875 15.625 11.875H16.875C17.22 11.875 17.5 11.595 17.5 11.25C17.5 10.905 17.22 10.625 16.875 10.625Z" fill="#109BDE"/>
<path d="M16.875 13.125H15.625C15.28 13.125 15 13.405 15 13.75C15 14.095 15.28 14.375 15.625 14.375H16.875C17.22 14.375 17.5 14.095 17.5 13.75C17.5 13.405 17.22 13.125 16.875 13.125Z" fill="#109BDE"/>
<path d="M8.59607 12.089L4.22108 7.089C3.99108 6.82775 3.59733 6.80275 3.33858 7.03025C3.07858 7.25775 3.05233 7.65275 3.27983 7.9115L7.65483 12.9115C7.77857 13.0528 7.95108 13.1253 8.12483 13.1253C8.27107 13.1253 8.41732 13.074 8.53732 12.9703C8.79732 12.7428 8.82357 12.349 8.59607 12.089Z" fill="#109BDE"/>
<path d="M8.50877 6.38242C8.23627 6.16867 7.84377 6.21992 7.63127 6.49117L3.25627 12.1162C3.04502 12.3887 3.09377 12.7824 3.36627 12.9937C3.48127 13.0824 3.61627 13.1249 3.75002 13.1249C3.93502 13.1249 4.12002 13.0424 4.24252 12.8849L8.61752 7.25992C8.83002 6.98617 8.78127 6.59367 8.50877 6.38242Z" fill="#109BDE"/>
</g>
<defs>
<clipPath id="clip0_889_30767">
<rect width="20" height="20" fill="white"/>
</clipPath>
</defs>
</svg>
