<svg width="20" height="20" viewBox="0 0 20 20" fill="none" xmlns="http://www.w3.org/2000/svg">
<g clip-path="url(#clip0_421_260580)">
<path d="M3.33203 5.83464C3.33203 5.39261 3.50763 4.96868 3.82019 4.65612C4.13275 4.34356 4.55667 4.16797 4.9987 4.16797L14.9987 4.16797C15.4407 4.16797 15.8646 4.34356 16.1772 4.65612C16.4898 4.96868 16.6654 5.39261 16.6654 5.83464V15.8346C16.6654 16.2767 16.4898 16.7006 16.1772 17.0131C15.8646 17.3257 15.4407 17.5013 14.9987 17.5013H4.9987C4.55667 17.5013 4.13275 17.3257 3.82019 17.0131C3.50763 16.7006 3.33203 16.2767 3.33203 15.8346L3.33203 5.83464Z" stroke="#109BDE" stroke-width="1.66667" stroke-linecap="round" stroke-linejoin="round"/>
<path d="M13.332 2.5V5.83333" stroke="#109BDE" stroke-width="1.66667" stroke-linecap="round" stroke-linejoin="round"/>
<path d="M6.66797 2.5L6.66797 5.83333" stroke="#109BDE" stroke-width="1.66667" stroke-linecap="round" stroke-linejoin="round"/>
<path d="M3.33203 9.16797L16.6654 9.16797" stroke="#109BDE" stroke-width="1.66667" stroke-linecap="round" stroke-linejoin="round"/>
<path d="M5.83203 11.668H5.84286" stroke="#109BDE" stroke-width="1.66667" stroke-linecap="round" stroke-linejoin="round"/>
<path d="M8.34375 11.668H8.34875" stroke="#109BDE" stroke-width="1.66667" stroke-linecap="round" stroke-linejoin="round"/>
<path d="M10.8438 11.668H10.8488" stroke="#109BDE" stroke-width="1.66667" stroke-linecap="round" stroke-linejoin="round"/>
<path d="M13.3477 11.668H13.3527" stroke="#109BDE" stroke-width="1.66667" stroke-linecap="round" stroke-linejoin="round"/>
<path d="M10.8477 14.168H10.8527" stroke="#109BDE" stroke-width="1.66667" stroke-linecap="round" stroke-linejoin="round"/>
<path d="M5.84375 14.168H5.84875" stroke="#109BDE" stroke-width="1.66667" stroke-linecap="round" stroke-linejoin="round"/>
<path d="M8.34375 14.168H8.34875" stroke="#109BDE" stroke-width="1.66667" stroke-linecap="round" stroke-linejoin="round"/>
</g>
<defs>
<clipPath id="clip0_421_260580">
<rect width="20" height="20" fill="white"/>
</clipPath>
</defs>
</svg>
