<svg width="19" height="22" viewBox="0 0 19 22" fill="none" xmlns="http://www.w3.org/2000/svg">
<path fill-rule="evenodd" clip-rule="evenodd" d="M16.9231 11.2514C20.6656 4.97204 14.0731 -2.53503 8.57037 1.73018C8.48739 1.79333 8.41629 1.87473 8.36125 1.96959C8.30621 2.06446 8.26833 2.17089 8.24983 2.28266C8.23133 2.39442 8.23258 2.50927 8.2535 2.62048C8.27443 2.73169 8.31461 2.83702 8.37169 2.93031C8.42878 3.02359 8.50162 3.10295 8.58595 3.16374C8.67028 3.22454 8.7644 3.26554 8.86281 3.28434C8.96122 3.30315 9.06192 3.29938 9.15904 3.27327C9.25615 3.24715 9.34771 3.19921 9.42837 3.13225C13.5339 -0.0814052 18.5109 5.59784 15.6931 10.2743C15.6331 10.3661 15.5899 10.4708 15.566 10.5821C15.5422 10.6933 15.5382 10.8089 15.5543 10.922C15.5704 11.035 15.6063 11.1432 15.6598 11.2402C15.7133 11.3371 15.7834 11.4208 15.8658 11.4863C15.9482 11.5518 16.0414 11.5977 16.1397 11.6214C16.238 11.645 16.3395 11.6459 16.4381 11.624C16.5367 11.6021 16.6304 11.5579 16.7138 11.4939C16.7971 11.4299 16.8683 11.3474 16.9231 11.2514ZM1.33813 2.09608C-3.76262 8.83116 7.22337 21.2532 13.3216 21.0181C13.9378 21.0234 14.5488 20.8881 15.1184 20.6199C15.688 20.3518 16.2047 19.9564 16.6381 19.457L17.3214 18.5593C17.7542 18.0614 17.997 17.3888 17.997 16.6879C17.997 15.987 17.7542 15.3144 17.3214 14.8165C17.2976 14.7906 17.2726 14.7663 17.2464 14.7438L15.4914 13.2049C15.0524 12.748 14.4792 12.495 13.8847 12.496C13.2903 12.4969 12.7177 12.7517 12.2799 13.2101L11.1819 14.2061C10.0151 13.6551 8.95529 12.8469 8.06324 11.8278C7.17118 10.8088 6.46446 9.59894 5.98362 8.26777L6.85212 7.023C7.26441 6.53033 7.49505 5.87605 7.49645 5.19517C7.49784 4.5143 7.26989 3.85879 6.85962 3.36393L5.50962 1.36427C5.4898 1.33418 5.46825 1.30562 5.44512 1.27878C5.01721 0.787659 4.43685 0.50836 3.82964 0.50132C3.22244 0.49428 2.63722 0.760065 2.20063 1.24116L1.33813 2.09608ZM3.48925 2.28074C3.58885 2.2338 3.69559 2.20969 3.80337 2.20979V2.21406C4.00702 2.21359 4.20352 2.29953 4.35462 2.45515L5.69187 4.44199C5.71143 4.47231 5.733 4.50089 5.75637 4.52748C5.90957 4.70361 5.99553 4.94159 5.99553 5.18962C5.99553 5.43765 5.90957 5.67563 5.75637 5.85176C5.73625 5.87425 5.71746 5.89824 5.70012 5.92357L4.53462 7.5958C4.45141 7.71438 4.3974 7.85608 4.37816 8.00633C4.35891 8.15659 4.37512 8.30997 4.42512 8.45072C4.9899 10.1735 5.87291 11.7377 7.01435 13.0375C8.15578 14.3373 9.52896 15.3423 11.0409 15.9843C11.1626 16.0372 11.2943 16.053 11.4231 16.0303C11.5519 16.0075 11.6732 15.9468 11.7751 15.8543L13.2436 14.5207C13.2657 14.5004 13.2867 14.4787 13.3066 14.4557C13.4631 14.2857 13.671 14.1909 13.8871 14.1909C14.1033 14.1909 14.3111 14.2857 14.4676 14.4557C14.4908 14.4828 14.5159 14.5077 14.5426 14.5301L16.2879 16.0578C16.3608 16.1499 16.4171 16.2575 16.4534 16.3745C16.4897 16.4915 16.5053 16.6155 16.4994 16.7394C16.4935 16.8633 16.4661 16.9846 16.4188 17.0964C16.3716 17.2081 16.3054 17.3082 16.2241 17.3906L15.5401 18.2892C11.0829 23.0896 -1.87487 9.1415 2.35963 3.33828L3.22287 2.48336C3.29913 2.39654 3.38964 2.32768 3.48925 2.28074ZM14.2492 9.05259C14.2492 9.27928 14.1702 9.49669 14.0296 9.65702L14.0304 9.6536C13.8897 9.81387 13.699 9.90391 13.5001 9.90391C13.3012 9.90391 13.1105 9.81387 12.9699 9.6536L11.4699 7.94375C11.3292 7.78346 11.2502 7.56604 11.2501 7.33932V4.77455C11.2501 4.54781 11.3291 4.33036 11.4698 4.17003C11.6104 4.0097 11.8012 3.91963 12.0001 3.91963C12.199 3.91963 12.3898 4.0097 12.5304 4.17003C12.6711 4.33036 12.7501 4.54781 12.7501 4.77455V6.9888L14.0296 8.44816C14.1702 8.60848 14.2492 8.82589 14.2492 9.05259Z" fill="#151515"/>
</svg>
