<svg  viewBox="0 0 60 30" fill="none" xmlns="http://www.w3.org/2000/svg">
<path d="M41.6338 22.959C41.6338 24.306 40.5317 25.408 39.1847 25.408H18.3675C17.0205 25.408 15.9185 24.306 15.9185 22.959C15.9185 20.1819 16.8026 18.061 19.5921 18.061H37.9602C40.0517 18.061 41.6338 19.3859 41.6338 22.959Z" fill="white"/>
<path d="M37.3478 16.8365C37.3478 16.8365 44.0827 13.9944 44.0827 8.30906C44.0827 6.03516 44.0827 3.19187 44.0827 3.19187L37.3478 0.917969L30.6128 3.19187V8.30906C30.6128 13.9944 37.3478 16.8365 37.3478 16.8365Z" fill="white"/>
<path d="M37.348 14.1538C37.348 14.1538 41.8128 12.2697 41.8128 8.50077C41.8128 6.99336 41.8128 5.10849 41.8128 5.10849L37.348 3.60107L32.8833 5.10849V8.50077C32.8833 12.2697 37.348 14.1538 37.348 14.1538Z" fill="#CAD1D9"/>
<path fill-rule="evenodd" clip-rule="evenodd" d="M36.9903 17.6827C37.1054 17.7305 37.2266 17.755 37.3479 17.755C37.4691 17.755 37.5903 17.7305 37.7042 17.6827C38.0018 17.5578 45 14.5321 45 8.30917V3.19197C45 2.79891 44.749 2.4487 44.3755 2.32257L37.6405 0.048674C37.4507 -0.0162247 37.2438 -0.0162247 37.054 0.048674L30.319 2.32257C29.9455 2.4487 29.6945 2.79768 29.6945 3.19197V8.30917C29.6945 14.5321 36.6915 17.5566 36.9903 17.6827ZM31.5313 8.30917V3.85198L37.3479 1.88788L43.1644 3.85198V8.30917C43.1644 12.5986 38.663 15.1639 37.3466 15.8227C36.029 15.1676 31.5313 12.6145 31.5313 8.30917ZM18.6736 26.3265H18.3675C17.8166 26.3265 17.2962 26.1937 16.8368 25.9584V27.2449C16.8368 27.7518 17.2483 28.1632 17.7552 28.1632C18.2622 28.1632 18.6736 27.7518 18.6736 27.2449V26.3265ZM20.5104 26.3265H37.0417V27.2449C37.0417 28.7645 38.2773 30 39.7969 30C41.3166 30 42.5521 28.7645 42.5521 27.2449V23.0473C42.5529 23.0176 42.5534 22.9878 42.5534 22.9579V21.7334C42.5534 20.5811 42.1223 19.4803 41.3411 18.6366L39.9929 19.8844C40.4582 20.3889 40.7153 21.0452 40.7153 21.7346V22.9591C40.7153 23.8028 40.0284 24.4897 39.1847 24.4897H18.3675C17.5238 24.4897 16.8368 23.8028 16.8368 22.9591V21.7346C16.8368 20.215 18.0724 18.9795 19.592 18.9795H32.266V17.1427H19.7456L21.6505 12.5766C21.8856 12.0121 22.4513 11.6337 23.0562 11.6337H27.2074V9.79694H23.0562C21.6995 9.79694 20.4823 10.6088 19.9557 11.8676L17.5562 17.619C16.0426 18.3706 15 19.933 15 21.7346V22.9591V27.2449C15 28.7645 16.2356 30 17.7552 30C19.2749 30 20.5104 28.7645 20.5104 27.2449V26.3265ZM38.8785 27.2449V26.3265H39.1847C39.7356 26.3265 40.2559 26.1937 40.7153 25.9584V27.2449C40.7153 27.7518 40.3039 28.1632 39.7969 28.1632C39.29 28.1632 38.8785 27.7518 38.8785 27.2449ZM19.592 20.8162H23.2656V22.653H19.592V20.8162ZM37.9601 20.8162H34.2865V22.653H37.9601V20.8162Z" fill="#798595"/>
</svg>
