<svg width="31" height="32" viewBox="0 0 31 32" fill="none" xmlns="http://www.w3.org/2000/svg">
    <rect x="0.25" y="0.75" width="30.5" height="30.5" rx="15.25" fill="#E7F5FC" />
    <rect x="0.25" y="0.75" width="30.5" height="30.5" rx="15.25" stroke="#109BDE" stroke-width="0.5" />
    <path
        d="M19.2514 17.3966V18.732C19.2514 19.6042 18.541 20.3151 17.6685 20.3153C17.6685 20.3153 17.6684 20.3153 17.6684 20.3153H12.8259C11.9534 20.3153 11.243 19.6043 11.243 18.732V17.3966C11.243 16.5241 11.9532 15.8133 12.8259 15.8133H17.6685C18.541 15.8133 19.2514 16.5243 19.2514 17.3966ZM11.8688 17.3966V18.732C11.8688 19.2601 12.2979 19.6893 12.8259 19.6893H17.6685C18.1963 19.6893 18.6256 19.2602 18.6256 18.732V17.3966C18.6256 16.8684 18.1965 16.4393 17.6685 16.4393H12.8259C12.2979 16.4393 11.8688 16.8684 11.8688 17.3966Z"
        fill="#109BDE" stroke="#109BDE" stroke-width="0.4" />
    <path
        d="M13.6068 17.7513H14.1537C14.3266 17.7513 14.4667 17.8913 14.4667 18.0643C14.4667 18.2373 14.3266 18.3773 14.1537 18.3773H13.6068C13.4338 18.3773 13.2938 18.2373 13.2938 18.0643C13.2938 17.8913 13.4338 17.7513 13.6068 17.7513Z"
        fill="#109BDE" stroke="#109BDE" stroke-width="0.4" />
    <path
        d="M16.3411 17.7513H16.8881C17.061 17.7513 17.2011 17.8913 17.2011 18.0643C17.2011 18.2373 17.061 18.3773 16.8881 18.3773H16.3411C16.1682 18.3773 16.0281 18.2373 16.0281 18.0643C16.0281 17.8913 16.1682 17.7513 16.3411 17.7513Z"
        fill="#109BDE" stroke="#109BDE" stroke-width="0.4" />
    <path
        d="M16.0837 12.3334L16.3234 12.3453L16.2919 12.1074C16.2704 11.9454 16.2559 11.7858 16.2559 11.6248C16.2559 9.6144 17.8922 7.97783 19.9029 7.97783C21.9138 7.97783 23.55 9.61441 23.55 11.6248C23.55 13.3373 22.3606 14.7758 20.764 15.1647L20.5294 15.2218L20.6292 15.4417C20.7935 15.8037 20.9142 16.1829 20.9927 16.5723L21.025 16.7328H21.1888H21.2735C22.2459 16.7328 23.0372 17.5238 23.0372 18.4963V20.2905C23.0372 20.7512 22.8586 21.1925 22.5312 21.5344C22.1739 21.8761 21.7324 22.054 21.2735 22.054H21.0052H20.8759L20.8228 22.1718C20.3322 23.2609 19.2363 24.0216 17.9641 24.0216H12.5272C11.2552 24.0216 10.1591 23.2607 9.66847 22.1718L9.61538 22.054H9.48613H9.21369C8.24129 22.054 7.45 21.263 7.45 20.2905V18.4963C7.45 18.0375 7.62801 17.5961 7.95447 17.2531C8.31291 16.9105 8.7545 16.7328 9.2135 16.7328H9.29938H9.46338L9.4955 16.5719C9.97837 14.1544 12.1202 12.3267 14.6816 12.3267H15.8201C15.9088 12.3267 15.9964 12.3291 16.0837 12.3334ZM8.40059 17.6914L8.40043 17.6913L8.39384 17.6982C8.19466 17.9074 8.07581 18.197 8.07581 18.4963V20.2905C8.07581 20.9164 8.58371 21.4253 9.20895 21.4278L9.43053 21.4287L9.40878 21.2081C9.39867 21.1056 9.39306 21.0025 9.39306 20.8985V17.6056L9.39348 17.5905L9.39352 17.5896C9.39378 17.5826 9.39419 17.5719 9.39419 17.5605V17.3562L9.19 17.3605C8.89687 17.3666 8.61741 17.4844 8.40059 17.6914ZM20.1035 14.6257L20.1386 14.6354L20.1748 14.6322C21.7136 14.494 22.924 13.1995 22.924 11.6248C22.924 9.95842 21.5688 8.60364 19.9029 8.60364C18.2369 8.60364 16.882 9.95843 16.8818 11.6246V11.6246C16.8818 13.2909 18.2369 14.6457 19.9029 14.6457C19.9091 14.6457 19.9145 14.6455 19.9185 14.6453L19.9264 14.6448H19.9554L19.9865 14.6343C20.0398 14.6163 20.0762 14.6181 20.1035 14.6257ZM16.5754 13.1095L16.5299 13.008L16.4196 12.9931C16.2237 12.9667 16.0255 12.9525 15.8201 12.9525H14.6816C12.1109 12.9525 10.0191 15.0393 10.0191 17.6056V20.8985C10.0191 22.2762 11.1449 23.3958 12.5272 23.3958H17.9639C18.7935 23.3958 19.5278 22.9908 19.9839 22.3729L20.2192 22.0541H19.823H16.013C15.8403 22.0541 15.7002 21.9142 15.7002 21.7411C15.7002 21.5681 15.8402 21.4281 16.013 21.4281H20.2454H20.4184L20.4433 21.257C20.46 21.1431 20.4721 21.0234 20.4721 20.8985V17.6056C20.4721 16.8195 20.2703 16.051 19.8889 15.365L19.8349 15.2678L19.7238 15.2624C18.32 15.1938 17.1225 14.33 16.5754 13.1095ZM22.0858 21.0953L22.086 21.0955L22.0923 21.0889C22.2925 20.8796 22.4112 20.5907 22.4112 20.2905V18.4963C22.4112 17.8777 21.9151 17.3761 21.3013 17.3609L21.0938 17.3557L21.0964 17.5633C21.0965 17.5747 21.0971 17.5856 21.0975 17.5921L21.0976 17.5939L21.0981 17.6056V20.8985C21.0981 21.0023 21.0925 21.1054 21.0823 21.2077L21.0604 21.4294L21.2832 21.4274C21.5813 21.4246 21.8659 21.3053 22.0858 21.0953Z"
        fill="#109BDE" stroke="#109BDE" stroke-width="0.4" />
    <path
        d="M20.1461 12.765C20.1461 12.9381 20.0061 13.078 19.8333 13.078C19.6604 13.078 19.5203 12.9381 19.5203 12.765V11.8372C19.5203 11.6643 19.6605 11.5242 19.8333 11.5242C20.006 11.5242 20.1461 11.6642 20.1461 11.8372V12.765Z"
        fill="#109BDE" stroke="#109BDE" stroke-width="0.4" />
    <path
        d="M20.1404 10.3963C20.1404 10.567 20.002 10.7053 19.8313 10.7053C19.6606 10.7053 19.5223 10.567 19.5223 10.3963C19.5223 10.2256 19.6606 10.0872 19.8313 10.0872C20.002 10.0872 20.1404 10.2256 20.1404 10.3963Z"
        fill="#109BDE" stroke="#109BDE" stroke-width="0.4" />
</svg>