<svg width="24" height="24" viewBox="0 0 24 24" fill="none" xmlns="http://www.w3.org/2000/svg">
<path d="M12.002 4.65234C7.22203 4.65234 3.33203 8.54234 3.33203 13.3223C3.33203 18.1023 7.22203 22.0023 12.002 22.0023C16.782 22.0023 20.672 18.1123 20.672 13.3323C20.672 8.55234 16.782 4.65234 12.002 4.65234ZM12.752 13.0023C12.752 13.4123 12.412 13.7523 12.002 13.7523C11.592 13.7523 11.252 13.4123 11.252 13.0023L11.252 8.00234C11.252 7.59234 11.592 7.25234 12.002 7.25234C12.412 7.25234 12.752 7.59234 12.752 8.00234L12.752 13.0023Z" fill="#EF8F4C"/>
<path d="M14.8906 3.45L9.11062 3.45C8.71062 3.45 8.39062 3.13 8.39062 2.73C8.39062 2.33 8.71062 2 9.11062 2L14.8906 2C15.2906 2 15.6106 2.32 15.6106 2.72C15.6106 3.12 15.2906 3.45 14.8906 3.45Z" fill="#EF8F4C"/>
</svg>
