<svg xmlns="http://www.w3.org/2000/svg" width="152" height="100" viewBox="0 0 152 100" fill="none">
  <g clip-path="url(#clip0_779_299911)">
    <mask id="mask0_779_299911" style="mask-type:luminance" maskUnits="userSpaceOnUse" x="-2" y="-1" width="157" height="104">
      <path d="M154.158 -0.919922H-1.08594V102.576H154.158V-0.919922Z" fill="white"/>
    </mask>
    <g mask="url(#mask0_779_299911)">
      <path d="M16.6703 70.757C16.6703 67.2474 13.8252 64.4023 10.3156 64.4023C6.80602 64.4023 3.96094 67.2474 3.96094 70.757V78.1466C3.96094 81.6562 6.80602 84.5013 10.3156 84.5013C13.8252 84.5013 16.6703 81.6562 16.6703 78.1466V70.757Z" fill="#149ADE"/>
      <path d="M68.4713 71.3392C68.4713 67.5081 65.3656 64.4023 61.5345 64.4023C57.7034 64.4023 54.5977 67.5081 54.5977 71.3392V77.5645C54.5977 81.3956 57.7034 84.5013 61.5345 84.5013C65.3656 84.5013 68.4713 81.3956 68.4713 77.5645V71.3392Z" fill="#149ADE"/>
      <path fill-rule="evenodd" clip-rule="evenodd" d="M14.9382 53.5663L18.3019 41.3123C18.7784 39.5762 20.3568 38.373 22.1571 38.373H50.2796C52.0799 38.373 53.6582 39.5762 54.1348 41.3123L57.4984 53.5456C59.263 53.775 61.0285 54.0337 62.7948 54.3218C64.2311 54.5589 65.2569 55.8415 65.1726 57.2947C64.9553 61.1551 64.5413 68.5163 64.2903 72.9589C64.1776 75.019 62.4725 76.6309 60.4092 76.6278H12.0429C9.97965 76.6309 8.27462 75.019 8.16183 72.9589C7.90309 68.5189 7.49686 61.1629 7.28211 57.3025C7.19833 55.8467 8.22834 54.5631 9.66769 54.3296C11.4237 54.0484 13.1805 53.794 14.9382 53.5663Z" fill="white"/>
      <mask id="mask1_779_299911" style="mask-type:luminance" maskUnits="userSpaceOnUse" x="7" y="38" width="59" height="39">
        <path d="M14.9382 53.5663L18.3019 41.3123C18.7784 39.5762 20.3568 38.373 22.1571 38.373H50.2796C52.0799 38.373 53.6582 39.5762 54.1348 41.3123L57.4984 53.5456C59.263 53.775 61.0285 54.0337 62.7948 54.3218C64.2311 54.5589 65.2569 55.8415 65.1726 57.2947C64.9553 61.1551 64.5413 68.5163 64.2903 72.9589C64.1776 75.019 62.4725 76.6309 60.4092 76.6278H12.0429C9.97965 76.6309 8.27462 75.019 8.16183 72.9589C7.90308 68.5189 7.49686 61.1629 7.28211 57.3025C7.19833 55.8467 8.22834 54.5631 9.66769 54.3296C11.4237 54.0484 13.1805 53.794 14.9382 53.5663Z" fill="white"/>
      </mask>
      <g mask="url(#mask1_779_299911)">
        <path fill-rule="evenodd" clip-rule="evenodd" d="M19.3901 61.8721C19.3901 59.4585 17.4336 57.502 15.02 57.502H7.25781V64.4026H18.3836C18.9309 64.4026 19.3746 63.9589 19.3746 63.4116L19.3901 61.8721Z" fill="#149ADE"/>
        <path fill-rule="evenodd" clip-rule="evenodd" d="M48.1115 69.3592C48.1115 68.5675 47.4698 67.9258 46.6781 67.9258H25.7615C24.9699 67.9258 24.3281 68.5675 24.3281 69.3592V76.221H48.1089L48.1115 69.3592Z" fill="#76B740"/>
        <path fill-rule="evenodd" clip-rule="evenodd" d="M53.2812 61.8721C53.2812 59.4585 55.2378 57.502 57.6514 57.502H65.4136V64.4026H54.2877C53.7404 64.4026 53.2968 63.9589 53.2968 63.4116L53.2812 61.8721Z" fill="#149ADE"/>
      </g>
      <path fill-rule="evenodd" clip-rule="evenodd" d="M14.9382 53.5663L18.3019 41.3123C18.7784 39.5762 20.3568 38.373 22.1571 38.373H50.2796C52.0799 38.373 53.6582 39.5762 54.1348 41.3123L57.4984 53.5456C59.263 53.775 61.0285 54.0337 62.7948 54.3218C64.2311 54.5589 65.2569 55.8415 65.1726 57.2947C64.9553 61.1551 64.5413 68.5163 64.2903 72.9589C64.1775 75.019 62.4725 76.6309 60.4092 76.6278H12.0429C9.97965 76.6309 8.27462 75.019 8.16183 72.9589C7.90309 68.5189 7.49686 61.1629 7.28211 57.3025C7.19833 55.8467 8.22834 54.5631 9.66769 54.3296C11.4237 54.0484 13.1805 53.794 14.9382 53.5663Z" stroke="#565271" stroke-width="0.8" stroke-linejoin="round"/>
      <path d="M64.4928 47.4231L60.5625 39.7541L69.0518 44.1061C69.2774 44.2215 69.5423 44.232 69.7764 44.1349C70.0105 44.0377 70.1902 43.8428 70.2678 43.6015L73.1942 31.2363L74.5164 36.8225" stroke="#565271" stroke-width="0.8" stroke-linejoin="round"/>
      <path d="M75.5078 41.0547L76.1107 43.6033C76.1884 43.8446 76.368 44.0395 76.6021 44.1367C76.8362 44.2338 77.1011 44.2233 77.3268 44.1079L85.816 39.7559L81.8858 47.4249" stroke="#565271" stroke-width="0.8" stroke-linejoin="round"/>
      <path fill-rule="evenodd" clip-rule="evenodd" d="M53.0184 51.9085C53.0988 52.2201 53.0298 52.5514 52.8316 52.8049C52.6333 53.0584 52.3285 53.2052 52.0067 53.2023H20.4404C20.1191 53.2044 19.815 53.0572 19.6173 52.8038C19.4197 52.5505 19.351 52.2197 19.4313 51.9085L21.7859 42.6896C21.9676 41.982 22.6078 41.4891 23.3383 41.4942H49.1425C49.8733 41.4882 50.514 41.9815 50.6949 42.6896L53.0184 51.9085Z" fill="#149ADE"/>
      <path d="M19.2852 62.33V61.8617C19.2852 59.4539 17.3332 57.502 14.9254 57.502H7.23047" stroke="#565271" stroke-width="0.8" stroke-linejoin="round"/>
      <path d="M53.2539 62.33V61.8617C53.2539 59.4539 55.2058 57.502 57.6137 57.502H65.3086" stroke="#565271" stroke-width="0.8" stroke-linejoin="round"/>
      <path d="M24.3281 60.7383H48.1089" stroke="#565271" stroke-width="0.8"/>
      <path d="M0.5 84.5039H149.99" stroke="#565271" stroke-width="0.8" stroke-linejoin="round"/>
      <mask id="mask2_779_299911" style="mask-type:luminance" maskUnits="userSpaceOnUse" x="70" y="37" width="80" height="39">
        <path d="M80.4908 75.8853H75.4402C73.6466 75.8845 72.1298 74.5579 71.8903 72.7804L70.4258 62.1203L74.2241 60.736L72.6716 56.221L88.0693 52.8393L97.296 40.3525C98.5374 38.6717 100.503 37.6797 102.592 37.6797H128.764C130.715 37.6797 132.591 38.4292 134.006 39.7729L148.211 53.2662C149.418 54.4127 150.066 56.0279 149.986 57.6907C149.805 61.4346 149.468 68.3223 149.277 72.4621C149.186 74.3733 147.609 75.8757 145.696 75.8749H144.211C144.791 70.9254 142.477 66.0827 138.261 63.425C134.045 60.7674 128.678 60.7674 124.462 63.425C120.247 66.0827 117.932 70.9254 118.513 75.8749H106.189C106.247 75.3759 106.276 74.874 106.277 74.3716C106.277 70.5622 104.598 66.9462 101.688 64.4879C98.7782 62.0296 94.9326 60.9788 91.1767 61.6157C86.2087 62.2955 82.1485 65.9188 80.9099 70.7777C80.5693 71.9454 80.3951 73.1553 80.3925 74.3716C80.3959 74.8777 80.4288 75.383 80.4908 75.8853Z" fill="white"/>
      </mask>
      <g mask="url(#mask2_779_299911)">
        <path d="M114.306 67.9883H109.633" stroke="#565271" stroke-width="0.8" stroke-linejoin="round"/>
        <path d="M77.2885 67.9883H70.9727" stroke="#565271" stroke-width="0.8" stroke-linejoin="round"/>
        <path d="M149.458 67.9883H144.785" stroke="#565271" stroke-width="0.8" stroke-linejoin="round"/>
      </g>
      <path fill-rule="evenodd" clip-rule="evenodd" d="M80.4908 75.8853H75.4402C73.6466 75.8845 72.1298 74.5579 71.8903 72.7804L70.4258 62.1203L74.2241 60.736L72.6716 56.221L88.0693 52.8393L97.296 40.3525C98.5374 38.6717 100.503 37.6797 102.592 37.6797H128.764C130.715 37.6797 132.591 38.4292 134.006 39.7729L148.211 53.2662C149.418 54.4127 150.066 56.0279 149.986 57.6907C149.805 61.4346 149.468 68.3223 149.277 72.4621C149.186 74.3733 147.609 75.8757 145.696 75.8749H144.211C144.791 70.9254 142.477 66.0826 138.261 63.425C134.045 60.7674 128.678 60.7674 124.462 63.425C120.247 66.0826 117.932 70.9254 118.513 75.8749H106.189C106.247 75.3759 106.276 74.874 106.277 74.3716C106.277 70.5622 104.598 66.9462 101.688 64.4879C98.7782 62.0296 94.9326 60.9788 91.1768 61.6157C86.2087 62.2956 82.1486 65.9188 80.9099 70.7777C80.5694 71.9454 80.3951 73.1553 80.3925 74.3716C80.3959 74.8777 80.4288 75.383 80.4908 75.8853Z" stroke="#565271" stroke-width="0.8" stroke-linejoin="round"/>
      <path fill-rule="evenodd" clip-rule="evenodd" d="M129.171 51.0158L124.314 42.3532C124.299 42.3274 124.271 42.3116 124.242 42.3118H102.287C102.259 42.3119 102.233 42.3266 102.218 42.3506L96.6625 51.0184L129.171 51.0158ZM130.871 50.9667C131.057 51.2891 131.055 51.6868 130.867 52.008C130.679 52.3292 130.332 52.5244 129.96 52.5191H95.806C95.4218 52.5255 95.0656 52.3184 94.8811 51.9813C94.6965 51.6442 94.7139 51.2326 94.9263 50.9124L100.939 41.533C101.231 41.0769 101.736 40.8009 102.277 40.8008H124.231C124.807 40.8005 125.337 41.1113 125.618 41.6132L130.871 50.9667Z" fill="#565271"/>
      <path d="M72.8789 48.6914L88.2558 52.8442" stroke="#565271" stroke-width="0.8" stroke-linejoin="round"/>
      <path d="M120.02 54.1311V39.1914" stroke="white" stroke-width="2" stroke-linejoin="round"/>
      <path fill-rule="evenodd" clip-rule="evenodd" d="M102.756 74.3752C102.756 69.1737 98.5396 64.957 93.3381 64.957C88.1366 64.957 83.9199 69.1737 83.9199 74.3752C83.9199 79.5767 88.1366 83.7933 93.3381 83.7933C98.5396 83.7933 102.756 79.5767 102.756 74.3752ZM104.262 74.3752C104.262 68.342 99.3712 63.4512 93.3381 63.4512C87.3049 63.4512 82.4141 68.342 82.4141 74.3752C82.4141 80.4083 87.3049 85.2992 93.3381 85.2992C99.3712 85.2992 104.262 80.4083 104.262 74.3752Z" fill="#565271"/>
      <path d="M88.7578 78.9547C89.972 80.17 91.6197 80.8523 93.3375 80.8513C96.91 80.8513 99.806 77.9553 99.806 74.3828" stroke="#565271" stroke-width="0.8" stroke-linejoin="round"/>
      <path d="M97.9195 69.8028C96.7054 68.5876 95.0577 67.9052 93.3398 67.9063" stroke="#565271" stroke-width="0.8" stroke-linejoin="round"/>
      <path fill-rule="evenodd" clip-rule="evenodd" d="M140.78 74.3752C140.78 69.1737 136.563 64.957 131.362 64.957C126.16 64.957 121.943 69.1737 121.943 74.3752C121.943 79.5767 126.16 83.7933 131.362 83.7933C136.563 83.7933 140.78 79.5767 140.78 74.3752ZM142.286 74.3752C142.286 68.342 137.395 63.4512 131.362 63.4512C125.328 63.4512 120.438 68.342 120.438 74.3752C120.438 80.4083 125.328 85.2992 131.362 85.2992C137.395 85.2992 142.286 80.4083 142.286 74.3752Z" fill="#565271"/>
      <path d="M126.781 78.9547C127.995 80.17 129.643 80.8523 131.361 80.8513C134.933 80.8513 137.829 77.9553 137.829 74.3828" stroke="#565271" stroke-width="0.8" stroke-linejoin="round"/>
      <path d="M135.939 69.8028C134.725 68.5876 133.077 67.9052 131.359 67.9063" stroke="#565271" stroke-width="0.8" stroke-linejoin="round"/>
      <path fill-rule="evenodd" clip-rule="evenodd" d="M44.1642 8.41115C44.3727 8.25942 44.4959 8.01697 44.4954 7.75912V3.69949H39.3206C38.9986 3.70123 38.6828 3.6115 38.4098 3.44075L36.3244 2.11858L34.2389 3.44075C33.9659 3.61137 33.6501 3.70109 33.3282 3.69949H28.1534V8.29471C28.152 8.48275 27.9999 8.63484 27.8118 8.63625H26.4431C26.2551 8.63484 26.103 8.48275 26.1016 8.29471V3.34501C26.1016 2.8944 26.2807 2.46229 26.5996 2.1439C26.9185 1.82551 27.3509 1.64699 27.8015 1.64768H33.2169L35.4059 0.260828C35.9595 -0.0869428 36.6634 -0.0869428 37.217 0.260828L39.406 1.64768H44.8214C45.272 1.64699 45.7044 1.82551 46.0233 2.1439C46.3422 2.46229 46.5213 2.8944 46.5213 3.34501V8.68023C46.52 9.001 46.3699 9.30299 46.1151 9.49785L36.7772 16.3674C36.6879 16.4323 36.5699 16.4419 36.4713 16.3923C36.3727 16.3427 36.3101 16.2423 36.3089 16.132V14.5148C36.3084 14.257 36.4316 14.0145 36.6401 13.8628L44.1642 8.41115ZM28.5855 15.9146C28.5071 15.8588 28.4043 15.8511 28.3185 15.8945C28.2327 15.938 28.1781 16.0254 28.1767 16.1216V19.0195C28.1775 19.4069 28.3593 19.7716 28.6683 20.0053L35.5922 25.2293C36.0332 25.5622 36.6415 25.5622 37.0825 25.2293L44.0064 20.0053C44.3153 19.7716 44.4972 19.4069 44.498 19.0195V16.1733C44.4959 16.0781 44.4417 15.9916 44.3568 15.9484C44.2719 15.9051 44.1701 15.912 44.0918 15.9664L36.9454 21.1851C36.5827 21.4484 36.0919 21.4484 35.7293 21.1851L28.5855 15.9146ZM36.0579 18.8772C36.2254 19.0014 36.4544 19.0014 36.6219 18.8772L45.8202 12.1034C45.9594 12.0007 46.1447 11.9853 46.299 12.0636C46.4533 12.1418 46.5503 12.3004 46.5498 12.4734V19.8112C46.5492 20.3432 46.2992 20.8441 45.8745 21.1644L37.3593 27.5916C36.7528 28.0487 35.9167 28.0487 35.3101 27.5916L26.795 21.1644C26.3703 20.8441 26.1203 20.3432 26.1197 19.8112V12.3932C26.1194 12.2197 26.2172 12.061 26.3723 11.9832C26.5273 11.9054 26.713 11.9219 26.8519 12.0257L36.0579 18.8772Z" fill="#76B456"/>
      <path fill-rule="evenodd" clip-rule="evenodd" d="M122.563 8.41115C122.771 8.25942 122.894 8.01697 122.894 7.75912V3.69949H117.719C117.397 3.70123 117.081 3.6115 116.808 3.44075L114.723 2.11858L112.637 3.44075C112.364 3.61137 112.049 3.70109 111.727 3.69949H106.552V8.29471C106.55 8.48275 106.398 8.63484 106.21 8.63625H104.842C104.653 8.63484 104.501 8.48275 104.5 8.29471V3.34501C104.5 2.8944 104.679 2.46229 104.998 2.1439C105.317 1.82551 105.749 1.64699 106.2 1.64768H111.615L113.804 0.260828C114.358 -0.0869428 115.062 -0.0869428 115.615 0.260828L117.804 1.64768H123.22C123.67 1.64699 124.103 1.82551 124.422 2.1439C124.741 2.46229 124.92 2.8944 124.92 3.34501V8.68023C124.918 9.001 124.768 9.30299 124.514 9.49785L115.176 16.3674C115.086 16.4323 114.968 16.4419 114.87 16.3923C114.771 16.3427 114.708 16.2423 114.707 16.132V14.5148C114.707 14.257 114.83 14.0145 115.038 13.8628L122.563 8.41115ZM106.984 15.9146C106.906 15.8588 106.803 15.8511 106.717 15.8945C106.631 15.938 106.576 16.0254 106.575 16.1216V19.0195C106.576 19.4069 106.758 19.7716 107.067 20.0053L113.991 25.2293C114.432 25.5622 115.04 25.5622 115.481 25.2293L122.405 20.0053C122.714 19.7716 122.896 19.4069 122.896 19.0195V16.1733C122.894 16.0781 122.84 15.9916 122.755 15.9484C122.67 15.9051 122.568 15.912 122.49 15.9664L115.344 21.1851C114.981 21.4484 114.49 21.4484 114.128 21.1851L106.984 15.9146ZM114.456 18.8772C114.624 19.0014 114.853 19.0014 115.02 18.8772L124.219 12.1034C124.358 12.0007 124.543 11.9853 124.697 12.0636C124.852 12.1418 124.949 12.3004 124.948 12.4734V19.8112C124.948 20.3432 124.698 20.8441 124.273 21.1644L115.758 27.5916C115.151 28.0487 114.315 28.0487 113.709 27.5916L105.193 21.1644C104.769 20.8441 104.519 20.3432 104.518 19.8112V12.3932C104.518 12.2197 104.616 12.061 104.771 11.9832C104.926 11.9054 105.111 11.9219 105.25 12.0257L114.456 18.8772Z" fill="#76B456"/>
      <path d="M99.8503 91.9785H129.062C131.277 91.9785 133.073 93.7741 133.073 95.989C133.073 98.2039 131.277 99.9995 129.062 99.9995H99.8503C97.6354 99.9995 95.8398 98.2039 95.8398 95.989C95.8398 93.7741 97.6354 91.9785 99.8503 91.9785Z" fill="#76B740"/>
    </g>
    <circle cx="93.6" cy="74.1" r="11.1" fill="#109BDE"/>
    <circle cx="93.6" cy="74.1" r="11.1" fill="#109BDE"/>
    <circle cx="131.6" cy="74.1" r="11.1" fill="#109BDE"/>
    <path d="M71.6772 69.1521C71.584 68.5463 72.0527 68 72.6656 68H81.5C81.5 68 80.2681 70.3534 80 72C79.7804 73.3491 80 75.5 80 75.5H74.7361C74.5808 75.5 74.4277 75.4639 74.2889 75.3944L72.9625 74.7313C72.6724 74.5862 72.4707 74.3095 72.4214 73.9889L71.6772 69.1521Z" fill="#76B456"/>
    <path d="M101.207 40.4759C101.389 40.1802 101.712 40 102.059 40H119.5V53H95.2896C94.5072 53 94.0279 52.1422 94.4379 51.4759L101.207 40.4759Z" fill="#109BDE"/>
    <path d="M120.5 40H124.903C125.271 40 125.609 40.202 125.783 40.5259L131.706 51.5259C132.065 52.1921 131.582 53 130.826 53H120.5V40Z" fill="#109BDE"/>
  </g>
  <defs>
    <clipPath id="clip0_779_299911">
      <rect width="150.871" height="100" fill="white" transform="translate(0.5)"/>
    </clipPath>
  </defs>
</svg>