<svg xmlns="http://www.w3.org/2000/svg" width="24" height="25" viewBox="0 0 24 25" fill="none">
  <path d="M3 3.94922H21V21.9492H3V3.94922Z" fill="#ECEFF1"/>
  <path d="M12 14.842L21 21.949V7.91797L12 14.842Z" fill="#CFD8DC"/>
  <path d="M21.75 3.94922H21L12 11.0562L3 3.94922H2.25C1.008 3.94922 0 4.95722 0 6.19922V19.6992C0 20.9412 1.008 21.9492 2.25 21.9492H3V7.91822L12 14.8407L21 7.91672V21.9492H21.75C22.992 21.9492 24 20.9412 24 19.6992V6.19922C24 4.95722 22.992 3.94922 21.75 3.94922Z" fill="#3FC43B"/>
  <path d="M21 3.94922H21.75C22.992 3.94922 24 4.95722 24 6.19922V19.6992C24 20.9412 22.992 21.9492 21.75 21.9492H21V7.91672L12 14.8407V11.0562L21 3.94922Z" fill="#109BDE"/>
</svg>