<svg xmlns="http://www.w3.org/2000/svg" width="25" height="25" viewBox="0 0 25 25" fill="none">
  <g clip-path="url(#clip0_676_103092)">
    <path d="M10.0795 9.53119C10.3541 9.25655 10.3541 8.81157 10.0795 8.53693L5.10817 3.56494C4.8445 3.30127 4.37758 3.30127 4.11391 3.56494L2.125 5.5538L4.87881 9.48174L8.0905 11.5201L10.0795 9.53119Z" fill="#8CDC89"/>
    <path d="M22.0093 20.4671L17.038 15.495C16.7634 15.2204 16.3184 15.2204 16.0437 15.495L14.0547 17.4836L16.1261 22.1356L20.0205 23.4502L22.0093 21.4613C22.284 21.1867 22.284 20.7417 22.0093 20.4671Z" fill="#65D062"/>
    <path d="M20.0234 23.4461L19.9811 23.4883C18.6682 24.8209 16.5631 25.4049 14.5671 24.543C11.2624 23.0523 8.66086 21.1117 6.59362 19.0164C3.94997 16.3586 2.22018 13.4758 1.10929 11.0711C0.251481 9.22895 0.659294 7.02114 2.10778 5.57266L2.12175 5.55859L8.08434 11.5212L7.47956 12.1399C8.21086 13.3773 9.09679 14.5024 10.1092 15.5008C11.1077 16.5134 12.2186 17.3712 13.4422 18.1024L14.0609 17.4837L20.0234 23.4461Z" fill="#65D062"/>
    <path d="M20.0235 23.4415L19.9812 23.4836C18.6684 24.8162 16.5633 25.4002 14.5672 24.5383C11.2625 23.0477 8.66098 21.107 6.59375 19.0117L10.1094 15.4961C11.1079 16.5086 12.2187 17.3665 13.4423 18.0977L14.061 17.479L20.0235 23.4415Z" fill="#3FC43B"/>
    <path d="M24.6641 11.4961C24.6641 11.8898 24.3547 12.1992 23.9609 12.1992C23.5671 12.1992 23.2578 11.8898 23.2578 11.4961C23.2578 8.97886 22.2313 6.68667 20.5719 5.04136C18.9266 3.38203 16.6343 2.35547 14.1172 2.35547C13.7234 2.35547 13.4141 2.04605 13.4141 1.65234C13.4141 1.25855 13.7234 0.949219 14.1172 0.949219C17.0281 0.949219 19.6578 2.13042 21.5703 4.04297C23.4828 5.95547 24.6641 8.58516 24.6641 11.4961Z" fill="#40AFE5"/>
    <path d="M21.8516 11.4961C21.8516 11.8898 21.5422 12.1992 21.1484 12.1992C20.7546 12.1992 20.4453 11.8898 20.4453 11.4961C20.4453 9.75234 19.7422 8.17734 18.5891 7.02422C17.4359 5.87109 15.8609 5.16797 14.1172 5.16797C13.7234 5.16797 13.4141 4.85855 13.4141 4.46484C13.4141 4.07105 13.7234 3.76172 14.1172 3.76172C16.2547 3.76172 18.1813 4.63359 19.5875 6.02578C20.9797 7.43203 21.8516 9.35859 21.8516 11.4961Z" fill="#40AFE5"/>
    <path d="M19.0391 11.4961C19.0391 11.8898 18.7297 12.1992 18.3359 12.1992C17.9421 12.1992 17.6328 11.8898 17.6328 11.4961C17.6328 10.5258 17.239 9.63984 16.6063 9.00698C15.9735 8.37417 15.0875 7.98047 14.1172 7.98047C13.7234 7.98047 13.4141 7.67105 13.4141 7.27734C13.4141 6.88355 13.7234 6.57422 14.1172 6.57422C15.4672 6.57422 16.7047 7.12266 17.5906 8.02261C18.4906 8.90855 19.0391 10.1461 19.0391 11.4961ZM16.2266 11.4961C16.2266 11.8898 15.9172 12.1992 15.5234 12.1992C15.1296 12.1992 14.8203 11.8898 14.8203 11.4961C14.8203 11.2992 14.7359 11.1305 14.6234 10.9898C14.4829 10.8773 14.3141 10.793 14.1172 10.793C13.7234 10.793 13.4141 10.4835 13.4141 10.0898C13.4141 9.69605 13.7234 9.38672 14.1172 9.38672C14.7078 9.38672 15.2281 9.62578 15.6078 10.0055C15.9875 10.3851 16.2266 10.9054 16.2266 11.4961Z" fill="#40AFE5"/>
    <path d="M15.6094 10.0054C15.9891 10.3851 16.2281 10.9054 16.2281 11.496C16.2281 11.8898 15.9188 12.1992 15.525 12.1992C15.1312 12.1992 14.8219 11.8898 14.8219 11.496C14.8219 11.2992 14.7375 11.1304 14.625 10.9898L15.6094 10.0054ZM17.5921 8.02256C18.4921 8.9085 19.0406 10.146 19.0406 11.496C19.0406 11.8898 18.7313 12.1992 18.3375 12.1992C17.9437 12.1992 17.6344 11.8898 17.6344 11.496C17.6344 10.5257 17.2406 9.6398 16.6079 9.00694L17.5921 8.02256ZM19.5891 6.02573C20.9813 7.43198 21.8531 9.35855 21.8531 11.496C21.8531 11.8898 21.5438 12.1992 21.15 12.1992C20.7562 12.1992 20.4469 11.8898 20.4469 11.496C20.4469 9.7523 19.7438 8.1773 18.5906 7.02417L19.5891 6.02573ZM24.6656 11.496C24.6656 11.8898 24.3563 12.1992 23.9625 12.1992C23.5687 12.1992 23.2594 11.8898 23.2594 11.496C23.2594 8.97881 22.2329 6.68663 20.5735 5.04131L21.5719 4.04297C23.4843 5.95542 24.6656 8.58511 24.6656 11.496Z" fill="#109BDE"/>
  </g>
  <defs>
    <clipPath id="clip0_676_103092">
      <rect width="24" height="24" fill="white" transform="translate(0.664062 0.949219)"/>
    </clipPath>
  </defs>
</svg>