<svg xmlns="http://www.w3.org/2000/svg" width="25" height="25" viewBox="0 0 25 25" fill="none">
  <g clip-path="url(#clip0_676_103069)">
    <path d="M0.328125 24.9492L1.98328 18.9492C0.907453 17.0872 0.328125 15.0182 0.328125 12.8664C0.328125 6.32855 5.70745 0.949219 12.2867 0.949219C18.866 0.949219 24.3281 6.32855 24.3281 12.8664C24.3281 19.4043 18.8661 24.9492 12.2867 24.9492C10.2178 24.9492 8.23158 24.2872 6.45225 23.2941L0.328125 24.9492Z" fill="#EDEDED"/>
    <path d="M6.78463 21.1437L7.15705 21.3506C8.68808 22.3023 10.4674 22.8816 12.3295 22.8816C17.7501 22.8816 22.2605 18.3712 22.2605 12.8678C22.2605 7.36433 17.7501 3.01953 12.2881 3.01953C6.82602 3.01953 2.39844 7.40572 2.39844 12.8678C2.39844 14.7712 2.93638 16.6333 3.92947 18.2057L4.17777 18.5781L3.22606 22.054L6.78463 21.1437Z" fill="#55CD6C"/>
    <path d="M9.09852 7.32264L8.31233 7.28125C8.06404 7.28125 7.81579 7.36403 7.65027 7.52955C7.27785 7.86058 6.65718 8.48125 6.49166 9.30887C6.20202 10.5503 6.65718 12.0399 7.73305 13.5295C8.80893 15.0192 10.8779 17.4192 14.5192 18.4537C15.6778 18.7847 16.5882 18.5778 17.3331 18.1226C17.9124 17.7502 18.2848 17.1709 18.4089 16.5502L18.5331 15.9709C18.5744 15.8054 18.4917 15.5985 18.3261 15.5157L15.7192 14.3157C15.5537 14.233 15.3468 14.2743 15.2227 14.4399L14.1882 15.764C14.1054 15.8468 13.9813 15.8881 13.8572 15.8468C13.1537 15.5985 10.7951 14.6054 9.51234 12.1226C9.47094 11.9985 9.47094 11.8743 9.55373 11.7916L10.5468 10.6744C10.6296 10.5503 10.6709 10.3848 10.6296 10.2606L9.4296 7.57094C9.38816 7.44677 9.26404 7.32264 9.09852 7.32264Z" fill="#FEFEFE"/>
  </g>
  <defs>
    <clipPath id="clip0_676_103069">
      <rect width="24" height="24" fill="white" transform="translate(0.332031 0.949219)"/>
    </clipPath>
  </defs>
</svg>