<svg xmlns="http://www.w3.org/2000/svg" width="22" height="25" viewBox="0 0 22 25" fill="none">
  <path d="M13.8968 16.1679C13.6297 16.1539 13.3765 16.2664 13.236 16.4914L11 19.9786L8.76399 16.4914C8.62342 16.2664 8.37029 16.1399 8.10311 16.1679C3.44843 16.6601 0.453125 18.2491 0.453125 20.2317C0.453125 22.9738 5.88124 24.4502 11 24.4502C16.1187 24.4502 21.5468 22.9738 21.5468 20.2317C21.5468 18.2491 18.5515 16.6601 13.8968 16.1679Z" fill="#61DE56"/>
  <path d="M21.5468 20.2291C21.5468 22.9711 16.1187 24.4475 11 24.4475V19.9759L13.236 16.4887C13.3766 16.2637 13.6297 16.1511 13.8969 16.1652C18.5515 16.6574 21.5468 18.2464 21.5468 20.2291Z" fill="#13C37B"/>
  <path d="M11 0.449219C6.78124 0.449219 3.26562 3.85209 3.26562 8.18311C3.26562 9.82828 3.75776 11.3047 4.71411 12.6828L10.4094 21.6635C10.55 21.8885 10.775 21.9869 11 21.9869C11.225 21.9869 11.45 21.8885 11.5906 21.6635L17.314 12.6547C18.2422 11.3329 18.7343 9.78614 18.7343 8.18311C18.7343 3.92239 15.261 0.449219 11 0.449219ZM11 11.6985C9.06147 11.6985 7.48436 10.1215 7.48436 8.18311C7.48436 6.24472 9.06147 4.66771 11 4.66771C12.9385 4.66771 14.5156 6.24472 14.5156 8.18311C14.5156 10.1215 12.9385 11.6985 11 11.6985Z" fill="#FD3018"/>
  <path d="M11 0.449219V4.66771C12.9385 4.66771 14.5156 6.24472 14.5156 8.18311C14.5156 10.1215 12.9385 11.6985 11 11.6985V21.9869C11.225 21.9869 11.45 21.8885 11.5906 21.6636L17.314 12.6547C18.2422 11.3329 18.7344 9.78614 18.7344 8.18311C18.7344 3.92239 15.261 0.449219 11 0.449219Z" fill="#E61E14"/>
</svg>