<svg viewBox="0 0 48 49" fill="none" xmlns="http://www.w3.org/2000/svg">
    <path
        d="M44.25 7.25H3.75C1.68234 7.25 0 8.93234 0 11V38C0 40.0677 1.68234 41.75 3.75 41.75H44.25C46.3177 41.75 48 40.0677 48 38V11C48 8.93234 46.3177 7.25 44.25 7.25Z"
        fill="#5D647F" />
    <path
        d="M16.5 22.25H7.5C6.67153 22.25 6 21.5785 6 20.75V14.75C6 13.9215 6.67153 13.25 7.5 13.25H16.5C17.3285 13.25 18 13.9215 18 14.75V20.75C18 21.5785 17.3285 22.25 16.5 22.25Z"
        fill="#FFD100" />
    <path
        d="M11.25 32H7.5C6.67153 32 6 31.3285 6 30.5V29.75C6 28.9215 6.67153 28.25 7.5 28.25H11.25C12.0785 28.25 12.75 28.9215 12.75 29.75V30.5C12.75 31.3285 12.0785 32 11.25 32Z"
        fill="#B8BAC0" />
    <path
        d="M21 32H17.25C16.4215 32 15.75 31.3285 15.75 30.5V29.75C15.75 28.9215 16.4215 28.25 17.25 28.25H21C21.8285 28.25 22.5 28.9215 22.5 29.75V30.5C22.5 31.3285 21.8285 32 21 32Z"
        fill="#B8BAC0" />
    <path
        d="M30.75 32H27C26.1715 32 25.5 31.3285 25.5 30.5V29.75C25.5 28.9215 26.1715 28.25 27 28.25H30.75C31.5785 28.25 32.25 28.9215 32.25 29.75V30.5C32.25 31.3285 31.5785 32 30.75 32Z"
        fill="#B8BAC0" />
    <path
        d="M40.5 32H36.75C35.9215 32 35.25 31.3285 35.25 30.5V29.75C35.25 28.9215 35.9215 28.25 36.75 28.25H40.5C41.3285 28.25 42 28.9215 42 29.75V30.5C42 31.3285 41.3285 32 40.5 32Z"
        fill="#B8BAC0" />
    <path
        d="M21.75 36.5H6.75C6.33544 36.5 6 36.1642 6 35.75C6 35.3358 6.33544 35 6.75 35H21.75C22.1646 35 22.5 35.3358 22.5 35.75C22.5 36.1642 22.1646 36.5 21.75 36.5Z"
        fill="#8A8895" />
    <path
        d="M31.5 36.5H24.75C24.3354 36.5 24 36.1642 24 35.75C24 35.3358 24.3354 35 24.75 35H31.5C31.9146 35 32.25 35.3358 32.25 35.75C32.25 36.1642 31.9146 36.5 31.5 36.5Z"
        fill="#8A8895" />
    <path d="M18 18.5H10.5V17H18V15.5H10.5V13.25H9V22.25H10.5V20H18V18.5Z" fill="#FF9500" />
    <path
        d="M37.5 22.25C39.9853 22.25 42 20.2353 42 17.75C42 15.2647 39.9853 13.25 37.5 13.25C35.0147 13.25 33 15.2647 33 17.75C33 20.2353 35.0147 22.25 37.5 22.25Z"
        fill="#FF4F19" />
</svg>