<svg xmlns="http://www.w3.org/2000/svg" width="20" height="20" viewBox="0 0 20 20" fill="none">
<path d="M18.7411 9.99002C18.1074 9.99561 17.575 10.4655 17.4935 11.0911C16.8897 15.1973 13.0566 18.0388 8.93181 17.4378C4.80706 16.8368 1.95268 13.0209 2.55638 8.91474C3.16009 4.80858 6.99328 1.96706 11.118 2.56805C12.524 2.7729 13.8434 3.36868 14.9244 4.28689L13.9775 5.2295C13.6503 5.55529 13.6504 6.08347 13.9776 6.40918C14.1353 6.56613 14.3494 6.65403 14.5724 6.65341H18.4152C18.8779 6.65341 19.2531 6.27995 19.2531 5.81926V1.99381C19.253 1.53312 18.8777 1.15974 18.415 1.15982C18.1928 1.15986 17.9798 1.24772 17.8227 1.40404L16.7066 2.51514C12.5542 -1.14722 6.20551 -0.765128 2.52653 3.36864C-1.15245 7.50241 -0.76855 13.8224 3.38389 17.4848C7.53634 21.1472 13.885 20.7651 17.564 16.6313C18.859 15.1762 19.6999 13.3767 19.9838 11.4531C20.0948 10.7645 19.6241 10.1166 18.9323 10.006C18.8691 9.99585 18.8052 9.99053 18.7411 9.99002Z" fill="#798595"/>
</svg>