<svg  viewBox="0 0 60 30" fill="none" xmlns="http://www.w3.org/2000/svg">
<path fill-rule="evenodd" clip-rule="evenodd" d="M35.8568 24.2954L35.7605 24.2671C34.3533 23.8784 33.8773 23.5049 33.2502 23.2597C31.7284 22.6633 30.9774 22.1796 30.6078 21.8395L30.2821 20.5355L30.2746 19.4546C31.4633 17.8182 32.3132 15.7752 32.3132 13.6595C32.3132 13.2613 32.2907 12.875 32.2484 12.4999H32.9395H33.506C33.8192 12.4999 34.0725 12.2389 34.0725 11.9167C34.0725 11.5946 33.8191 11.3331 33.506 11.3331H32.9395C32.9395 7.85066 30.8196 4.87789 27.8358 3.70385V3.16682C27.8358 2.94506 27.7129 2.74255 27.5201 2.64428C27.4686 2.61781 26.245 2 24.9998 2C23.7546 2 22.5306 2.61781 22.4791 2.64428C22.2863 2.74299 22.1642 2.94506 22.1642 3.16682L22.1646 3.70385C19.1804 4.87789 17.0605 7.85066 17.0605 11.3331H16.4936C16.1804 11.3331 15.9266 11.5946 15.9266 11.9167C15.9266 12.2389 16.1804 12.5 16.4936 12.5H17.0605H17.7512C17.7088 12.8751 17.6868 13.2613 17.6868 13.6595C17.6868 15.7753 18.5362 17.8183 19.7249 19.4546L19.7174 20.5356L19.3918 21.8396C19.0226 22.1797 18.2721 22.6633 16.749 23.2597C16.1222 23.505 15.6462 23.8784 14.2391 24.2672L14.1427 24.2954C12.8618 24.7312 12 25.9531 12 27.3323V30H22.6448H24.9998H27.3548H38V27.3323C38 25.9531 37.1378 24.7311 35.8568 24.2954ZM20.0503 7.15121C20.6489 6.56484 21.3368 6.09859 22.0841 5.7629L22.0845 8.00254C22.0849 8.31815 22.346 8.57385 22.6681 8.57385C22.9903 8.57343 23.2513 8.31772 23.2513 8.00212L23.2501 4.37378C23.6777 4.20974 24.3686 4 25.0001 4C25.6657 4 26.357 4.22351 26.7501 4.37502V7.9284C26.7501 8.244 27.0115 8.50014 27.3328 8.50014C27.6558 8.50014 27.9173 8.244 27.9173 7.9284V5.76332C28.6641 6.09859 29.3512 6.56527 29.9493 7.15121C31.272 8.44662 32 10.1685 32 12H18C18 10.1685 18.7281 8.44662 20.0503 7.15121ZM19 14.1127C19.0001 13.7318 19.0263 13.3608 19.077 13H31.9231C31.9738 13.3608 32 13.7318 32 14.1127C32 15.9564 31.106 17.9699 29.5479 19.6368C28.8628 20.3682 28.0955 20.9816 27.3282 21.4088C26.6439 21.7901 25.9946 22 25.5 22C25.0053 22 24.3561 21.7901 23.6718 21.4088C22.9045 20.9816 22.1372 20.3682 21.4521 19.6368C19.894 17.9699 19 15.9564 19 14.1127ZM26 24.0477L25.7409 25H24.2591L24 24.0477L25 23L26 24.0477ZM22.5287 29H13V27.4465C13 26.5458 13.5323 25.7487 14.3265 25.4559L14.389 25.4364C15.4336 25.1321 16.0105 24.8339 16.474 24.5942C16.6533 24.5004 16.8083 24.4208 16.9589 24.3589C17.7616 24.028 18.7591 23.5742 19.5095 23L20.8462 25.6647C20.9264 25.8257 21.0696 25.9371 21.2357 25.9708C21.2693 25.9778 21.3032 25.9814 21.3372 25.9814C21.4693 25.9814 21.5987 25.9301 21.7006 25.8354L22.8081 24.8101L23 25.4329L22.5287 29ZM22.1947 25L21 22.4032L21.3059 21C22.1701 22.0131 23.1176 22.7755 24 23.1777L22.1947 25ZM25 29H24L24.387 26H25.613L26 29H25ZM29.6937 21L30 22.4032L28.8048 25L27 23.1777C27.8825 22.7755 28.8302 22.0131 29.6937 21ZM37 29H27.4714L27 25.4329L27.1915 24.8101L28.2995 25.8354C28.401 25.9301 28.5303 25.9814 28.6629 25.9814C28.6972 25.9814 28.7308 25.9779 28.7644 25.9708C28.9305 25.9371 29.0737 25.8257 29.1539 25.6647L30.491 23C31.2414 23.575 32.239 24.028 33.0426 24.3589C33.1916 24.4208 33.347 24.5004 33.5262 24.5942C33.9901 24.8339 34.5663 25.1321 35.6113 25.4364L35.6743 25.4559C36.4681 25.7487 37 26.5458 37 27.4465V29Z" fill="#798595"/>
<path d="M35.8568 24.2954L36.0179 23.822L36.0077 23.8185L35.9974 23.8155L35.8568 24.2954ZM35.7605 24.2671L35.9011 23.7872L35.8937 23.7852L35.7605 24.2671ZM33.2502 23.2597L33.0677 23.7252L33.0681 23.7254L33.2502 23.2597ZM30.6078 21.8395L30.1227 21.9606L30.159 22.106L30.2692 22.2075L30.6078 21.8395ZM30.2821 20.5355L29.7822 20.539L29.7826 20.5987L29.797 20.6567L30.2821 20.5355ZM30.2746 19.4546L29.8701 19.1607L29.7735 19.2937L29.7747 19.458L30.2746 19.4546ZM32.2484 12.4999V11.9999H31.6887L31.7515 12.5561L32.2484 12.4999ZM32.9395 11.3331H32.4395V11.8331H32.9395V11.3331ZM27.8358 3.70385H27.3358V4.04443L27.6527 4.16913L27.8358 3.70385ZM27.5201 2.64428L27.2916 3.08901L27.293 3.08973L27.5201 2.64428ZM22.4791 2.64428L22.707 3.0893L22.7076 3.08901L22.4791 2.64428ZM22.1642 3.16682H21.6642V3.16721L22.1642 3.16682ZM22.1646 3.70385L22.3477 4.16914L22.6649 4.04434L22.6646 3.70345L22.1646 3.70385ZM17.0605 11.3331V11.8331H17.5605V11.3331H17.0605ZM17.7512 12.5L18.248 12.5561L18.3109 12H17.7512V12.5ZM19.7249 19.4546L20.2249 19.4581L20.2261 19.2937L20.1295 19.1608L19.7249 19.4546ZM19.7174 20.5356L20.2025 20.6567L20.217 20.5988L20.2174 20.539L19.7174 20.5356ZM19.3918 21.8396L19.7306 22.2073L19.8406 22.1059L19.8769 21.9607L19.3918 21.8396ZM16.749 23.2597L16.9311 23.7254L16.9313 23.7253L16.749 23.2597ZM14.2391 24.2672L14.1059 23.7852L14.0985 23.7874L14.2391 24.2672ZM14.1427 24.2954L14.0022 23.8156L13.9919 23.8186L13.9817 23.8221L14.1427 24.2954ZM12 30H11.5V30.5H12V30ZM38 30V30.5H38.5V30H38ZM20.0503 7.15121L19.7004 6.79403L19.7004 6.79404L20.0503 7.15121ZM22.0841 5.7629L22.5841 5.7628L22.5839 4.99023L21.8792 5.3068L22.0841 5.7629ZM22.0845 8.00254L21.5845 8.00264L21.5845 8.00324L22.0845 8.00254ZM22.6681 8.57385V9.07386L22.6688 9.07385L22.6681 8.57385ZM23.2513 8.00212H23.7513L23.7513 8.00194L23.2513 8.00212ZM23.2501 4.37378L23.071 3.90695L22.7499 4.0301L22.7501 4.37396L23.2501 4.37378ZM26.7501 4.37502H27.2501V4.03187L26.9299 3.90847L26.7501 4.37502ZM27.9173 5.76332L28.1221 5.30718L27.4173 4.99079V5.76332H27.9173ZM29.9493 7.15121L29.5994 7.50838L29.5994 7.50843L29.9493 7.15121ZM32 12V12.5H32.5V12H32ZM18 12H17.5V12.5H18V12ZM19 14.1127L18.5 14.1126V14.1127H19ZM19.077 13V12.5H18.6423L18.5818 12.9305L19.077 13ZM31.9231 13L32.4182 12.9305L32.3578 12.5H31.9231V13ZM29.5479 19.6368L29.9128 19.9786L29.9132 19.9782L29.5479 19.6368ZM27.3282 21.4088L27.0849 20.9719L27.0848 20.972L27.3282 21.4088ZM23.6718 21.4088L23.9152 20.972L23.9151 20.9719L23.6718 21.4088ZM21.4521 19.6368L21.0868 19.9782L21.0872 19.9786L21.4521 19.6368ZM26 24.0477L26.4825 24.179L26.5566 23.9066L26.3617 23.7025L26 24.0477ZM25.7409 25V25.5H26.123L26.2234 25.1313L25.7409 25ZM24.2591 25L23.7766 25.1313L23.877 25.5H24.2591V25ZM24 24.0477L23.6383 23.7025L23.4434 23.9066L23.5175 24.179L24 24.0477ZM25 23L25.3617 22.6548L25 22.2758L24.6383 22.6548L25 23ZM22.5287 29V29.5H22.9669L23.0244 29.0655L22.5287 29ZM13 29H12.5V29.5H13V29ZM14.3265 25.4559L14.1779 24.9785L14.1656 24.9823L14.1535 24.9868L14.3265 25.4559ZM14.389 25.4364L14.2492 24.9563L14.2405 24.959L14.389 25.4364ZM16.474 24.5942L16.7037 25.0383L16.7058 25.0372L16.474 24.5942ZM16.9589 24.3589L17.1491 24.8213L17.1494 24.8212L16.9589 24.3589ZM19.5095 23L19.9564 22.7758L19.6855 22.2357L19.2057 22.6029L19.5095 23ZM20.8462 25.6647L21.2938 25.4418L21.2931 25.4405L20.8462 25.6647ZM21.2357 25.9708L21.3389 25.4815L21.3349 25.4807L21.2357 25.9708ZM21.7006 25.8354L21.3609 25.4685L21.3603 25.4691L21.7006 25.8354ZM22.8081 24.8101L23.2859 24.6629L23.0519 23.9031L22.4684 24.4432L22.8081 24.8101ZM23 25.4329L23.4957 25.4984L23.51 25.3901L23.4778 25.2857L23 25.4329ZM22.1947 25L21.7405 25.209L22.042 25.8645L22.5499 25.3519L22.1947 25ZM21 22.4032L20.5115 22.2967L20.4758 22.4602L20.5458 22.6122L21 22.4032ZM21.3059 21L21.6863 20.6755L21.0321 19.9086L20.8174 20.8935L21.3059 21ZM24 23.1777L24.3552 23.5296L24.8599 23.0202L24.2074 22.7228L24 23.1777ZM24 29L23.5041 28.936L23.4314 29.5H24V29ZM24.387 26V25.5H23.9474L23.8911 25.936L24.387 26ZM25.613 26L26.1089 25.936L26.0526 25.5H25.613V26ZM26 29V29.5H26.5686L26.4959 28.936L26 29ZM29.6937 21L30.1822 20.8934L29.9671 19.9084L29.3131 20.6757L29.6937 21ZM30 22.4032L30.4542 22.6123L30.5242 22.4601L30.4885 22.2966L30 22.4032ZM28.8048 25L28.4495 25.3518L28.9573 25.8645L29.259 25.2091L28.8048 25ZM27 23.1777L26.7926 22.7227L26.1402 23.0201L26.6447 23.5296L27 23.1777ZM27.4714 29L26.9757 29.0655L27.0331 29.5H27.4714V29ZM27 25.4329L26.5221 25.286L26.49 25.3903L26.5043 25.4984L27 25.4329ZM27.1915 24.8101L27.5311 24.4431L26.9473 23.9029L26.7136 24.6632L27.1915 24.8101ZM28.2995 25.8354L28.6405 25.4698L28.6391 25.4685L28.2995 25.8354ZM28.7644 25.9708L28.6651 25.4807L28.6604 25.4817L28.7644 25.9708ZM29.1539 25.6647L28.707 25.4404L28.7064 25.4417L29.1539 25.6647ZM30.491 23L30.7951 22.6031L30.3153 22.2354L30.0441 22.7758L30.491 23ZM33.0426 24.3589L33.2346 23.8972L33.233 23.8965L33.0426 24.3589ZM33.5262 24.5942L33.2944 25.0372L33.2967 25.0384L33.5262 24.5942ZM35.6113 25.4364L35.759 24.9587L35.7511 24.9564L35.6113 25.4364ZM35.6743 25.4559L35.8474 24.9868L35.8348 24.9822L35.822 24.9782L35.6743 25.4559ZM35.9974 23.8155L35.9011 23.7873L35.6199 24.747L35.7163 24.7752L35.9974 23.8155ZM35.8937 23.7852C34.4969 23.3993 34.1883 23.0896 33.4323 22.794L33.0681 23.7254C33.5664 23.9202 34.2097 24.3574 35.6274 24.7491L35.8937 23.7852ZM33.4326 22.7942C31.9348 22.2071 31.2498 21.7507 30.9463 21.4715L30.2692 22.2075C30.7051 22.6085 31.522 23.1194 33.0677 23.7252L33.4326 22.7942ZM31.0929 21.7184L30.7672 20.4144L29.797 20.6567L30.1227 21.9606L31.0929 21.7184ZM30.7821 20.5321L30.7746 19.4511L29.7747 19.458L29.7822 20.539L30.7821 20.5321ZM30.6792 19.7484C31.9129 18.0501 32.8132 15.9065 32.8132 13.6595H31.8132C31.8132 15.644 31.0138 17.5864 29.8701 19.1607L30.6792 19.7484ZM32.8132 13.6595C32.8132 13.2424 32.7897 12.8375 32.7452 12.4438L31.7515 12.5561C31.7918 12.9126 31.8132 13.2801 31.8132 13.6595H32.8132ZM32.2484 12.9999H32.9395V11.9999H32.2484V12.9999ZM32.9395 12.9999H33.506V11.9999H32.9395V12.9999ZM33.506 12.9999C34.109 12.9999 34.5725 12.5011 34.5725 11.9167H33.5725C33.5725 11.9767 33.5293 11.9999 33.506 11.9999V12.9999ZM34.5725 11.9167C34.5725 11.3328 34.1094 10.8331 33.506 10.8331V11.8331C33.5288 11.8331 33.5725 11.8563 33.5725 11.9167H34.5725ZM33.506 10.8331H32.9395V11.8331H33.506V10.8331ZM33.4395 11.3331C33.4395 7.64507 31.1938 4.48781 28.0189 3.23857L27.6527 4.16913C30.4454 5.26797 32.4395 8.05624 32.4395 11.3331H33.4395ZM28.3358 3.70385V3.16682H27.3358V3.70385H28.3358ZM28.3358 3.16682C28.3358 2.7615 28.1113 2.38446 27.7472 2.19882L27.293 3.08973C27.3144 3.10064 27.3358 3.12861 27.3358 3.16682H28.3358ZM27.7486 2.19954C27.6896 2.16924 26.3737 1.5 24.9998 1.5V2.5C26.1163 2.5 27.2475 3.06637 27.2916 3.08901L27.7486 2.19954ZM24.9998 1.5C23.6259 1.5 22.3096 2.16921 22.2506 2.19954L22.7076 3.08901C22.7516 3.0664 23.8833 2.5 24.9998 2.5V1.5ZM22.2511 2.19926C21.8872 2.38566 21.6642 2.76219 21.6642 3.16682H22.6642C22.6642 3.12792 22.6855 3.10031 22.707 3.0893L22.2511 2.19926ZM21.6642 3.16721L21.6646 3.70425L22.6646 3.70345L22.6642 3.16642L21.6642 3.16721ZM21.9816 3.23856C18.8062 4.48779 16.5605 7.64506 16.5605 11.3331H17.5605C17.5605 8.05625 19.5546 5.26798 22.3477 4.16914L21.9816 3.23856ZM17.0605 10.8331H16.4936V11.8331H17.0605V10.8331ZM16.4936 10.8331C15.8906 10.8331 15.4266 11.3323 15.4266 11.9167H16.4266C16.4266 11.8568 16.4702 11.8331 16.4936 11.8331V10.8331ZM15.4266 11.9167C15.4266 12.5016 15.891 13 16.4936 13V12C16.4698 12 16.4266 11.9762 16.4266 11.9167H15.4266ZM16.4936 13H17.0605V12H16.4936V13ZM17.0605 13H17.7512V12H17.0605V13ZM17.2544 12.4439C17.2099 12.8379 17.1868 13.2429 17.1868 13.6595H18.1868C18.1868 13.2798 18.2078 12.9123 18.248 12.5561L17.2544 12.4439ZM17.1868 13.6595C17.1868 15.9065 18.0866 18.05 19.3204 19.7485L20.1295 19.1608C18.9859 17.5865 18.1868 15.6441 18.1868 13.6595H17.1868ZM19.2249 19.4512L19.2174 20.5321L20.2174 20.539L20.2249 19.4581L19.2249 19.4512ZM19.2323 20.4144L18.9067 21.7184L19.8769 21.9607L20.2025 20.6567L19.2323 20.4144ZM19.0531 21.4718C18.7502 21.7508 18.0658 22.2071 16.5666 22.7942L16.9313 23.7253C18.4783 23.1195 19.295 22.6085 19.7306 22.2073L19.0531 21.4718ZM16.5668 22.7941C15.8115 23.0896 15.5024 23.3994 14.1059 23.7853L14.3722 24.7491C15.79 24.3574 16.4329 23.9203 16.9311 23.7254L16.5668 22.7941ZM14.0985 23.7874L14.0022 23.8156L14.2833 24.7753L14.3796 24.747L14.0985 23.7874ZM13.9817 23.8221C12.4927 24.3287 11.5 25.7448 11.5 27.3323H12.5C12.5 26.1614 13.231 25.1338 14.3038 24.7688L13.9817 23.8221ZM11.5 27.3323V30H12.5V27.3323H11.5ZM12 30.5H22.6448V29.5H12V30.5ZM22.6448 30.5H24.9998V29.5H22.6448V30.5ZM24.9998 30.5H27.3548V29.5H24.9998V30.5ZM27.3548 30.5H38V29.5H27.3548V30.5ZM38.5 30V27.3323H37.5V30H38.5ZM38.5 27.3323C38.5 25.7447 37.5068 24.3285 36.0179 23.822L35.6958 24.7687C36.7687 25.1337 37.5 26.1614 37.5 27.3323H38.5ZM20.4002 7.50838C20.9564 6.96352 21.5951 6.53066 22.2889 6.21899L21.8792 5.3068C21.0784 5.66652 20.3414 6.16616 19.7004 6.79403L20.4002 7.50838ZM21.5841 5.76299L21.5845 8.00264L22.5845 8.00245L22.5841 5.7628L21.5841 5.76299ZM21.5845 8.00324C21.5853 8.60395 22.0794 9.07385 22.6681 9.07385V8.07385C22.6125 8.07385 22.5845 8.03235 22.5845 8.00185L21.5845 8.00324ZM22.6688 9.07385C23.2567 9.07307 23.7513 8.60362 23.7513 8.00212H22.7513C22.7513 8.03182 22.7239 8.07378 22.6675 8.07386L22.6688 9.07385ZM23.7513 8.00194L23.7501 4.37361L22.7501 4.37396L22.7513 8.00229L23.7513 8.00194ZM23.4291 4.84062C23.8368 4.68425 24.4599 4.5 25.0001 4.5V3.5C24.2773 3.5 23.5187 3.73523 23.071 3.90695L23.4291 4.84062ZM25.0001 4.5C25.5718 4.5 26.1934 4.69631 26.5702 4.84156L26.9299 3.90847C26.5206 3.75071 25.7597 3.5 25.0001 3.5V4.5ZM26.2501 4.37502V7.9284H27.2501V4.37502H26.2501ZM26.2501 7.9284C26.2501 8.52931 26.7446 9.00014 27.3328 9.00014V8.00014C27.2784 8.00014 27.2501 7.95869 27.2501 7.9284H26.2501ZM27.3328 9.00014C27.9217 9.00014 28.4173 8.53031 28.4173 7.9284H27.4173C27.4173 7.9577 27.3899 8.00014 27.3328 8.00014V9.00014ZM28.4173 7.9284V5.76332H27.4173V7.9284H28.4173ZM27.7125 6.21947C28.4055 6.53055 29.0434 6.96371 29.5994 7.50838L30.2992 6.79403C29.6589 6.16683 28.9228 5.66663 28.1221 5.30718L27.7125 6.21947ZM29.5994 7.50843C30.8272 8.71089 31.5 10.3045 31.5 12H32.5C32.5 10.0325 31.7168 8.18234 30.2991 6.79398L29.5994 7.50843ZM32 11.5H18V12.5H32V11.5ZM18.5 12C18.5 10.3045 19.1728 8.71086 20.4002 7.50837L19.7004 6.79404C18.2833 8.18238 17.5 10.0325 17.5 12H18.5ZM19.5 14.1128C19.5001 13.7549 19.5247 13.407 19.5721 13.0695L18.5818 12.9305C18.5279 13.3145 18.5001 13.7088 18.5 14.1126L19.5 14.1128ZM19.077 13.5H31.9231V12.5H19.077V13.5ZM31.428 13.0695C31.4754 13.407 31.5 13.7548 31.5 14.1127H32.5C32.5 13.7088 32.4722 13.3145 32.4182 12.9305L31.428 13.0695ZM31.5 14.1127C31.5 15.8012 30.6758 17.6979 29.1826 19.2954L29.9132 19.9782C31.5363 18.2418 32.5 16.1117 32.5 14.1127H31.5ZM29.183 19.295C28.5281 19.9941 27.8009 20.5733 27.0849 20.9719L27.5714 21.8456C28.3901 21.3898 29.1974 20.7423 29.9128 19.9786L29.183 19.295ZM27.0848 20.972C26.4358 21.3337 25.8737 21.5 25.5 21.5V22.5C26.1156 22.5 26.8521 22.2465 27.5716 21.8455L27.0848 20.972ZM25.5 21.5C25.1263 21.5 24.5642 21.3337 23.9152 20.972L23.4284 21.8455C24.1479 22.2465 24.8844 22.5 25.5 22.5V21.5ZM23.9151 20.9719C23.1991 20.5733 22.4719 19.9941 21.817 19.295L21.0872 19.9786C21.8026 20.7423 22.6099 21.3898 23.4286 21.8456L23.9151 20.9719ZM21.8174 19.2954C20.3242 17.6979 19.5 15.8012 19.5 14.1127H18.5C18.5 16.1117 19.4637 18.2418 21.0868 19.9782L21.8174 19.2954ZM25.5175 23.9164L25.2584 24.8687L26.2234 25.1313L26.4825 24.179L25.5175 23.9164ZM25.7409 24.5H24.2591V25.5H25.7409V24.5ZM24.7416 24.8687L24.4825 23.9164L23.5175 24.179L23.7766 25.1313L24.7416 24.8687ZM24.3617 24.3929L25.3617 23.3452L24.6383 22.6548L23.6383 23.7025L24.3617 24.3929ZM24.6383 23.3452L25.6383 24.3929L26.3617 23.7025L25.3617 22.6548L24.6383 23.3452ZM22.5287 28.5H13V29.5H22.5287V28.5ZM13.5 29V27.4465H12.5V29H13.5ZM13.5 27.4465C13.5 26.7382 13.9173 26.1397 14.4994 25.925L14.1535 24.9868C13.1473 25.3578 12.5 26.3535 12.5 27.4465H13.5ZM14.475 25.9333L14.5376 25.9138L14.2405 24.959L14.1779 24.9785L14.475 25.9333ZM14.5289 25.9165C15.6182 25.5991 16.2278 25.2845 16.7037 25.0383L16.2443 24.1501C15.7932 24.3834 15.249 24.6651 14.2492 24.9564L14.5289 25.9165ZM16.7058 25.0372C16.8869 24.9425 17.0227 24.8733 17.1491 24.8213L16.7687 23.8965C16.5939 23.9684 16.4196 24.0584 16.2422 24.1512L16.7058 25.0372ZM17.1494 24.8212C17.9559 24.4887 19.0067 24.0143 19.8134 23.3971L19.2057 22.6029C18.5116 23.134 17.5674 23.5673 16.7683 23.8966L17.1494 24.8212ZM19.0626 23.2242L20.3993 25.8889L21.2931 25.4405L19.9564 22.7758L19.0626 23.2242ZM20.3986 25.8875C20.544 26.1796 20.8118 26.3951 21.1365 26.4608L21.3349 25.4807C21.3274 25.4792 21.3087 25.4718 21.2938 25.4418L20.3986 25.8875ZM21.1326 26.46C21.1996 26.4741 21.2681 26.4814 21.3372 26.4814V25.4814C21.3383 25.4814 21.339 25.4815 21.3389 25.4815L21.1326 26.46ZM21.3372 26.4814C21.6003 26.4814 21.8499 26.3791 22.0409 26.2018L21.3603 25.4691C21.3474 25.4811 21.3384 25.4814 21.3372 25.4814V26.4814ZM22.0402 26.2023L23.1478 25.177L22.4684 24.4432L21.3609 25.4685L22.0402 26.2023ZM22.3303 24.9573L22.5222 25.5801L23.4778 25.2857L23.2859 24.6629L22.3303 24.9573ZM22.5043 25.3674L22.033 28.9345L23.0244 29.0655L23.4957 25.4984L22.5043 25.3674ZM22.6489 24.791L21.4542 22.1942L20.5458 22.6122L21.7405 25.209L22.6489 24.791ZM21.4885 22.5097L21.7944 21.1065L20.8174 20.8935L20.5115 22.2967L21.4885 22.5097ZM20.9255 21.3245C21.8214 22.3747 22.8247 23.1914 23.7926 23.6327L24.2074 22.7228C23.4105 22.3595 22.5188 21.6515 21.6863 20.6755L20.9255 21.3245ZM23.6448 22.8258L21.8395 24.6481L22.5499 25.3519L24.3552 23.5296L23.6448 22.8258ZM25 28.5H24V29.5H25V28.5ZM24.4959 29.064L24.8829 26.064L23.8911 25.936L23.5041 28.936L24.4959 29.064ZM24.387 26.5H25.613V25.5H24.387V26.5ZM25.1171 26.064L25.5041 29.064L26.4959 28.936L26.1089 25.936L25.1171 26.064ZM26 28.5H25V29.5H26V28.5ZM29.2052 21.1066L29.5115 22.5098L30.4885 22.2966L30.1822 20.8934L29.2052 21.1066ZM29.5458 22.1941L28.3506 24.7909L29.259 25.2091L30.4542 22.6123L29.5458 22.1941ZM29.16 24.6482L27.3553 22.8259L26.6447 23.5296L28.4495 25.3518L29.16 24.6482ZM27.2074 23.6327C28.1755 23.1914 29.1789 22.3747 30.0742 21.3243L29.3131 20.6757C28.4814 21.6515 27.5896 22.3595 26.7926 22.7227L27.2074 23.6327ZM37 28.5H27.4714V29.5H37V28.5ZM27.9671 28.9345L27.4957 25.3674L26.5043 25.4984L26.9757 29.0655L27.9671 28.9345ZM27.4779 25.5798L27.6694 24.957L26.7136 24.6632L26.5221 25.286L27.4779 25.5798ZM26.8519 25.1771L27.9599 26.2024L28.6391 25.4685L27.5311 24.4431L26.8519 25.1771ZM27.9585 26.2011C28.1496 26.3793 28.3997 26.4814 28.6629 26.4814V25.4814C28.6613 25.4814 28.6588 25.4811 28.6554 25.4797C28.6519 25.4784 28.6467 25.4755 28.6405 25.4698L27.9585 26.2011ZM28.6629 26.4814C28.732 26.4814 28.8004 26.4743 28.8683 26.4598L28.6604 25.4817C28.6606 25.4816 28.6611 25.4816 28.6618 25.4815C28.6625 25.4814 28.6629 25.4814 28.6629 25.4814V26.4814ZM28.8636 26.4608C29.1884 26.3951 29.456 26.1795 29.6014 25.8877L28.7064 25.4417C28.6914 25.4719 28.6726 25.4792 28.6651 25.4807L28.8636 26.4608ZM29.6008 25.8889L30.9379 23.2242L30.0441 22.7758L28.707 25.4404L29.6008 25.8889ZM30.1869 23.3969C30.9939 24.0153 32.0451 24.4889 32.8522 24.8212L33.233 23.8965C32.4329 23.5671 31.489 23.1348 30.7951 22.6031L30.1869 23.3969ZM32.8506 24.8206C32.9766 24.8729 33.1139 24.9428 33.2944 25.0372L33.758 24.1512C33.5801 24.0581 33.4065 23.9687 33.2346 23.8972L32.8506 24.8206ZM33.2967 25.0384C33.7727 25.2844 34.3816 25.5991 35.4715 25.9165L35.7511 24.9564C34.7509 24.6651 34.2076 24.3835 33.7558 24.15L33.2967 25.0384ZM35.4636 25.9141L35.5266 25.9336L35.822 24.9782L35.759 24.9587L35.4636 25.9141ZM35.5013 25.925C36.0829 26.1396 36.5 26.738 36.5 27.4465H37.5C37.5 26.3537 36.8533 25.3579 35.8474 24.9868L35.5013 25.925ZM36.5 27.4465V29H37.5V27.4465H36.5Z" fill="#798595"/>
<path d="M39.203 24.1462C39.203 24.1462 49.4031 19.8352 49.4031 11.2113C49.4031 7.76207 49.4031 3.44919 49.4031 3.44919L39.203 0L29.0029 3.44919V11.2113C29.0029 19.8352 39.203 24.1462 39.203 24.1462Z" fill="white"/>
<path d="M39.2031 18.1097C39.2031 18.1097 44.3031 15.9542 44.3031 11.6423C44.3031 9.91766 44.3031 7.76122 44.3031 7.76122L39.2031 6.03662L34.103 7.76122V11.6423C34.103 15.9542 39.2031 18.1097 39.2031 18.1097Z" fill="#CAD1D9"/>
<path fill-rule="evenodd" clip-rule="evenodd" d="M39.2031 22.2298C39.0646 22.2298 38.9261 22.2018 38.7947 22.1471C38.4534 22.0028 30.4607 18.5426 30.4607 11.4231V5.56861C30.4607 5.11751 30.7474 4.71825 31.1741 4.57395L38.8674 1.97243C39.0842 1.89819 39.3206 1.89819 39.5374 1.97243L47.2307 4.57395C47.6574 4.71825 47.9441 5.11891 47.9441 5.56861V11.4231C47.9441 18.5426 39.9501 22.0042 39.6102 22.1471C39.4801 22.2018 39.3416 22.2298 39.2031 22.2298ZM32.5589 6.3237V11.4231C32.5589 16.3487 37.6966 19.2696 39.2017 20.0191C40.7054 19.2654 45.8473 16.3305 45.8473 11.4231V6.3237L39.2031 4.07662L32.5589 6.3237Z" fill="#798595"/>
</svg>
