<svg width="11" height="19" viewBox="0 0 11 19" fill="none" xmlns="http://www.w3.org/2000/svg">
<path fill-rule="evenodd" clip-rule="evenodd" d="M9.68172 9.99609V9.53906C9.68172 9.39844 9.72901 9.2793 9.82359 9.18164C9.91818 9.08398 10.0336 9.03516 10.1698 9.03516C10.2984 9.03516 10.41 9.08398 10.5046 9.18164C10.5992 9.2793 10.6465 9.39844 10.6465 9.53906V9.99609C10.6465 10.3789 10.6124 10.75 10.5443 11.1094C10.4687 11.4688 10.3627 11.8125 10.2265 12.1406C10.0903 12.4688 9.92764 12.7812 9.73847 13.0781C9.5493 13.3672 9.33364 13.6367 9.09151 13.8867C8.84937 14.1367 8.58453 14.3594 8.29699 14.5547C8.01702 14.7578 7.71624 14.9277 7.39465 15.0645C7.07306 15.2012 6.73823 15.3086 6.39016 15.3867C6.04209 15.457 5.68645 15.4922 5.32324 15.4922C4.95247 15.4922 4.59305 15.457 4.24497 15.3867C3.8969 15.3086 3.56396 15.2012 3.24616 15.0645C2.92835 14.9277 2.62568 14.7578 2.33814 14.5547C2.05817 14.3594 1.79711 14.1367 1.55498 13.8867C1.31284 13.6367 1.09719 13.3633 0.908016 13.0664C0.711279 12.7773 0.546701 12.4668 0.414282 12.1348C0.281863 11.8027 0.17782 11.457 0.102152 11.0977C0.0340506 10.7383 0 10.3711 0 9.99609C0 9.61328 0.0340506 9.24219 0.102152 8.88281C0.17782 8.52344 0.283755 8.17969 0.419957 7.85156C0.55616 7.52344 0.718846 7.21094 0.908016 6.91406C1.09719 6.625 1.31284 6.35547 1.55498 6.10547C1.79711 5.85547 2.06195 5.63281 2.34949 5.4375C2.62946 5.23438 2.93024 5.06445 3.25183 4.92773C3.57342 4.79102 3.90825 4.68359 4.25632 4.60547C4.6044 4.53516 4.96004 4.5 5.32324 4.5C5.71672 4.5 6.09695 4.54102 6.46394 4.62305C6.83093 4.70508 7.17332 4.82422 7.49113 4.98047C7.6122 5.03516 7.69732 5.12695 7.74651 5.25586C7.79569 5.38477 7.79002 5.51172 7.72948 5.63672C7.67652 5.76172 7.58761 5.84961 7.46275 5.90039C7.3379 5.95117 7.21494 5.94531 7.09387 5.88281C6.8366 5.76562 6.55852 5.67188 6.25963 5.60156C5.96074 5.53125 5.64861 5.49609 5.32324 5.49609C4.72546 5.49609 4.16174 5.61328 3.63206 5.84766C3.10239 6.08203 2.64081 6.40234 2.24734 6.80859C1.8463 7.22266 1.53228 7.70117 1.30527 8.24414C1.07827 8.78711 0.964767 9.37109 0.964767 9.99609C0.964767 10.6133 1.07827 11.1953 1.30527 11.7422C1.53228 12.2891 1.84252 12.7656 2.23599 13.1719C2.62946 13.5859 3.09104 13.9102 3.62071 14.1445C4.15039 14.3789 4.7179 14.4961 5.32324 14.4961C5.92102 14.4961 6.48475 14.3789 7.01442 14.1445C7.5441 13.9102 8.00567 13.5898 8.39915 13.1836C8.80019 12.7773 9.11421 12.3008 9.34121 11.7539C9.56822 11.207 9.68172 10.6211 9.68172 9.99609ZM5.3237 10.3008L9.82972 5.64844C9.92053 5.54688 10.0321 5.49609 10.1646 5.49609C10.297 5.49609 10.4124 5.54688 10.5107 5.64844C10.6015 5.74219 10.6469 5.85938 10.6469 6C10.6469 6.14062 10.6015 6.25781 10.5107 6.35156L5.6642 11.3555C5.5734 11.457 5.4599 11.5078 5.3237 11.5078C5.18749 11.5078 5.07399 11.457 4.98319 11.3555L3.53036 9.85547C3.432 9.76172 3.38281 9.64453 3.38281 9.50391C3.38281 9.36328 3.432 9.24609 3.53036 9.15234C3.62117 9.05078 3.73467 9 3.87087 9C4.00707 9 4.12058 9.05078 4.21138 9.15234L5.3237 10.3008Z" fill="#77B841"/>
</svg>
