<svg  viewBox="0 0 28 20" fill="none" xmlns="http://www.w3.org/2000/svg">
<path d="M27.0968 0.967758H14.4516L0.492188 10.6289V18.6588H27.0968L28 18.129V16.4516L27.4121 15.8926V14.3066L28 13.8709V11.2903L27.4713 10.7838V9.16142L28 8.70959V6.129L27.4713 5.66148V4.2396L28 3.54841V1.87098C28 1.37212 27.5956 0.967758 27.0968 0.967758Z" fill="#E5646E"/>
<path d="M14.0182 3.54839H28V6.12904H14.0182V3.54839ZM14 8.70964L14.4516 11.2903H28V8.70964H14Z" fill="#F2F2F6"/>
<path d="M0.903219 15.4194V10.8203L0 11.2903V13.8709L0.382812 14.1973V15.8926L0 16.4516V18.129C0 18.6279 0.404414 19.0322 0.903219 19.0322H27.0968C27.5956 19.0322 28 18.6278 28 18.129H3.61293C2.11641 18.129 0.903219 16.9159 0.903219 15.4194Z" fill="#DB4655"/>
<path d="M14.4516 0.967758H0.903219L0.328125 1.87098L0.903219 11.2903H14.4516V0.967758Z" fill="#5055A0"/>
<path d="M0.903219 0.967751C0.404414 0.967751 0 1.37211 0 1.87097V11.2903H0.903219V0.967751Z" fill="#3F3F8F"/>
<path d="M1.81073 2.98124C1.56108 2.98124 1.35693 2.77901 1.35693 2.52964C1.35693 2.28026 1.55671 2.07803 1.80636 2.07803H1.81079C2.06043 2.07803 2.26239 2.28026 2.26239 2.52964C2.26239 2.77901 2.06032 2.98124 1.81073 2.98124ZM1.81073 6.59417C1.56108 6.59417 1.35693 6.39194 1.35693 6.14257C1.35693 5.89319 1.55671 5.69096 1.80636 5.69096H1.81079C2.06043 5.69096 2.26239 5.89319 2.26239 6.14257C2.26239 6.39194 2.06032 6.59417 1.81073 6.59417ZM1.81073 10.2071C1.56108 10.2071 1.35693 10.0048 1.35693 9.75544C1.35693 9.50606 1.55671 9.30383 1.80636 9.30383H1.81079C2.06043 9.30383 2.26239 9.50606 2.26239 9.75544C2.26239 10.0048 2.06032 10.2071 1.81073 10.2071Z" fill="white"/>
<path d="M1.81073 4.78774C1.56108 4.78774 1.35693 4.58551 1.35693 4.33613C1.35693 4.08676 1.55671 3.88452 1.80636 3.88452H1.81079C1.8701 3.88451 1.92883 3.89618 1.98363 3.91887C2.03842 3.94156 2.08821 3.97482 2.13015 4.01676C2.17209 4.0587 2.20536 4.10849 2.22805 4.16329C2.25074 4.21809 2.26241 4.27682 2.26239 4.33613C2.26239 4.39544 2.25071 4.45417 2.22801 4.50897C2.20531 4.56376 2.17204 4.61355 2.1301 4.65549C2.08816 4.69742 2.03837 4.73069 1.98357 4.75338C1.92877 4.77607 1.87004 4.78775 1.81073 4.78774ZM1.81073 8.40062C1.56108 8.40062 1.35693 8.19838 1.35693 7.94901C1.35693 7.69963 1.55671 7.4974 1.80636 7.4974H1.81079C2.06043 7.4974 2.26239 7.69963 2.26239 7.94901C2.26239 8.19838 2.06032 8.40062 1.81073 8.40062Z" fill="#F2F2F6"/>
<path d="M12.6496 2.98124C12.3999 2.98124 12.1958 2.77901 12.1958 2.52964C12.1958 2.28026 12.3956 2.07803 12.6452 2.07803H12.6497C12.8993 2.07803 13.1013 2.28026 13.1013 2.52964C13.1013 2.77901 12.8992 2.98124 12.6496 2.98124ZM12.6496 6.59417C12.3999 6.59417 12.1958 6.39194 12.1958 6.14257C12.1958 5.89319 12.3956 5.69096 12.6452 5.69096H12.6497C12.8993 5.69096 13.1013 5.89319 13.1013 6.14257C13.1013 6.39194 12.8992 6.59417 12.6496 6.59417ZM12.6496 10.2071C12.3999 10.2071 12.1958 10.0048 12.1958 9.75544C12.1958 9.50606 12.3956 9.30383 12.6452 9.30383H12.6497C12.8993 9.30383 13.1013 9.50606 13.1013 9.75544C13.1013 10.0048 12.8992 10.2071 12.6496 10.2071Z" fill="white"/>
<path d="M12.6497 4.78774C12.4001 4.78774 12.1959 4.5855 12.1959 4.33613C12.1959 4.08675 12.3957 3.88452 12.6453 3.88452H12.6498C12.8994 3.88452 13.1014 4.08675 13.1014 4.33613C13.1014 4.5855 12.8994 4.78774 12.6497 4.78774ZM12.6497 8.40061C12.4001 8.40061 12.1959 8.19838 12.1959 7.949C12.1959 7.69963 12.3957 7.49739 12.6453 7.49739H12.6498C12.8994 7.49739 13.1014 7.69963 13.1014 7.949C13.1014 8.19838 12.8994 8.40061 12.6497 8.40061ZM4.52069 2.98124C4.27104 2.98124 4.06689 2.77901 4.06689 2.52964C4.06689 2.28026 4.26667 2.07803 4.51632 2.07803H4.52075C4.77039 2.07803 4.97236 2.28026 4.97236 2.52964C4.97236 2.77901 4.77034 2.98124 4.52069 2.98124ZM4.52069 6.59417C4.27104 6.59417 4.06689 6.39194 4.06689 6.14257C4.06689 5.89319 4.26667 5.69096 4.51632 5.69096H4.52075C4.77039 5.69096 4.97236 5.89319 4.97236 6.14257C4.97236 6.39194 4.77034 6.59417 4.52069 6.59417ZM4.52069 10.2071C4.27104 10.2071 4.06689 10.0048 4.06689 9.75544C4.06689 9.50606 4.26667 9.30383 4.51632 9.30383H4.52075C4.77039 9.30383 4.97236 9.50606 4.97236 9.75544C4.97236 10.0048 4.77034 10.2071 4.52069 10.2071Z" fill="#F2F2F6"/>
<path d="M4.52054 4.78774C4.27089 4.78774 4.06674 4.58551 4.06674 4.33613C4.06674 4.08676 4.26652 3.88452 4.51616 3.88452H4.52059C4.5799 3.88451 4.63864 3.89618 4.69343 3.91887C4.74823 3.94156 4.79802 3.97482 4.83996 4.01676C4.8819 4.0587 4.91517 4.10849 4.93786 4.16329C4.96055 4.21809 4.97222 4.27682 4.9722 4.33613C4.97221 4.39544 4.96053 4.45418 4.93784 4.50897C4.91514 4.56377 4.88187 4.61356 4.83993 4.6555C4.79798 4.69744 4.74819 4.7307 4.69339 4.75339C4.63859 4.77608 4.57985 4.78775 4.52054 4.78774ZM4.52054 8.40061C4.27089 8.40061 4.06674 8.19838 4.06674 7.94901C4.06674 7.69963 4.26652 7.4974 4.51616 7.4974H4.52059C4.77024 7.4974 4.9722 7.69963 4.9722 7.94901C4.9722 8.19838 4.77019 8.40061 4.52054 8.40061ZM3.16571 3.88447C2.91606 3.88447 2.71191 3.68223 2.71191 3.43286C2.71191 3.18348 2.91169 2.98125 3.16134 2.98125H3.16577C3.22508 2.98123 3.28381 2.9929 3.33861 3.01559C3.3934 3.03828 3.4432 3.07155 3.48513 3.11349C3.52707 3.15543 3.56034 3.20522 3.58303 3.26002C3.60572 3.31481 3.61739 3.37355 3.61738 3.43286C3.61738 3.49217 3.6057 3.5509 3.58301 3.6057C3.56031 3.6605 3.52704 3.71029 3.4851 3.75223C3.44316 3.79417 3.39336 3.82743 3.33856 3.85012C3.28376 3.87281 3.22502 3.88448 3.16571 3.88447ZM3.16571 7.4974C2.91606 7.4974 2.71191 7.29516 2.71191 7.04579C2.71191 6.79641 2.91169 6.59418 3.16134 6.59418H3.16577C3.41541 6.59418 3.61738 6.79641 3.61738 7.04579C3.61738 7.29516 3.41536 7.4974 3.16571 7.4974Z" fill="white"/>
<path d="M3.16571 5.69096C2.91606 5.69096 2.71191 5.48873 2.71191 5.23935C2.71191 4.98998 2.91169 4.78774 3.16134 4.78774H3.16577C3.41541 4.78774 3.61738 4.98998 3.61738 5.23935C3.61738 5.48873 3.41536 5.69096 3.16571 5.69096ZM3.16571 9.30384C2.91606 9.30384 2.71191 9.1016 2.71191 8.85223C2.71191 8.60285 2.91169 8.40062 3.16134 8.40062H3.16577C3.41541 8.40062 3.61738 8.60285 3.61738 8.85223C3.61738 9.1016 3.41536 9.30384 3.16571 9.30384Z" fill="#F2F2F6"/>
<path d="M7.23016 2.98124C6.98052 2.98124 6.77637 2.77901 6.77637 2.52964C6.77637 2.28026 6.97614 2.07803 7.22579 2.07803H7.23022C7.47987 2.07803 7.68183 2.28026 7.68183 2.52964C7.68183 2.77901 7.47976 2.98124 7.23016 2.98124ZM7.23016 6.59417C6.98052 6.59417 6.77637 6.39194 6.77637 6.14257C6.77637 5.89319 6.97614 5.69096 7.22579 5.69096H7.23022C7.47987 5.69096 7.68183 5.89319 7.68183 6.14257C7.68183 6.39194 7.47976 6.59417 7.23016 6.59417ZM7.23016 10.2071C6.98052 10.2071 6.77637 10.0048 6.77637 9.75544C6.77637 9.50606 6.97614 9.30383 7.22579 9.30383H7.23022C7.47987 9.30383 7.68183 9.50606 7.68183 9.75544C7.68183 10.0048 7.47976 10.2071 7.23016 10.2071Z" fill="white"/>
<path d="M7.23007 4.78774C6.98042 4.78774 6.77627 4.58551 6.77627 4.33613C6.77627 4.08676 6.97604 3.88452 7.22569 3.88452H7.23012C7.28943 3.88451 7.34816 3.89618 7.40296 3.91887C7.45776 3.94156 7.50755 3.97482 7.54949 4.01676C7.59143 4.0587 7.62469 4.10849 7.64738 4.16329C7.67007 4.21809 7.68174 4.27682 7.68173 4.33613C7.68173 4.39544 7.67005 4.45417 7.64735 4.50897C7.62465 4.56376 7.59138 4.61355 7.54944 4.65549C7.5075 4.69742 7.45771 4.73069 7.40291 4.75338C7.34811 4.77607 7.28938 4.78775 7.23007 4.78774ZM7.23007 8.40061C6.98042 8.40061 6.77627 8.19838 6.77627 7.94901C6.77627 7.69963 6.97604 7.4974 7.22569 7.4974H7.23012C7.47977 7.4974 7.68173 7.69963 7.68173 7.94901C7.68173 8.19838 7.47966 8.40061 7.23007 8.40061ZM5.87518 3.88447C5.62553 3.88447 5.42139 3.68223 5.42139 3.43286C5.42139 3.18348 5.62116 2.98125 5.87081 2.98125H5.87524C5.93455 2.98123 5.99328 2.9929 6.04808 3.01559C6.10288 3.03828 6.15267 3.07155 6.19461 3.11349C6.23654 3.15543 6.26981 3.20522 6.2925 3.26002C6.31519 3.31481 6.32686 3.37355 6.32685 3.43286C6.32686 3.49217 6.31519 3.55091 6.29249 3.60571C6.2698 3.66051 6.23653 3.7103 6.19459 3.75224C6.15264 3.79418 6.10285 3.82745 6.04804 3.85013C5.99324 3.87282 5.9345 3.88449 5.87518 3.88447ZM5.87518 7.4974C5.62553 7.4974 5.42139 7.29516 5.42139 7.04579C5.42139 6.79641 5.62116 6.59418 5.87081 6.59418H5.87524C6.12489 6.59418 6.32685 6.79641 6.32685 7.04579C6.32685 7.29516 6.12483 7.4974 5.87518 7.4974Z" fill="#F2F2F6"/>
<path d="M5.87518 5.69096C5.62553 5.69096 5.42139 5.48873 5.42139 5.23935C5.42139 4.98998 5.62116 4.78774 5.87081 4.78774H5.87524C6.12489 4.78774 6.32685 4.98998 6.32685 5.23935C6.32685 5.48873 6.12483 5.69096 5.87518 5.69096ZM5.87518 9.30384C5.62553 9.30384 5.42139 9.1016 5.42139 8.85223C5.42139 8.60285 5.62116 8.40062 5.87081 8.40062H5.87524C6.12489 8.40062 6.32685 8.60285 6.32685 8.85223C6.32685 9.1016 6.12483 9.30384 5.87518 9.30384Z" fill="white"/>
<path d="M9.93524 2.98124C9.68559 2.98124 9.48145 2.77901 9.48145 2.52964C9.48145 2.28026 9.68122 2.07803 9.93087 2.07803H9.9353C10.1849 2.07803 10.3869 2.28026 10.3869 2.52964C10.3869 2.77901 10.1849 2.98124 9.93524 2.98124ZM9.93524 6.59417C9.68559 6.59417 9.48145 6.39194 9.48145 6.14257C9.48145 5.89319 9.68122 5.69096 9.93087 5.69096H9.9353C10.1849 5.69096 10.3869 5.89319 10.3869 6.14257C10.3869 6.39194 10.1849 6.59417 9.93524 6.59417ZM9.93524 10.2071C9.68559 10.2071 9.48145 10.0048 9.48145 9.75544C9.48145 9.50606 9.68122 9.30383 9.93087 9.30383H9.9353C10.1849 9.30383 10.3869 9.50606 10.3869 9.75544C10.3869 10.0048 10.1849 10.2071 9.93524 10.2071Z" fill="#F2F2F6"/>
<path d="M9.93558 4.78774C9.68593 4.78774 9.48178 4.58551 9.48178 4.33613C9.48178 4.08676 9.68155 3.88452 9.9312 3.88452H9.93563C9.99494 3.88451 10.0537 3.89618 10.1085 3.91887C10.1633 3.94156 10.2131 3.97482 10.255 4.01676C10.2969 4.0587 10.3302 4.10849 10.3529 4.16329C10.3756 4.21809 10.3873 4.27682 10.3872 4.33613C10.3872 4.39544 10.3756 4.45418 10.3529 4.50897C10.3302 4.56377 10.2969 4.61356 10.255 4.6555C10.213 4.69744 10.1632 4.7307 10.1084 4.75339C10.0536 4.77608 9.99489 4.78775 9.93558 4.78774ZM9.93558 8.40061C9.68593 8.40061 9.48178 8.19838 9.48178 7.94901C9.48178 7.69963 9.68155 7.4974 9.9312 7.4974H9.93563C10.1853 7.4974 10.3872 7.69963 10.3872 7.94901C10.3872 8.19838 10.1852 8.40061 9.93558 8.40061ZM8.58075 3.88447C8.3311 3.88447 8.12695 3.68223 8.12695 3.43286C8.12695 3.18348 8.32673 2.98125 8.57638 2.98125H8.58081C8.64012 2.98123 8.69885 2.9929 8.75365 3.01559C8.80844 3.03828 8.85823 3.07155 8.90017 3.11349C8.94211 3.15543 8.97538 3.20522 8.99807 3.26002C9.02076 3.31481 9.03243 3.37355 9.03241 3.43286C9.03242 3.49217 9.02074 3.5509 8.99805 3.6057C8.97535 3.6605 8.94208 3.71029 8.90014 3.75223C8.85819 3.79417 8.8084 3.82743 8.7536 3.85012C8.6988 3.87281 8.64006 3.88448 8.58075 3.88447ZM8.58075 7.4974C8.3311 7.4974 8.12695 7.29516 8.12695 7.04579C8.12695 6.79641 8.32673 6.59418 8.57638 6.59418H8.58081C8.83045 6.59418 9.03241 6.79641 9.03241 7.04579C9.03241 7.29516 8.8304 7.4974 8.58075 7.4974Z" fill="white"/>
<path d="M8.58075 5.69096C8.3311 5.69096 8.12695 5.48872 8.12695 5.23935C8.12695 4.98997 8.32673 4.78774 8.57638 4.78774H8.58081C8.83045 4.78774 9.03241 4.98997 9.03241 5.23935C9.03241 5.48872 8.8304 5.69096 8.58075 5.69096ZM8.58075 9.30383C8.3311 9.30383 8.12695 9.1016 8.12695 8.85222C8.12695 8.60285 8.32673 8.40061 8.57638 8.40061H8.58081C8.83045 8.40061 9.03241 8.60285 9.03241 8.85222C9.03241 9.1016 8.8304 9.30383 8.58075 9.30383ZM11.2948 3.88447C11.0452 3.88447 10.841 3.68223 10.841 3.43286C10.841 3.18348 11.0408 2.98125 11.2905 2.98125H11.2949C11.3542 2.98123 11.4129 2.9929 11.4677 3.01559C11.5225 3.03828 11.5723 3.07155 11.6143 3.11349C11.6562 3.15543 11.6895 3.20522 11.7122 3.26002C11.7348 3.31481 11.7465 3.37355 11.7465 3.43286C11.7465 3.49217 11.7348 3.5509 11.7121 3.6057C11.6894 3.6605 11.6562 3.71029 11.6142 3.75223C11.5723 3.79417 11.5225 3.82743 11.4677 3.85012C11.4129 3.87281 11.3541 3.88448 11.2948 3.88447ZM11.2948 7.4974C11.0452 7.4974 10.841 7.29516 10.841 7.04579C10.841 6.79641 11.0408 6.59418 11.2905 6.59418H11.2949C11.5445 6.59418 11.7465 6.79641 11.7465 7.04579C11.7465 7.29516 11.5445 7.4974 11.2948 7.4974Z" fill="#F2F2F6"/>
<path d="M11.2946 5.69096C11.045 5.69096 10.8408 5.48873 10.8408 5.23935C10.8408 4.98998 11.0406 4.78774 11.2902 4.78774H11.2947C11.5443 4.78774 11.7463 4.98998 11.7463 5.23935C11.7463 5.48873 11.5443 5.69096 11.2946 5.69096ZM11.2946 9.30384C11.045 9.30384 10.8408 9.1016 10.8408 8.85223C10.8408 8.60285 11.0406 8.40062 11.2902 8.40062H11.2947C11.5443 8.40062 11.7463 8.60285 11.7463 8.85223C11.7463 9.1016 11.5443 9.30384 11.2946 9.30384Z" fill="white"/>
<path d="M0.164062 15.7057L1.10797 16.4516H28V13.8709H0.903219L0.164062 15.7057Z" fill="#F2F2F6"/>
<path d="M0 13.8709V16.4516H1.10797C0.97269 16.1243 0.903138 15.7735 0.903273 15.4193V13.8709L0 13.8709Z" fill="#E1E1E6"/>
</svg>
