<svg width="24" height="25" viewBox="0 0 24 25" fill="none" xmlns="http://www.w3.org/2000/svg">
<g clip-path="url(#clip0_421_258696)">
<path d="M21 12.1562C21 10.3753 20.4717 8.6345 19.4818 7.15403C18.492 5.67355 17.0852 4.52002 15.4395 3.83942C13.7938 3.15882 11.9832 2.98176 10.2368 3.33066C8.49045 3.67955 6.88684 4.5387 5.62897 5.79938C4.3711 7.06005 3.51551 8.66557 3.1705 10.4127C2.8255 12.1599 3.00659 13.9701 3.69084 15.6143C4.3751 17.2584 5.53176 18.6627 7.01443 19.6492C8.49711 20.6357 10.2391 21.1602 12.02 21.1562" stroke="white" stroke-width="1.5" stroke-linecap="round" stroke-linejoin="round"/>
<path d="M12 7.15625V12.1562L13 13.1562" stroke="white" stroke-width="1.5" stroke-linecap="round" stroke-linejoin="round"/>
<path d="M22 16.1562C22 20.1562 19.5 22.1562 18.5 22.1562C17.5 22.1562 15 20.1562 15 16.1562C16 16.1562 17.5 15.6562 18.5 14.6562C19.5 15.6562 21 16.1562 22 16.1562Z" stroke="white" stroke-width="1.5" stroke-linecap="round" stroke-linejoin="round"/>
</g>
<defs>
<clipPath id="clip0_421_258696">
<rect width="24" height="24" fill="white" transform="translate(0 0.15625)"/>
</clipPath>
</defs>
</svg>
