<svg width="18" height="19" viewBox="0 0 18 19" fill="none" xmlns="http://www.w3.org/2000/svg">
<path d="M12.75 8.75H9.75V5.75C9.75 5.55109 9.67098 5.36032 9.53033 5.21967C9.38968 5.07902 9.19891 5 9 5C8.80109 5 8.61032 5.07902 8.46967 5.21967C8.32902 5.36032 8.25 5.55109 8.25 5.75V8.75H5.25C5.05109 8.75 4.86032 8.82902 4.71967 8.96967C4.57902 9.11032 4.5 9.30109 4.5 9.5C4.5 9.69891 4.57902 9.88968 4.71967 10.0303C4.86032 10.171 5.05109 10.25 5.25 10.25H8.25V13.25C8.25 13.4489 8.32902 13.6397 8.46967 13.7803C8.61032 13.921 8.80109 14 9 14C9.19891 14 9.38968 13.921 9.53033 13.7803C9.67098 13.6397 9.75 13.4489 9.75 13.25V10.25H12.75C12.9489 10.25 13.1397 10.171 13.2803 10.0303C13.421 9.88968 13.5 9.69891 13.5 9.5C13.5 9.30109 13.421 9.11032 13.2803 8.96967C13.1397 8.82902 12.9489 8.75 12.75 8.75Z" fill="#798595"/>
</svg>
