<svg width="33" height="32" viewBox="0 0 33 32" fill="none" xmlns="http://www.w3.org/2000/svg">
<path d="M16.4998 29.3326C23.8332 29.3326 29.8332 23.3326 29.8332 15.9992C29.8332 8.66589 23.8332 2.66589 16.4998 2.66589C9.1665 2.66589 3.1665 8.66589 3.1665 15.9992C3.1665 23.3326 9.1665 29.3326 16.4998 29.3326Z" stroke="#C6B437" stroke-width="1.5" stroke-linecap="round" stroke-linejoin="round"/>
<path d="M15.9138 12.8363H15.5271C15.0205 12.8239 14.5276 13.0011 14.1449 13.3332C13.7622 13.6653 13.5174 14.1284 13.4584 14.6316C13.4247 15.1351 13.5892 15.6318 13.9167 16.0156C14.2442 16.3995 14.7088 16.6401 15.2113 16.686V22.679C15.2113 23.1918 15.415 23.6835 15.7776 24.0461C16.1402 24.4086 16.6319 24.6123 17.1447 24.6123C17.6574 24.6123 18.1492 24.4086 18.5117 24.0461C18.8743 23.6835 19.078 23.1918 19.078 22.679V16.0004C19.078 15.1612 18.7446 14.3564 18.1512 13.763C17.5578 13.1697 16.753 12.8363 15.9138 12.8363Z" fill="#C6B437"/>
<path d="M16.2794 11.4485C16.7168 11.4485 17.1444 11.3188 17.5081 11.0758C17.8719 10.8328 18.1554 10.4874 18.3228 10.0832C18.4902 9.67912 18.534 9.23444 18.4486 8.80543C18.3633 8.37641 18.1526 7.98234 17.8433 7.67304C17.534 7.36374 17.1399 7.1531 16.7109 7.06777C16.2818 6.98243 15.8371 7.02623 15.433 7.19362C15.0288 7.36101 14.6834 7.64448 14.4404 8.00818C14.1973 8.37188 14.0676 8.79947 14.0676 9.23689C14.0675 9.52737 14.1246 9.81504 14.2356 10.0834C14.3467 10.3518 14.5096 10.5957 14.7151 10.8011C14.9205 11.0065 15.1644 11.1694 15.4328 11.2805C15.7012 11.3916 15.9889 11.4487 16.2794 11.4485Z" fill="#C6B437"/>
</svg>
