<svg width="17" height="17" viewBox="0 0 17 17" fill="none" xmlns="http://www.w3.org/2000/svg">
<path d="M10.7626 14.7376H12.4952C13.4521 14.7376 14.2278 13.9619 14.2278 13.005L14.2278 5.98555C14.2278 5.43412 14.0088 4.90528 13.6189 4.51536L11.9752 2.87167C11.5852 2.48175 11.0564 2.2627 10.505 2.2627H5.56466C4.60776 2.2627 3.83203 3.03842 3.83203 3.99533L3.83203 6.42101" stroke="#798595" stroke-width="1.3" stroke-linecap="round" stroke-linejoin="round"/>
<path d="M14.2126 5.72819H11.8033C11.2291 5.72819 10.7637 5.26276 10.7637 4.68861V2.2793" stroke="#798595" stroke-width="1.3" stroke-linecap="round" stroke-linejoin="round"/>
<path fill-rule="evenodd" clip-rule="evenodd" d="M8.68474 13.3514V9.88611C8.68474 9.12058 8.06416 8.5 7.29864 8.5H3.83337C3.06785 8.5 2.44727 9.12058 2.44727 9.88611L2.44727 13.3514C2.44727 14.1169 3.06785 14.7375 3.83337 14.7375H7.29864C8.06416 14.7375 8.68474 14.1169 8.68474 13.3514Z" stroke="#798595" stroke-width="1.3" stroke-linecap="round" stroke-linejoin="round"/>
<path d="M6.60412 10.7522C6.50848 10.7521 6.43102 10.6745 6.43108 10.5788C6.43114 10.4832 6.50869 10.4057 6.60434 10.4057C6.69999 10.4057 6.77754 10.4832 6.7776 10.5788C6.77766 10.6745 6.7002 10.7521 6.60455 10.7522H6.60412" stroke="#798595" stroke-width="1.3" stroke-linecap="round" stroke-linejoin="round"/>
<path d="M5.87788 14.7377C5.89962 14.5943 5.9112 14.4496 5.91253 14.3046C5.91253 12.63 4.55501 11.2725 2.88042 11.2725V11.2725C2.73539 11.2735 2.59062 11.2851 2.44727 11.3071" stroke="#798595" stroke-width="1.3" stroke-linecap="round" stroke-linejoin="round"/>
</svg>
