<svg width="20" height="20" viewBox="0 0 20 20" fill="none" xmlns="http://www.w3.org/2000/svg">
<path d="M15.0166 10.275L14 9.25834C13.7583 9.05001 13.6166 8.74168 13.6083 8.40001C13.5916 8.02502 13.7416 7.65002 14.0166 7.37502L15.0166 6.37503C15.8833 5.50838 16.2083 4.67505 15.9333 4.01672C15.6666 3.36673 14.8416 3.0084 13.625 3.0084H4.91674V2.29174C4.91674 1.95008 4.63341 1.66675 4.29174 1.66675C3.95008 1.66675 3.66675 1.95008 3.66675 2.29174V17.7083C3.66675 18.0499 3.95008 18.3332 4.29174 18.3332C4.63341 18.3332 4.91674 18.0499 4.91674 17.7083V13.6416H13.625C14.825 13.6416 15.6333 13.275 15.9083 12.6166C16.1833 11.9583 15.8666 11.1333 15.0166 10.275Z" fill="white"/>
</svg>
