<svg width="20" height="20" viewBox="0 0 20 20" fill="none" xmlns="http://www.w3.org/2000/svg">
<path d="M15.0159 10.2752L13.9992 9.25858C13.7576 9.05025 13.6159 8.74192 13.6076 8.40026C13.5909 8.02526 13.7409 7.65027 14.0159 7.37527L15.0159 6.37528C15.8826 5.50862 16.2076 4.6753 15.9326 4.01697C15.6659 3.36698 14.8409 3.00865 13.6242 3.00865H4.916V2.29199C4.916 1.95032 4.63267 1.66699 4.29101 1.66699C3.94935 1.66699 3.66602 1.95032 3.66602 2.29199V17.7085C3.66602 18.0502 3.94935 18.3335 4.29101 18.3335C4.63267 18.3335 4.916 18.0502 4.916 17.7085V13.6419H13.6242C14.8242 13.6419 15.6326 13.2752 15.9076 12.6169C16.1826 11.9586 15.8659 11.1336 15.0159 10.2752Z" fill="#109BDE"/>
</svg>
