<svg width="30" height="30" viewBox="0 0 30 30" fill="none" xmlns="http://www.w3.org/2000/svg">
<g id="fleet-management (1) 1" clip-path="url(#clip0_1_20245)">
<g id="Group">
<path id="Vector" d="M15 4.58789C13.0723 4.58789 11.4961 6.1582 11.4961 8.0918C11.6895 12.7383 18.3105 12.7324 18.5039 8.0918C18.5039 6.1582 16.9336 4.58789 15 4.58789ZM15 10.9863C13.4063 10.9863 12.1055 9.69141 12.1055 8.0918C12.2578 4.24805 17.7422 4.25391 17.8945 8.0918C17.8945 9.68555 16.5996 10.9863 15 10.9863Z" fill="#151515" stroke="black" stroke-width="0.5"/>
<path id="Vector_2" d="M21.2227 6.49219H20.3672C20.2559 6.12305 20.1094 5.77148 19.9277 5.42578L20.5312 4.82227C20.7891 4.58203 20.7832 4.14844 20.5312 3.9082L19.1836 2.56055C18.9316 2.30859 18.5215 2.30859 18.2695 2.56055L17.666 3.16406C17.3262 2.97656 16.9687 2.83008 16.5996 2.71875V1.86328C16.5996 1.50586 16.3125 1.21875 15.9551 1.21875H14.0508C13.6934 1.21875 13.4062 1.50586 13.4062 1.86328V2.71875C13.0371 2.83008 12.6797 2.97656 12.3398 3.16406L11.7305 2.55469C11.4785 2.30273 11.0684 2.30273 10.8164 2.55469L9.46875 3.90234C9.2168 4.1543 9.2168 4.56445 9.46875 4.81641L10.0723 5.41992C9.89062 5.75977 9.73828 6.11719 9.63281 6.48633H8.77734C8.41992 6.48633 8.13281 6.7793 8.13281 7.13086V9.04102C8.13281 9.39844 8.42578 9.68555 8.77734 9.68555H9.63281C9.74414 10.0547 9.89062 10.4121 10.0723 10.752L9.46875 11.3613C9.2168 11.6133 9.2168 12.0234 9.46875 12.2754L10.8164 13.623C11.0566 13.875 11.4902 13.8809 11.7305 13.623L12.3398 13.0195C12.6797 13.207 13.0371 13.3535 13.4062 13.459V14.3145C13.4062 14.6719 13.6934 14.959 14.0508 14.959H15.9551C16.3125 14.959 16.5996 14.666 16.5996 14.3145V13.459C16.9687 13.3477 17.3203 13.2012 17.666 13.0195L18.2754 13.623C18.5156 13.875 18.9492 13.8809 19.1895 13.623L20.5371 12.2754C20.7949 12.0352 20.7891 11.6016 20.5371 11.3613L19.9336 10.752C20.1152 10.4121 20.2676 10.0547 20.373 9.68555H21.2285C21.5859 9.68555 21.873 9.39844 21.873 9.04102V7.13086C21.873 6.78516 21.5801 6.49219 21.2227 6.49219ZM21.2637 9.04687C21.2637 9.07031 21.2461 9.08203 21.2227 9.08203H20.1328C19.9922 9.08203 19.8691 9.17578 19.8398 9.31055C19.7227 9.7793 19.5352 10.2305 19.2832 10.6465C19.2129 10.7637 19.2305 10.9219 19.3301 11.0156L20.1035 11.7832V11.8359L18.7559 13.1836L18.9727 13.4004C18.7793 13.2832 18.1055 12.5859 17.9297 12.416C17.8301 12.3164 17.6777 12.2988 17.5605 12.3691C17.1387 12.6211 16.6934 12.8027 16.2246 12.9199C16.0898 12.9551 15.9961 13.0723 15.9961 13.2129V14.3027C15.9961 14.3262 15.9785 14.3438 15.9551 14.3438H14.0508C14.0273 14.3438 14.0098 14.3262 14.0098 14.3027V13.2129C14.0098 13.0723 13.916 12.9492 13.7812 12.9199C13.3125 12.8027 12.8613 12.6152 12.4453 12.3691C12.3281 12.293 12.1758 12.3105 12.0762 12.416L11.3086 13.1836L11.5254 13.4004C11.3613 13.3242 10.0664 11.9883 9.9082 11.8359C9.89063 11.8184 9.89063 11.7949 9.9082 11.7832L10.6758 11.0156C10.7754 10.916 10.793 10.7637 10.7227 10.6465C10.4707 10.2246 10.2832 9.7793 10.166 9.31055C10.1309 9.17578 10.0137 9.08203 9.87305 9.08203H8.7832C8.75977 9.08203 8.74219 9.06445 8.74219 9.04687V7.13672C8.74219 7.11328 8.75977 7.0957 8.7832 7.0957H9.87305C10.0137 7.0957 10.1367 7.00195 10.166 6.86719C10.2832 6.39844 10.4707 5.94727 10.7227 5.53125C10.793 5.4082 10.7754 5.25586 10.6758 5.16211L9.9082 4.38867C9.89063 4.37109 9.89063 4.34766 9.9082 4.33594L11.2559 2.98828C11.2734 2.9707 11.2969 2.9707 11.3086 2.98828L12.0703 3.75586C12.1699 3.85547 12.3223 3.87305 12.4453 3.80273C12.8613 3.55078 13.3066 3.36914 13.7812 3.24609C13.916 3.21094 14.0098 3.09375 14.0098 2.95313V1.86328C14.0098 1.83984 14.0273 1.82813 14.0508 1.82813H15.9551C15.9785 1.82813 15.9961 1.8457 15.9961 1.86328V2.95313C15.9961 3.08789 16.0898 3.21094 16.2246 3.24609C16.6934 3.36328 17.1445 3.55078 17.5605 3.80273C17.6836 3.87305 17.8359 3.85547 17.9297 3.75586L18.6973 2.98828C18.7148 2.9707 18.7383 2.9707 18.75 2.98828L20.0977 4.33594V4.38867L19.3242 5.16211C19.2246 5.26172 19.207 5.41406 19.2773 5.53125C19.5293 5.94727 19.7168 6.39844 19.834 6.86719C19.8691 7.00195 19.9863 7.0957 20.127 7.0957H21.2168C21.2402 7.0957 21.2578 7.11328 21.2578 7.13672V9.04687H21.2637Z" fill="#151515" stroke="black" stroke-width="0.5"/>
<path id="Vector_3" d="M21.2227 7.0957H20.1328C19.9922 7.0957 19.8691 7.00195 19.8398 6.86719C19.7227 6.39844 19.5352 5.94727 19.2832 5.53125C19.2129 5.4082 19.2305 5.25586 19.3301 5.16211L20.1035 4.38867V4.33594L18.7559 2.98828C18.7383 2.9707 18.7148 2.9707 18.7031 2.98828L17.9297 3.75586C17.8301 3.85547 17.6777 3.87305 17.5605 3.80273C17.1445 3.55078 16.6934 3.36328 16.2246 3.24609C16.0898 3.21094 15.9961 3.09375 15.9961 2.95312V1.86328C15.9961 1.83984 15.9785 1.82812 15.9551 1.82812H14.0508C14.0273 1.82812 14.0098 1.8457 14.0098 1.86328V2.95312C14.0098 3.08789 13.916 3.21094 13.7812 3.24609C13.3125 3.36914 12.8613 3.55078 12.4453 3.80273C12.3223 3.87305 12.1699 3.85547 12.0703 3.75586L11.3027 2.98828C11.2852 2.9707 11.2617 2.9707 11.25 2.98828L9.90234 4.33594C9.88477 4.35352 9.88477 4.37695 9.90234 4.38867L10.6641 5.16211C10.7637 5.26172 10.7813 5.41406 10.7109 5.53125C10.459 5.94727 10.2715 6.39844 10.1543 6.86719C10.1191 7.00195 10.002 7.0957 9.86133 7.0957H8.77148C8.74805 7.0957 8.73047 7.11328 8.73047 7.13672V9.04688C8.73047 9.07031 8.74805 9.08203 8.77148 9.08203H9.86133C10.002 9.08203 10.125 9.17578 10.1543 9.31055C10.2715 9.7793 10.459 10.2305 10.7109 10.6465C10.7813 10.7637 10.7637 10.9219 10.6641 11.0156L9.89648 11.7832C9.87891 11.8008 9.87891 11.8242 9.89648 11.8359C10.0605 11.9941 11.3438 13.3184 11.5137 13.4004L11.2969 13.1836L12.0645 12.416C12.1641 12.3164 12.3164 12.293 12.4336 12.3691C12.8555 12.6211 13.3008 12.8027 13.7695 12.9199C13.9043 12.9551 13.998 13.0723 13.998 13.2129V14.3027C13.998 14.3262 14.0156 14.3438 14.0391 14.3438H15.9434C15.9668 14.3438 15.9844 14.3262 15.9844 14.3027V13.2129C15.9844 13.0723 16.0781 12.9492 16.2129 12.9199C16.6758 12.8027 17.127 12.6152 17.5488 12.3691C17.6719 12.2988 17.8242 12.3164 17.918 12.416C18.0879 12.5859 18.7617 13.2773 18.9609 13.4004L18.7441 13.1836L20.0918 11.8359V11.7832L19.3184 11.0156C19.2188 10.916 19.2012 10.7637 19.2715 10.6465C19.5234 10.2246 19.7109 9.7793 19.8281 9.31055C19.8633 9.17578 19.9805 9.08203 20.1211 9.08203H21.2109C21.2344 9.08203 21.252 9.06445 21.252 9.04688V7.13672C21.2637 7.11914 21.2461 7.0957 21.2227 7.0957ZM15 11.5957C13.0723 11.5957 11.4961 10.0254 11.4961 8.0918C11.6895 3.43945 18.3105 3.44531 18.5039 8.0918C18.5039 10.0195 16.9336 11.5957 15 11.5957Z" fill="#76B456"/>
<g id="Vector_4">
<path d="M19.3059 23.1679C19.2942 23.2089 19.2883 23.244 19.2766 23.2851C19.2883 23.2382 19.3 23.1913 19.3118 23.1444C19.3118 23.1562 19.3059 23.162 19.3059 23.1679ZM19.3059 23.1679C19.2942 23.2089 19.2883 23.244 19.2766 23.2851C19.2883 23.2382 19.3 23.1913 19.3118 23.1444C19.3118 23.1562 19.3059 23.162 19.3059 23.1679ZM19.3059 23.1679C19.2942 23.2089 19.2883 23.244 19.2766 23.2851C19.2883 23.2382 19.3 23.1913 19.3118 23.1444C19.3118 23.1562 19.3059 23.162 19.3059 23.1679ZM19.3059 23.1679C19.2942 23.2089 19.2883 23.244 19.2766 23.2851C19.2883 23.2382 19.3 23.1913 19.3118 23.1444C19.3118 23.1562 19.3059 23.162 19.3059 23.1679ZM27.9016 20.83C27.8899 20.8065 27.8782 20.789 27.8664 20.7714C27.884 20.8007 27.9016 20.8241 27.9133 20.8534C27.9075 20.8417 27.9016 20.8358 27.9016 20.83ZM19.3059 23.1679C19.2942 23.2089 19.2883 23.244 19.2766 23.2851C19.2883 23.2382 19.3 23.1913 19.3118 23.1444C19.3118 23.1562 19.3059 23.162 19.3059 23.1679ZM29.8938 20.2909C29.8059 19.8983 29.5832 19.5585 29.3078 19.3183C29.6653 19.0839 29.8996 18.6562 29.8996 18.1757C29.9348 17.9179 29.759 17.6659 29.4953 17.6659C29.0676 17.6952 28.1008 17.5663 27.7317 17.8241L26.7825 15.9491C26.4543 15.3046 25.8332 14.9062 25.1536 14.9062H19.6575C18.8782 14.8944 18.2043 15.4511 17.9055 16.1894H12.3801C12.2922 16.1894 12.2102 16.1952 12.1223 16.2069C11.8235 15.4628 11.1438 14.8886 10.3586 14.9062H4.86254C4.18285 14.9062 3.56176 15.3046 3.22777 15.9491L2.27855 17.8241C1.90941 17.5663 0.936757 17.6894 0.514882 17.6659C0.25121 17.6601 0.0812879 17.9179 0.116444 18.1757C0.116444 18.6562 0.350819 19.0839 0.702382 19.3183C0.43871 19.5468 0.227772 19.869 0.128163 20.2382C-0.0827746 20.8007 0.292225 22.1015 0.356678 22.6815V25.2538C0.356678 25.7108 0.708241 26.0858 1.13598 26.0858H2.49535C2.87621 26.0858 3.19848 25.7929 3.26879 25.4062H7.3059V27.873C7.3059 28.371 7.68676 28.7753 8.14965 28.7753H9.69066C10.1125 28.7753 10.4641 28.4413 10.5286 28.0077H20.4485C20.5071 28.4413 20.8586 28.7753 21.2864 28.7753H22.8274C23.2961 28.7753 23.677 28.371 23.677 27.873V25.4062H26.7414C26.8118 25.7929 27.1282 26.0858 27.5149 26.0858H28.8743C29.3078 26.0858 29.6594 25.7108 29.6594 25.2538V22.664C29.718 22.1132 30.0696 20.83 29.8938 20.2909ZM28.3352 18.2753H29.2844C29.2434 18.6327 28.9739 18.914 28.6516 18.914C28.6223 18.914 28.3 18.914 28.2766 18.9081L28.0012 18.369C28.1008 18.3105 28.218 18.2753 28.3352 18.2753ZM19.6457 15.5214H25.1418C25.5871 15.5214 26.0032 15.7909 26.2317 16.2304C26.2317 16.2304 27.3391 18.4101 27.3391 18.4159C27.3801 18.5097 27.5207 18.7792 27.5911 18.914H21.2043L20.4133 17.3554C20.0676 16.6757 19.3469 16.1894 18.5793 16.1952C18.8078 15.7733 19.2121 15.5214 19.6457 15.5214ZM12.3684 16.8046H18.6028C19.1243 16.8046 19.6106 17.121 19.8743 17.6308C19.8743 17.6425 20.7473 19.3417 20.7473 19.3593H20.7414C20.7414 19.3651 20.7414 19.3593 20.7473 19.3651C20.7532 19.371 20.7532 19.3769 20.759 19.3827L21.4446 20.7304H9.5266C9.69652 20.3964 10.0539 19.6933 10.2239 19.3593C10.7922 18.4335 11.05 16.8456 12.3684 16.8046ZM20.1028 22.2655C19.6692 22.4355 19.3762 22.8397 19.2766 23.2851H11.6946C11.4016 21.8612 9.49144 21.8144 9.13988 23.2265C8.55394 23.0741 8.03246 22.7108 7.66332 22.2362C7.84496 21.6503 8.41332 21.2812 9.02855 21.328C9.01684 21.328 9.01097 21.3222 9.00512 21.3222C9.1516 21.3163 9.29808 21.328 9.44457 21.328H17.6301C19.0246 21.328 20.4192 21.328 21.8137 21.3222C22.4582 21.2519 23.1086 21.5917 23.302 22.2362C22.8625 22.6757 22.4407 23.0565 21.8196 23.2206C21.6848 22.4647 20.8176 21.9901 20.1028 22.2655ZM21.2629 23.5897C21.2395 24.6562 19.8801 24.6562 19.8508 23.5956C19.8743 22.5233 21.2395 22.5233 21.2629 23.5897ZM11.1145 23.5897C11.0911 24.6562 9.73168 24.6562 9.70238 23.5956C9.72582 22.5233 11.0911 22.5233 11.1145 23.5897ZM2.64769 18.4335C2.64183 18.4159 3.76098 16.248 3.76098 16.2304C3.98363 15.7909 4.39965 15.5214 4.85082 15.5214H10.3469C10.8567 15.5097 11.3137 15.8964 11.5188 16.3944C10.5579 16.9218 10.2532 18.0116 9.76098 18.914H2.40746L2.64769 18.4335ZM1.66332 18.2753C1.78051 18.2753 1.89183 18.3105 1.9973 18.3749L1.72191 18.914C1.71019 18.9198 1.37035 18.9198 1.34691 18.9198C1.02465 18.9198 0.755116 18.6386 0.7141 18.2812H1.66332V18.2753ZM2.48949 25.4765H1.13012C0.9016 25.4706 0.966053 25.0897 0.954335 24.9374C1.14183 25.1542 1.39379 25.3183 1.66918 25.3769C1.84496 25.4296 2.41918 25.4003 2.61254 25.4062C2.58324 25.453 2.53637 25.4765 2.48949 25.4765ZM1.93285 24.8026C1.54613 24.8026 1.25902 24.4452 1.20629 24.0819L0.954335 22.5878C0.954335 22.5702 0.942616 22.5526 0.942616 22.5351L0.702382 21.0937C1.07152 21.3983 1.49926 21.621 1.96801 21.7265C2.32543 23.3378 4.46996 22.9159 4.31762 21.3222C4.34105 21.4687 4.32934 21.6327 4.29418 21.7792H7.21215C7.15355 21.8964 7.09496 22.0194 7.06566 22.1483H6.66137C5.97582 22.1483 5.3723 22.5058 5.14379 23.0272L4.77465 23.8886C4.73363 23.9823 4.74535 24.0878 4.80394 24.1757C4.85668 24.2636 4.95629 24.3105 5.0559 24.3105H7.20043L7.28246 24.7909H1.93285V24.8026ZM2.54223 21.4745C2.53637 20.9882 3.00512 20.6308 3.40355 20.8769C3.89574 21.1815 3.76683 22.1483 3.1223 22.1483C2.8059 22.1483 2.54223 21.8495 2.54223 21.4745ZM6.96605 22.9335C6.97191 23.0917 7.06566 23.5546 7.0891 23.7128H5.50707L5.69457 23.2733C5.82348 22.9745 6.21605 22.7636 6.64965 22.7636H6.96019C6.96019 22.8163 6.96605 22.8749 6.96605 22.9335ZM4.28832 21.1698C4.30004 21.2226 4.30004 21.2636 4.31176 21.3163C4.14769 19.9511 2.38402 19.7929 1.98558 21.1054C1.50512 20.9647 1.05394 20.6718 0.743397 20.2733C0.9016 19.8456 1.26488 19.5526 1.66918 19.5175H9.45043C9.33324 19.8163 8.85277 20.4667 8.67699 20.7304C8.32543 20.7714 7.93871 20.9003 7.6809 21.164H4.28832V21.1698ZM9.69066 28.1718H8.14379C7.81566 28.1601 7.92113 27.6269 7.90941 27.4101C8.36059 28.078 9.19848 28.0429 9.9016 28.0136C9.86059 28.1073 9.77855 28.1718 9.69066 28.1718ZM23.0618 27.8788C23.0618 28.037 22.9504 28.1718 22.8215 28.1718H21.2805C21.1868 28.1718 21.1106 28.1073 21.0696 28.0136C21.0871 28.0487 21.468 28.0077 21.509 28.0077C22.0832 28.0546 22.7278 27.9257 23.0618 27.4101V27.8788ZM23.3664 23.0917C23.2727 23.6835 23.1672 24.2753 23.0676 24.8671L22.7805 26.5546C22.6985 27.0468 22.3352 27.4042 21.9192 27.4042H9.05785C8.63598 27.4042 8.27269 27.0468 8.19066 26.5546C8.09105 25.9745 7.84496 24.5331 7.75121 23.9765L7.59887 23.0624C8.0266 23.4491 8.5598 23.7362 9.12816 23.8534C9.38598 25.3534 11.3899 25.3944 11.6946 23.9003H19.2825L19.2766 23.8944C19.2649 23.8476 19.259 23.7948 19.2532 23.748C19.4348 25.3417 21.5559 25.4472 21.8489 23.8534C22.4114 23.7362 22.9328 23.4491 23.3723 23.0683L23.3664 23.0917ZM23.2844 21.1698C22.968 20.871 22.5403 20.7655 22.1243 20.7245C22.1243 20.7245 21.55 19.5937 21.5149 19.5175H28.3293C28.7395 19.5526 29.0969 19.8515 29.2551 20.2733C28.9153 20.6308 28.511 20.994 28.0188 21.1054C27.6731 19.869 25.9856 19.9101 25.7102 21.1698H23.2844ZM27.4563 21.4745C27.4446 22.3651 26.2961 22.3651 26.2844 21.4745C26.2961 20.6015 27.427 20.5605 27.4563 21.4745ZM29.0442 25.2538C29.0442 25.3769 28.968 25.4765 28.8684 25.4765H27.509C27.4621 25.4765 27.4153 25.4472 27.386 25.4062C27.5969 25.3944 28.1594 25.4355 28.3528 25.371C28.6223 25.3124 28.8684 25.1483 29.0442 24.9374V25.2538ZM29.0618 22.5351C29.0618 22.5526 29.05 22.5702 29.05 22.5878L28.7981 24.0819C28.7278 24.498 28.4231 24.8026 28.0715 24.8026H23.7004L23.7825 24.3222H24.9543C25.1653 24.328 25.3235 24.0878 25.2356 23.9003L24.8664 23.039C24.7141 22.6757 24.3743 22.3944 23.9465 22.2538C23.9055 22.0956 23.8469 21.9315 23.7707 21.7909H25.7161C26.0207 23.1093 27.7844 23.0683 28.0422 21.744C28.4993 21.6269 28.9387 21.4159 29.302 21.1112L29.0618 22.5351ZM23.8821 23.7069C23.9055 23.5487 23.9934 23.0858 23.9993 22.9335C24.2805 23.0741 24.3743 23.455 24.4914 23.7069H23.8821ZM19.3118 23.1503C19.2942 23.1972 19.2883 23.244 19.2766 23.2909C19.2883 23.2382 19.3 23.1913 19.3118 23.1503ZM19.3059 23.1679C19.2942 23.2089 19.2883 23.244 19.2766 23.2851C19.2883 23.2382 19.3 23.1913 19.3118 23.1444C19.3118 23.1562 19.3059 23.162 19.3059 23.1679ZM19.3059 23.1679C19.2942 23.2089 19.2883 23.244 19.2766 23.2851C19.2883 23.2382 19.3 23.1913 19.3118 23.1444C19.3118 23.1562 19.3059 23.162 19.3059 23.1679ZM19.3059 23.1679C19.2942 23.2089 19.2883 23.244 19.2766 23.2851C19.2883 23.2382 19.3 23.1913 19.3118 23.1444C19.3118 23.1562 19.3059 23.162 19.3059 23.1679ZM19.3059 23.1679C19.2942 23.2089 19.2883 23.244 19.2766 23.2851C19.2883 23.2382 19.3 23.1913 19.3118 23.1444C19.3118 23.1562 19.3059 23.162 19.3059 23.1679ZM20.7473 19.3534C20.7414 19.3593 20.7473 19.3593 20.7473 19.3534V19.3534Z" fill="#151515"/>
<path d="M19.2766 23.2851C19.2883 23.244 19.2942 23.2089 19.3059 23.1679C19.3059 23.162 19.3118 23.1562 19.3118 23.1444C19.3 23.1913 19.2883 23.2382 19.2766 23.2851ZM19.2766 23.2851C19.3762 22.8397 19.6692 22.4355 20.1028 22.2655C20.8176 21.9901 21.6848 22.4647 21.8196 23.2206C22.4407 23.0565 22.8625 22.6757 23.302 22.2362C23.1086 21.5917 22.4582 21.2519 21.8137 21.3222C20.4192 21.328 19.0246 21.328 17.6301 21.328H9.44457C9.29808 21.328 9.1516 21.3163 9.00512 21.3222C9.01098 21.3222 9.01684 21.328 9.02855 21.328C8.41332 21.2812 7.84496 21.6503 7.66332 22.2362C8.03246 22.7108 8.55394 23.0741 9.13988 23.2265C9.49144 21.8144 11.4016 21.8612 11.6946 23.2851H19.2766ZM27.9016 20.83C27.8899 20.8065 27.8782 20.789 27.8664 20.7714C27.884 20.8007 27.9016 20.8241 27.9133 20.8534C27.9075 20.8417 27.9016 20.8358 27.9016 20.83ZM29.8938 20.2909C29.8059 19.8983 29.5832 19.5585 29.3079 19.3183C29.6653 19.0839 29.8996 18.6562 29.8996 18.1757C29.9348 17.9179 29.759 17.6659 29.4953 17.6659C29.0676 17.6952 28.1008 17.5663 27.7317 17.8241L26.7825 15.9491C26.4543 15.3046 25.8332 14.9062 25.1536 14.9062H19.6575C18.8782 14.8944 18.2043 15.4511 17.9055 16.1894H12.3801C12.2922 16.1894 12.2102 16.1952 12.1223 16.2069C11.8235 15.4628 11.1438 14.8886 10.3586 14.9062H4.86254C4.18285 14.9062 3.56176 15.3046 3.22777 15.9491L2.27855 17.8241C1.90941 17.5663 0.936757 17.6894 0.514882 17.6659C0.25121 17.6601 0.0812879 17.9179 0.116444 18.1757C0.116444 18.6562 0.350819 19.0839 0.702382 19.3183C0.43871 19.5468 0.227772 19.869 0.128163 20.2382C-0.0827746 20.8007 0.292225 22.1015 0.356678 22.6815V25.2538C0.356678 25.7108 0.708241 26.0858 1.13598 26.0858H2.49535C2.87621 26.0858 3.19848 25.7929 3.26879 25.4062H7.3059V27.873C7.3059 28.371 7.68676 28.7753 8.14965 28.7753H9.69066C10.1125 28.7753 10.4641 28.4413 10.5286 28.0077H20.4485C20.5071 28.4413 20.8586 28.7753 21.2864 28.7753H22.8274C23.2961 28.7753 23.677 28.371 23.677 27.873V25.4062H26.7414C26.8118 25.7929 27.1282 26.0858 27.5149 26.0858H28.8743C29.3078 26.0858 29.6594 25.7108 29.6594 25.2538V22.664C29.718 22.1132 30.0696 20.83 29.8938 20.2909ZM28.3352 18.2753H29.2844C29.2434 18.6327 28.9739 18.914 28.6516 18.914C28.6223 18.914 28.3 18.914 28.2766 18.9081L28.0012 18.369C28.1008 18.3105 28.218 18.2753 28.3352 18.2753ZM19.6457 15.5214H25.1418C25.5871 15.5214 26.0032 15.7909 26.2317 16.2304C26.2317 16.2304 27.3391 18.4101 27.3391 18.4159C27.3801 18.5097 27.5207 18.7792 27.5911 18.914H21.2043L20.4133 17.3554C20.0676 16.6757 19.3469 16.1894 18.5793 16.1952C18.8078 15.7733 19.2121 15.5214 19.6457 15.5214ZM12.3684 16.8046H18.6028C19.1243 16.8046 19.6106 17.121 19.8743 17.6308C19.8743 17.6425 20.7473 19.3417 20.7473 19.3593H20.7414C20.7414 19.3651 20.7414 19.3593 20.7473 19.3651C20.7532 19.371 20.7532 19.3769 20.759 19.3827L21.4446 20.7304H9.5266C9.69652 20.3964 10.0539 19.6933 10.2239 19.3593C10.7922 18.4335 11.05 16.8456 12.3684 16.8046ZM21.2629 23.5897C21.2395 24.6562 19.8801 24.6562 19.8508 23.5956C19.8743 22.5233 21.2395 22.5233 21.2629 23.5897ZM11.1145 23.5897C11.0911 24.6562 9.73168 24.6562 9.70238 23.5956C9.72582 22.5233 11.0911 22.5233 11.1145 23.5897ZM2.64769 18.4335C2.64183 18.4159 3.76098 16.248 3.76098 16.2304C3.98363 15.7909 4.39965 15.5214 4.85082 15.5214H10.3469C10.8567 15.5097 11.3137 15.8964 11.5188 16.3944C10.5579 16.9218 10.2532 18.0116 9.76098 18.914H2.40746L2.64769 18.4335ZM1.66332 18.2753C1.78051 18.2753 1.89183 18.3105 1.9973 18.3749L1.72191 18.914C1.71019 18.9198 1.37035 18.9198 1.34691 18.9198C1.02465 18.9198 0.755116 18.6386 0.7141 18.2812H1.66332V18.2753ZM2.48949 25.4765H1.13012C0.9016 25.4706 0.966053 25.0897 0.954335 24.9374C1.14183 25.1542 1.39379 25.3183 1.66918 25.3769C1.84496 25.4296 2.41918 25.4003 2.61254 25.4062C2.58324 25.453 2.53637 25.4765 2.48949 25.4765ZM1.93285 24.8026C1.54613 24.8026 1.25902 24.4452 1.20629 24.0819L0.954335 22.5878C0.954335 22.5702 0.942616 22.5526 0.942616 22.5351L0.702382 21.0937C1.07152 21.3983 1.49926 21.621 1.96801 21.7265C2.32543 23.3378 4.46996 22.9159 4.31762 21.3222C4.34105 21.4687 4.32933 21.6327 4.29418 21.7792H7.21215C7.15355 21.8964 7.09496 22.0194 7.06566 22.1483H6.66137C5.97582 22.1483 5.3723 22.5058 5.14379 23.0272L4.77465 23.8886C4.73363 23.9823 4.74535 24.0878 4.80394 24.1757C4.85668 24.2636 4.95629 24.3105 5.0559 24.3105H7.20043L7.28246 24.7909H1.93285V24.8026ZM2.54223 21.4745C2.53637 20.9882 3.00512 20.6308 3.40355 20.8769C3.89574 21.1815 3.76683 22.1483 3.1223 22.1483C2.8059 22.1483 2.54223 21.8495 2.54223 21.4745ZM6.96605 22.9335C6.97191 23.0917 7.06566 23.5546 7.0891 23.7128H5.50707L5.69457 23.2733C5.82348 22.9745 6.21605 22.7636 6.64965 22.7636H6.96019C6.96019 22.8163 6.96605 22.8749 6.96605 22.9335ZM4.28832 21.1698C4.30004 21.2226 4.30004 21.2636 4.31176 21.3163C4.14769 19.9511 2.38402 19.7929 1.98558 21.1054C1.50512 20.9647 1.05394 20.6718 0.743397 20.2733C0.9016 19.8456 1.26488 19.5526 1.66918 19.5175H9.45043C9.33324 19.8163 8.85277 20.4667 8.67699 20.7304C8.32543 20.7714 7.93871 20.9003 7.6809 21.164H4.28832V21.1698ZM9.69066 28.1718H8.14379C7.81566 28.1601 7.92113 27.6269 7.90941 27.4101C8.36058 28.078 9.19848 28.0429 9.9016 28.0136C9.86058 28.1073 9.77855 28.1718 9.69066 28.1718ZM23.0618 27.8788C23.0618 28.037 22.9504 28.1718 22.8215 28.1718H21.2805C21.1868 28.1718 21.1106 28.1073 21.0696 28.0136C21.0871 28.0487 21.468 28.0077 21.509 28.0077C22.0832 28.0546 22.7278 27.9257 23.0618 27.4101V27.8788ZM23.3664 23.0917C23.2727 23.6835 23.1672 24.2753 23.0676 24.8671L22.7805 26.5546C22.6985 27.0468 22.3352 27.4042 21.9192 27.4042H9.05785C8.63598 27.4042 8.27269 27.0468 8.19066 26.5546C8.09105 25.9745 7.84496 24.5331 7.75121 23.9765L7.59887 23.0624C8.0266 23.4491 8.5598 23.7362 9.12816 23.8534C9.38598 25.3534 11.3899 25.3944 11.6946 23.9003H19.2825L19.2766 23.8944C19.2649 23.8476 19.259 23.7948 19.2532 23.748C19.4348 25.3417 21.5559 25.4472 21.8489 23.8534C22.4114 23.7362 22.9328 23.4491 23.3723 23.0683L23.3664 23.0917ZM23.2844 21.1698C22.968 20.871 22.5403 20.7655 22.1243 20.7245C22.1243 20.7245 21.55 19.5937 21.5149 19.5175H28.3293C28.7395 19.5526 29.0969 19.8515 29.2551 20.2733C28.9153 20.6308 28.511 20.994 28.0188 21.1054C27.6731 19.869 25.9856 19.9101 25.7102 21.1698H23.2844ZM27.4563 21.4745C27.4446 22.3651 26.2961 22.3651 26.2844 21.4745C26.2961 20.6015 27.427 20.5605 27.4563 21.4745ZM29.0442 25.2538C29.0442 25.3769 28.968 25.4765 28.8684 25.4765H27.509C27.4621 25.4765 27.4153 25.4472 27.386 25.4062C27.5969 25.3944 28.1594 25.4355 28.3528 25.371C28.6223 25.3124 28.8684 25.1483 29.0442 24.9374V25.2538ZM29.0618 22.5351C29.0618 22.5526 29.05 22.5702 29.05 22.5878L28.7981 24.0819C28.7278 24.498 28.4231 24.8026 28.0715 24.8026H23.7004L23.7825 24.3222H24.9543C25.1653 24.328 25.3235 24.0878 25.2356 23.9003L24.8664 23.039C24.7141 22.6757 24.3743 22.3944 23.9465 22.2538C23.9055 22.0956 23.8469 21.9315 23.7707 21.7909H25.7161C26.0207 23.1093 27.7844 23.0683 28.0422 21.744C28.4993 21.6269 28.9387 21.4159 29.302 21.1112L29.0618 22.5351ZM23.8821 23.7069C23.9055 23.5487 23.9934 23.0858 23.9993 22.9335C24.2805 23.0741 24.3743 23.455 24.4914 23.7069H23.8821ZM19.3118 23.1503C19.2942 23.1972 19.2883 23.244 19.2766 23.2909C19.2883 23.2382 19.3 23.1913 19.3118 23.1503ZM20.7473 19.3534C20.7414 19.3593 20.7473 19.3593 20.7473 19.3534Z" stroke="black" stroke-width="0.2"/>
</g>
<g id="Group_2">
<path id="Vector_5" d="M11.5195 16.3946C10.5586 16.922 10.2539 18.0118 9.76172 18.9141H2.4082C2.56055 18.6153 3.58594 16.5821 3.76758 16.2364C3.99023 15.797 4.40625 15.5274 4.85742 15.5274H10.3535C10.8633 15.5099 11.3203 15.8966 11.5195 16.3946Z" fill="#109BDE"/>
<path id="Vector_6" d="M27.5918 18.9141H21.2051L20.4141 17.3555C20.0684 16.6758 19.3477 16.1895 18.5801 16.1953C18.8086 15.7734 19.2129 15.5215 19.6523 15.5215H25.1484C25.5938 15.5215 26.0098 15.791 26.2383 16.2305C26.2383 16.2305 27.3457 18.4102 27.3457 18.416C27.3809 18.5098 27.5273 18.7793 27.5918 18.9141Z" fill="#109BDE"/>
<path id="Vector_7" d="M27.457 21.4745C27.4453 22.3651 26.2969 22.3651 26.2852 21.4745C26.2969 20.6014 27.4277 20.5604 27.457 21.4745Z" fill="#109BDE"/>
<path id="Vector_8" d="M21.2637 23.5901C21.2402 24.6565 19.8809 24.6565 19.8516 23.5959C19.875 22.5237 21.2402 22.5237 21.2637 23.5901Z" fill="#109BDE"/>
<path id="Vector_9" d="M3.12842 22.1484C2.36084 22.1367 2.36084 20.8066 3.12842 20.7949C3.88428 20.8066 3.90186 22.1484 3.12842 22.1484Z" fill="#109BDE"/>
<path id="Vector_10" d="M11.1152 23.5901C11.0918 24.6565 9.73242 24.6565 9.70312 23.5959C9.72656 22.5237 11.0918 22.5237 11.1152 23.5901Z" fill="#109BDE"/>
</g>
<path id="Vector_11" d="M26.2031 20.4082C26.1855 20.4199 26.1738 20.4258 26.1621 20.4375C26.1797 20.4199 26.1973 20.4141 26.2031 20.4082Z" fill="#151515"/>
<path id="Vector_12" d="M1.00195 21.3223C1.06055 21.3691 1.13086 21.4043 1.19531 21.4395C1.13086 21.4043 1.06641 21.3633 1.00195 21.3223Z" fill="#151515"/>
<path id="Vector_13" d="M3.46289 20.2441C3.46289 20.2383 3.46289 20.2383 3.46289 20.2441C3.46289 20.2383 3.45703 20.2383 3.45703 20.2383C3.45703 20.2383 3.45703 20.2383 3.46289 20.2441Z" fill="#151515"/>
<path id="Vector_14" d="M18.2455 25.3711C17.9994 24.791 17.3256 24.4043 16.5638 24.4043H14.4076C13.6459 24.4043 12.972 24.791 12.7259 25.3711L12.3099 26.3555C12.222 26.5488 12.3802 26.7832 12.5912 26.7773H18.3861C18.597 26.7832 18.7552 26.5488 18.6674 26.3555C18.6615 26.3555 18.2455 25.3711 18.2455 25.3711ZM13.0482 26.168L13.2826 25.6113C13.4349 25.2539 13.8978 25.0078 14.4076 25.0078H16.5638C17.0736 25.0078 17.5365 25.2539 17.683 25.6113L17.9174 26.168H13.0482Z" fill="#151515"/>
</g>
</g>
<defs>
<clipPath id="clip0_1_20245">
<rect width="30" height="30" fill="white"/>
</clipPath>
</defs>
</svg>
