<svg width="16" height="16" viewBox="0 0 16 16" fill="none" xmlns="http://www.w3.org/2000/svg">
<g clip-path="url(#clip0_421_260560)">
<path d="M8.00156 2.44531C6.97344 2.44531 6.13281 3.28281 6.13281 4.31406C6.23594 6.79219 9.76719 6.78906 9.87031 4.31406C9.87031 3.28281 9.03281 2.44531 8.00156 2.44531ZM8.00156 5.85781C7.15156 5.85781 6.45781 5.16719 6.45781 4.31406C6.53906 2.26406 9.46406 2.26719 9.54531 4.31406C9.54531 5.16406 8.85469 5.85781 8.00156 5.85781Z" fill="#151515"/>
<path d="M11.3211 3.46094H10.8648C10.8055 3.26406 10.7273 3.07656 10.6305 2.89219L10.9523 2.57031C11.0898 2.44219 11.0867 2.21094 10.9523 2.08281L10.2336 1.36406C10.0992 1.22969 9.88047 1.22969 9.74609 1.36406L9.42422 1.68594C9.24297 1.58594 9.05234 1.50781 8.85547 1.44844V0.992188C8.85547 0.801563 8.70234 0.648438 8.51172 0.648438H7.49609C7.30547 0.648438 7.15234 0.801563 7.15234 0.992188V1.44844C6.95547 1.50781 6.76484 1.58594 6.58359 1.68594L6.25859 1.36094C6.12422 1.22656 5.90547 1.22656 5.77109 1.36094L5.05234 2.07969C4.91797 2.21406 4.91797 2.43281 5.05234 2.56719L5.37422 2.88906C5.27734 3.07031 5.19609 3.26094 5.13984 3.45781H4.68359C4.49297 3.45781 4.33984 3.61406 4.33984 3.80156V4.82031C4.33984 5.01094 4.49609 5.16406 4.68359 5.16406H5.13984C5.19922 5.36094 5.27734 5.55156 5.37422 5.73281L5.05234 6.05781C4.91797 6.19219 4.91797 6.41094 5.05234 6.54531L5.77109 7.26406C5.89922 7.39844 6.13047 7.40156 6.25859 7.26406L6.58359 6.94219C6.76484 7.04219 6.95547 7.12031 7.15234 7.17656V7.63281C7.15234 7.82344 7.30547 7.97656 7.49609 7.97656H8.51172C8.70234 7.97656 8.85547 7.82031 8.85547 7.63281V7.17656C9.05234 7.11719 9.23984 7.03906 9.42422 6.94219L9.74922 7.26406C9.87734 7.39844 10.1086 7.40156 10.2367 7.26406L10.9555 6.54531C11.093 6.41719 11.0898 6.18594 10.9555 6.05781L10.6336 5.73281C10.7305 5.55156 10.8117 5.36094 10.868 5.16406H11.3242C11.5148 5.16406 11.668 5.01094 11.668 4.82031V3.80156C11.668 3.61719 11.5117 3.46094 11.3211 3.46094ZM11.343 4.82344C11.343 4.83594 11.3336 4.84219 11.3211 4.84219H10.7398C10.6648 4.84219 10.5992 4.89219 10.5836 4.96406C10.5211 5.21406 10.4211 5.45469 10.2867 5.67656C10.2492 5.73906 10.2586 5.82344 10.3117 5.87344L10.7242 6.28281V6.31094L10.0055 7.02969L10.1211 7.14531C10.018 7.08281 9.65859 6.71094 9.56484 6.62031C9.51172 6.56719 9.43047 6.55781 9.36797 6.59531C9.14297 6.72969 8.90547 6.82656 8.65547 6.88906C8.58359 6.90781 8.53359 6.97031 8.53359 7.04531V7.62656C8.53359 7.63906 8.52422 7.64844 8.51172 7.64844H7.49609C7.48359 7.64844 7.47422 7.63906 7.47422 7.62656V7.04531C7.47422 6.97031 7.42422 6.90469 7.35234 6.88906C7.10234 6.82656 6.86172 6.72656 6.63984 6.59531C6.57734 6.55469 6.49609 6.56406 6.44297 6.62031L6.03359 7.02969L6.14922 7.14531C6.06172 7.10469 5.37109 6.39219 5.28672 6.31094C5.27734 6.30156 5.27734 6.28906 5.28672 6.28281L5.69609 5.87344C5.74922 5.82031 5.75859 5.73906 5.72109 5.67656C5.58672 5.45156 5.48672 5.21406 5.42422 4.96406C5.40547 4.89219 5.34297 4.84219 5.26797 4.84219H4.68672C4.67422 4.84219 4.66484 4.83281 4.66484 4.82344V3.80469C4.66484 3.79219 4.67422 3.78281 4.68672 3.78281H5.26797C5.34297 3.78281 5.40859 3.73281 5.42422 3.66094C5.48672 3.41094 5.58672 3.17031 5.72109 2.94844C5.75859 2.88281 5.74922 2.80156 5.69609 2.75156L5.28672 2.33906C5.27734 2.32969 5.27734 2.31719 5.28672 2.31094L6.00547 1.59219C6.01484 1.58281 6.02734 1.58281 6.03359 1.59219L6.43984 2.00156C6.49297 2.05469 6.57422 2.06406 6.63984 2.02656C6.86172 1.89219 7.09922 1.79531 7.35234 1.72969C7.42422 1.71094 7.47422 1.64844 7.47422 1.57344V0.992188C7.47422 0.979688 7.48359 0.973438 7.49609 0.973438H8.51172C8.52422 0.973438 8.53359 0.982812 8.53359 0.992188V1.57344C8.53359 1.64531 8.58359 1.71094 8.65547 1.72969C8.90547 1.79219 9.14609 1.89219 9.36797 2.02656C9.43359 2.06406 9.51484 2.05469 9.56484 2.00156L9.97422 1.59219C9.98359 1.58281 9.99609 1.58281 10.0023 1.59219L10.7211 2.31094V2.33906L10.3086 2.75156C10.2555 2.80469 10.2461 2.88594 10.2836 2.94844C10.418 3.17031 10.518 3.41094 10.5805 3.66094C10.5992 3.73281 10.6617 3.78281 10.7367 3.78281H11.318C11.3305 3.78281 11.3398 3.79219 11.3398 3.80469V4.82344H11.343Z" fill="#151515"/>
<path d="M11.3188 3.78203H10.7375C10.6625 3.78203 10.5969 3.73203 10.5813 3.66016C10.5188 3.41016 10.4188 3.16953 10.2844 2.94766C10.2469 2.88203 10.2563 2.80078 10.3094 2.75078L10.7219 2.33828V2.31016L10.0031 1.59141C9.99375 1.58203 9.98125 1.58203 9.975 1.59141L9.5625 2.00078C9.50938 2.05391 9.42813 2.06328 9.36563 2.02578C9.14375 1.89141 8.90312 1.79141 8.65313 1.72891C8.58125 1.71016 8.53125 1.64766 8.53125 1.57266V0.991406C8.53125 0.978906 8.52187 0.972656 8.50937 0.972656H7.49375C7.48125 0.972656 7.47188 0.982031 7.47188 0.991406V1.57266C7.47188 1.64453 7.42188 1.71016 7.35 1.72891C7.1 1.79453 6.85937 1.89141 6.6375 2.02578C6.57187 2.06328 6.49063 2.05391 6.4375 2.00078L6.02812 1.59141C6.01875 1.58203 6.00625 1.58203 6 1.59141L5.28125 2.31016C5.27188 2.31953 5.27188 2.33203 5.28125 2.33828L5.6875 2.75078C5.74063 2.80391 5.75 2.88516 5.7125 2.94766C5.57813 3.16953 5.47813 3.41016 5.41563 3.66016C5.39688 3.73203 5.33438 3.78203 5.25938 3.78203H4.67812C4.66562 3.78203 4.65625 3.79141 4.65625 3.80391V4.82266C4.65625 4.83516 4.66562 4.84141 4.67812 4.84141H5.25938C5.33438 4.84141 5.4 4.89141 5.41563 4.96328C5.47813 5.21328 5.57813 5.45391 5.7125 5.67578C5.75 5.73828 5.74063 5.82266 5.6875 5.87266L5.27812 6.28203C5.26875 6.29141 5.26875 6.30391 5.27812 6.31016C5.36562 6.39453 6.05 7.10078 6.14063 7.14453L6.025 7.02891L6.43437 6.61953C6.4875 6.56641 6.56875 6.55391 6.63125 6.59453C6.85625 6.72891 7.09375 6.82578 7.34375 6.88828C7.41563 6.90703 7.46562 6.96953 7.46562 7.04453V7.62578C7.46562 7.63828 7.475 7.64766 7.4875 7.64766H8.50313C8.51563 7.64766 8.525 7.63828 8.525 7.62578V7.04453C8.525 6.96953 8.575 6.90391 8.64688 6.88828C8.89375 6.82578 9.13438 6.72578 9.35938 6.59453C9.425 6.55703 9.50625 6.56641 9.55625 6.61953C9.64687 6.71016 10.0063 7.07891 10.1125 7.14453L9.99688 7.02891L10.7156 6.31016V6.28203L10.3031 5.87266C10.25 5.81953 10.2406 5.73828 10.2781 5.67578C10.4125 5.45078 10.5125 5.21328 10.575 4.96328C10.5938 4.89141 10.6563 4.84141 10.7313 4.84141H11.3125C11.325 4.84141 11.3344 4.83203 11.3344 4.82266V3.80391C11.3406 3.79453 11.3313 3.78203 11.3188 3.78203ZM8 6.18203C6.97187 6.18203 6.13125 5.34453 6.13125 4.31328C6.23438 1.83203 9.76562 1.83516 9.86875 4.31328C9.86875 5.34141 9.03125 6.18203 8 6.18203Z" fill="#76B456"/>
<path d="M10.2973 12.3557C10.291 12.3776 10.2879 12.3963 10.2816 12.4182C10.2879 12.3932 10.2941 12.3682 10.3004 12.3432C10.3004 12.3494 10.2973 12.3526 10.2973 12.3557ZM10.2973 12.3557C10.291 12.3776 10.2879 12.3963 10.2816 12.4182C10.2879 12.3932 10.2941 12.3682 10.3004 12.3432C10.3004 12.3494 10.2973 12.3526 10.2973 12.3557ZM10.2973 12.3557C10.291 12.3776 10.2879 12.3963 10.2816 12.4182C10.2879 12.3932 10.2941 12.3682 10.3004 12.3432C10.3004 12.3494 10.2973 12.3526 10.2973 12.3557ZM10.2973 12.3557C10.291 12.3776 10.2879 12.3963 10.2816 12.4182C10.2879 12.3932 10.2941 12.3682 10.3004 12.3432C10.3004 12.3494 10.2973 12.3526 10.2973 12.3557ZM14.8816 11.1088C14.8754 11.0963 14.8691 11.0869 14.8629 11.0776C14.8723 11.0932 14.8816 11.1057 14.8879 11.1213C14.8848 11.1151 14.8816 11.1119 14.8816 11.1088ZM10.2973 12.3557C10.291 12.3776 10.2879 12.3963 10.2816 12.4182C10.2879 12.3932 10.2941 12.3682 10.3004 12.3432C10.3004 12.3494 10.2973 12.3526 10.2973 12.3557ZM15.9441 10.8213C15.8973 10.6119 15.7785 10.4307 15.6316 10.3026C15.8223 10.1776 15.9473 9.94943 15.9473 9.69318C15.966 9.55568 15.8723 9.4213 15.7316 9.4213C15.5035 9.43693 14.9879 9.36818 14.791 9.50568L14.2848 8.50568C14.1098 8.16193 13.7785 7.94943 13.416 7.94943H10.4848C10.0691 7.94318 9.70976 8.24005 9.55038 8.6338H6.60351C6.55663 8.6338 6.51288 8.63693 6.46601 8.64318C6.30663 8.2463 5.94413 7.94005 5.52538 7.94943H2.59413C2.23163 7.94943 1.90038 8.16193 1.72226 8.50568L1.21601 9.50568C1.01913 9.36818 0.500385 9.4338 0.275385 9.4213C0.13476 9.41818 0.0441348 9.55568 0.0628848 9.69318C0.0628848 9.94943 0.187885 10.1776 0.375385 10.3026C0.23476 10.4244 0.12226 10.5963 0.0691348 10.7932C-0.0433652 11.0932 0.156635 11.7869 0.19101 12.0963V13.4682C0.19101 13.7119 0.37851 13.9119 0.606635 13.9119H1.33163C1.53476 13.9119 1.70663 13.7557 1.74413 13.5494H3.89726V14.8651C3.89726 15.1307 4.10038 15.3463 4.34726 15.3463H5.16913C5.39413 15.3463 5.58163 15.1682 5.61601 14.9369H10.9066C10.9379 15.1682 11.1254 15.3463 11.3535 15.3463H12.1754C12.4254 15.3463 12.6285 15.1307 12.6285 14.8651V13.5494H14.2629C14.3004 13.7557 14.4691 13.9119 14.6754 13.9119H15.4004C15.6316 13.9119 15.8191 13.7119 15.8191 13.4682V12.0869C15.8504 11.7932 16.0379 11.1088 15.9441 10.8213ZM15.1129 9.7463H15.6191C15.5973 9.93693 15.4535 10.0869 15.2816 10.0869C15.266 10.0869 15.0941 10.0869 15.0816 10.0838L14.9348 9.7963C14.9879 9.76505 15.0504 9.7463 15.1129 9.7463ZM10.4785 8.27755H13.4098C13.6473 8.27755 13.8691 8.4213 13.991 8.65568C13.991 8.65568 14.5816 9.81818 14.5816 9.8213C14.6035 9.8713 14.6785 10.0151 14.716 10.0869H11.3098L10.8879 9.25568C10.7035 8.89318 10.3191 8.6338 9.90976 8.63693C10.0316 8.41193 10.2473 8.27755 10.4785 8.27755ZM6.59726 8.96193H9.92226C10.2004 8.96193 10.4598 9.13068 10.6004 9.40255C10.6004 9.4088 11.066 10.3151 11.066 10.3244H11.0629C11.0629 10.3276 11.0629 10.3244 11.066 10.3276C11.0691 10.3307 11.0691 10.3338 11.0723 10.3369L11.4379 11.0557H5.08163C5.17226 10.8776 5.36288 10.5026 5.45351 10.3244C5.75663 9.83068 5.89413 8.9838 6.59726 8.96193ZM10.7223 11.8744C10.491 11.9651 10.3348 12.1807 10.2816 12.4182H6.23788C6.08163 11.6588 5.06288 11.6338 4.87538 12.3869C4.56288 12.3057 4.28476 12.1119 4.08788 11.8588C4.18476 11.5463 4.48788 11.3494 4.81601 11.3744C4.80976 11.3744 4.80663 11.3713 4.80351 11.3713C4.88163 11.3682 4.95976 11.3744 5.03788 11.3744H9.40351C10.1473 11.3744 10.891 11.3744 11.6348 11.3713C11.9785 11.3338 12.3254 11.5151 12.4285 11.8588C12.1941 12.0932 11.9691 12.2963 11.6379 12.3838C11.566 11.9807 11.1035 11.7276 10.7223 11.8744ZM11.341 12.5807C11.3285 13.1494 10.6035 13.1494 10.5879 12.5838C10.6004 12.0119 11.3285 12.0119 11.341 12.5807ZM5.92851 12.5807C5.91601 13.1494 5.19101 13.1494 5.17538 12.5838C5.18788 12.0119 5.91601 12.0119 5.92851 12.5807ZM1.41288 9.83068C1.40976 9.8213 2.00663 8.66505 2.00663 8.65568C2.12538 8.4213 2.34726 8.27755 2.58788 8.27755H5.51913C5.79101 8.2713 6.03476 8.47755 6.14413 8.74318C5.63163 9.02443 5.46913 9.60568 5.20663 10.0869H1.28476L1.41288 9.83068ZM0.887885 9.7463C0.950385 9.7463 1.00976 9.76505 1.06601 9.79943L0.919135 10.0869C0.912885 10.0901 0.731635 10.0901 0.719135 10.0901C0.54726 10.0901 0.40351 9.94005 0.381635 9.74943H0.887885V9.7463ZM1.32851 13.5869H0.60351C0.481635 13.5838 0.51601 13.3807 0.50976 13.2994C0.60976 13.4151 0.744135 13.5026 0.89101 13.5338C0.98476 13.5619 1.29101 13.5463 1.39413 13.5494C1.37851 13.5744 1.35351 13.5869 1.32851 13.5869ZM1.03163 13.2276C0.825385 13.2276 0.67226 13.0369 0.644135 12.8432L0.50976 12.0463C0.50976 12.0369 0.50351 12.0276 0.50351 12.0182L0.375385 11.2494C0.57226 11.4119 0.800385 11.5307 1.05038 11.5869C1.24101 12.4463 2.38476 12.2213 2.30351 11.3713C2.31601 11.4494 2.30976 11.5369 2.29101 11.6151H3.84726C3.81601 11.6776 3.78476 11.7432 3.76913 11.8119H3.55351C3.18788 11.8119 2.86601 12.0026 2.74413 12.2807L2.54726 12.7401C2.52538 12.7901 2.53163 12.8463 2.56288 12.8932C2.59101 12.9401 2.64413 12.9651 2.69726 12.9651H3.84101L3.88476 13.2213H1.03163V13.2276ZM1.35663 11.4526C1.35351 11.1932 1.60351 11.0026 1.81601 11.1338C2.07851 11.2963 2.00976 11.8119 1.66601 11.8119C1.49726 11.8119 1.35663 11.6526 1.35663 11.4526ZM3.71601 12.2307C3.71913 12.3151 3.76913 12.5619 3.78163 12.6463H2.93788L3.03788 12.4119C3.10663 12.2526 3.31601 12.1401 3.54726 12.1401H3.71288C3.71288 12.1682 3.71601 12.1994 3.71601 12.2307ZM2.28788 11.2901C2.29413 11.3182 2.29413 11.3401 2.30038 11.3682C2.21288 10.6401 1.27226 10.5557 1.05976 11.2557C0.80351 11.1807 0.562885 11.0244 0.39726 10.8119C0.481635 10.5838 0.675385 10.4276 0.89101 10.4088H5.04101C4.97851 10.5682 4.72226 10.9151 4.62851 11.0557C4.44101 11.0776 4.23476 11.1463 4.09726 11.2869H2.28788V11.2901ZM5.16913 15.0244H4.34413C4.16913 15.0182 4.22538 14.7338 4.21913 14.6182C4.45976 14.9744 4.90663 14.9557 5.28163 14.9401C5.25976 14.9901 5.21601 15.0244 5.16913 15.0244ZM12.3004 14.8682C12.3004 14.9526 12.241 15.0244 12.1723 15.0244H11.3504C11.3004 15.0244 11.2598 14.9901 11.2379 14.9401C11.2473 14.9588 11.4504 14.9369 11.4723 14.9369C11.7785 14.9619 12.1223 14.8932 12.3004 14.6182V14.8682ZM12.4629 12.3151C12.4129 12.6307 12.3566 12.9463 12.3035 13.2619L12.1504 14.1619C12.1066 14.4244 11.9129 14.6151 11.691 14.6151H4.83163C4.60663 14.6151 4.41288 14.4244 4.36913 14.1619C4.31601 13.8526 4.18476 13.0838 4.13476 12.7869L4.05351 12.2994C4.28163 12.5057 4.56601 12.6588 4.86913 12.7213C5.00663 13.5213 6.07538 13.5432 6.23788 12.7463H10.2848L10.2816 12.7432C10.2754 12.7182 10.2723 12.6901 10.2691 12.6651C10.366 13.5151 11.4973 13.5713 11.6535 12.7213C11.9535 12.6588 12.2316 12.5057 12.466 12.3026L12.4629 12.3151ZM12.4191 11.2901C12.2504 11.1307 12.0223 11.0744 11.8004 11.0526C11.8004 11.0526 11.4941 10.4494 11.4754 10.4088H15.1098C15.3285 10.4276 15.5191 10.5869 15.6035 10.8119C15.4223 11.0026 15.2066 11.1963 14.9441 11.2557C14.7598 10.5963 13.8598 10.6182 13.7129 11.2901H12.4191ZM14.6441 11.4526C14.6379 11.9276 14.0254 11.9276 14.0191 11.4526C14.0254 10.9869 14.6285 10.9651 14.6441 11.4526ZM15.491 13.4682C15.491 13.5338 15.4504 13.5869 15.3973 13.5869H14.6723C14.6473 13.5869 14.6223 13.5713 14.6066 13.5494C14.7191 13.5432 15.0191 13.5651 15.1223 13.5307C15.266 13.4994 15.3973 13.4119 15.491 13.2994V13.4682ZM15.5004 12.0182C15.5004 12.0276 15.4941 12.0369 15.4941 12.0463L15.3598 12.8432C15.3223 13.0651 15.1598 13.2276 14.9723 13.2276H12.641L12.6848 12.9713H13.3098C13.4223 12.9744 13.5066 12.8463 13.4598 12.7463L13.2629 12.2869C13.1816 12.0932 13.0004 11.9432 12.7723 11.8682C12.7504 11.7838 12.7191 11.6963 12.6785 11.6213H13.716C13.8785 12.3244 14.8191 12.3026 14.9566 11.5963C15.2004 11.5338 15.4348 11.4213 15.6285 11.2588L15.5004 12.0182ZM12.7379 12.6432C12.7504 12.5588 12.7973 12.3119 12.8004 12.2307C12.9504 12.3057 13.0004 12.5088 13.0629 12.6432H12.7379ZM10.3004 12.3463C10.291 12.3713 10.2879 12.3963 10.2816 12.4213C10.2879 12.3932 10.2941 12.3682 10.3004 12.3463ZM10.2973 12.3557C10.291 12.3776 10.2879 12.3963 10.2816 12.4182C10.2879 12.3932 10.2941 12.3682 10.3004 12.3432C10.3004 12.3494 10.2973 12.3526 10.2973 12.3557ZM10.2973 12.3557C10.291 12.3776 10.2879 12.3963 10.2816 12.4182C10.2879 12.3932 10.2941 12.3682 10.3004 12.3432C10.3004 12.3494 10.2973 12.3526 10.2973 12.3557ZM10.2973 12.3557C10.291 12.3776 10.2879 12.3963 10.2816 12.4182C10.2879 12.3932 10.2941 12.3682 10.3004 12.3432C10.3004 12.3494 10.2973 12.3526 10.2973 12.3557ZM10.2973 12.3557C10.291 12.3776 10.2879 12.3963 10.2816 12.4182C10.2879 12.3932 10.2941 12.3682 10.3004 12.3432C10.3004 12.3494 10.2973 12.3526 10.2973 12.3557ZM11.066 10.3213C11.0629 10.3244 11.066 10.3244 11.066 10.3213V10.3213Z" fill="#151515"/>
<path d="M6.14453 8.74406C5.63203 9.02531 5.46953 9.60656 5.20703 10.0878H1.28516C1.36641 9.92843 1.91328 8.84406 2.01016 8.65968C2.12891 8.42531 2.35078 8.28156 2.59141 8.28156H5.52266C5.79453 8.27218 6.03828 8.47843 6.14453 8.74406Z" fill="#109BDE"/>
<path d="M14.7164 10.0867H11.3102L10.8883 9.25547C10.7039 8.89297 10.3195 8.63359 9.91016 8.63672C10.032 8.41172 10.2477 8.27734 10.482 8.27734H13.4133C13.6508 8.27734 13.8727 8.42109 13.9945 8.65547C13.9945 8.65547 14.5852 9.81797 14.5852 9.82109C14.6039 9.87109 14.682 10.0148 14.7164 10.0867Z" fill="#109BDE"/>
<path d="M14.6445 11.4512C14.6383 11.9262 14.0258 11.9262 14.0195 11.4512C14.0258 10.9856 14.6289 10.9637 14.6445 11.4512Z" fill="#109BDE"/>
<path d="M11.343 12.5824C11.3305 13.1512 10.6055 13.1512 10.5898 12.5855C10.6023 12.0137 11.3305 12.0137 11.343 12.5824Z" fill="#109BDE"/>
<path d="M1.67031 11.8117C1.26094 11.8055 1.26094 11.0961 1.67031 11.0898C2.07344 11.0961 2.08281 11.8117 1.67031 11.8117Z" fill="#109BDE"/>
<path d="M5.92891 12.5824C5.91641 13.1512 5.19141 13.1512 5.17578 12.5855C5.18828 12.0137 5.91641 12.0137 5.92891 12.5824Z" fill="#109BDE"/>
<path d="M13.975 10.8828C13.9656 10.8891 13.9594 10.8922 13.9531 10.8984C13.9625 10.8891 13.9719 10.8859 13.975 10.8828Z" fill="#151515"/>
<path d="M0.535156 11.3711C0.566406 11.3961 0.603906 11.4148 0.638281 11.4336C0.603906 11.4148 0.569531 11.393 0.535156 11.3711Z" fill="#151515"/>
<path d="M1.84766 10.7969C1.84766 10.793 1.84766 10.793 1.84766 10.7969C1.84766 10.793 1.84375 10.793 1.84375 10.793C1.84375 10.793 1.84375 10.793 1.84766 10.7969Z" fill="#151515"/>
<path d="M9.73353 13.5313C9.60228 13.2219 9.2429 13.0156 8.83665 13.0156H7.68665C7.2804 13.0156 6.92103 13.2219 6.78978 13.5313L6.5679 14.0562C6.52103 14.1594 6.6054 14.2844 6.7179 14.2813H9.80853C9.92103 14.2844 10.0054 14.1594 9.95853 14.0562C9.9554 14.0562 9.73353 13.5313 9.73353 13.5313ZM6.96165 13.9563L7.08665 13.6594C7.1679 13.4688 7.41478 13.3375 7.68665 13.3375H8.83665C9.10853 13.3375 9.3554 13.4688 9.43353 13.6594L9.55853 13.9563H6.96165Z" fill="#151515"/>
</g>
<defs>
<clipPath id="clip0_421_260560">
<rect width="16" height="16" fill="white"/>
</clipPath>
</defs>
</svg>
