<svg width="146" height="42" viewBox="0 0 146 42" fill="none" xmlns="http://www.w3.org/2000/svg">
<rect x="0.923828" y="0.5" width="144" height="41" rx="7.5" fill="white" stroke="#13243E"/>
<path fill-rule="evenodd" clip-rule="evenodd" d="M51.7059 24.4528V26.4053H56.3783C56.237 27.5027 55.8734 28.3039 55.3146 28.8627C54.6346 29.5427 53.5709 30.29 51.7059 30.29C48.8244 30.29 46.5757 27.9672 46.5757 25.0924C46.5757 22.2176 48.8244 19.8948 51.7059 19.8948C53.2612 19.8948 54.3922 20.5075 55.2271 21.2885L56.6073 19.9083C55.4358 18.7907 53.8873 17.9357 51.7059 17.9357C47.7606 17.9357 44.4482 21.1471 44.4482 25.0857C44.4482 29.0243 47.7606 32.2357 51.7059 32.2357C53.8334 32.2357 55.4425 31.5355 56.6948 30.2294C57.9874 28.9367 58.3847 27.1257 58.3847 25.658C58.3847 25.2069 58.351 24.7827 58.2769 24.4394H51.6992L51.7059 24.4528ZM63.7034 23.039C61.1585 23.039 59.0781 24.978 59.0781 27.6441C59.0781 30.3102 61.1518 32.2492 63.7034 32.2492C66.2551 32.2492 68.3287 30.2967 68.3287 27.6441C68.3287 24.9914 66.2551 23.039 63.7034 23.039ZM69.1636 27.6441C69.1636 24.978 71.2439 23.039 73.7889 23.039C76.3405 23.039 78.4142 24.9914 78.4142 27.6441C78.4142 30.2967 76.3405 32.2492 73.7889 32.2492C71.2372 32.2492 69.1636 30.3102 69.1636 27.6441ZM71.1901 27.6441C71.1901 29.2868 72.3952 30.4381 73.7889 30.4381C75.1825 30.4381 76.3877 29.307 76.3877 27.6441C76.3877 25.9811 75.1825 24.85 73.7889 24.85C72.3952 24.85 71.1901 26.0013 71.1901 27.6441ZM61.1046 27.6441C61.1046 29.2868 62.3098 30.4381 63.7034 30.4381C65.0971 30.4381 66.3022 29.307 66.3022 27.6441C66.3022 25.9811 65.0971 24.85 63.7034 24.85C62.3098 24.85 61.1046 26.0013 61.1046 27.6441ZM96.8211 23.039C99.2112 23.039 100.383 24.9376 100.767 25.9677V25.9744L100.975 26.4995L94.8148 29.0445C95.2861 29.9668 96.0199 30.4381 97.05 30.4381C98.0801 30.4381 98.7938 29.9332 99.3189 29.1656L100.888 30.2092C100.383 30.9565 99.1641 32.2492 97.05 32.2492C94.431 32.2492 92.4786 30.2227 92.4786 27.6441C92.4786 24.9039 94.431 23.039 96.8211 23.039ZM94.4849 27.5027C94.431 25.7253 95.8651 24.8164 96.8952 24.8164C97.6964 24.8164 98.3764 25.2203 98.6053 25.7926L94.4916 27.5027H94.4849ZM91.5024 31.9664H89.4758V18.4271H91.5024V31.9664ZM86.1634 24.0623H86.0961C85.645 23.5237 84.7697 23.0322 83.6723 23.0322C81.3698 23.0322 79.2557 25.0588 79.2557 27.6575C79.2557 30.2563 81.3698 32.2424 83.6723 32.2424C84.7697 32.2424 85.645 31.751 86.0961 31.1989H86.1634V31.8587C86.1634 33.6226 85.2208 34.5652 83.706 34.5652C82.4672 34.5652 81.6997 33.6765 81.3832 32.9224L79.6193 33.6563C80.1243 34.8749 81.4708 36.3763 83.6993 36.3763C86.0691 36.3763 88.0755 34.9826 88.0755 31.5759V23.3083H86.1567V24.0556L86.1634 24.0623ZM81.2755 27.6575C81.2755 29.2599 82.447 30.4314 83.8406 30.4314C85.2141 30.4314 86.2981 29.2801 86.2981 27.6575C86.2981 26.035 85.2343 24.85 83.8406 24.85C82.447 24.85 81.2755 26.0552 81.2755 27.6575ZM110.24 18.4271H105.399V31.9664H107.419V26.8362H110.24C112.481 26.8362 114.683 25.2136 114.683 22.635C114.683 20.0564 112.481 18.4339 110.24 18.4339V18.4271ZM107.419 24.951H110.293V24.9578C111.808 24.9578 112.663 23.7055 112.663 22.635C112.663 21.5645 111.801 20.3123 110.293 20.3123H107.419V24.951ZM122.782 23.0053C121.321 23.0053 119.807 23.6516 119.18 25.079L120.971 25.8263C121.355 25.079 122.069 24.8366 122.816 24.8366C123.86 24.8366 124.923 25.4627 124.944 26.5803V26.7217C124.58 26.513 123.792 26.1966 122.836 26.1966C120.904 26.1966 118.938 27.2603 118.938 29.2464C118.938 31.0575 120.52 32.2222 122.298 32.2222C123.658 32.2222 124.405 31.6096 124.876 30.8959H124.944V31.9395H126.896V26.7486C126.896 24.3451 125.105 23.0053 122.789 23.0053H122.782ZM120.958 29.2734C120.958 30.0947 121.88 30.4246 122.54 30.4246V30.4179C123.705 30.4179 124.789 29.5292 124.944 28.2769C124.405 28.0144 123.987 27.8259 123.099 27.8259C122.109 27.8259 120.958 28.2298 120.958 29.2734ZM133.999 23.3015L131.683 29.1724H131.616L129.212 23.3015H127.037L130.639 31.5019L128.586 36.0666H130.693L136.248 23.3015H133.999ZM117.82 31.9597H115.801V18.4204H117.82V31.9597Z" fill="#202020"/>
<path d="M11.3039 7.65487C10.9875 7.98476 10.8057 8.50318 10.8057 9.17644V33.1041C10.8057 33.7774 10.9942 34.289 11.3039 34.6257L11.3847 34.7065L24.7893 21.3018V20.9854L11.3847 7.58081L11.3039 7.6616V7.65487Z" fill="#5BC9F4"/>
<path d="M29.2596 25.7723L24.7891 21.3019V20.9855L29.2596 16.515L29.3606 16.5756L34.6524 19.5851C36.1672 20.4468 36.1672 21.8472 34.6524 22.709L29.3606 25.7185L29.2596 25.7791V25.7723Z" fill="url(#paint0_linear_2940_33014)"/>
<path d="M29.3606 25.7117L24.7891 21.1402L11.3037 34.6257C11.8019 35.1508 12.6233 35.2181 13.5524 34.693L29.3606 25.7117Z" fill="url(#paint1_linear_2940_33014)"/>
<path d="M29.3606 16.5688L13.5524 7.58755C12.6233 7.06241 11.8019 7.123 11.3037 7.65488L24.7891 21.1403L29.3606 16.5688Z" fill="url(#paint2_linear_2940_33014)"/>
<path d="M49.6526 8.42239C49.2487 8.05883 48.71 7.82992 48.1176 7.82992C46.7845 7.82992 45.7612 8.92733 45.7612 10.2806C45.7612 11.6338 46.7845 12.7178 48.1176 12.7178C49.2621 12.7178 50.097 12.0513 50.1508 11.001H48.3398V10.2536H51.1338C51.1338 12.4889 49.9421 13.5459 48.1176 13.5459C46.293 13.5459 44.8994 12.0849 44.8994 10.2806C44.8994 8.47625 46.3065 7.00854 48.1176 7.00854C48.9592 7.00854 49.7199 7.33171 50.272 7.85012L49.6526 8.42239Z" fill="#202020"/>
<path d="M56.0758 7.08264V7.88381H53.1606V9.91711H55.7055V10.725H53.1606V12.6505H56.1633V13.4517H52.2988V7.08264H56.069H56.0758Z" fill="#202020"/>
<path d="M61.6501 7.08264V7.89728H59.7178V13.4517H58.8493V7.89728H56.917V7.08264H61.6501Z" fill="#202020"/>
<path d="M65.7776 7.08264V13.4517H64.9158V7.08264H65.7776Z" fill="#202020"/>
<path d="M71.6412 7.08264V7.89728H69.7089V13.4517H68.8404V7.89728H66.9082V7.08264H71.6412Z" fill="#202020"/>
<path fill-rule="evenodd" clip-rule="evenodd" d="M80.9459 10.2806C80.9459 8.46952 79.532 7.00854 77.7075 7.00854C75.8964 7.00854 74.4893 8.47625 74.4893 10.2806C74.4893 12.0849 75.8829 13.5459 77.7075 13.5459C79.532 13.5459 80.9459 12.0916 80.9459 10.2806ZM80.0774 10.2806C80.0774 11.6271 79.0473 12.711 77.7075 12.711C76.3744 12.711 75.3511 11.6338 75.3511 10.2806C75.3511 8.92733 76.361 7.83665 77.7075 7.83665C79.054 7.83665 80.0774 8.93407 80.0774 10.2806Z" fill="#202020"/>
<path d="M86.0292 13.4517L83.1274 8.65133V13.4517H82.2656V7.08264H83.1139L85.9888 11.8426V7.08264H86.8505V13.4517H86.0292Z" fill="#202020"/>
<defs>
<linearGradient id="paint0_linear_2940_33014" x1="33.6694" y1="10.1141" x2="7.48629" y2="10.1141" gradientUnits="userSpaceOnUse">
<stop stop-color="#FEE000"/>
<stop offset="0.42" stop-color="#FBBC0E"/>
<stop offset="0.78" stop-color="#F9A318"/>
<stop offset="1" stop-color="#F99B1C"/>
</linearGradient>
<linearGradient id="paint1_linear_2940_33014" x1="10.9009" y1="14.1381" x2="-6.32673" y2="43.1497" gradientUnits="userSpaceOnUse">
<stop stop-color="#EF4547"/>
<stop offset="1" stop-color="#C6186D"/>
</linearGradient>
<linearGradient id="paint2_linear_2940_33014" x1="-10.9013" y1="1.67426" x2="3.16938" y2="25.3614" gradientUnits="userSpaceOnUse">
<stop stop-color="#279E6F"/>
<stop offset="0.04" stop-color="#2B9F6E"/>
<stop offset="0.46" stop-color="#52B16B"/>
<stop offset="0.8" stop-color="#6BBC69"/>
<stop offset="1" stop-color="#74C169"/>
</linearGradient>
</defs>
</svg>
