<svg width="11" height="12" viewBox="0 0 11 12" fill="none" xmlns="http://www.w3.org/2000/svg">
<path d="M1.10864 10.5848L3.69442 9.93816C3.8164 9.90766 3.92729 9.84459 4.01669 9.75588L9.83141 3.94117C10.3727 3.3999 10.3727 2.52249 9.83141 1.98122L9.7122 1.86201C9.17093 1.32074 8.29352 1.32074 7.75225 1.86201L1.93753 7.67672C1.84882 7.76544 1.78576 7.87702 1.75526 7.99899L1.10864 10.5848" stroke="#109BDE" stroke-linecap="round" stroke-linejoin="round"/>
<path d="M6.65454 2.95996L8.7337 5.03912" stroke="#109BDE" stroke-width="1.5" stroke-linecap="round" stroke-linejoin="round"/>
<path d="M3.68537 9.94045C3.69507 9.86699 3.70754 9.79422 3.70754 9.71798C3.70754 8.76088 2.93202 7.98535 1.97491 7.98535C1.89868 7.98535 1.82591 7.99852 1.75244 8.00753" stroke="#109BDE" stroke-width="1.5" stroke-linecap="round" stroke-linejoin="round"/>
</svg>
