<svg viewBox="0 0 60 30" fill="none" xmlns="http://www.w3.org/2000/svg">
<path fill-rule="evenodd" clip-rule="evenodd" d="M29.6014 5.96039C28.0621 6.262 26.6695 7.05604 25.6262 8.2097C24.2738 6.71624 22.3397 5.82544 20.2577 5.82544C16.2566 5.82544 13 9.10426 13 13.1345C13 20.0293 23.5798 28.1802 24.7863 29.0861C25.037 29.2725 25.3307 29.3667 25.6262 29.3667C25.9218 29.3667 26.2154 29.2725 26.4661 29.0861C27.3429 28.4264 33.1701 23.9423 36.2894 18.8945C35.7459 18.5606 35.1304 18.147 34.4981 17.6534C32.1563 21.2707 28.1147 24.9612 25.6262 26.9622C21.9583 24.0149 14.9164 17.4014 14.9164 12.7473C14.9164 10.0506 17.093 7.85704 19.7715 7.85704C21.7095 7.85704 23.4557 9.00721 24.2227 10.7879C24.7082 11.9114 26.5442 11.9114 27.0297 10.7879C27.5371 9.6132 28.4697 8.71289 29.6014 8.23616V5.96039Z" fill="#798595"/>
<path d="M38.2472 14.7979C38.2472 14.7979 42.5701 12.9612 42.5701 9.28701C42.5701 7.8175 42.5701 5.98001 42.5701 5.98001L38.2472 4.5105L33.9243 5.98001V9.28701C33.9243 12.9612 38.2472 14.7979 38.2472 14.7979Z" fill="#CAD1D9"/>
<path fill-rule="evenodd" clip-rule="evenodd" d="M37.9009 18.2381C38.0124 18.2847 38.1298 18.3086 38.2471 18.3086C38.3645 18.3086 38.4819 18.2847 38.5921 18.2381C38.8803 18.1164 45.6562 15.1667 45.6562 9.10026V4.11172C45.6562 3.72854 45.4131 3.38713 45.0515 3.26418L38.5305 1.04745C38.3467 0.984183 38.1464 0.984183 37.9626 1.04745L31.4416 3.26418C31.08 3.38713 30.8369 3.72734 30.8369 4.11172V9.10026C30.8369 15.1667 37.6116 18.1152 37.9009 18.2381ZM32.6154 9.10026V4.75513L38.2471 2.84041L43.8789 4.75513V9.10026C43.8789 13.2818 39.5205 15.7827 38.2459 16.4249C36.9702 15.7863 32.6154 13.2974 32.6154 9.10026Z" fill="#798595"/>
</svg>
