<svg xmlns="http://www.w3.org/2000/svg" width="63" height="60" viewBox="0 0 63 60" fill="none">
  <path d="M11.2006 17.4628C11.1727 17.2256 10.9634 17.0512 10.7122 17.0791C10.3146 17.1279 9.99364 17.1698 9.74946 17.2117C9.42156 17.2675 9.23323 17.3093 9.21928 17.3093C8.98207 17.3651 8.83553 17.5954 8.88437 17.8326C8.93321 18.0349 9.11459 18.1744 9.30993 18.1744C9.33784 18.1744 9.37273 18.1744 9.40762 18.1605C9.40762 18.1605 9.93784 18.0419 10.8099 17.9442C10.8239 17.9442 10.8378 17.9372 10.8518 17.9303C11.0681 17.8814 11.2215 17.6861 11.1936 17.4558L11.2006 17.4628Z" fill="#51AD61"/>
  <path d="M50.9727 38.1834C50.7983 38.3299 50.6309 38.4694 50.4565 38.609C50.2681 38.7555 50.2332 39.0345 50.3797 39.2299C50.4635 39.3415 50.596 39.3973 50.7286 39.3973C50.8123 39.3973 50.903 39.3694 50.9727 39.3136C50.9797 39.3136 50.9867 39.3066 50.9936 39.3066C51.182 39.1601 51.3704 38.9996 51.5588 38.8462C52.1378 38.3438 52.696 37.7857 53.2401 37.1648C53.4006 36.9834 53.3797 36.7044 53.1983 36.5439C53.0169 36.3834 52.7378 36.4044 52.5773 36.5857C52.2425 36.9625 51.9076 37.3183 51.5588 37.6532C51.3634 37.8415 51.1681 38.016 50.9727 38.1834Z" fill="#51AD61"/>
  <path d="M16.7374 18.0016C16.7374 18.0016 16.7793 18.0016 16.7933 18.0016C17.0095 18.0016 17.1979 17.8411 17.2258 17.6179C17.2607 17.3807 17.0863 17.1574 16.8491 17.1225C16.4584 17.0667 16.0537 17.0318 15.6491 16.9969C15.4538 16.983 15.2584 16.962 15.063 16.9551C14.6375 16.9272 14.2119 16.9062 13.7794 16.9062C13.5352 16.9062 13.3398 17.1016 13.3398 17.3388C13.3398 17.583 13.5352 17.7783 13.7724 17.7783C14.2049 17.7783 14.6305 17.8062 15.063 17.8271C15.2584 17.8411 15.4538 17.8551 15.6491 17.876C16.0119 17.9109 16.3747 17.9388 16.7305 17.9876L16.7374 18.0016Z" fill="#51AD61"/>
  <path d="M54.4945 34.7995C54.5713 34.8484 54.648 34.8693 54.7317 34.8693C54.7806 34.8693 54.8294 34.8484 54.8782 34.8344C54.9689 34.7995 55.0457 34.7507 55.1015 34.667C55.3666 34.2554 55.6247 33.8298 55.8689 33.3903C55.9875 33.181 55.9177 32.9159 55.7015 32.7903C55.4922 32.6717 55.2201 32.7484 55.1015 32.9577C55.0247 33.0903 54.948 33.2089 54.8712 33.3345C54.7038 33.6205 54.5364 33.9135 54.355 34.1856C54.2224 34.3879 54.2852 34.66 54.4875 34.7926L54.4945 34.7995Z" fill="#51AD61"/>
  <path d="M18.9639 0.126823C18.6988 -0.0336388 18.3779 -0.0406001 18.1058 0.0989319L1.17362 8.91734C0.880605 9.07083 0.699219 9.37082 0.699219 9.69872V58.3954C0.699219 58.7024 0.85967 58.9884 1.12478 59.1489C1.26431 59.2326 1.42479 59.2744 1.57828 59.2744C1.71781 59.2744 1.85731 59.2396 1.98289 59.1768L18.9151 50.3583C19.2081 50.2048 19.3895 49.9049 19.3895 49.577V18.4125C19.4453 18.4962 19.5291 18.566 19.6337 18.5939C20.5477 18.852 21.4337 19.1799 22.2778 19.5567V50.3025C22.2778 50.6304 22.4592 50.9304 22.7522 51.0839L39.6845 59.9023C39.81 59.9721 39.9496 60 40.0891 60C40.2496 60 40.403 59.9581 40.5426 59.8744C40.8077 59.714 40.9681 59.4279 40.9681 59.1209V40.9748C41.3518 41.1283 41.7356 41.2678 42.1263 41.3725C42.1681 41.3794 42.203 41.3864 42.2379 41.3864C42.4332 41.3864 42.6076 41.2609 42.6634 41.0655C42.7262 40.8283 42.5867 40.5911 42.3565 40.5283C41.8891 40.4027 41.4286 40.2353 40.9681 40.026V10.4243C40.9681 10.0964 40.7867 9.7964 40.4937 9.64291L23.5615 0.824483C23.2895 0.684951 22.9615 0.691933 22.7034 0.852395C22.4383 1.01286 22.2778 1.29889 22.2778 1.60586V18.6148C21.5034 18.2799 20.7081 17.9869 19.8779 17.7567C19.6895 17.7009 19.5011 17.7846 19.3965 17.9381V0.88727C19.3965 0.580299 19.236 0.294268 18.9709 0.133806L18.9639 0.126823ZM17.6314 49.0467L15.6501 50.0793L15.064 50.3862L12.2106 51.8723L11.6246 52.1792L8.86883 53.6164L8.50603 53.8048L5.58284 55.3257L5.2619 55.4931L2.45035 56.9512V10.2359L8.35253 7.16621L8.60372 7.03365L17.6314 2.33143V49.0467ZM24.029 3.05002L26.3033 4.23605L26.8894 4.54302L29.7428 6.02904L30.3288 6.33599L33.0637 7.75922L33.6497 8.0662L39.2031 10.9615V39.4051C39.1682 39.433 39.1333 39.4679 39.1054 39.5097C38.9868 39.6981 39.0356 39.9353 39.2031 40.0748V57.6838L36.9287 56.4978L36.3426 56.1908L33.6427 54.7885L33.0567 54.4815L30.3219 53.0583L29.7358 52.7513L26.8824 51.2653L26.2964 50.9583L24.022 49.7723V3.057L24.029 3.05002Z" fill="#163B3E"/>
  <path d="M43.6602 9.69872V58.3954C43.6602 58.7024 43.8206 58.9884 44.0857 59.1489C44.2253 59.2326 44.3857 59.2744 44.5392 59.2744C44.6787 59.2744 44.8182 59.2396 44.9438 59.1768L54.6204 54.1397L54.8087 54.042L57.7947 52.4862L58.318 52.2141L61.876 50.3583C62.1691 50.2049 62.3504 49.9049 62.3504 49.577V0.880308C62.3504 0.573337 62.19 0.287285 61.9249 0.126823C61.6598 -0.0336388 61.3388 -0.0406001 61.0667 0.0989319L44.1346 8.91734C43.8415 9.07083 43.6602 9.37082 43.6602 9.69872ZM60.5923 49.0467L58.318 50.2328L57.7319 50.5328L54.8785 52.0188L54.2925 52.3257L51.5576 53.749L50.9716 54.056L48.2787 55.4582L47.6926 55.7652L45.4182 56.9512V41.6585C46.1787 41.5818 46.9391 41.4143 47.6926 41.1492C47.888 41.0795 48.0833 41.0097 48.2787 40.926C48.2926 40.926 48.3066 40.919 48.3135 40.912C48.5368 40.8144 48.6414 40.5562 48.5438 40.333C48.4949 40.2144 48.3903 40.1306 48.2787 40.0958C48.181 40.0609 48.0694 40.0609 47.9717 40.1027C47.881 40.1446 47.7833 40.1725 47.6926 40.2074C46.9461 40.5004 46.1787 40.6888 45.4182 40.7725V10.2359L47.6926 9.0499L48.1531 8.8127L50.9716 7.34761L51.5576 7.04064L54.2925 5.6174L54.8785 5.31045L57.7319 3.82443L58.318 3.51746L60.5923 2.33143V49.0467Z" fill="#163B3E"/>
  <path d="M24.0273 3.05078V49.7731L39.2014 57.6706V10.9553L24.0273 3.05078Z" fill="#A3CCF2"/>
  <path d="M27.1875 22.9688C27.2712 23.0525 27.3898 23.1013 27.5014 23.1013C27.6131 23.1013 27.7247 23.0595 27.8084 22.9757C27.9828 22.8083 27.9828 22.5292 27.8084 22.3548C27.5154 22.0548 27.2014 21.7758 26.8875 21.5037C26.6991 21.3362 26.4968 21.1828 26.3015 21.0223C26.0224 20.799 25.7433 20.5688 25.4433 20.3665C25.241 20.227 24.9689 20.2758 24.8294 20.4781C24.6898 20.6804 24.7387 20.9525 24.941 21.0921C25.4154 21.42 25.8619 21.7897 26.3015 22.1664C26.5038 22.3409 26.6991 22.5223 26.8875 22.7037C26.9852 22.8013 27.0898 22.885 27.1875 22.9827V22.9688Z" fill="#51AD61"/>
  <path d="M30.5537 27.7753C30.6304 27.9288 30.7839 28.0195 30.9514 28.0195C31.0141 28.0195 31.0839 28.0055 31.1467 27.9707C31.363 27.866 31.4537 27.6009 31.349 27.3846C31.0351 26.7567 30.6932 26.1567 30.3304 25.5707C30.156 25.2847 29.9816 24.9986 29.7933 24.7265C29.7793 24.7056 29.7653 24.6986 29.7444 24.6847C29.5979 24.5312 29.3607 24.4893 29.1793 24.6149C28.977 24.7544 28.9281 25.0265 29.0677 25.2219C29.3049 25.5637 29.5281 25.9195 29.7444 26.2823C29.9537 26.6242 30.1421 26.98 30.3304 27.3428C30.4072 27.4893 30.4909 27.6218 30.5607 27.7683L30.5537 27.7753Z" fill="#51AD61"/>
  <path d="M36.9295 38.2541C36.9923 38.2821 37.0551 38.303 37.1179 38.303C37.2295 38.303 37.3481 38.2611 37.4318 38.1704C37.5992 37.996 37.5993 37.717 37.4249 37.5495C37.2574 37.3891 37.09 37.2146 36.9295 37.0402C36.7342 36.8309 36.5388 36.6077 36.3434 36.3775C36.0574 36.0426 35.7714 35.6868 35.4993 35.317C35.3528 35.1217 35.0807 35.0798 34.8854 35.2263C34.69 35.3728 34.6482 35.6449 34.7947 35.8402C35.29 36.51 35.8132 37.1309 36.3434 37.696C36.4969 37.8635 36.6574 38.0239 36.8109 38.1774C36.8458 38.2123 36.8876 38.2332 36.9295 38.2541Z" fill="#51AD61"/>
  <path d="M33.5107 33.4823C33.5596 33.4823 33.6014 33.4614 33.6503 33.4474C33.6782 33.4404 33.7061 33.4404 33.727 33.4265C33.9363 33.3079 34.0131 33.0358 33.8945 32.8265C33.8107 32.68 33.734 32.5195 33.6503 32.3661C33.4479 31.9963 33.2526 31.6195 33.0642 31.2358C32.8898 30.88 32.7224 30.5312 32.5549 30.1614C32.4573 29.9382 32.1991 29.8405 31.9759 29.9382C31.7526 30.0359 31.655 30.294 31.7526 30.5172C32.1643 31.4312 32.6038 32.3102 33.0642 33.1265C33.0852 33.1684 33.1061 33.2102 33.127 33.2451C33.2038 33.3916 33.3572 33.4683 33.5107 33.4683V33.4823Z" fill="#51AD61"/>
</svg>