<svg xmlns="http://www.w3.org/2000/svg" width="61" height="60" viewBox="0 0 61 60" fill="none">
  <path d="M48.2889 12.1204C42.5224 5.02316 32.0552 3.93886 24.9579 9.70537C21.5202 12.4962 19.3762 16.4638 18.9142 20.8687C18.4583 25.2737 19.7458 29.5986 22.5367 33.0363C25.3275 36.474 29.2951 38.618 33.7001 39.0739C34.2792 39.1355 34.8644 39.1663 35.4374 39.1663C37.8648 39.1663 40.2367 38.6365 42.4114 37.62L53.6672 51.4756C53.8829 51.7405 54.2032 51.8822 54.5236 51.8822C54.77 51.8822 55.0103 51.8021 55.2198 51.6358L59.6925 48.0009C59.9205 47.8161 60.0621 47.5512 60.0929 47.2616C60.1237 46.972 60.0375 46.6825 59.8527 46.4545L48.6154 32.6174C50.4451 30.2208 51.5849 27.3622 51.9052 24.288C52.3611 19.883 51.0735 15.5643 48.2827 12.1204H48.2889ZM49.7243 24.06C49.33 27.8797 47.4694 31.3175 44.4876 33.7448C41.5058 36.166 37.76 37.2873 33.9342 36.8868C30.1145 36.4925 26.6706 34.632 24.2494 31.6501C21.8282 28.6683 20.7131 24.9225 21.1074 21.0967C21.5017 17.277 23.3623 13.8331 26.3441 11.4119C29.0056 9.24947 32.2091 8.20214 35.4004 8.20214C39.5836 8.20214 43.7422 10.0134 46.5761 13.5127C48.9973 16.4946 50.1125 20.2403 49.7182 24.0662L49.7243 24.06ZM54.6961 49.2331L44.3767 36.5357C44.8881 36.203 45.3933 35.8456 45.8738 35.4514C46.3235 35.0879 46.7486 34.6997 47.1553 34.2993L57.4623 46.9905L54.6961 49.2392V49.2331Z" fill="#163B3E"/>
  <path d="M36.6686 10.501C33.4403 10.1683 30.2799 11.1109 27.7663 13.1563C25.2465 15.2017 23.6817 18.1035 23.3428 21.3317C23.0101 24.5538 23.9527 27.7205 25.9981 30.2341C28.3947 33.1851 31.9002 34.713 35.4303 34.713C38.1226 34.713 40.8272 33.8258 43.0758 32.0022C48.2694 27.7821 49.0641 20.118 44.844 14.9245C42.7986 12.4109 39.8969 10.8399 36.6686 10.501ZM41.6835 30.2957C37.4325 33.7519 31.1547 33.0988 27.7046 28.8479C26.0289 26.7902 25.2588 24.1965 25.5299 21.5597C25.8071 18.9167 27.0886 16.5448 29.1525 14.869C30.9391 13.4151 33.1261 12.645 35.3995 12.645C35.7445 12.645 36.0956 12.6635 36.4406 12.7004C39.0836 12.9715 41.4556 14.2591 43.1313 16.323C46.5875 20.5739 45.9344 26.8518 41.6835 30.308V30.2957Z" fill="#163B3E"/>
  <path d="M5.4206 32.7399C5.31586 32.7399 5.2173 32.7584 5.11872 32.8015C5.00783 32.8508 2.39566 34.0337 1.58243 37.9643C0.682953 42.3015 0.572038 42.8498 0.559716 45.1724C0.270159 45.5975 0.0976562 46.1088 0.0976562 46.6633C0.0976562 48.0988 1.24357 49.2632 2.64824 49.2632H7.7309V51.7953C7.7309 53.4772 9.49903 54.7956 11.7539 54.7956C14.0087 54.7956 15.7769 53.4772 15.7769 51.7953V49.2632H26.7493V51.7953C26.7493 53.4772 28.5175 54.7956 30.7723 54.7956C33.0272 54.7956 34.7953 53.4772 34.7953 51.7953V49.2632H40.1244C41.5291 49.2632 42.6749 48.0988 42.6749 46.6633C42.6749 45.9055 42.3546 45.2217 41.8371 44.7473C41.8124 42.7697 41.6646 42.0242 40.8206 37.9704C40.0073 34.0398 37.3951 32.857 37.2842 32.8077C37.1918 32.7646 37.0871 32.7461 36.9824 32.7461H34.5365L34.2839 31.058H35.51C36.0275 31.058 36.4464 30.6391 36.4464 30.1216C36.4464 29.6041 36.0275 29.1851 35.51 29.1851H34.0067L32.4665 18.8165C32.4111 18.4469 32.0969 18.1758 31.7272 18.1758H10.6573C10.2876 18.1758 9.97342 18.4469 9.91797 18.8165L8.34698 29.3761H6.59116C6.17839 29.3761 5.83953 29.7088 5.83953 30.1277C5.83953 30.5467 6.17223 30.8732 6.59116 30.8732H8.1252L7.84795 32.7461H5.4021L5.4206 32.7399ZM24.0878 18.262H15.167H24.0878ZM28.2895 18.4592H25.2091H28.2895ZM31.0988 19.6729L33.1688 33.6024C33.2243 33.9721 33.5385 34.2431 33.9081 34.2431H36.816C37.2596 34.4957 38.7998 35.5431 39.3666 38.2723C40.0751 41.6916 40.2784 42.665 40.3338 44.0758C40.2661 44.0758 40.1983 44.0635 40.1306 44.0635H2.64207C2.44492 44.0635 2.25394 44.0881 2.06912 44.1312C2.12457 42.6896 2.32172 41.7347 3.04254 38.2661C3.60933 35.5431 5.1495 34.4896 5.59308 34.237H8.501C8.87064 34.237 9.18485 33.9659 9.2403 33.5963L11.3103 19.6667H31.0865L31.0988 19.6729ZM40.1367 47.7661H2.64824C2.06912 47.7661 1.59473 47.2732 1.59473 46.6633C1.59473 46.0534 2.06912 45.5605 2.64824 45.5605H40.1367C40.7158 45.5605 41.1902 46.0534 41.1902 46.6633C41.1902 47.2732 40.7158 47.7661 40.1367 47.7661ZM30.7784 53.2985C29.2875 53.2985 28.2525 52.5099 28.2525 51.7953V49.2632H33.3044V51.7953C33.3044 52.5038 32.2632 53.2985 30.7784 53.2985ZM11.76 53.2985C10.2691 53.2985 9.23413 52.5099 9.23413 51.7953V49.2632H14.286V51.7953C14.286 52.5038 13.2448 53.2985 11.76 53.2985Z" fill="#163B3E"/>
  <path d="M11.9887 33.2196H30.6128C30.8284 33.2196 31.0317 33.1272 31.1734 32.9732C31.3151 32.813 31.3829 32.6036 31.3582 32.3941L30.237 22.2103C30.1938 21.8283 29.8735 21.5449 29.4915 21.5449H13.11C12.728 21.5449 12.4077 21.8345 12.3645 22.2103L11.2433 32.3941C11.2186 32.6036 11.2864 32.8192 11.4281 32.9732C11.5698 33.1334 11.7731 33.2196 11.9887 33.2196ZM21.0204 25.2229H24.1748V26.0053H18.9319V25.2229H21.0143H21.0204ZM21.7659 24.4775H21.3962V23.2638H21.7659V24.4775ZM20.6446 23.0297V24.4713H18.5623C18.3528 24.4713 18.1865 24.6376 18.1865 24.8471V26.375C18.1865 26.5783 18.3528 26.7508 18.5623 26.7508H24.5506C24.76 26.7508 24.9264 26.5845 24.9264 26.375V24.8471C24.9264 24.6376 24.76 24.4713 24.5506 24.4713H22.5113V23.0297H28.8138L29.7749 31.7226H12.8204L13.7815 23.0297H20.6446Z" fill="#163B3E"/>
  <path d="M28.1055 39.0048C28.1055 41.0871 29.7997 42.7814 31.882 42.7814C33.9644 42.7814 35.6586 41.0871 35.6586 39.0048C35.6586 36.9224 33.9644 35.2344 31.882 35.2344C29.7997 35.2344 28.1055 36.9286 28.1055 39.0048ZM31.882 36.7314C33.1388 36.7314 34.1615 37.7541 34.1615 39.0048C34.1615 40.2554 33.1388 41.2843 31.882 41.2843C30.6252 41.2843 29.6087 40.2616 29.6087 39.0048C29.6087 37.748 30.6314 36.7314 31.882 36.7314Z" fill="#163B3E"/>
  <path d="M11.3859 35.2344C9.3036 35.2344 7.60938 36.9286 7.60938 39.0048C7.60938 41.081 9.3036 42.7814 11.3859 42.7814C13.4683 42.7814 15.1625 41.0871 15.1625 39.0048C15.1625 36.9224 13.4683 35.2344 11.3859 35.2344ZM11.3859 41.2843C10.1291 41.2843 9.11261 40.2616 9.11261 39.0048C9.11261 37.748 10.1353 36.7314 11.3859 36.7314C12.6366 36.7314 13.6655 37.7541 13.6655 39.0048C13.6655 40.2554 12.6428 41.2843 11.3859 41.2843Z" fill="#163B3E"/>
  <path d="M11.5629 41.3152C12.9783 41.3152 14.1258 40.1678 14.1258 38.7523C14.1258 37.3369 12.9783 36.1895 11.5629 36.1895C10.1474 36.1895 9 37.3369 9 38.7523C9 40.1678 10.1474 41.3152 11.5629 41.3152Z" fill="#51AD61"/>
  <path d="M32.0902 41.3152C33.5057 41.3152 34.6531 40.1678 34.6531 38.7523C34.6531 37.3369 33.5057 36.1895 32.0902 36.1895C30.6748 36.1895 29.5273 37.3369 29.5273 38.7523C29.5273 40.1678 30.6748 41.3152 32.0902 41.3152Z" fill="#51AD61"/>
  <path d="M41.4569 46.3496C41.4815 47.5633 40.5513 47.6249 40.5513 47.6249H2.64384C1.74436 47.6249 1.59032 46.7069 1.59032 46.7069C1.56568 45.4994 2.49598 45.4316 2.49598 45.4316H40.4034C41.3028 45.4316 41.4569 46.3496 41.4569 46.3496Z" fill="#A3CCF2"/>
  <path d="M27.4533 12.0224C30.0531 10.0017 33.4046 8.92352 36.6945 9.12067C37.5508 9.16996 38.4072 9.31165 39.2389 9.5396C44.5926 11.012 48.7203 16.1686 48.9729 21.7133C49.2255 27.2581 45.603 32.7781 40.4032 34.7373C35.2035 36.6964 28.8394 34.9467 25.3709 30.6095C22.1057 26.5311 21.6436 20.4689 24.1326 15.8975C24.9581 14.382 26.104 13.0759 27.4533 12.0286V12.0224Z" stroke="white" stroke-width="5" stroke-miterlimit="10"/>
  <path opacity="0.57" d="M35.4466 33.1099C41.0607 33.1099 45.6119 28.5588 45.6119 22.9446C45.6119 17.3305 41.0607 12.7793 35.4466 12.7793C29.8324 12.7793 25.2812 17.3305 25.2812 22.9446C25.2812 28.5588 29.8324 33.1099 35.4466 33.1099Z" fill="#FAFBFD"/>
</svg>