<svg xmlns="http://www.w3.org/2000/svg" width="61" height="60" viewBox="0 0 61 60" fill="none">
  <path d="M54.0053 32.3837C54.7634 32.3837 55.3779 31.7692 55.3779 31.0112C55.3779 30.2532 54.7634 29.6387 54.0053 29.6387C53.2473 29.6387 52.6328 30.2532 52.6328 31.0112C52.6328 31.7692 53.2473 32.3837 54.0053 32.3837Z" fill="#51AD61"/>
  <path d="M21.5555 27.7925C21.5006 27.7925 21.4457 27.8028 21.3942 27.8268C21.3359 27.8543 19.9393 28.4856 19.5036 30.5856C19.0232 32.9052 18.9649 33.2003 18.958 34.4424C18.8036 34.6689 18.7109 34.9434 18.7109 35.2385C18.7109 36.0037 19.3217 36.6282 20.0766 36.6282H22.7976V37.9835C22.7976 38.8825 23.7447 39.586 24.9525 39.586C26.1603 39.586 27.1039 38.8825 27.1039 37.9835V36.6282H32.9715V37.9835C32.9715 38.8825 33.9185 39.586 35.1229 39.586C36.3273 39.586 37.2744 38.8825 37.2744 37.9835V36.6282H40.1258C40.8772 36.6282 41.4915 36.0037 41.4915 35.2385C41.4915 34.8336 41.3199 34.4664 41.0454 34.2125C41.0317 33.1522 40.9527 32.7576 40.4998 30.5856C40.064 28.4822 38.6675 27.8509 38.6091 27.8268C38.5577 27.8062 38.5028 27.7925 38.4479 27.7925H37.1405L37.0067 26.8901H37.6621C37.94 26.8901 38.1631 26.667 38.1631 26.3891C38.1631 26.1112 37.94 25.8881 37.6621 25.8881H36.8592L36.0357 20.3397C36.0048 20.1441 35.8366 20 35.6376 20H24.3692C24.1702 20 24.002 20.1441 23.9746 20.3397L23.1373 25.9876H22.1972C21.9741 25.9876 21.7957 26.1661 21.7957 26.3891C21.7957 26.6121 21.9741 26.7906 22.1972 26.7906H23.0172L22.8697 27.7925H21.5624H21.5555ZM31.5406 20.0515H26.7677H31.5406ZM33.7881 20.151H32.1411H33.7881ZM35.2911 20.8029L36.3959 28.2523C36.4234 28.4479 36.595 28.5954 36.794 28.5954H38.3518C38.5886 28.7293 39.4121 29.292 39.7175 30.7503C40.0983 32.5792 40.2047 33.1008 40.2356 33.8557C40.2013 33.8557 40.1635 33.8488 40.1292 33.8488H20.0766C19.9702 33.8488 19.8707 33.8625 19.7712 33.8865C19.7987 33.1145 19.905 32.6032 20.2893 30.7503C20.5913 29.292 21.4148 28.7293 21.655 28.5954H23.2128C23.4118 28.5954 23.58 28.4513 23.6074 28.2523L24.7123 20.8029H35.2911ZM40.1258 35.8287H20.0732C19.7609 35.8287 19.5104 35.5645 19.5104 35.2385C19.5104 34.9125 19.7644 34.6483 20.0732 34.6483H40.1258C40.438 34.6483 40.6885 34.9125 40.6885 35.2385C40.6885 35.5645 40.4346 35.8287 40.1258 35.8287ZM35.1195 38.7899C34.3234 38.7899 33.7676 38.3678 33.7676 37.987V36.6316H36.4714V37.987C36.4714 38.3678 35.9156 38.7899 35.1195 38.7899ZM24.9456 38.7899C24.1496 38.7899 23.5937 38.3678 23.5937 37.987V36.6316H26.2976V37.987C26.2976 38.3678 25.7417 38.7899 24.9456 38.7899Z" fill="#163B3E"/>
  <path d="M25.0649 28.0507H35.0294C35.1426 28.0507 35.2524 28.0026 35.3279 27.9169C35.4034 27.8311 35.4412 27.7179 35.4275 27.6046L34.827 22.1557C34.803 21.9532 34.6314 21.7988 34.4289 21.7988H25.6653C25.4595 21.7988 25.2879 21.9532 25.2673 22.1557L24.6668 27.6046C24.6531 27.7179 24.6909 27.8311 24.7663 27.9169C24.8418 28.0026 24.9516 28.0507 25.0649 28.0507ZM29.8996 23.7753H31.5878V24.1939H28.7844V23.7753H29.8996ZM30.2976 23.3738H30.0986V22.7219H30.2976V23.3738ZM29.6971 22.6018V23.3738H28.582C28.4722 23.3738 28.383 23.463 28.383 23.5728V24.3895C28.383 24.4993 28.4722 24.5885 28.582 24.5885H31.7868C31.8966 24.5885 31.9858 24.4993 31.9858 24.3895V23.5728C31.9858 23.463 31.8966 23.3738 31.7868 23.3738H30.6957V22.6018H34.0686L34.5799 27.2512H25.5109L26.0222 22.6018H29.6937H29.6971Z" fill="#163B3E"/>
  <path d="M33.6875 31.1446C33.6875 32.2563 34.5934 33.1622 35.7051 33.1622C36.8169 33.1622 37.7227 32.2563 37.7227 31.1446C37.7227 30.0328 36.8169 29.127 35.7051 29.127C34.5934 29.127 33.6875 30.0328 33.6875 31.1446ZM35.7085 29.9264C36.3811 29.9264 36.9267 30.472 36.9267 31.1446C36.9267 31.8171 36.3811 32.3627 35.7085 32.3627C35.036 32.3627 34.4904 31.8171 34.4904 31.1446C34.4904 30.472 35.036 29.9264 35.7085 29.9264Z" fill="#163B3E"/>
  <path d="M24.7481 29.127C23.6363 29.127 22.7305 30.0328 22.7305 31.1446C22.7305 32.2563 23.6363 33.1622 24.7481 33.1622C25.8598 33.1622 26.7657 32.2563 26.7657 31.1446C26.7657 30.0328 25.8598 29.127 24.7481 29.127ZM24.7481 32.3627C24.0755 32.3627 23.53 31.8171 23.53 31.1446C23.53 30.472 24.0755 29.9264 24.7481 29.9264C25.4206 29.9264 25.9662 30.472 25.9662 31.1446C25.9662 31.8171 25.4206 32.3627 24.7481 32.3627Z" fill="#163B3E"/>
  <path d="M17.865 35.8287H1.45989C1.14764 35.8287 0.897148 35.5645 0.897148 35.2385C0.897148 34.9125 1.15107 34.6483 1.45989 34.6483H17.7484C17.7484 34.5282 17.7552 34.4081 17.7655 34.2846C17.7792 34.1405 17.7998 33.9929 17.8238 33.8488H1.45989C1.35352 33.8488 1.25401 33.8625 1.1545 33.8865C1.18195 33.1145 1.28832 32.6032 1.67263 30.7503C1.97459 29.292 2.79811 28.7293 3.0383 28.5954H4.59611C4.79512 28.5954 4.96326 28.4513 4.99071 28.2523L6.09559 20.8029H16.6743L17.7792 28.2523C17.8067 28.4479 17.9782 28.5954 18.1773 28.5954H19.4743C19.5292 28.3553 19.5704 28.1185 19.5944 27.8852C19.5944 27.8543 19.6047 27.8234 19.6081 27.7925H18.5204L18.3866 26.8901H19.042C19.3199 26.8901 19.5429 26.667 19.5429 26.3891C19.5429 26.1112 19.3199 25.8881 19.042 25.8881H18.239L17.4155 20.3397C17.3846 20.1441 17.2165 20 17.0175 20H5.74904C5.55002 20 5.38189 20.1441 5.35444 20.3397L4.51719 25.9876H3.57701C3.35397 25.9876 3.17555 26.1661 3.17555 26.3891C3.17555 26.6121 3.35397 26.7906 3.57701 26.7906H4.3971L4.24955 27.7925H2.94221C2.88731 27.7925 2.83242 27.8028 2.78095 27.8268C2.72262 27.8543 1.32607 28.4856 0.89029 30.5856C0.409905 32.9052 0.351574 33.2003 0.344711 34.4424C0.190302 34.6689 0.0976562 34.9434 0.0976562 35.2385C0.0976562 36.0037 0.708424 36.6282 1.46331 36.6282H4.18436V37.9835C4.18436 38.8825 5.1314 39.586 6.33922 39.586C7.54705 39.586 8.49065 38.8825 8.49065 37.9835V36.6282H14.3582V37.9835C14.3582 38.8825 15.3052 39.586 16.5096 39.586C17.714 39.586 18.6611 38.8825 18.6611 37.9835V37.3556C18.2802 36.9404 18.0091 36.4257 17.865 35.8287ZM7.68429 37.987C7.68429 38.3678 7.12842 38.7899 6.33235 38.7899C5.53629 38.7899 4.98041 38.3678 4.98041 37.987V36.6316H7.68429V37.987ZM17.8616 37.987C17.8616 38.3678 17.3057 38.7899 16.5096 38.7899C15.7136 38.7899 15.1577 38.3678 15.1577 37.987V36.6316H17.8616V37.987Z" fill="#163B3E"/>
  <path d="M6.4555 28.0507H16.42C16.5333 28.0507 16.6431 28.0026 16.7186 27.9169C16.7941 27.8311 16.8318 27.7179 16.8181 27.6046L16.2176 22.1557C16.1936 21.9532 16.022 21.7988 15.8196 21.7988H7.05598C6.8501 21.7988 6.67853 21.9532 6.65795 22.1557L6.05747 27.6046C6.04374 27.7179 6.08149 27.8311 6.15698 27.9169C6.23247 28.0026 6.34227 28.0507 6.4555 28.0507ZM11.2868 23.7753H12.975V24.1939H10.1716V23.7753H11.2868ZM11.6848 23.3738H11.4858V22.7219H11.6848V23.3738ZM11.0843 22.6018V23.3738H9.96916C9.85936 23.3738 9.77015 23.463 9.77015 23.5728V24.3895C9.77015 24.4993 9.85936 24.5885 9.96916 24.5885H13.174C13.2838 24.5885 13.373 24.4993 13.373 24.3895V23.5728C13.373 23.463 13.2838 23.3738 13.174 23.3738H12.0829V22.6018H15.4558L15.9671 27.2512H6.89814L7.40941 22.6018H11.0809H11.0843Z" fill="#163B3E"/>
  <path d="M15.0742 31.1446C15.0742 32.2563 15.9801 33.1622 17.0918 33.1622C18.2036 33.1622 19.1095 32.2563 19.1095 31.1446C19.1095 30.0328 18.2036 29.127 17.0918 29.127C15.9801 29.127 15.0742 30.0328 15.0742 31.1446ZM17.0953 29.9264C17.7678 29.9264 18.3134 30.472 18.3134 31.1446C18.3134 31.8171 17.7678 32.3627 17.0953 32.3627C16.4227 32.3627 15.8771 31.8171 15.8771 31.1446C15.8771 30.472 16.4227 29.9264 17.0953 29.9264Z" fill="#163B3E"/>
  <path d="M6.1348 29.127C5.02306 29.127 4.11719 30.0328 4.11719 31.1446C4.11719 32.2563 5.02306 33.1622 6.1348 33.1622C7.24655 33.1622 8.15242 32.2563 8.15242 31.1446C8.15242 30.0328 7.24655 29.127 6.1348 29.127ZM6.1348 32.3627C5.46227 32.3627 4.91668 31.8171 4.91668 31.1446C4.91668 30.472 5.46227 29.9264 6.1348 29.9264C6.80734 29.9264 7.35292 30.472 7.35292 31.1446C7.35292 31.8171 6.80734 32.3627 6.1348 32.3627Z" fill="#163B3E"/>
  <path d="M41.533 37.3556V37.9835C41.533 38.8825 42.48 39.586 43.6844 39.586C44.8922 39.586 45.8358 38.8825 45.8358 37.9835V36.6282H51.7034V37.9835C51.7034 38.8825 52.6504 39.586 53.8548 39.586C55.0627 39.586 56.0097 38.8825 56.0097 37.9835V36.6282H58.7307C59.4822 36.6282 60.0964 36.0037 60.0964 35.2385C60.0964 34.9434 60.0038 34.6689 59.8494 34.4424C59.8425 33.2003 59.7841 32.9086 59.3038 30.5856C58.868 28.4822 57.4714 27.8509 57.4131 27.8268C57.3616 27.8062 57.3067 27.7925 57.2518 27.7925H55.9445L55.797 26.7906H56.617C56.8401 26.7906 57.0185 26.6121 57.0185 26.3891C57.0185 26.1661 56.8401 25.9876 56.617 25.9876H55.6769L54.8396 20.3397C54.8122 20.1441 54.6406 20 54.445 20H43.1766C42.9776 20 42.8094 20.1441 42.7786 20.3397L41.955 25.8881H41.1521C40.8742 25.8881 40.6511 26.1112 40.6511 26.3891C40.6511 26.667 40.8742 26.8901 41.1521 26.8901H41.8075L41.6737 27.7925H40.5859C40.5894 27.8234 40.5997 27.8509 40.5997 27.8852C40.6237 28.1185 40.6649 28.3553 40.7198 28.5954H42.0168C42.2158 28.5954 42.384 28.4513 42.4148 28.2523L43.5197 20.8029H54.0985L55.2033 28.2523C55.2308 28.4479 55.4024 28.5954 55.5979 28.5954H57.1558C57.3925 28.7293 58.2195 29.292 58.5214 30.7503C58.9057 32.6032 59.0121 33.1145 59.0395 33.8865C58.94 33.8625 58.8405 33.8488 58.7342 33.8488H42.3702C42.3942 33.9929 42.4148 34.1405 42.4286 34.2846C42.4388 34.4081 42.4423 34.5282 42.4457 34.6483H58.7342C59.0464 34.6483 59.2969 34.9125 59.2969 35.2385C59.2969 35.5645 59.043 35.8287 58.7342 35.8287H42.3291C42.1849 36.4257 41.9139 36.9404 41.533 37.3556ZM52.5063 36.6316H55.2102V37.987C55.2102 38.3678 54.6543 38.7899 53.8583 38.7899C53.0622 38.7899 52.5063 38.3678 52.5063 37.987V36.6316ZM42.3325 36.6316H45.0363V37.987C45.0363 38.3678 44.4805 38.7899 43.6844 38.7899C42.8883 38.7899 42.3325 38.3678 42.3325 37.987V36.6316Z" fill="#163B3E"/>
  <path d="M54.035 27.9169C54.1105 27.8311 54.1482 27.7179 54.1345 27.6046L53.534 22.1557C53.51 21.9532 53.3384 21.7988 53.136 21.7988H44.3724C44.1665 21.7988 43.9984 21.9532 43.9744 22.1557L43.3739 27.6046C43.3601 27.7179 43.3979 27.8311 43.4734 27.9169C43.5489 28.0026 43.6587 28.0507 43.7719 28.0507H53.7365C53.8497 28.0507 53.9595 28.0026 54.035 27.9169ZM50.0203 23.7753V24.1939H47.217V23.7753H48.3081H48.9052H50.0203ZM48.5071 22.7219H48.7061V23.3738H48.5071V22.7219ZM52.7757 22.6018L53.287 27.2512H44.218L44.7292 22.6018H48.1022V23.3738H47.0111C46.9013 23.3738 46.812 23.463 46.812 23.5728V24.3895C46.812 24.4993 46.9013 24.5885 47.0111 24.5885H50.2159C50.3257 24.5885 50.4149 24.4993 50.4149 24.3895V23.5728C50.4149 23.463 50.3257 23.3738 50.2159 23.3738H49.1007V22.6018H52.7723H52.7757Z" fill="#163B3E"/>
  <path d="M43.0996 29.127C41.9879 29.127 41.082 30.0328 41.082 31.1446C41.082 32.2563 41.9879 33.1622 43.0996 33.1622C44.2114 33.1622 45.1173 32.2563 45.1173 31.1446C45.1173 30.0328 44.2114 29.127 43.0996 29.127ZM44.3178 31.1446C44.3178 31.8171 43.7722 32.3627 43.0996 32.3627C42.4271 32.3627 41.8815 31.8171 41.8815 31.1446C41.8815 30.472 42.4271 29.9264 43.0996 29.9264C43.7722 29.9264 44.3178 30.472 44.3178 31.1446Z" fill="#163B3E"/>
  <path d="M52.0391 31.1446C52.0391 32.2563 52.9449 33.1622 54.0567 33.1622C55.1684 33.1622 56.0743 32.2563 56.0743 31.1446C56.0743 30.0328 55.1684 29.127 54.0567 29.127C52.9449 29.127 52.0391 30.0328 52.0391 31.1446ZM52.842 31.1446C52.842 30.472 53.3876 29.9264 54.0601 29.9264C54.7327 29.9264 55.2782 30.472 55.2782 31.1446C55.2782 31.8171 54.7327 32.3627 54.0601 32.3627C53.3876 32.3627 52.842 31.8171 52.842 31.1446Z" fill="#163B3E"/>
  <path d="M6.14206 32.3837C6.90008 32.3837 7.51458 31.7692 7.51458 31.0112C7.51458 30.2532 6.90008 29.6387 6.14206 29.6387C5.38403 29.6387 4.76953 30.2532 4.76953 31.0112C4.76953 31.7692 5.38403 32.3837 6.14206 32.3837Z" fill="#51AD61"/>
  <path d="M16.9507 32.3837C17.7087 32.3837 18.3232 31.7692 18.3232 31.0112C18.3232 30.2532 17.7087 29.6387 16.9507 29.6387C16.1926 29.6387 15.5781 30.2532 15.5781 31.0112C15.5781 31.7692 16.1926 32.3837 16.9507 32.3837Z" fill="#51AD61"/>
  <path d="M24.8413 32.3837C25.5993 32.3837 26.2138 31.7692 26.2138 31.0112C26.2138 30.2532 25.5993 29.6387 24.8413 29.6387C24.0833 29.6387 23.4688 30.2532 23.4688 31.0112C23.4688 31.7692 24.0833 32.3837 24.8413 32.3837Z" fill="#51AD61"/>
  <path d="M35.8217 32.3837C36.5798 32.3837 37.1943 31.7692 37.1943 31.0112C37.1943 30.2532 36.5798 29.6387 35.8217 29.6387C35.0637 29.6387 34.4492 30.2532 34.4492 31.0112C34.4492 31.7692 35.0637 32.3837 35.8217 32.3837Z" fill="#51AD61"/>
  <path d="M43.0288 32.3837C43.7868 32.3837 44.4013 31.7692 44.4013 31.0112C44.4013 30.2532 43.7868 29.6387 43.0288 29.6387C42.2708 29.6387 41.6562 30.2532 41.6562 31.0112C41.6562 31.7692 42.2708 32.3837 43.0288 32.3837Z" fill="#51AD61"/>
  <path d="M1.3205 35.8087C1.3205 35.8087 0.973932 35.692 0.898443 35.2391C0.898443 35.2391 0.891582 34.8754 1.37197 34.6592L17.7496 34.6523L17.8663 35.8327L1.3205 35.8121V35.8087Z" fill="#A3CCF2"/>
  <path d="M58.9638 35.8087C58.9638 35.8087 59.3103 35.692 59.3858 35.2391C59.3858 35.2391 59.3927 34.8754 58.9123 34.6592L42.5346 34.6523L42.418 35.8327L58.9638 35.8121V35.8087Z" fill="#A3CCF2"/>
  <path d="M40.8303 35.0747C40.844 35.7232 40.3465 35.7575 40.3465 35.7575H20.0708C19.5904 35.7575 19.5081 35.2668 19.5081 35.2668C19.4944 34.6217 19.9919 34.584 19.9919 34.584H40.2676C40.7479 34.584 40.8303 35.0747 40.8303 35.0747Z" fill="#A3CCF2"/>
</svg>