<svg xmlns="http://www.w3.org/2000/svg" width="61" height="60" viewBox="0 0 61 60" fill="none">
  <path d="M0.519637 37.7735L0.5 47.7598C0.5 47.837 0.499999 47.9079 0.519637 47.9787V48.7642C0.519637 49.4274 1.06296 49.9682 1.73719 49.9682C2.71908 49.9682 4.45375 50.2837 6.627 50.8567L7.03285 51.0113C7.07867 51.0306 7.11793 51.0435 7.16375 51.0564C13.4282 52.6789 26.6314 56.1944 33.9432 58.1453L34.0348 58.171C34.0348 58.171 34.0872 58.1839 34.1068 58.1903C34.4734 58.2676 34.8399 58.3062 35.2 58.3062C35.7956 58.3062 36.3979 58.1968 37.0263 57.965L37.2292 57.8813C37.3601 57.8362 37.478 57.7783 37.5892 57.6946L57.9863 42.1839C58.3726 41.965 58.7326 41.6882 59.0599 41.3534C59.0795 41.3341 59.0992 41.3083 59.1188 41.289C60.0091 40.3554 60.5 39.1256 60.5 37.825C60.5 35.256 58.641 33.1441 56.16 32.8801C55.6756 32.79 55.2371 32.7642 54.6479 32.8544C54.4254 32.893 54.2159 32.9381 54.0326 32.996C53.7773 33.0797 53.5417 33.1763 53.2929 33.3115C53.162 33.3823 53.0376 33.4532 52.9132 33.5304C52.8674 33.5562 52.8282 33.5819 52.7824 33.6141L50.5436 35.3139L38.27 43.6584C38.1129 43.6777 37.9296 43.6841 37.7136 43.6777C37.1638 43.5361 35.3178 43.0338 29.9436 41.5465L29.7407 41.4886C28.7064 41.1795 27.718 40.9027 26.7426 40.658L23.8559 39.8532C23.2209 39.4282 22.8282 38.6878 22.8282 37.8829C22.8282 36.7626 23.5482 35.8162 24.5498 35.5972H32.3722C34.277 35.5972 35.8349 34.0069 35.8349 32.0431C35.8349 30.0858 34.2836 28.489 32.3722 28.489H23.9148C22.8282 28.4503 21.4993 28.4375 19.7778 28.4375C15.7586 28.4375 12.9569 30.0922 10.7509 31.7083C10.2142 32.101 9.69049 32.5131 9.17336 32.9123C6.79064 34.7666 4.73521 36.3698 1.72409 36.3698C1.33133 36.3698 0.964771 36.5501 0.735664 36.8656C0.539286 37.1296 0.460724 37.458 0.519637 37.7735ZM2.94819 47.5859L2.96128 46.4334V38.6942C6.15569 38.3208 8.45986 36.5308 10.692 34.7924C11.1895 34.4061 11.6935 34.0133 12.2172 33.6334C14.2006 32.1847 16.4917 30.8391 19.7843 30.8391C21.4601 30.8391 22.802 30.852 23.8821 30.8906H32.3787C32.9416 30.8906 33.3933 31.4057 33.3933 32.0367C33.3933 32.6677 32.9351 33.1828 32.3787 33.1828H24.4385C24.3664 33.1828 24.2945 33.1827 24.229 33.2021C22.0034 33.5819 20.3931 35.5522 20.3931 37.8701C20.3931 39.5699 21.2899 41.1473 22.7431 41.9843C22.8347 42.0359 22.9264 42.0745 23.0311 42.1067L26.1208 42.963C27.0896 43.2077 28.0388 43.4716 29.0599 43.7807L29.289 43.8451C33.9955 45.1522 36.6728 45.8861 37.2423 46.0278C37.3143 46.0471 37.3929 46.0536 37.4714 46.06C38.0867 46.0922 38.6104 46.0536 39.0752 45.9312C39.2126 45.8926 39.3435 45.8411 39.4614 45.7574L51.9641 37.252C51.9641 37.252 51.9968 37.2262 52.0165 37.2133L54.2159 35.5457C54.2159 35.5457 54.2355 35.5328 54.2421 35.5264C54.3076 35.4813 54.3861 35.4427 54.4581 35.3976C54.5759 35.3397 54.6807 35.2882 54.7789 35.256C54.8509 35.2367 54.9425 35.2174 55.0407 35.1981C55.2371 35.1659 55.4858 35.1658 55.7215 35.2109C55.7673 35.2238 55.8196 35.2302 55.8655 35.2302C57.1157 35.3461 58.0584 36.4471 58.0584 37.7863C58.0584 38.4817 57.7965 39.1321 57.3187 39.6278C57.3121 39.6407 57.299 39.6471 57.2925 39.66C57.1092 39.8403 56.9194 39.9884 56.7165 40.0978C56.6576 40.13 56.6052 40.1622 56.5528 40.2008L36.2277 55.6535L36.1295 55.6922C35.632 55.8724 35.1542 55.9111 34.637 55.808L34.5781 55.7952C27.286 53.8507 14.1483 50.3481 7.84453 48.7192L7.45178 48.5646C7.4125 48.5453 7.36669 48.5324 7.32087 48.5196C5.55347 48.056 4.08718 47.7533 2.94164 47.6181C2.94164 47.5988 2.94163 47.5859 2.93509 47.5666L2.94819 47.5859Z" fill="#163B3E"/>
  <path d="M43.5245 27.5104C43.5245 27.5104 43.5441 27.5104 43.5834 27.4911C48.5583 25.3406 51.7134 21.8058 53.2124 16.6807C53.5987 15.3608 53.7885 13.9636 53.7885 12.399C53.7885 12.399 53.7885 7.38328 53.7885 7.36397C53.7754 7.36397 50.4304 5.99254 50.4304 5.99254C48.1393 5.05894 45.8548 4.12535 43.5637 3.18531C43.531 3.17243 43.5114 3.16602 43.5114 3.16602C41.1679 4.12537 38.8376 5.07825 36.5007 6.03117L33.2539 7.35752C33.2539 8.02714 33.2539 8.69034 33.2539 9.35352C33.2539 10.3901 33.2539 11.4268 33.2539 12.4634C33.2997 19.1209 37.2011 24.877 43.4459 27.4782C43.4917 27.4975 43.5114 27.4975 43.5179 27.4975" fill="white"/>
  <path d="M43.526 4.42733C45.673 5.30942 47.8266 6.18509 49.9737 7.06075L52.6052 8.13598V9.65549V10.544V11.1621V12.3983C52.6052 13.8535 52.435 15.1477 52.0749 16.3581C50.7134 20.9875 47.9117 24.2261 43.5128 26.2414C37.9423 23.7432 34.4795 18.5022 34.4402 12.4628C34.4402 11.4326 34.4402 10.4024 34.4402 9.37219C34.4402 8.96012 34.4402 8.5545 34.4402 8.14243L36.9539 7.11227C39.1402 6.2173 41.3331 5.3223 43.5194 4.42733M43.526 2C43.3689 2 43.2117 2.03217 43.0546 2.09656C39.6377 3.49374 36.2141 4.89092 32.7972 6.2881C32.3128 6.4877 32.0771 6.84825 32.0771 7.36334C32.0771 9.06314 32.0706 10.7694 32.0771 12.4692C32.1229 19.5581 36.3516 25.7778 42.9892 28.5529C43.1725 28.6301 43.3492 28.6688 43.5194 28.6688C43.6896 28.6688 43.8729 28.6301 44.0562 28.5529C49.3191 26.28 52.7557 22.4297 54.3529 17.002C54.7915 15.5018 54.9748 13.9565 54.9748 12.3983V10.5505C54.9748 9.50741 54.9748 8.46436 54.9748 7.42131C54.9748 6.81608 54.7653 6.50057 54.2089 6.27521C50.8116 4.89091 47.4142 3.50019 44.0235 2.11589C43.8533 2.04507 43.6896 2.01285 43.5194 2.01285" fill="#163B3E"/>
  <path d="M49.3075 12.6743C49.3075 12.1463 49.3075 11.6248 49.3075 11.0968C49.3075 10.7942 49.2027 10.6332 48.9213 10.5173C47.2062 9.81554 45.4978 9.12016 43.7827 8.41835C43.6191 8.34753 43.4554 8.34753 43.2918 8.41835C41.5637 9.1266 39.8421 9.82843 38.1139 10.5302C37.8717 10.6333 37.7539 10.8135 37.7539 11.0711C37.7539 11.9274 37.7539 12.7902 37.7539 13.6465C37.7801 17.2199 39.9075 20.362 43.259 21.7592C43.4423 21.8365 43.6125 21.8365 43.8023 21.7592C46.46 20.6131 48.1881 18.6686 48.9933 15.9322C49.2158 15.1725 49.3075 14.3998 49.3075 13.6079V12.6743Z" fill="#51AD61"/>
</svg>