<svg xmlns="http://www.w3.org/2000/svg" width="12" height="12" viewBox="0 0 12 12" fill="none">
<path d="M6 11C8.75 11 11 8.75 11 6C11 3.25 8.75 1 6 1C3.25 1 1 3.25 1 6C1 8.75 3.25 11 6 11Z" stroke="#151515" stroke-linecap="round" stroke-linejoin="round"/>
<path d="M5.7798 4.81273H5.6348C5.44483 4.80807 5.25998 4.87452 5.11647 4.99906C4.97297 5.12361 4.88116 5.29726 4.85904 5.48598C4.8464 5.67477 4.90807 5.86103 5.03089 6.00497C5.15371 6.14891 5.32794 6.23914 5.51638 6.25637L5.51638 8.50376C5.51638 8.69603 5.59276 8.88043 5.72873 9.01638C5.86469 9.15234 6.0491 9.22872 6.24138 9.22872C6.43366 9.22872 6.61807 9.15234 6.75404 9.01638C6.89 8.88043 6.96638 8.69603 6.96638 8.50376L6.96638 5.99925C6.96638 5.68457 6.84137 5.38277 6.61884 5.16025C6.39631 4.93774 6.0945 4.81273 5.7798 4.81273V4.81273Z" fill="#151515"/>
<path d="M5.91729 4.29348C6.08133 4.29348 6.24169 4.24484 6.37809 4.15371C6.51448 4.06258 6.62079 3.93305 6.68356 3.78151C6.74634 3.62996 6.76276 3.4632 6.73076 3.30232C6.69876 3.14144 6.61976 2.99367 6.50377 2.87768C6.38778 2.76169 6.23999 2.6827 6.0791 2.6507C5.91821 2.6187 5.75145 2.63513 5.59989 2.6979C5.44834 2.76067 5.31881 2.86697 5.22767 3.00336C5.13653 3.13974 5.08789 3.30009 5.08789 3.46412C5.08783 3.57305 5.10924 3.68093 5.1509 3.78158C5.19255 3.88223 5.25365 3.97368 5.33068 4.05071C5.40771 4.12774 5.49916 4.18882 5.59982 4.23048C5.70048 4.27214 5.80836 4.29355 5.91729 4.29348V4.29348Z" fill="#151515"/>
</svg>
