<svg width="16" height="17" viewBox="0 0 16 17" fill="none" xmlns="http://www.w3.org/2000/svg">
<path fill-rule="evenodd" clip-rule="evenodd" d="M3.55544 2.29551C4.87104 1.41646 6.41775 0.947266 8 0.947266C10.121 0.94956 12.1545 1.79315 13.6543 3.29295C15.1541 4.79274 15.9977 6.82624 16 8.94727C16 10.5295 15.5308 12.0762 14.6518 13.3918C13.7727 14.7074 12.5233 15.7328 11.0615 16.3383C9.59966 16.9438 7.99113 17.1022 6.43928 16.7935C4.88743 16.4849 3.46197 15.7229 2.34315 14.6041C1.22433 13.4853 0.462403 12.0598 0.153721 10.508C-0.15496 8.95614 0.00346629 7.34761 0.608967 5.8858C1.21447 4.42399 2.23985 3.17456 3.55544 2.29551ZM4.66658 13.9361C5.65328 14.5954 6.81332 14.9473 8 14.9473C9.59071 14.9453 11.1157 14.3126 12.2405 13.1878C13.3653 12.063 13.9981 10.538 14 8.94727C14 7.76058 13.6481 6.60054 12.9888 5.61384C12.3295 4.62715 11.3925 3.85811 10.2961 3.40399C9.19975 2.94986 7.99335 2.83104 6.82946 3.06255C5.66558 3.29407 4.59648 3.86551 3.75736 4.70463C2.91825 5.54374 2.3468 6.61284 2.11529 7.77672C1.88378 8.94061 2.0026 10.147 2.45673 11.2434C2.91085 12.3397 3.67989 13.2768 4.66658 13.9361Z" fill="#109BDE"/>
<path d="M7.69656 7.31086H7.49656C7.23454 7.30443 6.97957 7.3961 6.78163 7.56789C6.58369 7.73968 6.45705 7.97922 6.42655 8.23953C6.40911 8.49995 6.49418 8.75686 6.66358 8.95542C6.83299 9.15397 7.07331 9.27842 7.33322 9.3022L7.33322 12.4022C7.33322 12.6674 7.43858 12.9218 7.62612 13.1093C7.81365 13.2968 8.06801 13.4022 8.33323 13.4022C8.59844 13.4022 8.8528 13.2968 9.04034 13.1093C9.22787 12.9218 9.33323 12.6674 9.33323 12.4022V8.94753C9.33323 8.51346 9.16079 8.09717 8.85386 7.79023C8.54692 7.4833 8.13063 7.31086 7.69656 7.31086Z" fill="#109BDE"/>
<path d="M7.88668 6.59073C8.11294 6.59073 8.33413 6.52364 8.52226 6.39794C8.71039 6.27223 8.85702 6.09356 8.9436 5.88452C9.03019 5.67549 9.05285 5.44547 9.0087 5.22355C8.96456 5.00164 8.85561 4.7978 8.69561 4.6378C8.53562 4.47781 8.33178 4.36886 8.10986 4.32472C7.88795 4.28057 7.65793 4.30323 7.44889 4.38982C7.23985 4.4764 7.06118 4.62303 6.93548 4.81116C6.80977 4.99929 6.74268 5.22047 6.74268 5.44674C6.74259 5.59699 6.77212 5.74579 6.82958 5.88463C6.88704 6.02346 6.9713 6.14961 7.07755 6.25586C7.1838 6.36211 7.30995 6.44637 7.44879 6.50383C7.58762 6.56129 7.73642 6.59082 7.88668 6.59073Z" fill="#109BDE"/>
</svg>
