<svg width="18" height="18" viewBox="0 0 18 18" fill="none" xmlns="http://www.w3.org/2000/svg">
<path fill-rule="evenodd" clip-rule="evenodd" d="M4.37951 2.08496C5.74718 1.17111 7.35511 0.68335 8.99999 0.68335C11.205 0.685734 13.3189 1.56271 14.8781 3.12187C16.4373 4.68103 17.3142 6.79501 17.3166 8.99999C17.3166 10.6449 16.8289 12.2528 15.915 13.6205C15.0012 14.9881 13.7023 16.0541 12.1826 16.6836C10.663 17.313 8.99076 17.4777 7.37749 17.1568C5.76422 16.8359 4.28234 16.0438 3.11924 14.8807C1.95614 13.7176 1.16405 12.2358 0.843155 10.6225C0.522256 9.00921 0.686953 7.33701 1.31642 5.81735C1.94589 4.29768 3.01185 2.9988 4.37951 2.08496ZM5.53463 14.1863C6.56038 14.8716 7.76633 15.2375 8.99999 15.2375C10.6537 15.2354 12.239 14.5776 13.4083 13.4083C14.5776 12.239 15.2354 10.6536 15.2375 8.99999C15.2375 7.76633 14.8716 6.56038 14.1863 5.53463C13.5009 4.50888 12.5267 3.70941 11.387 3.23731C10.2472 2.76521 8.99307 2.64169 7.78312 2.88236C6.57317 3.12303 5.46175 3.7171 4.58943 4.58942C3.7171 5.46175 3.12304 6.57316 2.88236 7.78311C2.64169 8.99307 2.76521 10.2472 3.23731 11.387C3.70941 12.5267 4.50888 13.5009 5.53463 14.1863Z" fill="#13243E"/>
<path d="M8.68466 7.29891H8.47674C8.20435 7.29222 7.93929 7.38752 7.73352 7.56611C7.52774 7.74471 7.39609 7.99372 7.36439 8.26434C7.34625 8.53506 7.43469 8.80214 7.6108 9.00856C7.78691 9.21497 8.03674 9.34434 8.30694 9.36906V12.5918C8.30694 12.8675 8.41647 13.1319 8.61143 13.3269C8.80639 13.5218 9.07081 13.6313 9.34652 13.6313C9.62224 13.6313 9.88666 13.5218 10.0816 13.3269C10.2766 13.1319 10.3861 12.8675 10.3861 12.5918V9.00036C10.3861 8.54911 10.2068 8.11634 9.88776 7.79726C9.56868 7.47817 9.13591 7.29891 8.68466 7.29891Z" fill="#13243E"/>
<path d="M8.8824 6.55092C9.11762 6.55092 9.34755 6.48117 9.54313 6.35049C9.73871 6.21981 9.89114 6.03407 9.98115 5.81676C10.0712 5.59945 10.0947 5.36032 10.0488 5.12963C10.0029 4.89893 9.88967 4.68702 9.72335 4.5207C9.55703 4.35437 9.34512 4.2411 9.11442 4.19522C8.88372 4.14933 8.64459 4.17288 8.42728 4.26289C8.20997 4.35291 8.02423 4.50534 7.89355 4.70091C7.76287 4.89649 7.69312 5.12643 7.69312 5.36164C7.69302 5.51785 7.72372 5.67254 7.78346 5.81687C7.84319 5.9612 7.93079 6.09234 8.04125 6.20279C8.1517 6.31325 8.28284 6.40084 8.42717 6.46058C8.5715 6.52031 8.72619 6.55101 8.8824 6.55092Z" fill="#13243E"/>
</svg>
