<svg width="25" height="24" viewBox="0 0 25 24" fill="none" xmlns="http://www.w3.org/2000/svg">
<g clip-path="url(#clip0_1_37387)">
<path d="M22.0947 7.71094H2.90525C1.57902 7.71094 0.5 8.78991 0.5 10.1161V13.8809C0.5 15.2071 1.57902 16.2861 2.90525 16.2861H22.0948C23.421 16.2861 24.5 15.2071 24.5 13.8809V10.1161C24.5 8.78991 23.421 7.71094 22.0947 7.71094ZM22.9314 13.8809C22.9314 14.3422 22.556 14.7174 22.0947 14.7174H2.90525C2.44395 14.7174 2.06867 14.3421 2.06867 13.8809V10.1161C2.06867 9.65484 2.444 9.27956 2.90525 9.27956H22.0948C22.5561 9.27956 22.9314 9.65489 22.9314 10.1161L22.9314 13.8809Z" fill="#798595"/>
<path d="M5.90959 13.3043L5.02525 11.9394L5.87383 10.5797C5.90964 10.5235 5.92497 10.4723 5.92497 10.4212C5.92497 10.2066 5.63364 10.043 5.40869 10.043C5.29628 10.043 5.21955 10.0838 5.16841 10.1759L4.48853 11.3619L3.8087 10.1759C3.75756 10.0839 3.68092 10.043 3.56842 10.043C3.34347 10.043 3.05214 10.2066 3.05214 10.4212C3.05214 10.4724 3.06747 10.5235 3.10328 10.5797L3.95186 11.9394L3.06752 13.3043C3.03681 13.3554 3.02148 13.4014 3.02148 13.4474C3.02148 13.6672 3.33334 13.841 3.55309 13.841C3.63489 13.841 3.70652 13.8155 3.74223 13.7592L4.48853 12.4915L5.23483 13.7592C5.26553 13.8154 5.34222 13.841 5.42397 13.841C5.64377 13.841 5.95563 13.6672 5.95563 13.4474C5.95563 13.4014 5.94025 13.3554 5.90959 13.3043Z" fill="#798595"/>
<path d="M8.44468 10.0742C8.31695 10.0742 8.2658 10.1254 8.21466 10.2224L7.50413 11.5362L6.78849 10.2224C6.73229 10.1254 6.68626 10.0742 6.55848 10.0742C6.33868 10.0742 6.0166 10.2123 6.0166 10.4014C6.0166 10.4167 6.0166 10.4372 6.02687 10.4576L7.08498 12.2109C7.09524 12.2263 7.10546 12.2518 7.10546 12.2825V13.5655C7.10546 13.7291 7.30482 13.8109 7.50413 13.8109C7.70349 13.8109 7.9029 13.7291 7.9029 13.5655V12.2825C7.9029 12.2518 7.91312 12.2263 7.92334 12.2109L8.97643 10.4576C8.98665 10.4371 8.98665 10.4167 8.98665 10.4014C8.9866 10.2122 8.66452 10.0742 8.44468 10.0742Z" fill="#798595"/>
<path d="M11.4662 13.1157H10.0758L11.5173 10.565C11.5735 10.4627 11.6041 10.3656 11.6041 10.2838C11.6041 10.1611 11.5275 10.0742 11.3742 10.0742H9.40102C9.23231 10.0742 9.16073 10.2531 9.16073 10.4218C9.16073 10.6058 9.24764 10.7694 9.40102 10.7694H10.587L9.1455 13.3202C9.0893 13.4173 9.05859 13.5195 9.05859 13.6014C9.05859 13.724 9.12506 13.811 9.28861 13.811H11.4662C11.6196 13.811 11.7065 13.6269 11.7065 13.4634C11.7064 13.2997 11.6195 13.1157 11.4662 13.1157Z" fill="#798595"/>
<path d="M15.0991 10.0742C14.3937 10.0742 13.8467 10.4014 13.8467 11.2806V12.6352C13.8467 13.5144 14.3937 13.8416 15.0991 13.8416C15.8045 13.8416 16.3566 13.5144 16.3566 12.6352V11.2806C16.3566 10.4013 15.8045 10.0742 15.0991 10.0742ZM15.5592 12.6352C15.5592 12.9879 15.3854 13.1464 15.0991 13.1464C14.8128 13.1464 14.6441 12.9879 14.6441 12.6352V11.2806C14.6441 10.9279 14.8129 10.7694 15.0991 10.7694C15.3853 10.7694 15.5592 10.9279 15.5592 11.2806V12.6352Z" fill="#798595"/>
<path d="M18.0073 10.0742C17.3019 10.0742 16.7549 10.4014 16.7549 11.2806V12.6352C16.7549 13.5144 17.3019 13.8416 18.0073 13.8416C18.7127 13.8416 19.2648 13.5144 19.2648 12.6352V11.2806C19.2648 10.4013 18.7127 10.0742 18.0073 10.0742ZM18.4674 12.6352C18.4674 12.9879 18.2936 13.1464 18.0073 13.1464C17.721 13.1464 17.5523 12.9879 17.5523 12.6352V11.2806C17.5523 10.9279 17.7211 10.7694 18.0073 10.7694C18.2935 10.7694 18.4674 10.9279 18.4674 11.2806V12.6352Z" fill="#798595"/>
<path d="M20.9155 10.0742C20.2101 10.0742 19.6631 10.4014 19.6631 11.2806V12.6352C19.6631 13.5144 20.2101 13.8416 20.9155 13.8416C21.6209 13.8416 22.173 13.5144 22.173 12.6352V11.2806C22.173 10.4013 21.6209 10.0742 20.9155 10.0742ZM21.3756 12.6352C21.3756 12.9879 21.2018 13.1464 20.9155 13.1464C20.6292 13.1464 20.4605 12.9879 20.4605 12.6352V11.2806C20.4605 10.9279 20.6293 10.7694 20.9155 10.7694C21.2017 10.7694 21.3756 10.9279 21.3756 11.2806V12.6352Z" fill="#798595"/>
</g>
<defs>
<clipPath id="clip0_1_37387">
<rect width="24" height="24" fill="white" transform="translate(0.5)"/>
</clipPath>
</defs>
</svg>
