<svg width="107" height="36" viewBox="0 0 107 36" fill="none" xmlns="http://www.w3.org/2000/svg">
<g id="LOGO">
<path id="Combined Shape" fill-rule="evenodd" clip-rule="evenodd" d="M62.1288 0.0523C62.5512 -0.0503844 62.9956 -0.000903591 63.386 0.192279V1.06656L63.1626 1.04857C62.8984 1.0259 62.6796 1.01417 62.5078 1.01417C62.1934 1.01919 61.937 1.27159 61.9224 1.5905C61.8991 1.70583 61.8991 1.82474 61.9224 1.94006C61.9221 2.07016 61.9763 2.19423 62.0716 2.28125C62.1669 2.36826 62.2941 2.40998 62.4215 2.39597H63.4885C63.5655 2.39597 63.678 2.40222 63.8159 2.41317V3.49703H60.3879V2.37798H60.6806L60.9564 2.39597L60.904 2.09881C60.7583 1.66124 60.8106 1.18069 61.0469 0.78595C61.2831 0.391215 61.6791 0.122671 62.1288 0.0523ZM63.6786 20.2666H66.8147V20.2683H70.3632V20.2682H74.9621C75.3427 20.2896 75.7157 20.1543 75.9967 19.8928C76.2618 19.6085 76.399 19.2255 76.3757 18.8347V11.5942H79.511V18.5204C79.511 21.3997 78.0812 22.8394 75.2217 22.8394H71.0521V22.8396H66.1219V22.8378H60.5611V5.15672H63.6794L63.6786 20.2666ZM85.7094 11.7013H86.7393C86.8991 11.7013 87.0524 11.6367 87.1653 11.5218C87.2781 11.407 87.3413 11.2512 87.3409 11.089L87.3317 7.76074C87.33 7.00966 87.9268 6.39853 88.6667 6.3938L91.9098 6.37425C92.6613 6.36976 93.3978 6.16016 94.0421 5.76741L95.5358 4.84543C95.7509 4.69396 96.0353 4.69148 96.2529 4.83917L97.9053 5.89332C98.4669 6.23034 99.1123 6.3957 99.7641 6.36956L102.98 6.34531C103.327 6.30032 103.677 6.40643 103.942 6.63738C104.208 6.86834 104.364 7.20258 104.374 7.55742L104.387 10.3038C104.397 10.6754 104.224 11.0277 103.925 11.2422L96.2838 16.9509C95.9659 17.185 95.7778 17.5595 95.7776 17.9581V19.623C95.7775 19.7859 95.8668 19.9354 96.0092 20.0106C96.1516 20.0858 96.3235 20.0741 96.4548 19.9804L106.23 12.7319C106.565 12.5115 106.751 12.1192 106.712 11.7153C106.712 11.7153 106.707 7.27277 106.707 7.15469V5.80495C106.707 4.92476 106.004 4.21122 105.137 4.21122H99.9452C99.4953 4.21119 99.0546 4.08187 98.6741 3.83821L96.4756 2.4306C96.1213 2.2041 95.6705 2.2041 95.3162 2.4306L93.2402 3.76001C92.7791 4.05558 92.2448 4.21231 91.6995 4.21201H86.7917C85.8476 4.21201 85.0823 4.98891 85.0823 5.94727V11.0671C85.0823 11.2357 85.1484 11.3973 85.2661 11.5163C85.3838 11.6353 85.5433 11.7019 85.7094 11.7013ZM96.799 21.8941L105.788 15.1454C105.963 15.014 106.196 14.994 106.391 15.0937C106.585 15.1934 106.708 15.3957 106.708 15.6169V23.0201C106.706 23.9193 106.279 24.7629 105.56 25.288L96.9577 31.526C96.3226 31.9842 95.4713 31.9842 94.8362 31.526L86.2338 25.288C85.5126 24.7648 85.085 23.92 85.086 23.0201V15.6232C85.084 15.4 85.2066 15.1949 85.4025 15.0936C85.5984 14.9923 85.8339 15.0124 86.0105 15.1454L94.9933 21.8941C95.5288 22.2999 96.2635 22.2999 96.799 21.8941ZM103.64 23.7681C104.109 23.4121 104.375 22.8436 104.349 22.2495L104.349 20.1803C104.348 20.0193 104.259 19.8723 104.117 19.7992C103.976 19.726 103.806 19.7391 103.678 19.8331L96.7647 24.8739C96.2446 25.2534 95.5438 25.2534 95.0237 24.8739L88.066 19.8073C87.9245 19.7022 87.7365 19.6876 87.5807 19.7694C87.425 19.8513 87.3283 20.0156 87.3311 20.1936L87.3119 22.3214C87.3135 22.4117 87.3243 22.5016 87.3442 22.5897C87.3917 22.9397 87.5476 23.2653 87.7895 23.5195C87.8459 23.583 87.9111 23.638 87.9828 23.6829L94.741 28.8809C95.4265 29.4042 96.3703 29.4042 97.0559 28.8809L103.64 23.7681ZM18.7164 20.2679H16.8383L12.7886 19.8464L13.0644 20.863C13.292 21.8521 13.4646 22.8533 13.5813 23.862C13.7526 25.1697 13.8391 26.4873 13.8401 27.8065H6.88015C6.659 27.7838 6.44002 27.743 6.22537 27.6845C4.86578 27.4595 3.76849 26.4347 3.43444 25.0781C3.33468 24.6835 3.28294 24.278 3.28037 23.8706V20.2679H0.282227V25.4683C0.441273 27.5685 1.87077 29.3466 3.86583 29.9257C4.82564 30.2537 5.83368 30.4123 6.84626 30.3949H16.9246V22.8392H18.0238V22.8396H22.2607H22.9539H27.1909V22.8387H35.2365V22.8421H46.7615V22.8403H47.0208C48.013 22.8736 48.9699 22.4647 49.64 21.7212L49.9158 21.5289L49.8118 21.3889C50.7726 22.5474 52.179 23.2289 53.6705 23.2589C55.1621 23.2888 56.5939 22.6643 57.5991 21.5453C59.7118 19.2116 59.7118 15.6242 57.5991 13.2905C56.6181 12.199 55.2298 11.5771 53.7744 11.5771C52.3189 11.5771 50.9306 12.199 49.9497 13.2905C48.9055 14.4006 48.3361 15.8848 48.3658 17.4194C48.3622 17.9867 48.4374 18.5517 48.5892 19.0976C48.4756 19.681 48.0131 20.1289 47.4337 20.2167C47.0203 20.2516 46.4518 20.2691 45.7282 20.2691V20.2709H43.6262V11.5273H40.5087V20.2709H35.9255V20.2674H32.7902V11.5238H29.6719V20.2674H26.5019V20.2683H22.9539H22.2607H18.7164V20.2679ZM8.67174 33.0269C8.33973 32.6968 7.874 32.5446 7.41463 32.6161V32.6177C6.36902 32.6291 5.84057 33.194 5.82927 34.3123C5.82003 34.9142 6.1322 35.4741 6.64531 35.776C7.15841 36.0778 7.7922 36.0743 8.30206 35.7669C8.81192 35.4594 9.1181 34.8961 9.10243 34.2943C9.16332 33.8266 9.00376 33.357 8.67174 33.0269ZM11.687 32.6161C12.1464 32.5446 12.6122 32.6968 12.9443 33.0269C13.2764 33.357 13.4362 33.8264 13.3756 34.2942C13.3804 35.212 12.6515 35.96 11.7475 35.965C10.8434 35.97 10.1065 35.23 10.1016 34.3122C10.1134 33.194 10.6419 32.6291 11.687 32.6176V32.6161ZM32.5845 6.16285C32.2524 5.83259 31.7864 5.6803 31.3269 5.75179H31.3261C30.281 5.76326 29.7531 6.32865 29.7423 7.44796C29.7329 8.04992 30.0449 8.60998 30.5579 8.91196C31.071 9.21393 31.7048 9.2106 32.2148 8.90325C32.7247 8.59589 33.031 8.03259 33.0154 7.43076C33.0763 6.96283 32.9167 6.49312 32.5845 6.16285ZM41.0069 25.5091C40.6749 25.1789 40.2092 25.0265 39.7497 25.0977L39.7505 25.0954C38.7044 25.1084 38.1757 25.6748 38.1644 26.7947C38.1551 27.3966 38.4673 27.9565 38.9804 28.2584C39.4935 28.5602 40.1273 28.5567 40.6372 28.2493C41.147 27.9418 41.4532 27.3785 41.4375 26.7767C41.4984 26.3089 41.3388 25.8394 41.0069 25.5091ZM44.0226 25.0977C44.482 25.0265 44.9477 25.1789 45.2797 25.5091C45.6116 25.8394 45.7712 26.3089 45.7104 26.7767C45.726 27.3785 45.4199 27.9418 44.91 28.2493C44.4001 28.5567 43.7664 28.5602 43.2533 28.2584C42.7401 27.9565 42.428 27.3966 42.4372 26.7947C42.4485 25.6748 42.977 25.1084 44.0226 25.0954V25.0977ZM53.7733 14.0438C55.1517 14.0433 55.8409 15.1684 55.8409 17.419V17.4205C55.8403 19.6706 55.1509 20.7957 53.7725 20.7957C52.3941 20.7957 51.7049 19.6706 51.7049 17.4205C51.7054 15.1699 52.3949 14.0444 53.7733 14.0438ZM74.9624 6.16309C74.6304 5.83286 74.1647 5.68046 73.7053 5.75167V5.75245C72.6602 5.76392 72.1318 6.32905 72.1199 7.44784C72.1105 8.0498 72.4226 8.60985 72.9356 8.91183C73.4487 9.21381 74.0825 9.21048 74.5924 8.90312C75.1024 8.59577 75.4087 8.03246 75.3931 7.43063C75.4539 6.96287 75.2944 6.49332 74.9624 6.16309ZM77.9783 5.75167C78.4378 5.68046 78.9035 5.83286 79.2355 6.16309C79.5674 6.49332 79.727 6.96287 79.6662 7.43063C79.6817 8.03246 79.3754 8.59577 78.8655 8.90312C78.3555 9.21048 77.7217 9.21381 77.2087 8.91183C76.6956 8.60985 76.3836 8.0498 76.393 7.44784C76.4043 6.32905 76.9325 5.76392 77.9776 5.75245L77.9783 5.75167Z" fill="#0B96DC"/>
</g>
</svg>
