<svg width="20" height="21" viewBox="0 0 20 21" fill="none" xmlns="http://www.w3.org/2000/svg">
<g clip-path="url(#clip0_1986_251222)">
<path d="M8.33203 7.16536V5.4987C8.33203 5.05667 8.50763 4.63275 8.82019 4.32019C9.13275 4.00763 9.55667 3.83203 9.9987 3.83203H15.832C16.2741 3.83203 16.698 4.00763 17.0105 4.32019C17.3231 4.63275 17.4987 5.05667 17.4987 5.4987V15.4987C17.4987 15.9407 17.3231 16.3646 17.0105 16.6772C16.698 16.9898 16.2741 17.1654 15.832 17.1654H9.9987C9.55667 17.1654 9.13275 16.9898 8.82019 16.6772C8.50763 16.3646 8.33203 15.9407 8.33203 15.4987V13.832" stroke="#C43B3B" stroke-width="1.25" stroke-linecap="round" stroke-linejoin="round"/>
<path d="M12.5 10.5H2.5L5 8" stroke="#C43B3B" stroke-width="1.25" stroke-linecap="round" stroke-linejoin="round"/>
<path d="M5 13L2.5 10.5" stroke="#C43B3B" stroke-width="1.25" stroke-linecap="round" stroke-linejoin="round"/>
</g>
<defs>
<clipPath id="clip0_1986_251222">
<rect width="20" height="20" fill="white" transform="translate(0 0.5)"/>
</clipPath>
</defs>
</svg>
