<svg width="62" height="13" viewBox="0 0 62 13" fill="none" xmlns="http://www.w3.org/2000/svg">
<path fill-rule="evenodd" clip-rule="evenodd" d="M34.2726 2.25023V0H26.9587C25.3246 0 24 1.26253 24 2.81992C24.0004 3.8689 24.6115 4.83096 25.5865 5.31743L32.3195 8.67664C32.5165 8.7745 32.6403 8.96838 32.641 9.18008C32.641 9.49475 32.3733 9.74977 32.0433 9.74977H24.6015V12H32.0433C33.6765 11.999 35 10.7368 35 9.18008C34.9977 8.13209 34.3851 7.17195 33.4098 6.68797L26.6786 3.32336C26.4823 3.22415 26.3595 3.02992 26.359 2.81814C26.359 2.66723 26.4221 2.5225 26.5342 2.41591C26.6464 2.30938 26.7984 2.24973 26.9568 2.25023H34.2726Z" fill="#798595"/>
<path fill-rule="evenodd" clip-rule="evenodd" d="M9 1H3.25355C1.45663 1 0 2.37566 0 4.0726V13H2.3828V4.10484C2.3828 3.62889 2.79137 3.24305 3.29529 3.24305H9V1Z" fill="#798595"/>
<path fill-rule="evenodd" clip-rule="evenodd" d="M51 0V12H53.2833V2.24955H58.8423C59.3224 2.24955 59.7127 2.63086 59.7167 3.1039V11.9964H62V3.07167C62 2.257 61.6716 1.4757 61.0869 0.899649C60.5022 0.323595 59.7092 0 58.8823 0H51Z" fill="#798595"/>
<path fill-rule="evenodd" clip-rule="evenodd" d="M10.6663 0.00354977V2.25311H18.1527L10.3166 10.0782C9.88934 10.5195 9.89525 11.2214 10.3299 11.6554C10.7645 12.0894 11.4674 12.0953 11.9093 11.6687L19.7473 3.84177V12H22V0L10.6663 0.00354977Z" fill="#27DD97"/>
<path fill-rule="evenodd" clip-rule="evenodd" d="M42.4278 10.673C40.1459 10.673 38.296 8.80304 38.296 6.49632C38.296 4.1896 40.1459 2.31961 42.4278 2.31961C44.7097 2.31961 46.5596 4.1896 46.5596 6.49632C46.5596 7.60401 46.1243 8.66639 45.3494 9.4497C44.5745 10.233 43.5237 10.673 42.4278 10.673V10.673ZM46.7057 0.321686V1.96141C45.829 0.596815 44.2069 0.000445258 42.0862 0.000445258C40.454 -0.0199753 38.8904 0.662834 37.7864 1.87826C36.5954 3.12897 36.0006 4.66769 36.0018 6.49449C35.9615 8.2126 36.6043 9.87538 37.7864 11.1106C38.8872 12.3319 40.4519 13.0193 42.0862 12.9996C44.1248 12.9996 45.8016 12.3275 46.7057 11.118L47.1606 12.6838H49V0.321686H46.7057Z" fill="#798595"/>
</svg>
