<svg viewBox="0 0 72 24" fill="none" xmlns="http://www.w3.org/2000/svg">
    <path fill-rule="evenodd" clip-rule="evenodd"
        d="M71.9306 5.20791C71.9438 5.15213 71.957 5.09632 71.9704 5.04051L71.9691 3.6602C71.9505 3.58152 71.9325 3.50257 71.9146 3.42361C71.8754 3.2512 71.8361 3.07872 71.79 2.90876C71.4123 1.36997 70.1129 0.231446 68.5378 0.0592526C68.4604 0.044174 68.3839 0.0243864 68.3089 0H67.2895C67.1403 0.0313979 66.99 0.0595006 66.8397 0.0876129C66.5 0.151136 66.16 0.214709 65.8324 0.316463C64.7579 0.546657 64.0265 1.54559 64.1316 2.63943V5.8485C64.1337 6.00859 64.1265 6.16866 64.11 6.32791C64.1128 6.42784 64.0704 6.52371 63.9947 6.58898C63.919 6.65426 63.8179 6.68201 63.7195 6.66457C62.759 6.65447 61.7992 6.65573 60.8397 6.657C60.5198 6.65742 60.2 6.65784 59.8802 6.65784C59.8224 6.65784 59.7645 6.65238 59.7006 6.64635C59.6693 6.64339 59.6364 6.6403 59.6014 6.63764C59.6014 6.43941 59.6036 6.24345 59.6057 6.04912C59.6098 5.66522 59.6139 5.28763 59.6014 4.91123C59.598 4.32254 59.557 3.73466 59.4789 3.15116C59.3141 1.65417 58.1752 0.448701 56.69 0.199304C55.6959 0.105822 54.6971 0.0725442 53.6991 0.0996521C53.62 0.117398 53.5555 0.174279 53.528 0.250477C53.4648 0.629163 53.4115 1.0094 53.3555 1.40994C53.3376 1.53784 53.3194 1.66782 53.3005 1.80047H53.6533H55.4228C56.1172 1.76627 56.7513 2.19321 56.9808 2.84951C57.0727 3.03821 57.131 3.24144 57.1532 3.45012C57.1809 4.27741 57.1937 5.10393 57.2066 5.93085C57.2106 6.19153 57.2147 6.45225 57.2192 6.71305H52.7753L52.5234 8.37886H52.9099C56.4489 8.38604 59.9879 8.38604 63.5269 8.37886C63.7781 8.37886 64.0287 8.35017 64.2794 8.32147C64.4051 8.30708 64.5309 8.29269 64.6568 8.2819C64.9339 8.21233 65.2215 8.19453 65.5051 8.22938C66.238 8.46597 67.0016 8.59347 67.7716 8.60779C69.6667 8.74993 71.3843 7.49413 71.8236 5.64516C71.8616 5.49995 71.8961 5.35403 71.9306 5.20791ZM66.3525 2.59072C66.3437 2.50064 66.3346 2.40739 66.3266 2.30951C67.0802 1.96013 67.9343 1.89322 68.7331 2.12097C69.1655 2.28385 69.4802 2.66251 69.5613 3.1175C69.7655 3.86359 69.7632 4.65115 69.5545 5.39603C69.3952 6.16707 68.6805 6.69422 67.8968 6.61879C67.6448 6.61452 67.395 6.59183 67.143 6.56893C66.9976 6.55573 66.8514 6.54245 66.7037 6.5326C66.4761 6.51779 66.3912 6.42621 66.3912 6.17843C66.4034 5.17248 66.398 4.16115 66.3912 3.15251C66.3894 2.97033 66.3717 2.78816 66.3525 2.59072Z"
        fill="black" />
    <path
        d="M51.6806 0.144612L51.4234 1.82927H51.0652C49.565 1.82927 48.0653 1.82927 46.566 1.82927C46.356 1.82594 46.146 1.83538 45.9371 1.85755C45.6724 1.8648 45.4229 1.98305 45.2498 2.18338C45.0766 2.38372 44.9957 2.64766 45.0268 2.91063C45.019 3.17536 45.1202 3.43168 45.3068 3.61958C45.4935 3.80749 45.7491 3.91048 46.0139 3.90446C46.7734 3.92601 47.5342 3.90446 48.2938 3.91927C48.6329 3.92203 48.9711 3.95675 49.3037 4.02296C50.5251 4.24979 51.3936 5.34046 51.3412 6.5816C51.3393 6.91087 51.3 7.23887 51.2241 7.55927C50.9889 8.49127 50.1965 9.17711 49.2404 9.27625C48.7404 9.37342 48.2322 9.42257 47.7228 9.42303C44.3939 9.42976 41.0636 9.4365 37.7347 9.40553C36.799 9.44649 35.8874 9.10182 35.2129 8.452C34.5384 7.80218 34.16 6.90411 34.166 5.96753C34.0541 4.95205 34.1142 3.92497 34.3438 2.92948C34.7336 1.33057 36.1766 0.213223 37.8222 0.236184C38.8699 0.217331 39.9189 0.236184 40.9909 0.236184L40.739 1.95047H39.5405C39.15 1.95047 38.7608 1.94374 38.3703 1.95855C37.7077 1.94971 37.1098 2.35507 36.8728 2.97392C36.7158 3.34071 36.6246 3.73228 36.6035 4.1307C36.5629 4.85737 36.5886 5.58622 36.6802 6.30823C36.7636 7.0856 37.4201 7.67474 38.202 7.67373C39.1783 7.73299 40.16 7.71683 41.139 7.72087C43.2883 7.72895 45.438 7.73164 47.5881 7.72895C47.7477 7.7328 47.9072 7.72198 48.0648 7.69663C48.6618 7.60542 49.0852 7.06614 49.0322 6.46457C48.9791 5.86301 48.4679 5.40613 47.8642 5.42079C46.9215 5.40463 45.9789 5.42079 45.0456 5.37769C44.0296 5.37784 43.1329 4.71355 42.8371 3.74151C42.4787 2.70972 42.7855 1.56367 43.6115 0.84891C44.241 0.374991 45.0091 0.121775 45.7971 0.128452C47.716 0.093439 49.6364 0.109599 51.5567 0.106905C51.5992 0.11526 51.6407 0.127893 51.6806 0.144612Z"
        fill="black" />
    <path fill-rule="evenodd" clip-rule="evenodd"
        d="M71.3335 23.8828C71.546 23.9223 71.7585 23.9618 71.9711 24.0001L71.9698 18.1813C71.9478 18.1055 71.9298 18.0286 71.9159 17.951C71.8603 16.8031 70.9845 15.863 69.8434 15.7263C68.1704 15.5077 66.4693 15.7291 64.9079 16.3687L65.1571 18.0547C65.1909 18.0443 65.2226 18.0347 65.2528 18.0255C65.3316 18.0017 65.3996 17.9811 65.4668 17.9577C66.4324 17.5974 67.454 17.4101 68.4846 17.4042C69.43 17.4204 69.8677 18.0143 69.6441 18.965C69.5016 18.965 69.3581 18.9617 69.2142 18.9583C68.8919 18.9508 68.5675 18.9433 68.2463 18.9731C67.5611 19.0102 66.8806 19.1085 66.2128 19.2667C65.1775 19.5065 64.4887 20.4872 64.6144 21.5425C64.6013 22.585 65.3312 23.4896 66.3529 23.6971C67.2544 23.8903 68.1877 23.8783 69.0839 23.6621C69.2952 23.6075 69.5139 23.5875 69.7316 23.6029C70.267 23.6847 70.8003 23.7838 71.3335 23.8828ZM68.8092 20.3049L68.8173 20.3413V20.3386C68.9068 20.3441 69.008 20.3388 69.109 20.3335C69.3315 20.3218 69.5528 20.3103 69.6455 20.414C69.763 20.5438 69.7487 20.7994 69.7349 21.0439C69.7306 21.1216 69.7263 21.1981 69.7263 21.2691C69.733 22.0313 69.733 22.0542 68.991 22.1889C68.5443 22.2737 68.0882 22.2986 67.6349 22.263C67.2358 22.2281 66.9292 21.8946 66.9279 21.494C66.8462 21.0607 67.0995 20.6343 67.5191 20.4988C67.9444 20.4058 68.3753 20.341 68.8092 20.3049Z"
        fill="black" />
    <path
        d="M45.7261 23.7375H43.3722V23.3686C43.3722 21.8684 43.3722 20.3687 43.3722 18.8694C43.3754 18.7094 43.3691 18.5493 43.3533 18.39C43.3262 17.9621 42.99 17.6185 42.5628 17.582C42.0549 17.5195 41.5398 17.6075 41.0815 17.8352C41.0977 18.495 41.1206 19.1185 41.1246 19.742C41.1246 20.9621 41.1246 22.1822 41.1246 23.4022V23.7402H38.7774V23.3955C38.7774 21.8953 38.7639 20.3952 38.7774 18.8963C38.7922 17.7288 38.2684 17.4245 37.1749 17.617C36.5191 17.7328 36.5218 17.7517 36.5218 18.4048V23.7308H34.1328V23.3699C34.1328 21.4298 34.1328 19.4898 34.1328 17.5497C34.1328 16.5666 34.3833 16.234 35.3367 15.9728C36.4967 15.6123 37.7254 15.5306 38.9228 15.7344C39.2515 15.8111 39.5685 15.9311 39.8655 16.0913C39.9966 16.1745 40.1611 16.1852 40.3018 16.1195C41.4242 15.6174 42.6808 15.4991 43.8772 15.7829C44.9074 15.9686 45.6596 16.8611 45.6682 17.9079C45.7234 19.4458 45.7046 20.9863 45.7167 22.5256C45.7288 22.9215 45.7261 23.3201 45.7261 23.7375Z"
        fill="black" />
    <path fill-rule="evenodd" clip-rule="evenodd"
        d="M60.9098 15.6139V15.964C60.7844 15.9235 60.6567 15.8902 60.5274 15.8644C60.0005 15.7619 59.4666 15.6994 58.9303 15.6772C57.4586 15.6513 56.1784 16.68 55.8868 18.1227C55.703 18.871 55.647 19.645 55.7212 20.412C55.7622 22.1049 57.0272 23.5171 58.7054 23.7436C59.8772 23.9219 61.0743 23.8326 62.2067 23.4824C63.082 23.2117 63.284 22.9302 63.284 22.0091V12.3536V12.0156C63.1061 12.0459 62.9306 12.076 62.7569 12.1057C62.1971 12.2016 61.6565 12.2942 61.1159 12.3806C60.93 12.4062 60.9098 12.5193 60.9098 12.6755V15.6139ZM60.9098 18.6304V19.7979C60.9098 19.9742 60.9084 20.1506 60.9069 20.3268C60.9033 20.7603 60.8997 21.1931 60.9179 21.624C60.9274 21.8825 60.8506 21.9822 60.5934 22.0024C60.4898 22.0105 60.3863 22.0254 60.2827 22.0403C60.1291 22.0624 59.9754 22.0845 59.8218 22.0845C59.0377 22.1588 58.325 21.6266 58.1735 20.8537C57.9751 20.1167 57.9751 19.3404 58.1735 18.6034C58.3308 17.8396 59.063 17.3362 59.8325 17.4628C60.3718 17.508 60.6412 17.5305 60.7757 17.677C60.9098 17.823 60.9098 18.0924 60.9098 18.6304Z"
        fill="black" />
    <path fill-rule="evenodd" clip-rule="evenodd"
        d="M50.6664 17.4045C51.811 17.3721 52.1814 17.768 52.1033 18.9679C51.9218 18.9679 51.742 18.9668 51.5631 18.9657C51.1858 18.9634 50.8125 18.961 50.4361 18.9693C49.7461 18.9608 49.0608 19.0828 48.4161 19.3288C47.5471 19.712 46.9992 20.5859 47.0327 21.535C47.0662 22.4841 47.6745 23.3171 48.5683 23.6381C49.2531 23.8774 49.9905 23.924 50.7 23.7728C51.6582 23.5722 52.6501 23.6003 53.5953 23.8549C53.7715 23.9004 53.9497 23.9271 54.1359 23.955C54.2089 23.9659 54.2831 23.9771 54.3589 23.9896C54.3697 23.8967 54.3697 23.8374 54.3697 23.7781C54.3697 23.1779 54.3713 22.5779 54.373 21.9779C54.3763 20.778 54.3795 19.5783 54.3697 18.3781C54.4384 17.7141 54.2328 17.0509 53.8005 16.5423C53.3682 16.0337 52.7467 15.7239 52.0804 15.6848C51.8732 15.6499 51.6641 15.6274 51.4542 15.6174C50.1025 15.6082 48.7606 15.8469 47.495 16.3217C47.4302 16.3509 47.3842 16.4105 47.3725 16.4806C47.4214 16.8826 47.4792 17.2829 47.5384 17.6929C47.5558 17.8131 47.5732 17.9341 47.5906 18.0562C47.6234 18.0459 47.6538 18.0365 47.6822 18.0276C47.7729 17.9994 47.8444 17.9771 47.9152 17.9525C48.7988 17.6303 49.7267 17.4455 50.6664 17.4045ZM51.5295 20.3928C51.7325 20.3967 51.9395 20.4007 52.1517 20.4007C52.1517 20.5654 52.1522 20.7296 52.1526 20.8934C52.1535 21.2201 52.1544 21.5453 52.1517 21.8699C52.1373 21.9429 52.0865 22.0034 52.0171 22.0302C51.4556 22.1601 50.886 22.2523 50.3122 22.3063C50.0681 22.3321 49.8243 22.2537 49.641 22.0904C49.4577 21.927 49.3518 21.694 49.3494 21.4484C49.3196 21.195 49.3954 20.9406 49.5589 20.7447C49.7224 20.5489 49.9593 20.4289 50.2139 20.4129C50.6434 20.3757 51.0768 20.3841 51.5295 20.3928Z"
        fill="black" />
    <rect x="0.0292969" width="30.4208" height="10.0797" fill="#008BCF" />
    <rect x="0.0292969" y="13.7402" width="30.4208" height="10.0797" fill="#80AA2C" />
</svg>