<svg width="40" height="42" viewBox="0 0 40 42" fill="none" xmlns="http://www.w3.org/2000/svg">
    <path
        d="M6.76768 17.599H22.753C23.1923 17.599 23.5485 17.2412 23.5485 16.7991C23.5485 16.3568 23.1923 15.999 22.753 15.999H6.76768C6.32836 15.999 5.97217 16.3568 5.97217 16.7991C5.97217 17.2412 6.32836 17.599 6.76768 17.599Z"
        fill="#798595" stroke="#798595" />
    <path
        d="M36.9712 4.77339C35.125 3.80543 32.8374 4.52498 31.8726 6.38198L31.2304 7.61801V4.37577C31.2304 2.51405 29.7244 1 27.8735 1H10.1728C10.0664 1 9.96254 1.02189 9.86624 1.06238C9.79183 1.09373 9.72924 1.14386 9.66838 1.1953C9.65032 1.21047 9.62706 1.2175 9.6103 1.23436L1.23311 9.65855C1.21524 9.67652 1.20775 9.70128 1.1918 9.72068C1.14194 9.78101 1.09265 9.8424 1.06203 9.91579C1.02177 10.0126 1 10.1171 1 10.2242V37.6242C1 39.486 2.50603 41 4.35737 41H27.8735C29.7244 41 31.2304 39.486 31.2304 37.6242V24.0308L38.5709 9.90155C39.5358 8.04449 38.8183 5.74372 36.9712 4.77339ZM26.9387 28.8367L23.0604 26.7993L30.4737 12.5295L34.3522 14.567L26.9387 28.8367ZM22.7276 28.4302L25.7977 30.043L22.5518 32.5297L22.7276 28.4302ZM9.378 3.73048V7.64998C9.378 8.62889 8.58639 9.425 7.61294 9.425H3.71519L9.378 3.73048ZM29.6394 37.6242C29.6394 38.6031 28.8473 39.4 27.8735 39.4H4.35737C3.38355 39.4 2.59108 38.6031 2.59108 37.6242V11.025H7.61294C9.46347 11.025 10.9691 9.51089 10.9691 7.64998V2.6H27.8735C28.8473 2.6 29.6394 3.39686 29.6394 4.37577V10.6807L23.8629 21.8H6.76764C6.32833 21.8 5.97214 22.1578 5.97214 22.6C5.97214 23.0422 6.32833 23.4 6.76764 23.4H23.0316L21.282 26.768C21.2282 26.8713 21.2023 26.9808 21.1959 27.0902C21.1956 27.095 21.1924 27.0991 21.1922 27.1039L21.1709 27.6H6.76764C6.32833 27.6 5.97214 27.9578 5.97214 28.4C5.97214 28.8422 6.32833 29.2 6.76764 29.2H21.1023L20.9221 33.4H6.76764C6.32833 33.4 5.97214 33.7578 5.97214 34.2C5.97214 34.6422 6.32833 35 6.76764 35H25.4628C25.9021 35 26.2583 34.6422 26.2583 34.2C26.2583 33.7578 25.9021 33.4 25.4628 33.4H24.0414L27.7574 30.5531C27.7672 30.5455 27.7716 30.5328 27.7811 30.5248C27.8593 30.4591 27.9303 30.3833 27.9803 30.2867L29.6394 27.0933V37.6242ZM37.1608 9.16091L35.0892 13.1485L31.2107 11.111L33.2826 7.12261C33.8415 6.04761 35.1658 5.63046 36.2348 6.19216C37.3038 6.75391 37.7194 8.08517 37.1608 9.16091Z"
        fill="#798595" stroke="#798595" />
</svg>