<svg width="26" height="30" viewBox="0 0 26 30" fill="none" xmlns="http://www.w3.org/2000/svg">
<g id="Group 2331 1" clip-path="url(#clip0_314_7807)">
<g id="Group 1">
<path id="Subtraction 1" d="M19.9657 30C19.5127 29.9987 19.0643 29.9081 18.6463 29.7335C18.2283 29.5589 17.8488 29.3036 17.5294 28.9823C17.3568 28.7859 17.1443 28.6286 16.9061 28.5209C16.6679 28.4131 16.4095 28.3574 16.1481 28.3574C15.8866 28.3574 15.6282 28.4131 15.39 28.5209C15.1518 28.6286 14.9393 28.7859 14.7667 28.9823C14.4453 29.3055 14.0632 29.5619 13.6423 29.7369C13.2214 29.912 12.7701 30.0021 12.3143 30.0021C11.8585 30.0021 11.4072 29.912 10.9864 29.7369C10.5655 29.5619 10.1834 29.3055 9.86198 28.9823C9.68938 28.7866 9.47711 28.6298 9.23927 28.5225C9.00143 28.4151 8.74347 28.3596 8.48253 28.3596C8.22158 28.3596 7.96362 28.4151 7.72578 28.5225C7.48795 28.6298 7.27568 28.7866 7.10308 28.9823C6.78179 29.305 6.39993 29.561 5.97941 29.7358C5.55889 29.9105 5.10801 30.0005 4.65263 30.0005C4.19726 30.0005 3.74637 29.9105 3.32586 29.7358C2.90534 29.561 2.52348 29.305 2.20219 28.9823C2.0292 28.7865 1.81684 28.6295 1.579 28.5215C1.34116 28.4135 1.08319 28.3569 0.821974 28.3554C0.60419 28.3554 0.395325 28.2689 0.241328 28.1149C0.0873317 27.9609 0.000817248 27.752 0.000817248 27.5342C0.000817248 27.3165 0.0873317 27.1076 0.241328 26.9536C0.395325 26.7996 0.60419 26.7131 0.821974 26.7131H0.837301C1.29028 26.7147 1.73848 26.8058 2.15616 26.9811C2.57385 27.1564 2.9528 27.4125 3.27127 27.7346C3.47043 27.9601 3.72168 28.1335 4.00314 28.2397L0.0556121 17.9773C-0.021456 17.7791 -0.0183158 17.5586 0.0643676 17.3626C0.147051 17.1666 0.302782 17.0105 0.498569 16.9274L2.46429 16.0844V11.5238C2.46449 11.306 2.55111 11.0971 2.70514 10.9431C2.85916 10.7891 3.068 10.7024 3.28583 10.7022H5.74815V6.18608C5.74835 5.96812 5.83508 5.75916 5.98927 5.60511C6.14346 5.45107 6.3525 5.36454 6.57045 5.36454H8.62354V0.821543C8.62374 0.603719 8.71036 0.394875 8.86438 0.240851C9.01841 0.0868261 9.22725 0.000206125 9.44508 3.21529e-06H15.1928C15.3009 -0.000299113 15.408 0.020722 15.508 0.0618634C15.608 0.103005 15.6989 0.163459 15.7755 0.239766C15.8521 0.316073 15.9128 0.406735 15.9544 0.506564C15.9959 0.606392 16.0173 0.713427 16.0174 0.821543V2.40638L14.3743 2.96736V1.64308H10.2659V5.33771H12.2622V9.13197C12.2913 11.1363 13.0527 13.0607 14.4027 14.5425L12.3182 13.6489L1.87266 18.126L5.68531 28.0404C5.81379 27.9534 5.9307 27.8504 6.03324 27.7339C6.68389 27.0835 7.56564 26.7173 8.48559 26.7154C8.94151 26.7138 9.39317 26.8031 9.81423 26.9779C10.2353 27.1528 10.6173 27.4098 10.938 27.7339C11.1106 27.9302 11.3231 28.0875 11.5613 28.1953C11.7994 28.303 12.0579 28.3588 12.3193 28.3588C12.5808 28.3588 12.8392 28.303 13.0774 28.1953C13.3156 28.0875 13.5281 27.9302 13.7007 27.7339C14.3513 27.0835 15.2331 26.7173 16.153 26.7154C16.6089 26.7139 17.0606 26.8033 17.4816 26.9781C17.9026 27.153 18.2847 27.4099 18.6054 27.7339C18.7093 27.8508 18.8278 27.9538 18.9579 28.0404L22.7614 18.1268L20.9443 17.3481C21.4954 17.0105 22.0254 16.6396 22.5315 16.2377L24.1408 16.9274C24.3365 17.0107 24.4921 17.1668 24.5748 17.3627C24.6574 17.5587 24.6607 17.779 24.5838 17.9773L20.634 28.2381C20.9143 28.1318 21.1647 27.959 21.3635 27.7346C21.6828 27.4132 22.0623 27.1577 22.4803 26.983C22.8984 26.8082 23.3467 26.7175 23.7998 26.7161H23.8151C24.0329 26.7161 24.2418 26.8027 24.3958 26.9567C24.5498 27.1107 24.6363 27.3195 24.6363 27.5373C24.6363 27.7551 24.5498 27.9639 24.3958 28.1179C24.2418 28.2719 24.0329 28.3585 23.8151 28.3585C23.5543 28.36 23.2968 28.4163 23.0591 28.5238C22.8215 28.6313 22.6091 28.7875 22.4357 28.9823C22.1163 29.3036 21.7368 29.5589 21.3188 29.7335C20.9008 29.9081 20.4524 29.9987 19.9994 30H19.9688H19.9657ZM4.1066 12.3446V15.3809L8.21277 13.6183V12.3446H4.1066ZM9.85431 12.3446V12.9163L11.1886 12.3446H9.85431ZM7.39123 7.00685V10.7022H11.4959V7.00685H7.39123ZM19.6147 20.2772C19.5035 20.2774 19.3934 20.2547 19.2913 20.2105L12.3174 17.2217L5.34351 20.2105C5.24428 20.2528 5.13769 20.2751 5.02984 20.2762C4.92199 20.2772 4.81498 20.2571 4.71492 20.2168C4.61487 20.1765 4.52372 20.1169 4.4467 20.0414C4.36967 19.9659 4.30827 19.876 4.266 19.7767C4.18064 19.5763 4.17838 19.3502 4.25973 19.1481C4.34107 18.9461 4.49936 18.7846 4.69977 18.6992L11.9948 15.5717C12.097 15.528 12.207 15.5055 12.3182 15.5055C12.4293 15.5055 12.5393 15.528 12.6416 15.5717L16.2895 17.1355L19.9373 18.6992C20.1113 18.7735 20.2543 18.9056 20.3421 19.0731C20.4299 19.2407 20.4571 19.4334 20.4192 19.6187C20.3812 19.8041 20.2804 19.9706 20.1338 20.0901C19.9873 20.2097 19.8039 20.275 19.6147 20.2749V20.2772Z" fill="#798595"/>
<g id="Group 2421">
<path id="Path 12" d="M19.6601 13.1463C19.6601 13.1463 23.0819 11.7025 23.0819 8.81328V6.21378L19.6601 5.05811L16.2383 6.21378V8.81328C16.2383 11.7025 19.6601 13.1463 19.6601 13.1463Z" fill="#CAD1D9"/>
<path id="Path 13" fill-rule="evenodd" clip-rule="evenodd" d="M19.3894 15.8507C19.4763 15.887 19.5695 15.9058 19.6637 15.9059C19.7574 15.9058 19.8502 15.887 19.9365 15.8507C20.1665 15.7549 25.531 13.4359 25.531 8.66682V4.74535C25.5308 4.59819 25.4845 4.45479 25.3986 4.33533C25.3127 4.21586 25.1915 4.12635 25.052 4.07938L19.8844 2.33667C19.7386 2.28686 19.5804 2.28686 19.4346 2.33667L14.2739 4.07938C14.1344 4.12625 14.0131 4.21574 13.9272 4.33522C13.8412 4.45471 13.795 4.59816 13.7949 4.74535V8.66682C13.7949 13.4359 19.1595 15.7541 19.3894 15.8507ZM15.2027 8.66682V5.25115L19.6599 3.74601L24.1178 5.25115V8.66682C24.1178 11.9537 20.6692 13.9202 19.6591 14.4253C18.6498 13.9233 15.2027 11.9668 15.2027 8.66682Z" fill="#798595"/>
</g>
</g>
</g>
<defs>
<clipPath id="clip0_314_7807">
<rect width="25.5244" height="30" fill="white"/>
</clipPath>
</defs>
</svg>
