<svg width="42" height="24" viewBox="0 0 42 24" fill="none" xmlns="http://www.w3.org/2000/svg">
<path fill-rule="evenodd" clip-rule="evenodd" d="M29.0289 23.999L29.6482 23.9827L30.2574 23.9381L30.8564 23.8609L31.4513 23.7594L32.03 23.6254L32.6006 23.4629L33.16 23.2731L33.7062 23.0578L34.2403 22.8152L34.7581 22.5522L35.2606 22.2608L35.751 21.9492L36.2211 21.6131L36.6749 21.2567L37.1125 20.8801L37.5297 20.479L37.9308 20.0618L38.3074 19.6242L38.6638 19.1704L38.9999 18.7003L39.3115 18.2099L39.6029 17.7084L39.8659 17.1906L40.1085 16.6555L40.3228 16.1093L40.5136 15.5509L40.6751 14.9803L40.8091 14.4016L40.9106 13.8067L40.9878 13.2077L41.0324 12.5985L41.0487 11.9792L41.0324 11.3639L40.9878 10.7548L40.9106 10.1558L40.8091 9.56893L40.6751 8.99023L40.5136 8.42371L40.3238 7.86429L40.1095 7.32214L39.8669 6.79217L39.6039 6.27438L39.3126 5.77588L39.0009 5.2855L38.6648 4.81543L38.3085 4.36567L37.9318 3.92808L37.5308 3.51081L37.1135 3.11384L36.6759 2.73717L36.2221 2.38081L35.752 2.04476L35.2616 1.73307L34.7591 1.44575L34.2413 1.18279L33.7072 0.940141L33.161 0.725919L32.6016 0.536063L32.031 0.37362L31.4523 0.239604L30.8574 0.138077L30.2584 0.0609163L29.6492 0.0162443L29.0299 0L28.4146 0.0162443L27.8055 0.0609163L27.2065 0.138077L26.6156 0.239604L26.0369 0.37362L25.4663 0.536063L24.9109 0.726934L24.3647 0.941157L23.8337 1.18381L23.32 1.44676L22.8174 1.73408L22.3311 2.04577L21.8611 2.38183L21.4072 2.73819L20.9737 3.11485L20.5564 3.51182L20.1595 3.9291L19.7828 4.36668L19.4264 4.81645L19.0944 5.28652L18.7828 5.77689L18.4954 6.27539L18.2284 6.79318L17.9888 7.32315L17.7746 7.86531L17.5878 8.42472L17.4253 8.99124L17.2923 9.56995L17.1908 10.1568L17.1137 10.7558L17.069 11.3649L17.0527 11.9802L17.069 12.5995L17.1137 13.2087L17.1908 13.8077L17.2923 14.4026L17.4253 14.9813L17.5878 15.5519L17.7746 16.1103L17.9888 16.6565L18.2284 17.1916L18.4954 17.7094L18.7828 18.2109L19.0944 18.7013L19.4264 19.1714L19.7828 19.6252L20.1595 20.0628L20.5564 20.4801L20.9737 20.8811L21.4072 21.2578L21.8611 21.6141L22.3311 21.9502L22.8174 22.2619L23.32 22.5532L23.8337 22.8162L24.3647 23.0588L24.9109 23.2741L25.4663 23.4639L26.0369 23.6264L26.6156 23.7604L27.2065 23.8619L27.8055 23.9391L28.4146 23.9838L29.0299 24L29.0289 23.999Z" fill="#FFA11C"/>
<path fill-rule="evenodd" clip-rule="evenodd" d="M12.9689 23.999L13.5842 23.9827L14.1934 23.9381L14.7934 23.8609L15.3843 23.7594L15.963 23.6254L16.5346 23.4629L17.0889 23.2731L17.6361 23.0578L18.1661 22.8152L18.6809 22.5522L19.1824 22.2608L19.6687 21.9492L20.1378 21.6131L20.5916 21.2567L21.0251 20.8801L21.4424 20.479L21.8394 20.0618L22.216 19.6242L22.5724 19.1704L22.9044 18.7003L23.2161 18.2099L23.5034 17.7084L23.7704 17.1906L24.009 16.6555L24.2242 16.1093L24.41 15.5509L24.5715 14.9803L24.7055 14.4016L24.807 13.8067L24.8842 13.2077L24.9288 12.5985L24.9451 11.9792L24.9288 11.3639L24.8842 10.7548L24.807 10.1558L24.7055 9.56893L24.5715 8.99023L24.41 8.42371L24.2242 7.86429L24.009 7.32214L23.7704 6.79217L23.5034 6.27438L23.2161 5.77588L22.9044 5.2855L22.5724 4.81543L22.216 4.36567L21.8394 3.92808L21.4424 3.51081L21.0251 3.11384L20.5916 2.73717L20.1378 2.38081L19.6687 2.04476L19.1824 1.73307L18.6809 1.44575L18.1661 1.18279L17.6361 0.940141L17.0889 0.725919L16.5346 0.536063L15.964 0.37362L15.3853 0.239604L14.7944 0.138077L14.1944 0.0609163L13.5852 0.0162443L12.97 0L12.3506 0.0162443L11.7415 0.0609163L11.1425 0.138077L10.5475 0.239604L9.96881 0.37362L9.39823 0.536063L8.83983 0.726934L8.2926 0.941157L7.75857 1.18381L7.24078 1.44676L6.73822 1.73408L6.24784 2.04577L5.77777 2.38183L5.32395 2.73819L4.88636 3.11485L4.46909 3.51182L4.06805 3.9291L3.69139 4.36668L3.33503 4.81645L2.99897 5.28652L2.68729 5.77689L2.3959 6.27539L2.13295 6.79318L1.8903 7.32315L1.67608 7.86531L1.48622 8.42472L1.32378 8.99124L1.19078 9.56995L1.08925 10.1568L1.01209 10.7558L0.967416 11.3649L0.951172 11.9802L0.967416 12.5995L1.01209 13.2087L1.08925 13.8077L1.19078 14.4026L1.32378 14.9813L1.48622 15.5519L1.67709 16.1103L1.89131 16.6565L2.13396 17.1916L2.39692 17.7094L2.6883 18.2109L2.99999 18.7013L3.33604 19.1714L3.6924 19.6252L4.06907 20.0628L4.4701 20.4801L4.88738 20.8811L5.32496 21.2578L5.77879 21.6141L6.24886 21.9502L6.73923 22.2619L7.24179 22.5532L7.75958 22.8162L8.29361 23.0588L8.84085 23.2741L9.39925 23.4639L9.97084 23.6264L10.5495 23.7604L11.1445 23.8619L11.7435 23.9391L12.3527 23.9838L12.972 24L12.9689 23.999Z" fill="#E50020"/>
<path fill-rule="evenodd" clip-rule="evenodd" d="M19.5938 4.59526H25.9717V3.94345H20.145L19.5948 4.59526H19.5938Z" fill="#FFA11C"/>
<path fill-rule="evenodd" clip-rule="evenodd" d="M18.6387 6.04448H25.972V5.39267H19.0235L18.6387 6.04448Z" fill="#FFA11C"/>
<path fill-rule="evenodd" clip-rule="evenodd" d="M17.9258 7.48979H25.9718V6.83798H18.209L17.9258 7.48979Z" fill="#FFA11C"/>
<path fill-rule="evenodd" clip-rule="evenodd" d="M17.4346 8.93901H25.97V8.2872H17.6366L17.4336 8.93901H17.4346Z" fill="#FFA11C"/>
<path fill-rule="evenodd" clip-rule="evenodd" d="M17.7187 15.9449H25.9911V15.2931H17.5156L17.7187 15.9449Z" fill="#FFA11C"/>
<path fill-rule="evenodd" clip-rule="evenodd" d="M18.3309 17.3941H25.9921V16.7423H18.0273L18.3319 17.3941H18.3309Z" fill="#FFA11C"/>
<path fill-rule="evenodd" clip-rule="evenodd" d="M19.1893 18.8394H25.9916V18.1876H18.7832L19.1893 18.8394Z" fill="#FFA11C"/>
<path fill-rule="evenodd" clip-rule="evenodd" d="M20.3714 20.2887H25.992V19.6328H19.7988L20.3704 20.2887H20.3714Z" fill="#FFA11C"/>
<path fill-rule="evenodd" clip-rule="evenodd" d="M17.1484 10.3902H25.9722V9.73837H17.2743L17.1495 10.3902H17.1484Z" fill="#FFA11C"/>
<path fill-rule="evenodd" clip-rule="evenodd" d="M22.5264 14.4996H25.891V13.8477H22.6472L22.5254 14.4996H22.5264Z" fill="#FFA11C"/>
<path fill-rule="evenodd" clip-rule="evenodd" d="M22.791 13.0543H25.8886V12.3985H22.9128L22.791 13.0543Z" fill="#FFA11C"/>
<path fill-rule="evenodd" clip-rule="evenodd" d="M16.9255 12.3985H17.8007V13.0543H16.9661L16.9255 12.3985Z" fill="#FFA11C"/>
<path fill-rule="evenodd" clip-rule="evenodd" d="M15.2927 11.6072H15.2359L15.179 11.5991L15.1262 11.591L15.0734 11.5829L15.0247 11.5747L14.9719 11.5666L14.9191 11.5585L14.8622 11.5504L14.8054 11.5423H14.7404H14.6673H14.5902H14.5049H14.4115L14.3099 11.5504L14.1922 11.5585L14.1109 11.5707L14.0338 11.5829L13.9647 11.6072L13.9038 11.6316L13.847 11.66L13.7942 11.6925L13.7536 11.7331L13.717 11.7697L13.6927 11.8143L13.6723 11.859L13.6642 11.9078V11.9565L13.6764 12.0093L13.6927 12.0621L13.7251 12.1149L13.7658 12.1677L13.847 12.2448L13.9485 12.3057L14.0622 12.3585L14.184 12.4032L14.314 12.4438L14.448 12.4885L14.582 12.5372L14.712 12.59L14.8338 12.6591L14.9475 12.7443L15.0491 12.8459L15.1333 12.9718L15.1983 13.1261L15.2389 13.3078L15.2552 13.5261L15.2389 13.7809L15.2105 13.9708L15.1618 14.1373L15.0968 14.2906L15.0156 14.4246L14.9221 14.5424L14.8206 14.6439L14.7069 14.7333L14.581 14.8104L14.4521 14.8713L14.3181 14.9241L14.18 14.9647L14.0389 14.9972L13.9008 15.0216L13.7678 15.0338L13.6338 15.0419H13.5079H13.3332H13.1708H13.0297H12.8957H12.7738L12.6642 15.0338L12.5627 15.0257L12.4693 15.0135L12.384 15.0053L12.3068 14.9891L12.2296 14.9769L12.1606 14.9566L12.0916 14.9404L12.0266 14.916L11.9616 14.8916L11.8926 14.8673L12.0753 13.9728L12.1119 13.9809L12.1565 13.9931L12.2134 14.0094L12.2824 14.0256L12.3555 14.0419L12.4368 14.0581L12.5261 14.0784L12.6276 14.0946L12.7292 14.1109L12.8307 14.1271L12.9403 14.1393L13.054 14.1515H13.1718H13.2896H13.4074H13.5251L13.6429 14.1271L13.7363 14.0946L13.8094 14.05L13.8663 13.9931L13.9069 13.9363L13.9394 13.8713L13.9597 13.8063L13.9759 13.7454L13.984 13.6276L13.9475 13.5261L13.8784 13.4449L13.7769 13.3758L13.6551 13.3149L13.513 13.254L13.3546 13.1971L13.1972 13.1322L13.0348 13.0591L12.8804 12.9738L12.7393 12.8723L12.6094 12.7464L12.5078 12.592L12.4347 12.4103L12.3982 12.192V11.9331L12.4185 11.7748L12.4469 11.6245L12.4875 11.4864L12.5363 11.3565L12.6012 11.2346L12.6743 11.1331L12.7596 11.0316L12.8611 10.9422L12.9779 10.8651L13.1079 10.8001L13.253 10.7392L13.4155 10.6945L13.5972 10.658L13.8003 10.6295L14.0196 10.6133H14.2582H14.4074H14.5455H14.6714H14.7851L14.8866 10.6214L14.98 10.6295L15.0602 10.6376L15.1333 10.6458L15.2024 10.6539L15.2592 10.6661L15.312 10.6742L15.3607 10.6823L15.4014 10.6904H15.4379L15.4745 10.6986H15.5069L15.3039 11.6123L15.2927 11.6072Z" fill="white"/>
<path d="M15.2927 11.6072V11.6072H15.2359L15.179 11.5991L15.1262 11.591L15.0734 11.5829L15.0247 11.5747L14.9719 11.5666L14.9191 11.5585L14.8622 11.5504L14.8054 11.5423H14.7404H14.6673H14.5902H14.5049H14.4115L14.3099 11.5504L14.1922 11.5585V11.5585L14.1109 11.5707L14.0338 11.5829L13.9647 11.6072L13.9038 11.6316L13.847 11.66L13.7942 11.6925L13.7536 11.7331L13.717 11.7697L13.6927 11.8143L13.6723 11.859L13.6642 11.9078V11.9565L13.6764 12.0093L13.6927 12.0621L13.7251 12.1149L13.7658 12.1677V12.1677L13.847 12.2448L13.9485 12.3057L14.0622 12.3585L14.184 12.4032L14.314 12.4438L14.448 12.4885L14.582 12.5372L14.712 12.59L14.8338 12.6591L14.9475 12.7443L15.0491 12.8459L15.1333 12.9718L15.1983 13.1261L15.2389 13.3078L15.2552 13.5261L15.2389 13.7809V13.7809L15.2105 13.9708L15.1618 14.1373L15.0968 14.2906L15.0156 14.4246L14.9221 14.5424L14.8206 14.6439L14.7069 14.7333L14.581 14.8104L14.4521 14.8713L14.3181 14.9241L14.18 14.9647L14.0389 14.9972L13.9008 15.0216L13.7678 15.0338L13.6338 15.0419H13.5079H13.3332H13.1708H13.0297H12.8957H12.7738L12.6642 15.0338L12.5627 15.0257L12.4693 15.0135L12.384 15.0053L12.3068 14.9891L12.2296 14.9769L12.1606 14.9566L12.0916 14.9404L12.0266 14.916L11.9616 14.8916L11.8926 14.8673L12.0753 13.9728V13.9728L12.1119 13.9809L12.1565 13.9931L12.2134 14.0094L12.2824 14.0256L12.3555 14.0419L12.4368 14.0581L12.5261 14.0784L12.6276 14.0946L12.7292 14.1109L12.8307 14.1271L12.9403 14.1393L13.054 14.1515H13.1718H13.2896H13.4074H13.5251V14.1515L13.6429 14.1271L13.7363 14.0946L13.8094 14.05L13.8663 13.9931L13.9069 13.9363L13.9394 13.8713L13.9597 13.8063L13.9759 13.7454V13.7454L13.984 13.6276L13.9475 13.5261L13.8784 13.4449L13.7769 13.3758L13.6551 13.3149L13.513 13.254L13.3546 13.1971L13.1972 13.1322L13.0348 13.0591L12.8804 12.9738L12.7393 12.8723L12.6094 12.7464L12.5078 12.592L12.4347 12.4103L12.3982 12.192V11.9331V11.9331L12.4185 11.7748L12.4469 11.6245L12.4875 11.4864L12.5363 11.3565L12.6012 11.2346L12.6743 11.1331L12.7596 11.0316L12.8611 10.9422L12.9779 10.8651L13.1079 10.8001L13.253 10.7392L13.4155 10.6945L13.5972 10.658L13.8003 10.6295L14.0196 10.6133H14.2582H14.4074H14.5455H14.6714H14.7851L14.8866 10.6214L14.98 10.6295L15.0602 10.6376L15.1333 10.6458L15.2024 10.6539L15.2592 10.6661L15.312 10.6742L15.3607 10.6823L15.4014 10.6904H15.4379L15.4745 10.6986H15.5069L15.3039 11.6123" stroke="white" stroke-width="0.216"/>
<path fill-rule="evenodd" clip-rule="evenodd" d="M16.2497 9.69336H17.3665L17.2 10.6731H17.8762L17.73 11.5868L17.0193 11.5665L16.6305 13.8255V13.9067L16.6508 13.9758L16.6914 14.0286L16.7442 14.0732L16.8173 14.1017L16.8985 14.126L16.9878 14.1423L17.0894 14.1504H17.1787L17.2599 14.1423L17.333 14.1301L17.398 14.1139L17.4508 14.0976L17.4873 14.0854L17.5117 14.0773H17.5198L17.3787 14.8306L17.3503 14.8509L17.3219 14.8672L17.2934 14.8834L17.265 14.8997L17.2366 14.9119L17.2041 14.924L17.1675 14.9362L17.131 14.9484L17.0904 14.9606L17.0498 14.9687L17.001 14.9768L16.9523 14.985L16.8995 14.9931L16.8386 15.0012L16.7736 15.0093L16.7046 15.0174H16.4L16.2375 15.0053L16.0954 14.989L15.9665 14.9646L15.8568 14.9362L15.7634 14.8997L15.6863 14.8591L15.6172 14.8103L15.5644 14.7575L15.5238 14.7007L15.4954 14.6316L15.4751 14.5626L15.4629 14.4854V14.4002V14.3108L15.4751 14.2174L15.4873 14.1159L16.2609 9.69844L16.2497 9.69336Z" fill="white"/>
<path d="M16.2497 9.69336H17.3665L17.2 10.6731H17.8762L17.73 11.5868L17.0193 11.5665L16.6305 13.8255V13.8255V13.9067L16.6508 13.9758L16.6914 14.0286L16.7442 14.0732L16.8173 14.1017L16.8985 14.126L16.9878 14.1423L17.0894 14.1504V14.1504H17.1787L17.2599 14.1423L17.333 14.1301L17.398 14.1139L17.4508 14.0976L17.4873 14.0854L17.5117 14.0773H17.5198L17.3787 14.8306V14.8306L17.3503 14.8509L17.3219 14.8672L17.2934 14.8834L17.265 14.8997L17.2366 14.9119L17.2041 14.924L17.1675 14.9362L17.131 14.9484L17.0904 14.9606L17.0498 14.9687L17.001 14.9768L16.9523 14.985L16.8995 14.9931L16.8386 15.0012L16.7736 15.0093L16.7046 15.0174H16.4L16.2375 15.0053L16.0954 14.989L15.9665 14.9646L15.8568 14.9362L15.7634 14.8997L15.6863 14.8591L15.6172 14.8103L15.5644 14.7575L15.5238 14.7007L15.4954 14.6316L15.4751 14.5626L15.4629 14.4854V14.4002V14.3108L15.4751 14.2174L15.4873 14.1159L16.2609 9.69844" stroke="white" stroke-width="0.216"/>
<path fill-rule="evenodd" clip-rule="evenodd" d="M18.7794 13.1133L18.7672 13.1824V13.2555L18.7754 13.3326L18.7916 13.4098L18.82 13.487L18.8525 13.5601L18.8972 13.6372L18.9459 13.7063L19.0028 13.7753L19.0637 13.8362L19.1287 13.8971L19.2018 13.9459L19.2749 13.9905L19.3561 14.0271L19.4373 14.0555L19.5185 14.0718L19.6201 14.088L19.7216 14.1002L19.8231 14.1124L19.9246 14.1205H20.0262H20.1358H20.2374L20.347 14.1124L20.4567 14.0961L20.5663 14.0758L20.68 14.0514L20.7897 14.0149L20.9034 13.9702L21.0211 13.9215L21.1349 13.8565L21.2526 13.7875L21.0902 14.7835L21.0252 14.8159L20.9602 14.8484L20.8952 14.8728L20.8343 14.8972L20.7734 14.9175L20.7084 14.9378L20.6435 14.954L20.5744 14.9662L20.5013 14.9784L20.4201 14.9865L20.3348 14.9946L20.2414 15.0028H20.1399H20.0302H19.9043H19.7703H19.5673L19.3642 14.9824L19.1612 14.954L18.9581 14.9053L18.7551 14.8444L18.5652 14.7672L18.3835 14.6657L18.2139 14.5479L18.0555 14.4098L17.9175 14.2443L17.7997 14.0586L17.6982 13.8443L17.6291 13.6057L17.5844 13.3347L17.5723 13.0301L17.5926 12.6981L17.6088 12.5681L17.6332 12.4179L17.6657 12.2595L17.7103 12.0899L17.7713 11.9153L17.8444 11.7407L17.9378 11.562L18.0505 11.3914L18.1804 11.23L18.3388 11.0757L18.5165 10.9376L18.7195 10.8158L18.954 10.7142L19.217 10.6411L19.5084 10.5924L19.8363 10.5762H19.9947L20.1612 10.5924L20.3267 10.6208L20.4932 10.6615L20.6546 10.7224L20.813 10.7955L20.9582 10.897L21.0922 11.0107L21.214 11.1488L21.3156 11.3112L21.3968 11.497L21.4536 11.7112L21.4861 11.9539V12.229L21.4577 12.5336L21.3968 12.8737L21.3765 13.1204H18.4251L18.6109 12.3224H20.3846L20.3927 12.2209V12.1194L20.3846 12.03L20.3683 11.9488L20.3399 11.8717L20.3115 11.8026L20.2709 11.7417L20.2302 11.6848L20.1815 11.6361L20.1287 11.5955L20.0678 11.559L20.0069 11.5265L19.9419 11.5021L19.8769 11.4859L19.8079 11.4737L19.7348 11.4655H19.6576L19.5845 11.4777L19.5155 11.494L19.4465 11.5183L19.3774 11.5508L19.3165 11.5874L19.2556 11.6321L19.2028 11.6808L19.15 11.7376L19.1013 11.7986L19.0566 11.8635L19.02 11.9326L18.9835 12.0057L18.9551 12.0869L18.9307 12.1681L18.9145 12.2534L18.753 13.092L18.7794 13.1133Z" fill="white"/>
<path d="M18.7794 13.1133V13.1133L18.7672 13.1824V13.2555L18.7754 13.3326L18.7916 13.4098L18.82 13.487L18.8525 13.5601L18.8972 13.6372L18.9459 13.7063L19.0028 13.7753L19.0637 13.8362L19.1287 13.8971L19.2018 13.9459L19.2749 13.9905L19.3561 14.0271L19.4373 14.0555L19.5185 14.0718V14.0718L19.6201 14.088L19.7216 14.1002L19.8231 14.1124L19.9246 14.1205H20.0262H20.1358H20.2374L20.347 14.1124L20.4567 14.0961L20.5663 14.0758L20.68 14.0514L20.7897 14.0149L20.9034 13.9702L21.0211 13.9215L21.1349 13.8565L21.2526 13.7875L21.0902 14.7835V14.7835L21.0252 14.8159L20.9602 14.8484L20.8952 14.8728L20.8343 14.8972L20.7734 14.9175L20.7084 14.9378L20.6435 14.954L20.5744 14.9662L20.5013 14.9784L20.4201 14.9865L20.3348 14.9946L20.2414 15.0028H20.1399H20.0302H19.9043H19.7703H19.5673L19.3642 14.9824L19.1612 14.954L18.9581 14.9053L18.7551 14.8444L18.5652 14.7672L18.3835 14.6657L18.2139 14.5479L18.0555 14.4098L17.9175 14.2443L17.7997 14.0586L17.6982 13.8443L17.6291 13.6057L17.5844 13.3347L17.5723 13.0301L17.5926 12.6981V12.6981L17.6088 12.5681L17.6332 12.4179L17.6657 12.2595L17.7103 12.0899L17.7713 11.9153L17.8444 11.7407L17.9378 11.562L18.0505 11.3914L18.1804 11.23L18.3388 11.0757L18.5165 10.9376L18.7195 10.8158L18.954 10.7142L19.217 10.6411L19.5084 10.5924L19.8363 10.5762V10.5762H19.9947L20.1612 10.5924L20.3267 10.6208L20.4932 10.6615L20.6546 10.7224L20.813 10.7955L20.9582 10.897L21.0922 11.0107L21.214 11.1488L21.3156 11.3112L21.3968 11.497L21.4536 11.7112L21.4861 11.9539V12.229L21.4577 12.5336L21.3968 12.8737L21.3765 13.1204H18.4251L18.6109 12.3224H20.3846L20.3927 12.2209V12.1194L20.3846 12.03L20.3683 11.9488L20.3399 11.8717L20.3115 11.8026L20.2709 11.7417L20.2302 11.6848L20.1815 11.6361L20.1287 11.5955L20.0678 11.559L20.0069 11.5265L19.9419 11.5021L19.8769 11.4859L19.8079 11.4737L19.7348 11.4655V11.4655H19.6576L19.5845 11.4777L19.5155 11.494L19.4465 11.5183L19.3774 11.5508L19.3165 11.5874L19.2556 11.6321L19.2028 11.6808L19.15 11.7376L19.1013 11.7986L19.0566 11.8635L19.02 11.9326L18.9835 12.0057L18.9551 12.0869L18.9307 12.1681L18.9145 12.2534L18.753 13.092" stroke="white" stroke-width="0.216"/>
<path fill-rule="evenodd" clip-rule="evenodd" d="M28.4372 10.9169L28.3844 10.8884L28.3316 10.8641L28.2748 10.8356L28.2139 10.8072L28.153 10.7828L28.0839 10.7585L28.0149 10.7341L27.9418 10.7097L27.8646 10.6894L27.7875 10.6732L27.7022 10.6569L27.6169 10.6448L27.5235 10.6366L27.4301 10.6285H27.1255L27.024 10.6366L26.9143 10.6488L26.8006 10.6691L26.6869 10.7016L26.5732 10.7463L26.4595 10.8031L26.3458 10.8762L26.2361 10.9656L26.1346 11.0671L26.0331 11.1971L25.9315 11.3473L25.8422 11.526L25.7569 11.7291L25.6798 11.9555L25.6148 12.2144L25.5904 12.3596L25.5742 12.5017L25.566 12.6438V12.7809L25.5782 12.919L25.6067 13.0489L25.6432 13.1708L25.6879 13.2926L25.7488 13.4022L25.8219 13.5038L25.9072 13.5972L26.0087 13.6825L26.1183 13.7556L26.2442 13.8165L26.3813 13.8693L26.5356 13.9058L26.5884 13.918L26.6493 13.9302L26.7224 13.9383L26.8037 13.9464L26.893 13.9545H27.0869L27.1884 13.9464L27.29 13.9342L27.3915 13.9139L27.493 13.8855L27.5946 13.853L27.6961 13.8083L27.7895 13.7556L27.8748 13.6906L27.956 13.6175L27.7743 14.6987L27.7499 14.719L27.7255 14.7434L27.693 14.7718L27.6565 14.7962L27.6118 14.8287L27.555 14.8571L27.49 14.8856L27.4169 14.9099L27.3235 14.9383L27.2219 14.9586L27.1001 14.9749L26.958 14.9911L26.7996 14.9993H26.6179H26.4148L26.1884 14.9871L26.0016 14.9668L25.8148 14.9262L25.629 14.8652L25.4422 14.784L25.2645 14.6825L25.0939 14.5607L24.9315 14.4185L24.7823 14.2561L24.6482 14.0743L24.5345 13.8713L24.433 13.6449L24.3599 13.3982L24.3112 13.1271L24.2949 12.8398L24.303 12.524L24.3477 12.188L24.3802 12.0215L24.4168 11.86L24.4574 11.7017L24.498 11.5514L24.5426 11.4093L24.5954 11.2671L24.6482 11.1331L24.7112 11.0184L24.7721 10.8925L24.833 10.7747L24.9021 10.661L24.9752 10.5595L25.0483 10.458L25.1295 10.3564L25.2107 10.2671L25.296 10.1818L25.3894 10.1006L25.4818 10.0234L25.5833 9.95438L25.6848 9.8894L25.7945 9.82848L25.9041 9.77569L26.0168 9.72696L26.1346 9.68228L26.2605 9.64167L26.3854 9.60918L26.5153 9.58076L26.6534 9.55639L26.7915 9.53609L26.9367 9.51984L27.0829 9.51172H27.2362H27.3661L27.492 9.51984L27.6138 9.53202L27.7357 9.54827L27.8494 9.56451L27.959 9.58888L28.0606 9.60918L28.1621 9.63355L28.2555 9.65792L28.3367 9.68228L28.4139 9.70665L28.4789 9.73102L28.5357 9.75132L28.5844 9.76757L28.621 9.78381L28.6454 9.79193L28.4423 10.9087L28.4372 10.9169Z" fill="white"/>
<path d="M28.4372 10.9169V10.9169L28.3844 10.8884L28.3316 10.8641L28.2748 10.8356L28.2139 10.8072L28.153 10.7828L28.0839 10.7585L28.0149 10.7341L27.9418 10.7097L27.8646 10.6894L27.7875 10.6732L27.7022 10.6569L27.6169 10.6448L27.5235 10.6366L27.4301 10.6285H27.1255L27.024 10.6366L26.9143 10.6488L26.8006 10.6691L26.6869 10.7016L26.5732 10.7463L26.4595 10.8031L26.3458 10.8762L26.2361 10.9656L26.1346 11.0671L26.0331 11.1971L25.9315 11.3473L25.8422 11.526L25.7569 11.7291L25.6798 11.9555L25.6148 12.2144V12.2144L25.5904 12.3596L25.5742 12.5017L25.566 12.6438V12.7809L25.5782 12.919L25.6067 13.0489L25.6432 13.1708L25.6879 13.2926L25.7488 13.4022L25.8219 13.5038L25.9072 13.5972L26.0087 13.6825L26.1183 13.7556L26.2442 13.8165L26.3813 13.8693L26.5356 13.9058V13.9058L26.5884 13.918L26.6493 13.9302L26.7224 13.9383L26.8037 13.9464L26.893 13.9545H27.0869L27.1884 13.9464L27.29 13.9342L27.3915 13.9139L27.493 13.8855L27.5946 13.853L27.6961 13.8083L27.7895 13.7556L27.8748 13.6906L27.956 13.6175L27.7743 14.6987V14.6987L27.7499 14.719L27.7255 14.7434L27.693 14.7718L27.6565 14.7962L27.6118 14.8287L27.555 14.8571L27.49 14.8856L27.4169 14.9099L27.3235 14.9383L27.2219 14.9586L27.1001 14.9749L26.958 14.9911L26.7996 14.9993H26.6179H26.4148L26.1884 14.9871V14.9871L26.0016 14.9668L25.8148 14.9262L25.629 14.8652L25.4422 14.784L25.2645 14.6825L25.0939 14.5607L24.9315 14.4185L24.7823 14.2561L24.6482 14.0743L24.5345 13.8713L24.433 13.6449L24.3599 13.3982L24.3112 13.1271L24.2949 12.8398L24.303 12.524L24.3477 12.188V12.188L24.3802 12.0215L24.4168 11.86L24.4574 11.7017L24.498 11.5514L24.5426 11.4093L24.5954 11.2671L24.6482 11.1331L24.7112 11.0184L24.7721 10.8925L24.833 10.7747L24.9021 10.661L24.9752 10.5595L25.0483 10.458L25.1295 10.3564L25.2107 10.2671L25.296 10.1818L25.3894 10.1006L25.4818 10.0234L25.5833 9.95438L25.6848 9.8894L25.7945 9.82848L25.9041 9.77569L26.0168 9.72696L26.1346 9.68228L26.2605 9.64167L26.3854 9.60918L26.5153 9.58076L26.6534 9.55639L26.7915 9.53609L26.9367 9.51984L27.0829 9.51172H27.2362V9.51172H27.3661L27.492 9.51984L27.6138 9.53202L27.7357 9.54827L27.8494 9.56451L27.959 9.58888L28.0606 9.60918L28.1621 9.63355L28.2555 9.65792L28.3367 9.68228L28.4139 9.70665L28.4789 9.73102L28.5357 9.75132L28.5844 9.76757L28.621 9.78381L28.6454 9.79193L28.4423 10.9087" stroke="white" stroke-width="0.216"/>
<path fill-rule="evenodd" clip-rule="evenodd" d="M38.4063 15.0083H37.2895L37.3707 14.5585V14.5179L37.3057 14.5992L37.2367 14.6723L37.1677 14.7372L37.0946 14.7941L37.0215 14.8469L36.9484 14.8916L36.8753 14.9281L36.7981 14.9647L36.7209 14.9931L36.6438 15.0134L36.5666 15.0337L36.4854 15.0459L36.4042 15.0581L36.327 15.0662H36.2458H36.1646L35.9534 15.0499L35.7585 15.0053L35.5798 14.9362L35.4173 14.8428L35.2721 14.7251L35.1422 14.588L35.0285 14.4377L34.9269 14.2682L34.8457 14.0864L34.7808 13.8966L34.7361 13.6935L34.7036 13.4905L34.6914 13.2874V13.0773L34.7117 12.8742L34.7483 12.6712L34.8082 12.4326L34.8813 12.2062L34.9665 12.0031L35.0681 11.8092L35.1696 11.6264L35.2914 11.464L35.4173 11.3178L35.5513 11.1838L35.6935 11.066L35.8427 10.9645L35.997 10.8751L36.1514 10.8061L36.3128 10.7493L36.4752 10.7127L36.6377 10.6883L36.8032 10.6802H36.9209L37.0347 10.6924L37.1362 10.7127L37.2377 10.7411L37.3311 10.7736L37.4123 10.8102L37.4936 10.8548L37.5667 10.8995L37.6316 10.9482L37.6925 11.001L37.7453 11.0538L37.7941 11.1066L37.8347 11.1594L37.8712 11.2122L37.9037 11.2609L37.9281 11.3097L38.2114 9.71875H39.3129L38.3992 15.0154L38.4063 15.0083Z" fill="white"/>
<path d="M38.4063 15.0083H37.2895L37.3707 14.5585V14.5179V14.5179L37.3057 14.5992L37.2367 14.6723L37.1677 14.7372L37.0946 14.7941L37.0215 14.8469L36.9484 14.8916L36.8753 14.9281L36.7981 14.9647L36.7209 14.9931L36.6438 15.0134L36.5666 15.0337L36.4854 15.0459L36.4042 15.0581L36.327 15.0662H36.2458H36.1646L35.9534 15.0499L35.7585 15.0053L35.5798 14.9362L35.4173 14.8428L35.2721 14.7251L35.1422 14.588L35.0285 14.4377L34.9269 14.2682L34.8457 14.0864L34.7808 13.8966L34.7361 13.6935L34.7036 13.4905L34.6914 13.2874V13.0773L34.7117 12.8742L34.7483 12.6712V12.6712L34.8082 12.4326L34.8813 12.2062L34.9665 12.0031L35.0681 11.8092L35.1696 11.6264L35.2914 11.464L35.4173 11.3178L35.5513 11.1838L35.6935 11.066L35.8427 10.9645L35.997 10.8751L36.1514 10.8061L36.3128 10.7493L36.4752 10.7127L36.6377 10.6883L36.8032 10.6802V10.6802H36.9209L37.0347 10.6924L37.1362 10.7127L37.2377 10.7411L37.3311 10.7736L37.4123 10.8102L37.4936 10.8548L37.5667 10.8995L37.6316 10.9482L37.6925 11.001L37.7453 11.0538L37.7941 11.1066L37.8347 11.1594L37.8712 11.2122L37.9037 11.2609L37.9281 11.3097V11.3097L38.2114 9.71875H39.3129L38.3992 15.0154" stroke="white" stroke-width="0.216"/>
<path fill-rule="evenodd" clip-rule="evenodd" d="M36.5734 14.0285L36.6871 14.0204L36.7886 13.9961L36.8902 13.9676L36.9836 13.923L37.0688 13.8742L37.1501 13.8133L37.2262 13.7443L37.2953 13.6712L37.3562 13.5899L37.413 13.5006L37.4658 13.4072L37.5105 13.3057L37.5511 13.2041L37.5836 13.1026L37.612 12.993L37.6323 12.8833L37.6526 12.7696L37.6648 12.6518V12.5422V12.4285L37.6526 12.3269L37.6364 12.2254L37.608 12.1239L37.5755 12.0305L37.5349 11.9493L37.4861 11.8721L37.4333 11.8071L37.3724 11.7503L37.3034 11.7015L37.2303 11.6691L37.1541 11.6487L37.0688 11.6406L36.9592 11.6487L36.8577 11.665L36.7643 11.6975L36.6709 11.7381L36.5907 11.7909L36.5094 11.8559L36.4404 11.9249L36.3714 12.0021L36.3104 12.0914L36.2536 12.1848L36.2008 12.2863L36.1561 12.3879L36.1155 12.4975L36.083 12.6072L36.0505 12.7249L36.0262 12.8427L36.0059 13.0204L36.014 13.2153L36.0424 13.4184L36.0952 13.6082L36.1764 13.7747L36.278 13.9087L36.412 13.9981L36.5734 14.0306V14.0285Z" fill="#FFA11C"/>
<path fill-rule="evenodd" clip-rule="evenodd" d="M11.7063 14.1112L11.5449 15.0097H10.5245L10.5529 14.8432L10.5732 14.693L10.5895 14.5792L10.6057 14.5183L10.5489 14.5833L10.4839 14.6483L10.4067 14.7092L10.3215 14.7661L10.2199 14.8229L10.1184 14.8716L10.0169 14.9204L9.90723 14.961L9.79047 14.9975L9.6727 15.026L9.55493 15.0503L9.4331 15.0666L9.31533 15.0747H9.19756L9.08385 15.0625L8.9742 15.0463L8.83206 15.0097L8.7021 14.9691L8.58839 14.9163L8.48687 14.8554L8.39752 14.7904L8.3163 14.7173L8.25132 14.6402L8.19447 14.5589L8.14573 14.4737L8.10512 14.3843L8.07264 14.295L8.04827 14.2056L8.03202 14.1122L8.01984 14.0188L8.01172 13.9295V13.8401L8.0239 13.6817L8.04827 13.5315L8.08888 13.3894L8.14167 13.2513L8.20665 13.1213L8.27975 13.0035L8.36503 12.8898L8.46656 12.7883L8.56809 12.6949L8.6818 12.6096L8.79957 12.5325L8.9214 12.4675L9.05136 12.4106L9.18537 12.366L9.32243 12.3294L9.46457 12.305H9.47269H9.493H9.52143H9.5661L9.61483 12.2969H9.67169L9.7326 12.2888L9.80164 12.2807L9.87068 12.2726L9.93972 12.2644H10.0128L10.0778 12.2563H10.1428H10.2037H10.2605H10.3986H10.5001H10.5895H10.6788H10.7519H10.8088H10.8494H10.8616L10.8697 12.2279L10.8941 12.1548L10.9144 12.0695L10.9225 11.9923L10.9063 11.903L10.8697 11.8218L10.821 11.7487L10.756 11.6878L10.6788 11.635L10.5936 11.5984L10.492 11.574L10.3905 11.5659H10.2768H10.155H10.0291H9.89911L9.76509 11.574L9.63615 11.5862L9.5062 11.5984L9.3803 11.6147L9.25847 11.6309L9.1407 11.6512L9.03917 11.6715L8.93765 11.6918L8.8483 11.7162L8.7752 11.7406L8.71835 11.769L8.67368 11.7933L8.961 10.8177L9.05034 10.7811L9.13969 10.7486L9.24121 10.7202L9.34274 10.6999L9.44427 10.6796L9.54579 10.6633L9.64732 10.6471L9.75697 10.639L9.86967 10.6309H9.98744H10.1093H10.4981H10.6392H10.7814L10.8951 10.639L11.0169 10.6593L11.1428 10.6877L11.2728 10.7243L11.3987 10.773L11.5205 10.8299L11.6423 10.8989L11.756 10.9761L11.8576 11.0654L11.9469 11.1669L12.0281 11.2766L12.089 11.3984L12.1297 11.5284L12.154 11.6664V11.8197L12.1297 11.9822L11.7236 14.1203L11.7063 14.1112Z" fill="white"/>
<path d="M11.7063 14.1112L11.5449 15.0097H10.5245L10.5529 14.8432L10.5732 14.693L10.5895 14.5792L10.6057 14.5183V14.5183L10.5489 14.5833L10.4839 14.6483L10.4067 14.7092L10.3215 14.7661L10.2199 14.8229L10.1184 14.8716L10.0169 14.9204L9.90723 14.961L9.79047 14.9975L9.6727 15.026L9.55493 15.0503L9.4331 15.0666L9.31533 15.0747H9.19756L9.08385 15.0625L8.9742 15.0463V15.0463L8.83206 15.0097L8.7021 14.9691L8.58839 14.9163L8.48687 14.8554L8.39752 14.7904L8.3163 14.7173L8.25132 14.6402L8.19447 14.5589L8.14573 14.4737L8.10512 14.3843L8.07264 14.295L8.04827 14.2056L8.03202 14.1122L8.01984 14.0188L8.01172 13.9295V13.8401V13.8401L8.0239 13.6817L8.04827 13.5315L8.08888 13.3894L8.14167 13.2513L8.20665 13.1213L8.27975 13.0035L8.36503 12.8898L8.46656 12.7883L8.56809 12.6949L8.6818 12.6096L8.79957 12.5325L8.9214 12.4675L9.05136 12.4106L9.18537 12.366L9.32243 12.3294L9.46457 12.305H9.47269H9.493H9.52143H9.5661L9.61483 12.2969H9.67169L9.7326 12.2888L9.80164 12.2807L9.87068 12.2726L9.93972 12.2644H10.0128L10.0778 12.2563H10.1428H10.2037H10.2605H10.3986H10.5001H10.5895H10.6788H10.7519H10.8088H10.8494H10.8616L10.8697 12.2279L10.8941 12.1548L10.9144 12.0695L10.9225 11.9923V11.9923L10.9063 11.903L10.8697 11.8218L10.821 11.7487L10.756 11.6878L10.6788 11.635L10.5936 11.5984L10.492 11.574L10.3905 11.5659V11.5659H10.2768H10.155H10.0291H9.89911L9.76509 11.574L9.63615 11.5862L9.5062 11.5984L9.3803 11.6147L9.25847 11.6309L9.1407 11.6512L9.03917 11.6715L8.93765 11.6918L8.8483 11.7162L8.7752 11.7406L8.71835 11.769L8.67368 11.7933L8.961 10.8177V10.8177L9.05034 10.7811L9.13969 10.7486L9.24121 10.7202L9.34274 10.6999L9.44427 10.6796L9.54579 10.6633L9.64732 10.6471L9.75697 10.639L9.86967 10.6309H9.98744H10.1093H10.4981H10.6392H10.7814V10.6309L10.8951 10.639L11.0169 10.6593L11.1428 10.6877L11.2728 10.7243L11.3987 10.773L11.5205 10.8299L11.6423 10.8989L11.756 10.9761L11.8576 11.0654L11.9469 11.1669L12.0281 11.2766L12.089 11.3984L12.1297 11.5284L12.154 11.6664V11.8197L12.1297 11.9822L11.7236 14.1203" stroke="white" stroke-width="0.216"/>
<path fill-rule="evenodd" clip-rule="evenodd" d="M10.7291 13.0534V13.0331L10.7129 13.0128L10.6885 13.0006L10.6479 12.9925L10.6032 12.9844H10.5504H10.4286H10.3636L10.2946 12.9925L10.2296 13.0006L10.1646 13.0087L10.1037 13.0169L10.0468 13.029L9.99811 13.0412L9.95344 13.0534L9.92501 13.0615L9.89252 13.0737L9.84785 13.09L9.80318 13.1103L9.75038 13.1346L9.69759 13.1631L9.64073 13.1915L9.58794 13.224L9.53108 13.2646L9.47829 13.3052L9.42956 13.3539L9.38489 13.4027L9.34427 13.4555L9.31585 13.5123L9.29148 13.5773L9.2793 13.6423V13.7803L9.2996 13.89L9.34021 13.9712L9.39301 14.0321L9.45392 14.0727L9.52296 14.0971L9.58794 14.1093H9.65292H9.77475L9.88338 14.0971L9.98491 14.0809L10.0783 14.0565L10.1595 14.0281L10.2367 13.9915L10.3057 13.955L10.3667 13.9103L10.4194 13.8697L10.4682 13.821L10.5088 13.7763L10.5413 13.7276L10.5697 13.6788L10.5941 13.6301L10.6144 13.5854L10.6266 13.5407L10.6591 13.423L10.6875 13.289L10.7118 13.159L10.7322 13.0575L10.7291 13.0534Z" fill="#E50020"/>
<path fill-rule="evenodd" clip-rule="evenodd" d="M3.18555 15.0084H2.08398L3.00382 9.69141H4.91862L5.10137 12.8459L6.42122 9.69141H8.42131L7.48218 15.0084H6.38061L7.07709 11.0356H7.03242L5.38463 15.0084H4.14194L4.13382 14.8429L4.10539 14.4013L4.06884 13.7738L4.02823 13.053L3.98762 12.3281L3.95107 11.6925L3.92264 11.2316L3.91452 11.0366H3.8536L3.18149 15.0094L3.18555 15.0084Z" fill="white"/>
<path d="M3.18555 15.0084H2.08398L3.00382 9.69141H4.91862L5.10137 12.8459L6.42122 9.69141H8.42131L7.48218 15.0084H6.38061L7.07709 11.0356H7.03242L5.38463 15.0084H4.14194L4.13382 14.8429L4.10539 14.4013L4.06884 13.7738L4.02823 13.053L3.98762 12.3281L3.95107 11.6925L3.92264 11.2316L3.91452 11.0366H3.8536L3.18149 15.0094" stroke="white" stroke-width="0.216"/>
<path fill-rule="evenodd" clip-rule="evenodd" d="M31.8023 14.1112L31.6358 15.0097H30.6205L30.6287 14.8432V14.697V14.5874L30.6368 14.5386L30.584 14.5996L30.5231 14.6605L30.45 14.7173L30.3687 14.7742L30.2835 14.827L30.1819 14.8757L30.0804 14.9244L29.9789 14.9651L29.8692 14.9975L29.7555 15.03L29.6418 15.0503L29.5291 15.0666L29.4113 15.0747H29.2976L29.188 15.0625L29.0783 15.0463L28.9321 15.0097L28.8022 14.9691L28.6895 14.9163L28.588 14.8554L28.4986 14.7904L28.4215 14.7173L28.3565 14.6402L28.2996 14.5589L28.2509 14.4737L28.2143 14.3843L28.1819 14.295L28.1615 14.2056L28.1453 14.1122L28.1331 14.0188L28.125 13.9295V13.8401L28.1331 13.6817L28.1575 13.5315L28.194 13.3894L28.2468 13.2513L28.3077 13.1213L28.3849 13.0035L28.4702 12.8898L28.5636 12.7883L28.6651 12.6949L28.7748 12.6096L28.8925 12.5325L29.0184 12.4675L29.1443 12.4106L29.2783 12.366L29.4113 12.3294L29.5484 12.305H29.5565H29.5768H29.6053H29.6459L29.6987 12.2969H29.7555L29.8164 12.2888L29.8814 12.2807L29.9505 12.2726L30.0236 12.2644H30.0926L30.1616 12.2563H30.2266H30.2835H30.3403H30.4825H30.584H30.6774H30.7667H30.8439H30.9089H30.9454H30.9617L30.9698 12.2279L30.982 12.1548L30.9942 12.0695L31.0023 11.9923L30.986 11.903L30.9535 11.8218L30.9008 11.7487L30.8398 11.6878L30.7667 11.635L30.6815 11.5984L30.5921 11.574L30.4906 11.5659H30.3769H30.255H30.1291H29.9992L29.8652 11.574L29.7352 11.5862L29.6053 11.5984L29.4794 11.6147L29.3575 11.6309L29.2398 11.6512L29.1382 11.6715L29.0367 11.6918L28.9474 11.7162L28.8743 11.7406L28.8174 11.769L28.7727 11.7933L29.056 10.8177L29.1453 10.7811L29.2388 10.7486L29.3322 10.7202L29.4337 10.6999L29.5352 10.6796L29.6367 10.6633L29.7383 10.6471L29.8479 10.639L29.9616 10.6309H30.0794H30.1972H30.5779H30.716H30.854L30.9678 10.639L31.0896 10.6593L31.2155 10.6877L31.3454 10.7243L31.4713 10.773L31.5972 10.8299L31.7191 10.8989L31.8328 10.9761L31.9343 11.0654L32.0277 11.1669L32.1089 11.2766L32.1698 11.3984L32.2145 11.5284L32.2429 11.6664V11.8197L32.2226 11.9822L31.7972 14.1203L31.8023 14.1112Z" fill="white"/>
<path fill-rule="evenodd" clip-rule="evenodd" d="M31.6397 15.037L31.6641 15.0126L31.8296 14.1141L31.7809 14.106L31.6154 15.0055L31.6397 14.9812V15.038H31.66V15.0177L31.6357 15.0421L31.6397 15.037Z" fill="white"/>
<path fill-rule="evenodd" clip-rule="evenodd" d="M30.5957 15.0096L30.6201 15.038H31.6353V14.9812H30.6201L30.6444 15.0096H30.5957V15.038H30.6241L30.5998 15.0096H30.5957Z" fill="white"/>
<path fill-rule="evenodd" clip-rule="evenodd" d="M30.6649 14.5567L30.6283 14.5242L30.6121 14.5892V14.6989V14.8441L30.604 15.0106H30.6527L30.6608 14.8441L30.669 14.6989V14.5892V14.5567L30.6324 14.5242L30.673 14.5567H30.6649Z" fill="white"/>
<path fill-rule="evenodd" clip-rule="evenodd" d="M29.086 15.0742L29.1987 15.0904L29.3084 15.1026H29.4221L29.5398 15.0945L29.6576 15.0782L29.7713 15.0579L29.885 15.0255L29.9987 14.993L30.1003 14.9524L30.2018 14.9036L30.3033 14.8549L30.3886 14.798L30.4739 14.7412L30.546 14.6843L30.611 14.6193L30.6637 14.5584L30.6231 14.5259L30.5703 14.5869L30.5135 14.6437L30.4404 14.7006L30.3632 14.7574L30.2779 14.8062L30.1764 14.8549L30.0749 14.9036L29.9734 14.9442L29.8718 14.9767L29.7581 15.0092L29.6444 15.0295L29.5348 15.0458L29.417 15.0539H29.3033L29.1936 15.0417L29.0921 15.0255L29.084 15.0742H29.086Z" fill="white"/>
<path fill-rule="evenodd" clip-rule="evenodd" d="M28.1038 13.8477V13.937L28.1119 14.0263L28.1241 14.1279L28.1403 14.2213L28.1606 14.3106L28.1931 14.404L28.2297 14.4974L28.2825 14.5827L28.3393 14.668L28.4043 14.7452L28.4855 14.8223L28.5789 14.8873L28.6805 14.9523L28.7982 15.0051L28.9322 15.0457L29.0784 15.0822L29.0866 15.0335L28.9404 14.9969L28.8155 14.9563L28.7058 14.9035L28.6043 14.8467L28.519 14.7817L28.4459 14.7127L28.381 14.6355L28.3241 14.5583L28.2794 14.4731L28.2429 14.3878L28.2104 14.3025L28.1901 14.2132L28.1738 14.1197L28.1617 14.0304L28.1535 13.9411V13.8517H28.0967L28.1038 13.8477Z" fill="white"/>
<path fill-rule="evenodd" clip-rule="evenodd" d="M29.5585 12.291L29.4163 12.3154L29.2793 12.3519L29.1453 12.3966L29.0153 12.4535L28.8894 12.5184L28.7676 12.5997L28.6579 12.6849L28.5564 12.7865L28.4549 12.888L28.3696 13.0017L28.2884 13.1235L28.2275 13.2576L28.1747 13.3956L28.1381 13.5418L28.1137 13.6962L28.1016 13.8545H28.1584V13.6962L28.1828 13.55L28.2193 13.4119L28.2721 13.2738L28.333 13.1479L28.4061 13.0342L28.4914 12.9205L28.5808 12.819L28.6823 12.7296L28.7919 12.6443L28.9057 12.5712L29.0305 12.5063L29.1524 12.4494L29.2854 12.4047L29.4153 12.3682L29.5483 12.3438V12.2951L29.5585 12.291Z" fill="white"/>
<path fill-rule="evenodd" clip-rule="evenodd" d="M30.3927 12.2068H30.3481L30.2912 12.2149H30.2343H30.1694L30.1003 12.223H30.0313L29.9582 12.2312L29.8891 12.2393L29.8242 12.2474L29.7633 12.2555H29.7064L29.6536 12.2636H29.613H29.5805H29.5643H29.5561V12.3124H29.5643H29.5886H29.613H29.6536L29.7064 12.3043H29.7633L29.8242 12.2961L29.8891 12.288L29.9582 12.2799L30.0313 12.2718H30.1003L30.1694 12.2636H30.2343H30.2912H30.3927V12.2068Z" fill="white"/>
<path fill-rule="evenodd" clip-rule="evenodd" d="M30.9399 12.2519L30.9642 12.2316H30.948H30.9114H30.8464L30.7693 12.2235H30.5865L30.485 12.2154H30.3835V12.2722H30.5774L30.6708 12.2804H30.8373H30.9023H30.9388H30.9551L30.9794 12.2601L30.9551 12.2804H30.9754V12.256L30.9267 12.2479L30.9399 12.2519Z" fill="white"/>
<path fill-rule="evenodd" clip-rule="evenodd" d="M30.9817 11.9928V12.0699L30.9695 12.1511L30.9573 12.2242L30.9492 12.2527L30.9979 12.2608L31.0061 12.2324L31.0183 12.1593L31.0304 12.0699L31.0426 11.9928H30.9898H30.9817Z" fill="white"/>
<path fill-rule="evenodd" clip-rule="evenodd" d="M30.4986 11.5911H30.592L30.6773 11.6155L30.7585 11.652L30.8275 11.7008L30.8844 11.7576L30.9331 11.8267L30.9656 11.8998L30.9819 11.9851H31.0275L31.0113 11.8917L30.9788 11.8023L30.922 11.7251L30.857 11.6602L30.7798 11.6033L30.6905 11.5668L30.5971 11.5424L30.4955 11.5302V11.583L30.4986 11.5911Z" fill="white"/>
<path fill-rule="evenodd" clip-rule="evenodd" d="M28.7608 11.7855L28.8014 11.8099L28.842 11.7895L28.8948 11.7611L28.9638 11.7368L29.0532 11.7124L29.1547 11.6921L29.2562 11.6718L29.373 11.6515L29.4908 11.6352L29.6167 11.619L29.7466 11.6068L29.8766 11.5946L30.0106 11.5865H30.3872H30.501V11.5378H30.3872L30.2654 11.5296H30.1405L30.0106 11.5378L29.8766 11.5459L29.7466 11.5581L29.6167 11.5702L29.4908 11.5865L29.3649 11.6027L29.2471 11.623L29.1456 11.6433L29.044 11.6637L28.9547 11.688L28.8775 11.7124L28.8166 11.7408L28.7679 11.7692L28.8085 11.7936L28.7598 11.7855H28.7608Z" fill="white"/>
<path fill-rule="evenodd" clip-rule="evenodd" d="M29.0611 10.7889L29.0448 10.8092L28.7616 11.7848L28.8103 11.793L29.0936 10.8173L29.0773 10.8376L29.0611 10.7889H29.0489V10.8051L29.0651 10.7848L29.0611 10.7889Z" fill="white"/>
<path fill-rule="evenodd" clip-rule="evenodd" d="M30.8612 10.6029L30.7231 10.5948H30.585H30.2043L30.0865 10.6029H29.9687L29.855 10.611L29.7454 10.6192L29.6357 10.6354L29.5342 10.6516L29.4327 10.6719L29.3312 10.6923L29.2296 10.7207L29.1362 10.7532L29.0469 10.7897L29.0631 10.8385L29.1525 10.8019L29.2459 10.7694L29.3352 10.741L29.4367 10.7207L29.5383 10.7004L29.6398 10.6841L29.7413 10.6679L29.851 10.6598L29.9647 10.6516H30.0825H30.5799H30.718H30.8561V10.6029H30.8612Z" fill="white"/>
<path fill-rule="evenodd" clip-rule="evenodd" d="M32.2515 11.9773L32.2718 11.8118V11.6574L32.2433 11.5153L32.1987 11.3813L32.1337 11.2554L32.0525 11.1417L31.9509 11.0402L31.8494 10.9508L31.7316 10.8737L31.6098 10.8006L31.4799 10.7437L31.354 10.695L31.221 10.6584L31.0951 10.63L30.9692 10.6097L30.8555 10.6016V10.6503L30.9692 10.6584L31.087 10.6787L31.2128 10.7072L31.3387 10.7437L31.4646 10.7924L31.5865 10.8493L31.7083 10.9143L31.8179 10.9914L31.9195 11.0808L32.0088 11.1742L32.09 11.2757L32.1469 11.3935L32.1916 11.5194L32.22 11.6534V11.8077L32.1997 11.9661L32.2484 11.9742L32.2515 11.9773Z" fill="white"/>
<path fill-rule="evenodd" clip-rule="evenodd" d="M31.8271 14.115L32.2525 11.9769L32.2038 11.9688L31.7784 14.1069L31.8271 14.115Z" fill="white"/>
<path fill-rule="evenodd" clip-rule="evenodd" d="M30.8221 13.0534L30.814 13.029L30.7977 13.0087L30.7693 12.9966L30.7287 12.9844H30.684H30.6312H30.5703H30.5094L30.4444 12.9925L30.3794 13.0006L30.3144 13.0087L30.2535 13.0169L30.1926 13.029L30.1398 13.0372L30.087 13.0494L30.0464 13.0575H30.018L29.9855 13.0697L29.9449 13.0818L29.9002 13.0981L29.8474 13.1225L29.7987 13.1468L29.7418 13.1752L29.689 13.2118L29.6362 13.2483L29.5834 13.293L29.5388 13.3377L29.4941 13.3905L29.4576 13.4473L29.4291 13.5083L29.4048 13.5732L29.3926 13.6423V13.7803L29.4129 13.89L29.4454 13.9712L29.4941 14.0321L29.555 14.0727L29.6241 14.0971L29.6931 14.1093H29.7621H29.884L29.9977 14.0971L30.0992 14.0768L30.1926 14.0484L30.282 14.0159L30.3591 13.9793L30.4322 13.9387L30.4972 13.89L30.554 13.8453L30.6028 13.7925L30.6475 13.7438L30.684 13.691L30.7124 13.6423L30.7327 13.5935L30.749 13.5448L30.7612 13.5001L30.7774 13.3864L30.7977 13.2687L30.814 13.1549L30.8221 13.0534Z" fill="#FFA11C"/>
<path fill-rule="evenodd" clip-rule="evenodd" d="M39.1699 14.4537L39.178 14.3603L39.2105 14.2507L39.2674 14.1491L39.3364 14.0638L39.4217 13.9948L39.5232 13.9461L39.6248 13.9136L39.7385 13.9014L39.8522 13.9136L39.9537 13.9461L40.0552 13.9948L40.1405 14.0638L40.2096 14.1491L40.2664 14.2507L40.2989 14.3603L40.307 14.4537H40.1852V14.3806L40.1608 14.2913L40.1202 14.21L40.0674 14.141L40.0024 14.0842L39.9253 14.0435L39.8359 14.0151L39.7425 14.007L39.6491 14.0151L39.5598 14.0435L39.4826 14.0842L39.4176 14.141L39.3649 14.21L39.3242 14.2913L39.2999 14.3806L39.2918 14.4537H39.1699Z" fill="white"/>
<path fill-rule="evenodd" clip-rule="evenodd" d="M39.5333 14.4563V14.2137H39.7556H39.8044L39.849 14.2218L39.8815 14.234L39.91 14.2502L39.9303 14.2746L39.9465 14.299L39.9546 14.3274V14.3558V14.3924L39.9465 14.4208L39.9343 14.4452L39.9262 14.4533H39.7556H39.7719H39.8003L39.8247 14.4452L39.845 14.4371L39.8612 14.4249L39.8693 14.4127L39.8775 14.3924V14.364V14.3437L39.8693 14.3274L39.8572 14.3193L39.845 14.3112H39.8247H39.8044H39.6389V14.4695L39.5333 14.4563Z" fill="white"/>
<path fill-rule="evenodd" clip-rule="evenodd" d="M39.1641 14.4537V14.4781L39.1762 14.5948L39.2087 14.7045L39.2656 14.806L39.3346 14.8872L39.4199 14.9563L39.5214 15.0091L39.623 15.0416L39.7367 15.0537L39.8504 15.0416L39.9519 15.0091L40.0534 14.9563L40.1387 14.8872L40.2078 14.806L40.2646 14.7045L40.2971 14.5948L40.3093 14.4781V14.4537H40.1875V14.4781L40.1793 14.5796L40.155 14.669L40.1144 14.7461L40.0616 14.8152L39.9966 14.872L39.9194 14.9167L39.8301 14.9451L39.7367 14.9532L39.6433 14.9451L39.5539 14.9167L39.4768 14.872L39.4118 14.8152L39.359 14.7461L39.3184 14.669L39.294 14.5796L39.2859 14.4781V14.4537H39.1641Z" fill="white"/>
<path fill-rule="evenodd" clip-rule="evenodd" d="M39.5331 14.4551V14.7018H39.6346V14.4988H39.7362L39.858 14.7018H39.9392L39.8174 14.4988H39.8458L39.8742 14.4906L39.8986 14.4825L39.9189 14.4663L39.927 14.4541H39.7565H39.7362H39.6346L39.5331 14.4551Z" fill="white"/>
<path d="M39.1729 14.3798L39.0695 14.3489L39.0666 14.3586L39.0655 14.3686L39.1729 14.3798ZM39.207 14.2657L39.113 14.2126L39.107 14.2232L39.1035 14.2348L39.207 14.2657ZM39.2666 14.1601L39.183 14.0918L39.1771 14.099L39.1726 14.107L39.2666 14.1601ZM39.339 14.0714L39.2714 13.9872L39.2625 13.9943L39.2554 14.0031L39.339 14.0714ZM39.4285 13.9995L39.382 13.902L39.3707 13.9074L39.3609 13.9153L39.4285 13.9995ZM39.535 13.9488L39.5023 13.8459L39.4952 13.8481L39.4885 13.8513L39.535 13.9488ZM39.6414 13.915L39.63 13.8076L39.6192 13.8088L39.6088 13.8121L39.6414 13.915ZM39.8799 13.915L39.9126 13.8121L39.9022 13.8088L39.8914 13.8076L39.8799 13.915ZM39.9864 13.9488L40.0329 13.8513L40.0262 13.8481L40.0191 13.8459L39.9864 13.9488ZM40.0929 13.9995L40.161 13.9157L40.151 13.9076L40.1393 13.902L40.0929 13.9995ZM40.1813 14.0714L40.265 14.0031L40.258 13.9945L40.2494 13.9875L40.1813 14.0714ZM40.2537 14.1601L40.3477 14.107L40.3432 14.099L40.3374 14.0918L40.2537 14.1601ZM40.3133 14.2657L40.4168 14.2348L40.4133 14.2232L40.4074 14.2126L40.3133 14.2657ZM40.3474 14.3798L40.4548 14.3686L40.4538 14.3586L40.4509 14.3489L40.3474 14.3798ZM40.3474 14.6249L40.4509 14.6558L40.4538 14.6461L40.4548 14.6361L40.3474 14.6249ZM40.3133 14.739L40.4074 14.7921L40.4133 14.7815L40.4168 14.7699L40.3133 14.739ZM40.2537 14.8446L40.3357 14.9149L40.3425 14.9069L40.3477 14.8977L40.2537 14.8446ZM40.1813 14.9291L40.2494 15.0129L40.257 15.0068L40.2633 14.9994L40.1813 14.9291ZM40.0929 15.0009L40.1424 15.0969L40.1523 15.0918L40.161 15.0847L40.0929 15.0009ZM39.9864 15.0559L40.0191 15.1588L40.0278 15.156L40.0359 15.1518L39.9864 15.0559ZM39.8799 15.0897L39.8914 15.1971L39.9022 15.1959L39.9126 15.1926L39.8799 15.0897ZM39.6414 15.0897L39.6088 15.1926L39.6192 15.1959L39.63 15.1971L39.6414 15.0897ZM39.535 15.0559L39.4854 15.1518L39.4936 15.156L39.5023 15.1588L39.535 15.0559ZM39.4285 15.0009L39.3609 15.0851L39.3693 15.0919L39.379 15.0969L39.4285 15.0009ZM39.339 14.9291L39.257 14.9994L39.2636 15.007L39.2714 15.0133L39.339 14.9291ZM39.2666 14.8446L39.1726 14.8977L39.1778 14.9069L39.1846 14.9149L39.2666 14.8446ZM39.207 14.739L39.1035 14.7699L39.107 14.7815L39.113 14.7921L39.207 14.739ZM39.1729 14.6249L39.0655 14.6361L39.0666 14.6461L39.0695 14.6558L39.1729 14.6249ZM39.5467 14.7337H39.4387V14.8417H39.5467V14.7337ZM39.5467 14.2245V14.1165H39.4387V14.2245H39.5467ZM39.832 14.2245L39.8512 14.1182L39.8417 14.1165H39.832V14.2245ZM39.8789 14.233L39.9165 14.1318L39.9075 14.1284L39.898 14.1267L39.8789 14.233ZM39.913 14.2457L39.9662 14.1517L39.9587 14.1474L39.9506 14.1444L39.913 14.2457ZM39.9428 14.2626L40.0255 14.1931L40.0129 14.1782L39.996 14.1686L39.9428 14.2626ZM39.9641 14.2879L40.0542 14.2273L40.0468 14.2184L39.9641 14.2879ZM39.9811 14.3133L40.0849 14.2834L40.0802 14.2671L40.0707 14.253L39.9811 14.3133ZM39.9896 14.3428H40.0976V14.3276L40.0934 14.3129L39.9896 14.3428ZM39.9896 14.4104L40.0934 14.4403L40.0976 14.4257V14.4104H39.9896ZM39.9811 14.44L40.0775 14.4886L40.0821 14.4796L40.0849 14.4699L39.9811 14.44ZM39.9683 14.4654L40.0524 14.5332L40.0596 14.5242L40.0648 14.514L39.9683 14.4654ZM39.9513 14.4865L40.0184 14.5711L40.0278 14.5636L40.0354 14.5543L39.9513 14.4865ZM39.93 14.5034L39.9639 14.6059L39.9821 14.5999L39.9971 14.588L39.93 14.5034ZM39.9044 14.5119L39.9339 14.6159L39.9383 14.6144L39.9044 14.5119ZM39.8746 14.5203V14.6283H39.8896L39.9041 14.6242L39.8746 14.5203ZM39.8448 14.5203V14.4123H39.6533L39.7524 14.5762L39.8448 14.5203ZM39.9726 14.7316V14.8396H40.1641L40.065 14.6757L39.9726 14.7316ZM39.8874 14.7316L39.795 14.7875L39.8265 14.8396H39.8874V14.7316ZM39.7596 14.5203L39.852 14.4644L39.8205 14.4123H39.7596V14.5203ZM39.6531 14.5203V14.4123H39.5451V14.5203H39.6531ZM39.798 14.4707V14.3627H39.7862L39.7747 14.3652L39.798 14.4707ZM39.8278 14.4707V14.5787H39.8452L39.8617 14.5732L39.8278 14.4707ZM39.8533 14.4622L39.8873 14.5649L39.8932 14.5626L39.8533 14.4622ZM39.8746 14.4538L39.9145 14.5541L39.9277 14.5489L39.9391 14.5404L39.8746 14.4538ZM39.8917 14.4411L39.9561 14.5277L39.971 14.5167L39.9813 14.5013L39.8917 14.4411ZM39.9002 14.4284L39.9898 14.4886L39.9961 14.4793L40.0003 14.4688L39.9002 14.4284ZM39.9087 14.4073L40.0089 14.4477L40.0167 14.4282V14.4073H39.9087ZM39.9087 14.3566H40.0167V14.3309L40.0051 14.308L39.9087 14.3566ZM39.9002 14.3397L39.9966 14.2911L39.9837 14.2654L39.9598 14.2496L39.9002 14.3397ZM39.8874 14.3312L39.947 14.2411L39.947 14.2411L39.8874 14.3312ZM39.8746 14.3228L39.9342 14.2327L39.9071 14.2148H39.8746V14.3228ZM39.6585 14.3228V14.2148H39.5505V14.3228H39.6585ZM39.6585 14.4907H39.5505V14.5987H39.6585V14.4907ZM39.8629 14.9925L39.8722 15.1001L39.8841 15.0991L39.8954 15.0955L39.8629 14.9925ZM39.9566 14.9629L39.9891 15.0659L40.0003 15.0624L40.0104 15.0566L39.9566 14.9629ZM40.0375 14.9164L40.0913 15.0101L40.1004 15.0049L40.1083 14.998L40.0375 14.9164ZM40.1057 14.8573L40.1765 14.9388L40.1846 14.9318L40.1912 14.9232L40.1057 14.8573ZM40.161 14.7854L40.2466 14.8514L40.2522 14.8441L40.2564 14.8361L40.161 14.7854ZM40.2036 14.7052L40.299 14.7558L40.3046 14.7453L40.3078 14.7338L40.2036 14.7052ZM40.2292 14.6122L40.3333 14.6408L40.336 14.631L40.3368 14.6209L40.2292 14.6122ZM40.2292 14.4009L40.3368 14.3923L40.336 14.3821L40.3333 14.3723L40.2292 14.4009ZM40.2036 14.308L40.3078 14.2793L40.3049 14.269L40.3001 14.2594L40.2036 14.308ZM40.161 14.2235L40.2575 14.1749L40.2529 14.1657L40.2466 14.1575L40.161 14.2235ZM40.1057 14.1516L40.1912 14.0857L40.1846 14.0772L40.1765 14.0701L40.1057 14.1516ZM40.0375 14.0925L40.1083 14.0109L40.0988 14.0026L40.0875 13.9967L40.0375 14.0925ZM39.9566 14.0502L40.0066 13.9545L39.9982 13.9501L39.9891 13.9472L39.9566 14.0502ZM39.8629 14.0207L39.8954 13.9177L39.8841 13.9141L39.8722 13.9131L39.8629 14.0207ZM39.667 14.0207L39.6577 13.9131L39.6458 13.9141L39.6345 13.9177L39.667 14.0207ZM39.5733 14.0502L39.5408 13.9472L39.5317 13.9501L39.5233 13.9545L39.5733 14.0502ZM39.4924 14.0925L39.4424 13.9967L39.4311 14.0026L39.4216 14.0109L39.4924 14.0925ZM39.4242 14.1516L39.3534 14.0701L39.3453 14.0772L39.3387 14.0857L39.4242 14.1516ZM39.3689 14.2235L39.2833 14.1575L39.277 14.1657L39.2724 14.1749L39.3689 14.2235ZM39.3263 14.308L39.2298 14.2594L39.225 14.269L39.2221 14.2793L39.3263 14.308ZM39.3007 14.4009L39.1966 14.3723L39.1939 14.3821L39.1931 14.3923L39.3007 14.4009ZM39.3007 14.6122L39.1931 14.6209L39.1939 14.631L39.1966 14.6408L39.3007 14.6122ZM39.3263 14.7052L39.2221 14.7338L39.2253 14.7453L39.2309 14.7558L39.3263 14.7052ZM39.3689 14.7854L39.2734 14.8361L39.2777 14.8441L39.2833 14.8514L39.3689 14.7854ZM39.4242 14.8573L39.3387 14.9232L39.3453 14.9318L39.3534 14.9388L39.4242 14.8573ZM39.4924 14.9164L39.4216 14.998L39.4295 15.0049L39.4386 15.0101L39.4924 14.9164ZM39.5733 14.9629L39.5195 15.0566L39.5296 15.0624L39.5408 15.0659L39.5733 14.9629ZM39.667 14.9925L39.6345 15.0955L39.6458 15.0991L39.6577 15.1001L39.667 14.9925ZM39.2676 14.5135L39.2804 14.391L39.0655 14.3686L39.0527 14.4911L39.2676 14.5135ZM39.2764 14.4107L39.3105 14.2966L39.1035 14.2348L39.0695 14.3489L39.2764 14.4107ZM39.3011 14.3188L39.3607 14.2132L39.1726 14.107L39.113 14.2126L39.3011 14.3188ZM39.3503 14.2284L39.4227 14.1396L39.2554 14.0031L39.183 14.0918L39.3503 14.2284ZM39.4067 14.1556L39.4961 14.0837L39.3609 13.9153L39.2714 13.9872L39.4067 14.1556ZM39.4749 14.097L39.5814 14.0463L39.4885 13.8513L39.382 13.902L39.4749 14.097ZM39.5676 14.0518L39.6741 14.018L39.6088 13.8121L39.5023 13.8459L39.5676 14.0518ZM39.6528 14.0224L39.7721 14.0097L39.7493 13.7949L39.63 13.8076L39.6528 14.0224ZM39.7493 14.0097L39.8685 14.0224L39.8914 13.8076L39.7721 13.7949L39.7493 14.0097ZM39.8473 14.018L39.9537 14.0518L40.0191 13.8459L39.9126 13.8121L39.8473 14.018ZM39.94 14.0463L40.0465 14.097L40.1393 13.902L40.0329 13.8513L39.94 14.0463ZM40.0248 14.0833L40.1132 14.1552L40.2494 13.9875L40.161 13.9157L40.0248 14.0833ZM40.0976 14.1396L40.17 14.2284L40.3374 14.0918L40.265 14.0031L40.0976 14.1396ZM40.1596 14.2132L40.2193 14.3188L40.4074 14.2126L40.3477 14.107L40.1596 14.2132ZM40.2098 14.2966L40.2439 14.4107L40.4509 14.3489L40.4168 14.2348L40.2098 14.2966ZM40.24 14.391L40.2527 14.5135L40.4676 14.4911L40.4548 14.3686L40.24 14.391ZM40.2527 14.4911L40.24 14.6137L40.4548 14.6361L40.4676 14.5135L40.2527 14.4911ZM40.2439 14.594L40.2098 14.7081L40.4168 14.7699L40.4509 14.6558L40.2439 14.594ZM40.2193 14.6859L40.1596 14.7915L40.3477 14.8977L40.4074 14.7921L40.2193 14.6859ZM40.1717 14.7743L40.0993 14.8588L40.2633 14.9994L40.3357 14.9149L40.1717 14.7743ZM40.1132 14.8453L40.0248 14.9171L40.161 15.0847L40.2494 15.0129L40.1132 14.8453ZM40.0434 14.905L39.9369 14.9599L40.0359 15.1518L40.1424 15.0969L40.0434 14.905ZM39.9537 14.9529L39.8473 14.9867L39.9126 15.1926L40.0191 15.1588L39.9537 14.9529ZM39.8685 14.9823L39.7493 14.9949L39.7721 15.2097L39.8914 15.1971L39.8685 14.9823ZM39.7721 14.9949L39.6528 14.9823L39.63 15.1971L39.7493 15.2097L39.7721 14.9949ZM39.6741 14.9867L39.5676 14.9529L39.5023 15.1588L39.6088 15.1926L39.6741 14.9867ZM39.5845 14.9599L39.478 14.905L39.379 15.0969L39.4854 15.1518L39.5845 14.9599ZM39.4961 14.9167L39.4067 14.8449L39.2714 15.0133L39.3609 15.0851L39.4961 14.9167ZM39.4211 14.8588L39.3486 14.7743L39.1846 14.9149L39.257 14.9994L39.4211 14.8588ZM39.3607 14.7915L39.3011 14.6859L39.113 14.7921L39.1726 14.8977L39.3607 14.7915ZM39.3105 14.7081L39.2764 14.594L39.0695 14.6558L39.1035 14.7699L39.3105 14.7081ZM39.2804 14.6137L39.2676 14.4911L39.0527 14.5135L39.0655 14.6361L39.2804 14.6137ZM39.6531 14.6257H39.5467V14.8417H39.6531V14.6257ZM39.6547 14.7337V14.2245H39.4387V14.7337H39.6547ZM39.5467 14.3325H39.7809V14.1165H39.5467V14.3325ZM39.7809 14.3325H39.832V14.1165H39.7809V14.3325ZM39.8129 14.3308L39.8597 14.3393L39.898 14.1267L39.8512 14.1182L39.8129 14.3308ZM39.8412 14.3342L39.8753 14.3469L39.9506 14.1444L39.9165 14.1318L39.8412 14.3342ZM39.8597 14.3396L39.8895 14.3565L39.996 14.1686L39.9662 14.1517L39.8597 14.3396ZM39.8601 14.332L39.8814 14.3574L40.0468 14.2184L40.0255 14.1931L39.8601 14.332ZM39.8744 14.3481L39.8915 14.3735L40.0707 14.253L40.0537 14.2277L39.8744 14.3481ZM39.8773 14.3431L39.8858 14.3727L40.0934 14.3129L40.0849 14.2834L39.8773 14.3431ZM39.8816 14.3428V14.3724H40.0976V14.3428H39.8816ZM39.8816 14.3724V14.4104H40.0976V14.3724H39.8816ZM39.8858 14.3806L39.8773 14.4101L40.0849 14.4699L40.0934 14.4403L39.8858 14.3806ZM39.8847 14.3914L39.8719 14.4168L40.0648 14.514L40.0775 14.4886L39.8847 14.3914ZM39.8842 14.3976L39.8672 14.4187L40.0354 14.5543L40.0524 14.5332L39.8842 14.3976ZM39.8841 14.4019L39.8628 14.4188L39.9971 14.588L40.0184 14.5711L39.8841 14.4019ZM39.8961 14.4009L39.8705 14.4093L39.9383 14.6144L39.9639 14.6059L39.8961 14.4009ZM39.875 14.4079L39.8452 14.4164L39.9041 14.6242L39.9339 14.6158L39.875 14.4079ZM39.8746 14.4123H39.8448V14.6283H39.8746V14.4123ZM39.7524 14.5762L39.8802 14.7875L40.065 14.6757L39.9372 14.4644L39.7524 14.5762ZM39.9726 14.6236H39.8874V14.8396H39.9726V14.6236ZM39.9798 14.6757L39.852 14.4644L39.6672 14.5762L39.795 14.7875L39.9798 14.6757ZM39.7596 14.4123H39.6531V14.6283H39.7596V14.4123ZM39.5451 14.5203V14.7316H39.7611V14.5203H39.5451ZM39.7829 14.5846L39.8212 14.5761L39.7747 14.3652L39.7364 14.3736L39.7829 14.5846ZM39.798 14.5787H39.8278V14.3627H39.798V14.5787ZM39.8617 14.5732L39.8872 14.5647L39.8194 14.3597L39.7939 14.3681L39.8617 14.5732ZM39.8932 14.5626L39.9145 14.5541L39.8348 14.3534L39.8135 14.3618L39.8932 14.5626ZM39.9391 14.5404L39.9561 14.5277L39.8272 14.3544L39.8101 14.3671L39.9391 14.5404ZM39.9813 14.5013L39.9898 14.4886L39.8105 14.3682L39.802 14.3808L39.9813 14.5013ZM40.0003 14.4688L40.0089 14.4477L39.8085 14.3669L39.8 14.388L40.0003 14.4688ZM40.0167 14.4073V14.3777H39.8007V14.4073H40.0167ZM40.0167 14.3777V14.3566H39.8007V14.3777H40.0167ZM40.0051 14.308L39.9966 14.2911L39.8037 14.3883L39.8122 14.4052L40.0051 14.308ZM39.9598 14.2496L39.947 14.2411L39.8278 14.4213L39.8406 14.4297L39.9598 14.2496ZM39.947 14.2411L39.9342 14.2327L39.815 14.4128L39.8278 14.4213L39.947 14.2411ZM39.8746 14.2148H39.8533V14.4308H39.8746V14.2148ZM39.8533 14.2148H39.832V14.4308H39.8533V14.2148ZM39.832 14.2148H39.6585V14.4308H39.832V14.2148ZM39.5505 14.3228V14.4907H39.7665V14.3228H39.5505ZM39.6585 14.5987H39.7649V14.3827H39.6585V14.5987ZM39.7742 15.1085L39.8722 15.1001L39.8536 14.8849L39.7557 14.8933L39.7742 15.1085ZM39.8954 15.0955L39.9891 15.0659L39.9241 14.8599L39.8304 14.8895L39.8954 15.0955ZM40.0104 15.0566L40.0913 15.0101L39.9837 14.8228L39.9028 14.8693L40.0104 15.0566ZM40.1083 14.998L40.1765 14.9388L40.0349 14.7757L39.9667 14.8349L40.1083 14.998ZM40.1912 14.9232L40.2466 14.8514L40.0755 14.7195L40.0201 14.7913L40.1912 14.9232ZM40.2564 14.8361L40.299 14.7558L40.1082 14.6545L40.0656 14.7348L40.2564 14.8361ZM40.3078 14.7338L40.3333 14.6408L40.1251 14.5836L40.0995 14.6765L40.3078 14.7338ZM40.3368 14.6209L40.3454 14.5152L40.1301 14.4979L40.1215 14.6035L40.3368 14.6209ZM40.3454 14.4979L40.3368 14.3923L40.1215 14.4096L40.1301 14.5152L40.3454 14.4979ZM40.3333 14.3723L40.3078 14.2793L40.0995 14.3366L40.1251 14.4296L40.3333 14.3723ZM40.3001 14.2594L40.2575 14.1749L40.0646 14.2721L40.1072 14.3566L40.3001 14.2594ZM40.2466 14.1575L40.1912 14.0857L40.0201 14.2176L40.0755 14.2894L40.2466 14.1575ZM40.1765 14.0701L40.1083 14.0109L39.9667 14.174L40.0349 14.2332L40.1765 14.0701ZM40.0875 13.9967L40.0066 13.9545L39.9066 14.146L39.9875 14.1882L40.0875 13.9967ZM39.9891 13.9472L39.8954 13.9177L39.8304 14.1236L39.9241 14.1532L39.9891 13.9472ZM39.8722 13.9131L39.7742 13.9046L39.7557 14.1198L39.8536 14.1283L39.8722 13.9131ZM39.7557 13.9046L39.6577 13.9131L39.6763 14.1283L39.7742 14.1198L39.7557 13.9046ZM39.6345 13.9177L39.5408 13.9472L39.6058 14.1532L39.6995 14.1236L39.6345 13.9177ZM39.5233 13.9545L39.4424 13.9967L39.5424 14.1882L39.6233 14.146L39.5233 13.9545ZM39.4216 14.0109L39.3534 14.0701L39.495 14.2332L39.5632 14.174L39.4216 14.0109ZM39.3387 14.0857L39.2833 14.1575L39.4544 14.2894L39.5098 14.2176L39.3387 14.0857ZM39.2724 14.1749L39.2298 14.2594L39.4227 14.3566L39.4653 14.2721L39.2724 14.1749ZM39.2221 14.2793L39.1966 14.3723L39.4048 14.4296L39.4304 14.3366L39.2221 14.2793ZM39.1931 14.3923L39.1845 14.4979L39.3998 14.5152L39.4084 14.4096L39.1931 14.3923ZM39.1845 14.5152L39.1931 14.6209L39.4084 14.6035L39.3998 14.4979L39.1845 14.5152ZM39.1966 14.6408L39.2221 14.7338L39.4304 14.6765L39.4048 14.5836L39.1966 14.6408ZM39.2309 14.7558L39.2734 14.8361L39.4643 14.7348L39.4217 14.6545L39.2309 14.7558ZM39.2833 14.8514L39.3387 14.9232L39.5098 14.7913L39.4544 14.7195L39.2833 14.8514ZM39.3534 14.9388L39.4216 14.998L39.5632 14.8349L39.495 14.7757L39.3534 14.9388ZM39.4386 15.0101L39.5195 15.0566L39.6271 14.8693L39.5462 14.8228L39.4386 15.0101ZM39.5408 15.0659L39.6345 15.0955L39.6995 14.8895L39.6058 14.8599L39.5408 15.0659ZM39.6577 15.1001L39.7557 15.1085L39.7742 14.8933L39.6763 14.8849L39.6577 15.1001Z" fill="white"/>
<path fill-rule="evenodd" clip-rule="evenodd" d="M32.1059 15.0089H33.248L33.6541 12.7053L33.6704 12.6159L33.6948 12.5266L33.7191 12.4373L33.7516 12.3479L33.7922 12.2586L33.841 12.1733L33.8937 12.0921L33.9587 12.0149L34.0318 11.9459L34.113 11.8809L34.2065 11.82L34.308 11.7712L34.4258 11.7306L34.5557 11.6981L34.6978 11.6738L34.8562 11.6657H34.9578L35.1405 10.625L35.0268 10.6331L34.9171 10.6453L34.8156 10.6656L34.7141 10.694L34.6247 10.7265L34.5395 10.7671L34.4582 10.8118L34.3811 10.8605L34.308 10.9174L34.2389 10.9743L34.174 11.0392L34.109 11.1042L34.0481 11.1732L33.9872 11.2504L33.9262 11.3235L33.8694 11.4047L33.9912 10.6717H32.8531L32.0957 15.0079L32.1059 15.0089Z" fill="white"/>
<path d="M32.1059 15.0089H33.248L33.6541 12.7053V12.7053L33.6704 12.6159L33.6948 12.5266L33.7191 12.4373L33.7516 12.3479L33.7922 12.2586L33.841 12.1733L33.8937 12.0921L33.9587 12.0149L34.0318 11.9459L34.113 11.8809L34.2065 11.82L34.308 11.7712L34.4258 11.7306L34.5557 11.6981L34.6978 11.6738L34.8562 11.6657H34.9578L35.1405 10.625V10.625L35.0268 10.6331L34.9171 10.6453L34.8156 10.6656L34.7141 10.694L34.6247 10.7265L34.5395 10.7671L34.4582 10.8118L34.3811 10.8605L34.308 10.9174L34.2389 10.9743L34.174 11.0392L34.109 11.1042L34.0481 11.1732L33.9872 11.2504L33.9262 11.3235L33.8694 11.4047L33.9912 10.6717H32.8531L32.0957 15.0079V15.0079" stroke="white" stroke-width="0.216"/>
<path fill-rule="evenodd" clip-rule="evenodd" d="M21.3828 15.0079H22.5453L22.9341 12.7043L22.9504 12.6149L22.9707 12.5296L22.991 12.4444L23.0194 12.3631L23.0519 12.2819L23.0925 12.2048L23.1413 12.1317L23.1981 12.0626L23.2631 12.0017L23.3362 11.9408L23.4255 11.8921L23.5271 11.8474L23.6408 11.8108L23.7667 11.7783L23.9037 11.758L24.0621 11.7459H24.0743H24.0905H24.1108H24.1312H24.1515H24.1677H24.1799V11.7296L24.1921 11.6809L24.2083 11.6078L24.2286 11.5184L24.257 11.4169L24.2855 11.3032L24.322 11.1895L24.3586 11.0758L24.3911 10.9986L24.4317 10.9215L24.4723 10.8443L24.5129 10.7753L24.5494 10.7143L24.5779 10.6656L24.5982 10.6372L24.6063 10.625H24.5901H24.5697H24.5413H24.5129H24.4804H24.452H24.4236L24.2977 10.6331L24.1839 10.6453L24.0824 10.6656L23.9809 10.69L23.8875 10.7225L23.8022 10.7631L23.725 10.8037L23.6519 10.8524L23.5829 10.9052L23.5179 10.9661L23.457 11.027L23.3961 11.0961L23.3352 11.1651L23.2783 11.2423L23.2184 11.3235L23.1575 11.4047L23.3027 10.6717H22.1402L21.3828 15.0079Z" fill="white"/>
<path d="M21.3828 15.0079H22.5453L22.9341 12.7043V12.7043L22.9504 12.6149L22.9707 12.5296L22.991 12.4444L23.0194 12.3631L23.0519 12.2819L23.0925 12.2048L23.1413 12.1317L23.1981 12.0626L23.2631 12.0017L23.3362 11.9408L23.4255 11.8921L23.5271 11.8474L23.6408 11.8108L23.7667 11.7783L23.9037 11.758L24.0621 11.7459H24.0743H24.0905H24.1108H24.1312H24.1515H24.1677H24.1799V11.7459V11.7296L24.1921 11.6809L24.2083 11.6078L24.2286 11.5184L24.257 11.4169L24.2855 11.3032L24.322 11.1895L24.3586 11.0758V11.0758L24.3911 10.9986L24.4317 10.9215L24.4723 10.8443L24.5129 10.7753L24.5494 10.7143L24.5779 10.6656L24.5982 10.6372L24.6063 10.625V10.625H24.5901H24.5697H24.5413H24.5129H24.4804H24.452H24.4236L24.2977 10.6331L24.1839 10.6453L24.0824 10.6656L23.9809 10.69L23.8875 10.7225L23.8022 10.7631L23.725 10.8037L23.6519 10.8524L23.5829 10.9052L23.5179 10.9661L23.457 11.027L23.3961 11.0961L23.3352 11.1651L23.2783 11.2423L23.2184 11.3235L23.1575 11.4047L23.3027 10.6717H22.1402L21.3828 15.0079V15.0079" stroke="white" stroke-width="0.216"/>
<path fill-rule="evenodd" clip-rule="evenodd" d="M39.1719 19.2681V19.2519L39.2044 19.1503L39.2612 19.0569L39.3303 18.9757L39.4155 18.9107L39.5171 18.862L39.6186 18.8336L39.7323 18.8214L39.846 18.8336L39.9475 18.862L40.0491 18.9107L40.1344 18.9757L40.2034 19.0569L40.2602 19.1503L40.2927 19.2519V19.2681H40.175L40.1506 19.1828L40.11 19.1057L40.0572 19.0366L39.9922 18.9798L39.9151 18.9351L39.8257 18.9067L39.7323 18.8985L39.6389 18.9067L39.5496 18.9351L39.4724 18.9798L39.4074 19.0366L39.3546 19.1057L39.314 19.1828L39.2896 19.2681H39.1719Z" fill="#FFA11C"/>
<path fill-rule="evenodd" clip-rule="evenodd" d="M39.5333 19.27V19.1278H39.8044L39.849 19.1359L39.8815 19.1441L39.91 19.1603L39.9303 19.1806L39.9465 19.205L39.9546 19.2334V19.27H39.8734V19.2497V19.2293L39.8653 19.2131L39.8531 19.205L39.8409 19.1969H39.8206H39.8003H39.6348V19.2781L39.5333 19.27Z" fill="#FFA11C"/>
<path fill-rule="evenodd" clip-rule="evenodd" d="M39.16 19.3589L39.1722 19.2696H39.2849L39.2768 19.3539L39.16 19.3589Z" fill="#FFA11C"/>
<path fill-rule="evenodd" clip-rule="evenodd" d="M39.5327 19.3589V19.2695H39.6342V19.3507H39.7358L39.7723 19.3426H39.8007L39.8251 19.3345L39.8454 19.3264L39.8617 19.3142L39.8698 19.302L39.8779 19.2817V19.2736H39.9591V19.302L39.951 19.3264L39.9388 19.3467L39.9226 19.3629L39.5327 19.3589Z" fill="#FFA11C"/>
<path fill-rule="evenodd" clip-rule="evenodd" d="M40.1793 19.3578L40.1712 19.2735H40.2889L40.3011 19.3629L40.1793 19.3578Z" fill="#FFA11C"/>
<path fill-rule="evenodd" clip-rule="evenodd" d="M39.1602 19.3597V19.3719L39.1723 19.4896L39.2048 19.5993L39.2617 19.7008L39.3307 19.7861L39.416 19.8551L39.5175 19.9039L39.6191 19.9364L39.7328 19.9485L39.8465 19.9364L39.948 19.9039L40.0495 19.8551L40.1348 19.7861L40.2039 19.7008L40.2607 19.5993L40.2932 19.4896L40.3054 19.3719V19.3597H40.1835V19.3719L40.1754 19.4734L40.1511 19.5627L40.1105 19.6399L40.0577 19.7089L39.9927 19.7658L39.9155 19.8105L39.8262 19.8389L39.7328 19.847L39.6394 19.8389L39.55 19.8105L39.4729 19.7658L39.4079 19.7089L39.3551 19.6399L39.3145 19.5627L39.2901 19.4734L39.282 19.3719V19.3597H39.1602Z" fill="#FFA11C"/>
<path fill-rule="evenodd" clip-rule="evenodd" d="M39.5331 19.3596V19.5942H39.6346V19.3911H39.7362L39.858 19.5942H39.9392L39.8174 19.3911H39.8458L39.8742 19.383L39.8986 19.3749L39.9189 19.3586H39.5341L39.5331 19.3596Z" fill="#FFA11C"/>
</svg>
