<svg width="33" height="30" viewBox="0 0 33 30" fill="none" xmlns="http://www.w3.org/2000/svg">
<g id="Group 34 Copy 12">
<g id="stethoscope (1)">
<path id="Combined Shape" fill-rule="evenodd" clip-rule="evenodd" d="M0.459961 7.00959C0.459961 6.36437 0.983024 5.84131 1.62824 5.84131H3.9648C4.61002 5.84131 5.13308 6.36437 5.13308 7.00959C5.13308 7.65481 4.61002 8.17787 3.9648 8.17787H2.79652V11.6827C2.79652 13.1462 3.4693 14.4526 4.52246 15.3095C4.87891 15.5995 5.13308 16.0136 5.13308 16.4731C5.13308 17.3616 4.24788 17.9729 3.51477 17.471C1.67024 16.2083 0.459961 14.0868 0.459961 11.6827V7.00959ZM6.30137 17.3893C6.30137 16.7913 6.87159 16.3558 7.46965 16.3558C10.0505 16.3558 12.1428 14.2636 12.1428 11.6827V8.17787H10.9745C10.3292 8.17787 9.80621 7.65481 9.80621 7.00959C9.80621 6.36437 10.3292 5.84131 10.9745 5.84131H13.3111C13.9563 5.84131 14.4793 6.36437 14.4793 7.00959V11.6827C14.4793 15.156 11.9532 18.0393 8.63793 18.5954V22.1972C8.63793 24.7781 10.7302 26.8704 13.3111 26.8704C15.5513 26.8704 17.4235 25.2939 17.8786 23.1898C15.9168 22.6352 14.4793 20.8316 14.4793 18.6924C14.4793 16.1115 16.5716 14.0193 19.1525 14.0193C21.7333 14.0193 23.8256 16.1115 23.8256 18.6924C23.8256 20.8974 22.2984 22.7457 20.2441 23.2374C19.7416 26.6154 16.829 29.2069 13.3111 29.2069C9.43971 29.2069 6.30137 26.0686 6.30137 22.1972V17.3893ZM21.489 18.6924C21.489 17.4019 20.4429 16.3558 19.1525 16.3558C17.862 16.3558 16.8159 17.4019 16.8159 18.6924C16.8159 19.9829 17.862 21.029 19.1525 21.029C20.4429 21.029 21.489 19.9829 21.489 18.6924Z" fill="#798595"/>
</g>
<g id="Group 16">
<path id="Path" d="M24.2582 20.4762C24.2582 20.4762 32.9079 16.8204 32.9079 9.50724C32.9079 6.5823 32.9079 2.92494 32.9079 2.92494L24.2582 0L15.6084 2.92494V9.50724C15.6084 16.8204 24.2582 20.4762 24.2582 20.4762Z" fill="white"/>
<path id="Path_2" d="M24.2585 15.3572C24.2585 15.3572 28.5834 13.5293 28.5834 9.87276C28.5834 8.41029 28.5834 6.58161 28.5834 6.58161L24.2585 5.11914L19.9336 6.58161V9.87276C19.9336 13.5293 24.2585 15.3572 24.2585 15.3572Z" fill="#CAD1D9"/>
<path id="Shape" fill-rule="evenodd" clip-rule="evenodd" d="M23.912 18.781C24.0235 18.8274 24.1409 18.8511 24.2584 18.8511C24.3758 18.8511 24.4932 18.8274 24.6035 18.781C24.8918 18.6599 31.6708 15.7243 31.6708 9.68693V4.72229C31.6708 4.34095 31.4276 4.00118 31.0659 3.87882L24.5419 1.67271C24.358 1.60975 24.1575 1.60975 23.9737 1.67271L17.4497 3.87882C17.0879 4.00118 16.8447 4.33976 16.8447 4.72229V9.68693C16.8447 15.7243 23.6226 18.6587 23.912 18.781ZM18.624 9.68693V5.36262L24.2584 3.45708L29.8927 5.36262V9.68693C29.8927 13.8485 25.5323 16.3373 24.2572 16.9765C22.9808 16.3409 18.624 13.8639 18.624 9.68693Z" fill="#798595"/>
</g>
</g>
</svg>
