<svg width="98" height="60" viewBox="0 0 98 60" fill="none" xmlns="http://www.w3.org/2000/svg">
<rect width="97.2076" height="59.5074" transform="translate(0.394531 0.246094)" fill="white" fill-opacity="0.01"/>
<path opacity="0.8" fill-rule="evenodd" clip-rule="evenodd" d="M19.9115 11.3947C20.9111 8.25067 21.8413 6.29317 22.7007 5.52142C25.0806 3.38542 28.3711 4.54792 29.0707 4.71442C31.5283 5.30092 30.7292 1.44142 32.8377 0.656923C34.2429 0.134173 35.3985 0.773173 36.3054 2.57392C37.1082 0.893923 38.3317 0.124423 39.9759 0.261673C42.4424 0.469423 43.3056 8.75767 46.6949 6.94342C50.0849 5.12842 54.2409 4.71367 56.0162 7.41067C56.3999 7.99417 56.5469 7.08892 59.1567 3.99817C61.7665 0.906673 64.3688 -0.455327 69.7076 1.34467C72.1349 2.16217 74.1311 4.37842 75.6984 7.99267C75.6984 13.1512 79.5128 16.2052 87.1402 17.1524C98.5829 18.5737 89.7011 30.8129 75.6984 34.3972C61.6949 37.9822 29.4552 39.9172 11.9599 30.8602C0.296411 24.8234 2.94693 18.3344 19.9107 11.3947H19.9115Z" fill="url(#paint0_linear_1113_152964)"/>
<path d="M48.6018 56.9787C60.2538 56.9787 69.6997 54.8035 69.6997 52.1202C69.6997 49.4369 60.2538 47.2617 48.6018 47.2617C36.9498 47.2617 27.5039 49.4369 27.5039 52.1202C27.5039 54.8035 36.9498 56.9787 48.6018 56.9787Z" fill="url(#paint1_linear_1113_152964)"/>
<path opacity="0.675" fill-rule="evenodd" clip-rule="evenodd" d="M84.2229 58.1817C68.3597 62.1402 14.2132 57.6125 8.45006 55.5447C5.645 54.5375 3.1166 52.6437 0.865612 49.8627C0.613677 49.5518 0.455319 49.1762 0.408839 48.7795C0.36236 48.3828 0.429654 47.9811 0.602947 47.6208C0.77624 47.2606 1.04846 46.9564 1.38814 46.7436C1.72783 46.5307 2.12112 46.4178 2.52257 46.418H97.1408C99.1046 51.6215 94.7986 55.5425 84.2229 58.1817Z" fill="url(#paint2_linear_1113_152964)"/>
<g clip-path="url(#clip0_1113_152964)">
<path opacity="0.25" d="M68.3272 51.9773C68.3272 53.0973 68.2442 54.1758 68.1198 55.2958C63.6316 60.509 57.2977 63.78 50.4487 64.4217H45.5124C31.9894 63.1773 21.4531 51.8113 21.4531 37.998C21.4531 33.6425 22.5316 29.4943 24.3983 25.8439C28.8783 23.3551 34.0635 22.0276 39.5805 22.1936C55.5509 22.6499 68.4102 35.9654 68.3272 51.9773Z" fill="white"/>
<path opacity="0.25" d="M74.5475 38.0005C74.5475 45.5086 71.4364 52.3116 66.4171 57.1234C57.9134 51.8968 52.2305 42.522 52.2305 31.8197C52.2305 24.9753 54.5534 18.6286 58.4942 13.6094C67.9105 17.6331 74.5475 27.0494 74.5475 38.0005Z" fill="white"/>
<path d="M59.6972 58.6148H29.3328C29.0839 58.6148 28.918 58.4489 28.918 58.2C28.918 57.9511 29.0839 57.7852 29.3328 57.7852H59.6972C59.9461 57.7852 60.112 57.9511 60.112 58.2C60.112 58.4489 59.9461 58.6148 59.6972 58.6148ZM66.6661 58.6148H62.5595C62.3106 58.6148 62.1446 58.4489 62.1446 58.2C62.1446 57.9511 62.3106 57.7852 62.5595 57.7852H66.6661C66.915 57.7852 67.0809 57.9511 67.0809 58.2C67.0809 58.4489 66.915 58.6148 66.6661 58.6148Z" fill="#CAD1D9"/>
<path d="M57.9166 25.4307V55.4633C57.9166 56.9566 56.7137 58.1596 55.2203 58.1596H33.7744C32.2811 58.1596 31.0781 56.9566 31.0781 55.4633V25.4307C31.0781 23.9373 32.2811 22.7344 33.7744 22.7344H55.2203C56.7137 22.7344 57.9166 23.9373 57.9166 25.4307Z" fill="#F9FAFC"/>
<path d="M57.9166 25.4307V55.4633C57.9166 56.9566 56.7137 58.1596 55.2203 58.1596H33.7744C32.3641 58.1596 31.2026 57.081 31.0781 55.7122C31.2026 55.7122 31.327 55.7536 31.4515 55.7536H52.8974C54.3907 55.7536 55.5937 54.5507 55.5937 53.0573V22.7344C56.9211 22.9418 57.9166 24.0618 57.9166 25.4307Z" fill="#CAD1D9"/>
<path d="M38.7086 43.8892V46.378C38.7086 46.8758 38.2938 47.2906 37.796 47.2906H35.3071C34.8093 47.2906 34.3945 46.8758 34.3945 46.378V43.8892C34.3945 43.3914 34.8093 42.9766 35.3071 42.9766H37.796C38.2938 42.9766 38.7086 43.3499 38.7086 43.8892Z" fill="#F9FAFC"/>
<path d="M38.7086 51.0688V53.5577C38.7086 54.0555 38.2938 54.4703 37.796 54.4703H35.3071C34.8093 54.4703 34.3945 54.0555 34.3945 53.5577V51.0688C34.3945 50.5711 34.8093 50.1562 35.3071 50.1562H37.796C38.2938 50.1562 38.7086 50.5711 38.7086 51.0688Z" fill="#E2E7EC"/>
<path d="M38.7086 51.0688V53.5577C38.7086 54.0555 38.2938 54.4703 37.796 54.4703H35.3071C34.8093 54.4703 34.436 54.097 34.3945 53.6407H37.0079C37.5056 53.6407 37.9205 53.2259 37.9205 52.7281V50.1562C38.3353 50.2392 38.7086 50.6125 38.7086 51.0688Z" fill="#CAD1D9"/>
<path d="M44.5166 40.5719C39.1655 39.1615 36.5936 34.557 37.3818 28.6252C37.4233 28.2104 37.7966 27.9615 38.2114 28.003C41.364 28.5007 43.2307 27.1319 44.0603 26.2607C44.3507 25.9704 44.807 25.9704 45.0973 26.2607C45.8855 27.1319 47.7107 28.4593 50.8218 27.9615C51.2366 27.92 51.5685 28.1689 51.6514 28.5837C52.4396 34.557 49.8677 39.1615 44.5166 40.5719Z" fill="#E2E7EC"/>
<path d="M39.0407 30.575C38.9993 30.575 38.9993 30.575 39.0407 30.575C38.7919 30.5335 38.5845 30.3676 38.6259 30.1187C38.6259 29.9528 38.6674 29.8283 38.6674 29.6624C38.7089 29.455 38.9163 29.2891 39.1237 29.2891C39.3311 29.3305 39.497 29.538 39.497 29.7454C39.497 29.8698 39.4556 30.0357 39.4556 30.1602C39.4141 30.4091 39.2482 30.575 39.0407 30.575ZM39.1652 33.7691C38.9578 33.7691 38.7919 33.6446 38.7504 33.4372C38.6259 32.898 38.543 32.3172 38.543 31.695C38.543 31.4461 38.7089 31.2802 38.9578 31.2802C39.1652 31.2802 39.3726 31.4461 39.3726 31.695C39.3726 32.2342 39.4556 32.7735 39.58 33.2713C39.6215 33.4787 39.497 33.7276 39.2482 33.7691C39.2067 33.7276 39.2067 33.7691 39.1652 33.7691Z" fill="white"/>
<path d="M44.5172 40.571C43.1898 40.1976 42.0283 39.6584 41.0742 38.9532C41.6135 39.2021 42.1942 39.4095 42.8164 39.5754C48.0016 38.2065 50.5735 33.8095 49.9513 28.1265C50.2416 28.1265 50.4905 28.085 50.7809 28.0436C51.1957 28.0021 51.5276 28.251 51.6105 28.6658C52.4401 34.5561 49.8683 39.1606 44.5172 40.571Z" fill="#CAD1D9"/>
<path d="M43.9345 35.5114C43.6856 35.4699 43.4782 35.3869 43.2708 35.221L41.8189 33.7277C41.4041 33.3129 41.4041 32.6492 41.8189 32.2758C42.2337 31.861 42.8974 31.861 43.2708 32.2758L44.0174 33.064L46.0915 31.1973C46.5063 30.824 47.17 30.8655 47.5434 31.2803C47.9167 31.6951 47.8752 32.3588 47.4604 32.7321L44.6397 35.2625C44.4737 35.4699 44.2249 35.5529 43.9345 35.5114Z" fill="white"/>
<path d="M47.5445 32.7327L44.7237 35.2631C44.5163 35.4705 44.226 35.5535 43.9356 35.512C43.6867 35.512 43.4793 35.3875 43.2719 35.2216L41.82 33.7283C41.4882 33.3964 41.4467 32.8987 41.6541 32.5253C41.6956 32.6083 41.7371 32.6912 41.82 32.7742L43.1475 34.1016C43.3134 34.2675 43.6867 34.5579 43.9356 34.5579C44.226 34.5994 44.4749 34.5164 44.7237 34.309L47.5445 31.7787C47.6275 31.6957 47.7104 31.6127 47.7519 31.4883C48.0008 31.9031 47.9178 32.4424 47.5445 32.7327Z" fill="#E4E3FF"/>
<path d="M38.7086 43.8892V46.378C38.7086 46.8758 38.2938 47.2906 37.796 47.2906H35.3071C34.8093 47.2906 34.3945 46.9173 34.3945 46.4195H36.8419C37.3397 46.4195 37.7545 46.0047 37.7545 45.5069V42.9766H37.796C38.2938 42.9766 38.7086 43.3499 38.7086 43.8892Z" fill="#CAD1D9"/>
<path d="M44.0175 35.9263H43.8931C43.5612 35.8848 43.2294 35.7603 42.9805 35.5114L41.5286 34.0181C41.2382 33.7277 41.1138 33.3959 41.1138 32.9811C41.1138 32.6077 41.2797 32.2344 41.5286 31.944C41.819 31.6952 42.1508 31.5292 42.5242 31.5292C42.8975 31.5292 43.2708 31.6952 43.5612 31.944L44.059 32.4418L45.8427 30.8655C46.1331 30.6166 46.5064 30.4922 46.8797 30.4922C47.2531 30.5337 47.6264 30.6996 47.8753 30.99C48.1242 31.2803 48.2486 31.6537 48.2486 32.027C48.2486 32.4003 48.0412 32.7737 47.7508 33.0226L44.9301 35.5529C44.7227 35.8018 44.3908 35.9263 44.0175 35.9263ZM42.5656 32.3589C42.3997 32.3589 42.2338 32.4418 42.1508 32.5248C42.0264 32.6492 41.9849 32.8152 41.9849 32.9811C41.9849 33.147 42.0264 33.3129 42.1508 33.4374L43.6027 34.9307C43.6856 35.0551 43.8516 35.0966 43.976 35.0966C44.1419 35.0966 44.3079 35.0551 44.4323 34.9307L47.2531 32.4003C47.5019 32.1929 47.5434 31.7781 47.2945 31.5292C47.1701 31.4048 47.0456 31.3218 46.8797 31.3218C46.7138 31.3218 46.5479 31.3633 46.4234 31.4877L44.3494 33.3544C44.1834 33.5203 43.9345 33.4789 43.7686 33.3129L43.0219 32.5248C42.8975 32.4418 42.7316 32.3589 42.5656 32.3589ZM37.7538 47.707H35.2649C34.5182 47.707 33.9375 47.1263 33.9375 46.3796V43.8907C33.9375 43.144 34.5182 42.5633 35.2649 42.5633H37.7538C38.5005 42.5633 39.0812 43.144 39.0812 43.8907V46.3796C39.1227 47.1263 38.5005 47.707 37.7538 47.707ZM35.2649 43.3929C34.9745 43.3929 34.7671 43.6003 34.7671 43.8907V46.3796C34.7671 46.67 34.9745 46.8774 35.2649 46.8774H37.7538C38.0442 46.8774 38.2516 46.67 38.2516 46.3796V43.8907C38.2516 43.6003 38.0442 43.3929 37.7538 43.3929H35.2649ZM52.0649 44.8448H42.1923C41.9434 44.8448 41.7775 44.6789 41.7775 44.43C41.7775 44.1811 41.9434 44.0152 42.1923 44.0152H52.0649C52.3138 44.0152 52.4797 44.1811 52.4797 44.43C52.4797 44.6789 52.2723 44.8448 52.0649 44.8448ZM48.2901 46.7529H42.1923C41.9434 46.7529 41.7775 46.587 41.7775 46.3381C41.7775 46.0892 41.9434 45.9233 42.1923 45.9233H48.3316C48.5805 45.9233 48.7464 46.0892 48.7464 46.3381C48.7464 46.587 48.539 46.7529 48.2901 46.7529Z" fill="#E2E7EC"/>
</g>
<defs>
<linearGradient id="paint0_linear_1113_152964" x1="50.6615" y1="27.9586" x2="50.6615" y2="-6.30402" gradientUnits="userSpaceOnUse">
<stop stop-color="#DEDEDE" stop-opacity="0"/>
<stop offset="1" stop-color="#A9A9A9" stop-opacity="0.3"/>
</linearGradient>
<linearGradient id="paint1_linear_1113_152964" x1="46.4034" y1="56.9787" x2="46.4034" y2="47.2617" gradientUnits="userSpaceOnUse">
<stop stop-color="white" stop-opacity="0"/>
<stop offset="1" stop-color="#96A1C5" stop-opacity="0.373"/>
</linearGradient>
<linearGradient id="paint2_linear_1113_152964" x1="48.9983" y1="59.7518" x2="48.9983" y2="43.7945" gradientUnits="userSpaceOnUse">
<stop stop-color="white" stop-opacity="0"/>
<stop offset="1" stop-color="#919191" stop-opacity="0.15"/>
</linearGradient>
<clipPath id="clip0_1113_152964">
<rect width="56" height="49" fill="white" transform="translate(20 10)"/>
</clipPath>
</defs>
</svg>
