<svg viewBox="0 0 99 60" fill="none" xmlns="http://www.w3.org/2000/svg">
<rect width="97.2076" height="59.5074" transform="translate(0.895996 0.246094)" fill="white" fill-opacity="0.01"/>
<path opacity="0.8" fill-rule="evenodd" clip-rule="evenodd" d="M20.4139 11.3947C21.4135 8.25067 22.3438 6.29317 23.2032 5.52142C25.5831 3.38542 28.8736 4.54792 29.5732 4.71442C32.0307 5.30092 31.2316 1.44142 33.3401 0.656923C34.7453 0.134173 35.9009 0.773173 36.8078 2.57392C37.6107 0.893923 38.8342 0.124423 40.4783 0.261673C42.9449 0.469423 43.808 8.75767 47.1973 6.94342C50.5874 5.12842 54.7433 4.71367 56.5186 7.41067C56.9023 7.99417 57.0493 7.08892 59.6592 3.99817C62.269 0.906673 64.8713 -0.455327 70.21 1.34467C72.6374 2.16217 74.6336 4.37842 76.2008 7.99267C76.2008 13.1512 80.0153 16.2052 87.6427 17.1524C99.0853 18.5737 90.2035 30.8129 76.2008 34.3972C62.1974 37.9822 29.9576 39.9172 12.4624 30.8602C0.798852 24.8234 3.44937 18.3344 20.4132 11.3947H20.4139Z" fill="url(#paint0_linear_2760_26571)"/>
<path d="M49.1052 56.9797C60.7573 56.9797 70.2031 54.8045 70.2031 52.1212C70.2031 49.4379 60.7573 47.2627 49.1052 47.2627C37.4532 47.2627 28.0073 49.4379 28.0073 52.1212C28.0073 54.8045 37.4532 56.9797 49.1052 56.9797Z" fill="url(#paint1_linear_2760_26571)"/>
<path opacity="0.675" fill-rule="evenodd" clip-rule="evenodd" d="M84.7244 58.1837C68.8612 62.1422 14.7147 57.6144 8.95152 55.5467C6.14646 54.5394 3.61806 52.6457 1.36708 49.8647C1.11514 49.5537 0.956784 49.1782 0.910304 48.7815C0.863824 48.3848 0.931119 47.9831 1.10441 47.6228C1.2777 47.2625 1.54992 46.9584 1.88961 46.7455C2.22929 46.5327 2.62258 46.4198 3.02403 46.4199H97.6423C99.606 51.6234 95.3001 55.5444 84.7244 58.1837Z" fill="url(#paint2_linear_2760_26571)"/>
<path d="M65.295 39.1005L58.0799 30.7065C57.9093 30.5063 57.6972 30.345 57.4582 30.2337C57.2193 30.1224 56.959 30.0636 56.6951 30.0615H41.1809C40.6487 30.0615 40.1429 30.3045 39.7961 30.7065L32.5811 39.1005V43.7085H65.295V39.1005Z" fill="url(#paint3_linear_2760_26571)"/>
<path d="M63.2505 43.8782L56.9356 36.5672C56.7829 36.3946 56.5947 36.2567 56.3837 36.1629C56.1727 36.0691 55.9439 36.0215 55.7128 36.0235H42.1632C41.6981 36.0235 41.2435 36.2155 40.9405 36.5672L34.6255 43.8782V47.8937H63.2505V43.8782Z" fill="url(#paint4_linear_2760_26571)"/>
<path d="M65.295 48.9889C65.295 49.6286 65.0055 50.2039 64.5486 50.5894L64.4559 50.6644C64.0937 50.9375 63.6515 51.0851 63.197 51.0844H34.6798C34.4219 51.0844 34.1754 51.0379 33.9478 50.9524L33.8347 50.9074C33.4616 50.7423 33.1447 50.4731 32.9222 50.1325C32.6997 49.7919 32.5812 49.3944 32.5811 48.9881V39.1504H40.5183C41.395 39.1504 42.1014 39.8681 42.1014 40.7389V40.7501C42.1014 41.6216 42.816 42.3244 43.6927 42.3244H54.1833C54.6047 42.324 55.0088 42.1575 55.307 41.8613C55.6053 41.5651 55.7734 41.1634 55.7746 40.7441C55.7746 39.8696 56.4817 39.1504 57.3577 39.1504H65.2957L65.295 48.9889Z" fill="url(#paint5_linear_2760_26571)"/>
<defs>
<linearGradient id="paint0_linear_2760_26571" x1="51.1639" y1="27.9586" x2="51.1639" y2="-6.30402" gradientUnits="userSpaceOnUse">
<stop stop-color="#DEDEDE" stop-opacity="0"/>
<stop offset="1" stop-color="#A9A9A9" stop-opacity="0.3"/>
</linearGradient>
<linearGradient id="paint1_linear_2760_26571" x1="46.9068" y1="56.9797" x2="46.9068" y2="47.2627" gradientUnits="userSpaceOnUse">
<stop stop-color="white" stop-opacity="0"/>
<stop offset="1" stop-color="#96A1C5" stop-opacity="0.373"/>
</linearGradient>
<linearGradient id="paint2_linear_2760_26571" x1="49.4998" y1="59.7537" x2="49.4998" y2="43.7965" gradientUnits="userSpaceOnUse">
<stop stop-color="white" stop-opacity="0"/>
<stop offset="1" stop-color="#919191" stop-opacity="0.15"/>
</linearGradient>
<linearGradient id="paint3_linear_2760_26571" x1="48.938" y1="30.0615" x2="48.938" y2="36.1959" gradientUnits="userSpaceOnUse">
<stop stop-color="#52B9EB"/>
<stop offset="1" stop-color="#149ADE"/>
</linearGradient>
<linearGradient id="paint4_linear_2760_26571" x1="52.758" y1="47.8937" x2="52.758" y2="35.3924" gradientUnits="userSpaceOnUse">
<stop stop-color="#CFEBF8"/>
<stop offset="1" stop-color="#EFFAFF"/>
</linearGradient>
<linearGradient id="paint5_linear_2760_26571" x1="48.9384" y1="39.1504" x2="48.9384" y2="51.0844" gradientUnits="userSpaceOnUse">
<stop stop-color="#7BCFF9"/>
<stop offset="1" stop-color="#BAE8FF"/>
</linearGradient>
</defs>
</svg>
