<svg width="148" height="91" viewBox="0 0 148 91" fill="none" xmlns="http://www.w3.org/2000/svg">
<rect width="146.218" height="89.51" transform="translate(0.890625 0.744995)" fill="white" fill-opacity="0.01"/>
<path opacity="0.8" fill-rule="evenodd" clip-rule="evenodd" d="M30.2487 17.5145C31.7523 12.7853 33.1515 9.84091 34.4442 8.68006C38.024 5.46712 42.9736 7.21573 44.0258 7.46618C47.7224 8.34838 46.5205 2.54299 49.6921 1.36296C51.8057 0.576646 53.544 1.53782 54.9081 4.24648C56.1157 1.71945 57.9561 0.56198 60.4292 0.76843C64.1394 1.08092 65.4377 13.548 70.5358 10.819C75.6351 8.08891 81.8864 7.46505 84.5568 11.5218C85.1339 12.3995 85.3551 11.0379 89.2807 6.38881C93.2063 1.73863 97.1207 -0.31007 105.151 2.39746C108.802 3.62713 111.805 6.96078 114.162 12.3973C114.162 20.1566 119.9 24.7504 131.373 26.1752C148.585 28.313 135.225 46.7231 114.162 52.1145C93.0986 57.507 44.6041 60.4176 18.2881 46.7942C0.744 37.7138 4.73087 27.9532 30.2475 17.5145H30.2487Z" fill="url(#paint0_linear_1_85682)"/>
<path d="M73.407 86.0827C90.9338 86.0827 105.142 82.8108 105.142 78.7747C105.142 74.7385 90.9338 71.4666 73.407 71.4666C55.8802 71.4666 41.6719 74.7385 41.6719 78.7747C41.6719 82.8108 55.8802 86.0827 73.407 86.0827Z" fill="url(#paint1_linear_1_85682)"/>
<path opacity="0.675" fill-rule="evenodd" clip-rule="evenodd" d="M126.984 87.8933C103.123 93.8477 21.6765 87.0371 13.0076 83.9268C8.78829 82.4117 4.98511 79.5632 1.59922 75.38C1.22026 74.9123 0.982061 74.3474 0.912147 73.7507C0.842233 73.154 0.943456 72.5498 1.20412 72.0078C1.46478 71.4659 1.87425 71.0085 2.3852 70.6883C2.89615 70.3681 3.48773 70.1983 4.09158 70.1985H146.415C149.369 78.0255 142.892 83.9234 126.984 87.8933Z" fill="url(#paint2_linear_1_85682)"/>
<g clip-path="url(#clip0_1_85682)">
<path opacity="0.25" d="M103.07 78.5611C103.07 80.2458 102.945 81.8681 102.758 83.5528C96.0066 91.3944 86.4794 96.3145 76.1771 97.2798H68.752C48.411 95.408 32.5625 78.3115 32.5625 57.5338C32.5625 50.9822 34.1848 44.7426 36.9926 39.2518C43.7313 35.5081 51.5308 33.5114 59.8294 33.761C83.8518 34.4473 103.194 54.4764 103.07 78.5611Z" fill="white"/>
<path opacity="0.25" d="M112.428 57.5345C112.428 68.8282 107.749 79.0611 100.199 86.299C87.4076 78.4371 78.8594 64.3357 78.8594 48.2376C78.8594 37.9423 82.3535 28.3957 88.2811 20.8458C102.445 26.8982 112.428 41.062 112.428 57.5345Z" fill="white"/>
<path d="M90.0906 88.5451H44.4169C44.0426 88.5451 43.793 88.2955 43.793 87.9211C43.793 87.5467 44.0426 87.2971 44.4169 87.2971H90.0906C90.465 87.2971 90.7146 87.5467 90.7146 87.9211C90.7146 88.2955 90.465 88.5451 90.0906 88.5451ZM100.573 88.5451H94.3959C94.0215 88.5451 93.772 88.2955 93.772 87.9211C93.772 87.5467 94.0215 87.2971 94.3959 87.2971H100.573C100.947 87.2971 101.197 87.5467 101.197 87.9211C101.197 88.2955 100.947 88.5451 100.573 88.5451Z" fill="#CAD1D9"/>
<path d="M87.4091 38.6272V83.8017C87.4091 86.048 85.5996 87.8575 83.3534 87.8575H51.0948C48.8485 87.8575 47.0391 86.048 47.0391 83.8017V38.6272C47.0391 36.381 48.8485 34.5715 51.0948 34.5715H83.3534C85.5996 34.5715 87.4091 36.381 87.4091 38.6272Z" fill="#F9FAFC"/>
<path d="M87.4091 38.6272V83.8017C87.4091 86.048 85.5996 87.8575 83.3534 87.8575H51.0948C48.9733 87.8575 47.2262 86.2352 47.0391 84.1761C47.2262 84.1761 47.4134 84.2385 47.6006 84.2385H79.8592C82.1055 84.2385 83.915 82.429 83.915 80.1828V34.5715C85.9116 34.8835 87.4091 36.5682 87.4091 38.6272Z" fill="#CAD1D9"/>
<path d="M58.5204 66.3951V70.1389C58.5204 70.8876 57.8965 71.5116 57.1477 71.5116H53.404C52.6552 71.5116 52.0312 70.8876 52.0312 70.1389V66.3951C52.0312 65.6464 52.6552 65.0224 53.404 65.0224H57.1477C57.8965 65.0224 58.5204 65.584 58.5204 66.3951Z" fill="#F9FAFC"/>
<path d="M58.5204 77.1891V80.9329C58.5204 81.6816 57.8965 82.3056 57.1477 82.3056H53.404C52.6552 82.3056 52.0312 81.6816 52.0312 80.9329V77.1891C52.0312 76.4404 52.6552 75.8164 53.404 75.8164H57.1477C57.8965 75.8164 58.5204 76.4404 58.5204 77.1891Z" fill="#E2E7EC"/>
<path d="M58.5204 77.1891V80.9329C58.5204 81.6816 57.8965 82.3056 57.1477 82.3056H53.404C52.6552 82.3056 52.0936 81.744 52.0312 81.0576H55.9622C56.7109 81.0576 57.3349 80.4337 57.3349 79.6849V75.8164C57.9588 75.9412 58.5204 76.5028 58.5204 77.1891Z" fill="#CAD1D9"/>
<path d="M67.2546 61.4023C59.2055 59.2809 55.337 52.355 56.5225 43.4324C56.5849 42.8084 57.1465 42.434 57.7704 42.4964C62.5125 43.2452 65.3203 41.1861 66.5682 39.8758C67.005 39.439 67.6913 39.439 68.1281 39.8758C69.3136 41.1861 72.059 43.1828 76.7387 42.434C77.3627 42.3716 77.8618 42.746 77.9866 43.37C79.1722 52.355 75.3036 59.2809 67.2546 61.4023Z" fill="#E2E7EC"/>
<path d="M59.0183 46.3652C58.9559 46.3652 58.9559 46.3652 59.0183 46.3652C58.6439 46.3028 58.3319 46.0532 58.3943 45.6789C58.3943 45.4293 58.4567 45.2421 58.4567 44.9925C58.5191 44.6805 58.8311 44.431 59.1431 44.431C59.455 44.4933 59.7046 44.8053 59.7046 45.1173C59.7046 45.3045 59.6422 45.5541 59.6422 45.7413C59.5798 46.1156 59.3303 46.3652 59.0183 46.3652ZM59.2055 51.1697C58.8935 51.1697 58.6439 50.9825 58.5815 50.6705C58.3943 49.8594 58.2695 48.9858 58.2695 48.0499C58.2695 47.6755 58.5191 47.4259 58.8935 47.4259C59.2055 47.4259 59.5174 47.6755 59.5174 48.0499C59.5174 48.8611 59.6422 49.6722 59.8294 50.4209C59.8918 50.7329 59.7046 51.1073 59.3303 51.1697C59.2679 51.1073 59.2679 51.1697 59.2055 51.1697Z" fill="white"/>
<path d="M67.257 61.4039C65.2603 60.8424 63.5132 60.0312 62.0781 58.9705C62.8893 59.3449 63.7628 59.6569 64.6987 59.9064C72.4982 57.8474 76.3668 51.2334 75.4308 42.6852C75.8676 42.6852 76.242 42.6228 76.6787 42.5604C77.3027 42.498 77.8019 42.8724 77.9266 43.4964C79.1746 52.3566 75.306 59.2825 67.257 61.4039Z" fill="#CAD1D9"/>
<path d="M66.3806 53.7905C66.0062 53.7281 65.6943 53.6033 65.3823 53.3537L63.1984 51.1075C62.5745 50.4835 62.5745 49.4852 63.1984 48.9236C63.8224 48.2997 64.8207 48.2997 65.3823 48.9236L66.5054 50.1091L69.6252 47.3013C70.2492 46.7398 71.2475 46.8022 71.8091 47.4261C72.3706 48.0501 72.3082 49.0484 71.6843 49.61L67.4413 53.4161C67.1918 53.7281 66.8174 53.8529 66.3806 53.7905Z" fill="white"/>
<path d="M71.8087 49.6109L67.5658 53.417C67.2538 53.729 66.817 53.8538 66.3803 53.7914C66.0059 53.7914 65.6939 53.6042 65.3819 53.3546L63.1981 51.1084C62.6989 50.6092 62.6365 49.8604 62.9485 49.2989C63.0109 49.4237 63.0733 49.5485 63.1981 49.6733L65.1948 51.6699C65.4443 51.9195 66.0059 52.3563 66.3803 52.3563C66.817 52.4187 67.1914 52.2939 67.5658 51.9819L71.8087 48.1758C71.9335 48.051 72.0583 47.9262 72.1207 47.739C72.4951 48.3629 72.3703 49.1741 71.8087 49.6109Z" fill="#E4E3FF"/>
<path d="M49.0875 49.3078V51.7967C49.0875 52.2944 48.6727 52.7092 48.1749 52.7092H45.686C45.1883 52.7092 44.7734 52.3359 44.7734 51.8381H47.2208C47.7186 51.8381 48.1334 51.4233 48.1334 50.9255V48.3952H48.1749C48.6727 48.3952 49.0875 48.7685 49.0875 49.3078Z" fill="#CAD1D9"/>
<path d="M54.3964 41.3429H54.272C53.9401 41.3014 53.6083 41.177 53.3594 40.9281L51.9075 39.4348C51.6171 39.1444 51.4927 38.8125 51.4927 38.3977C51.4927 38.0244 51.6586 37.6511 51.9075 37.3607C52.1979 37.1118 52.5297 36.9459 52.9031 36.9459C53.2764 36.9459 53.6497 37.1118 53.9401 37.3607L54.4379 37.8585L56.2216 36.2822C56.512 36.0333 56.8853 35.9088 57.2586 35.9088C57.632 35.9503 58.0053 36.1163 58.2542 36.4066C58.5031 36.697 58.6275 37.0703 58.6275 37.4437C58.6275 37.817 58.4201 38.1903 58.1297 38.4392L55.309 40.9696C55.1016 41.2185 54.7697 41.3429 54.3964 41.3429ZM52.9446 37.7755C52.7786 37.7755 52.6127 37.8585 52.5297 37.9414C52.4053 38.0659 52.3638 38.2318 52.3638 38.3977C52.3638 38.5637 52.4053 38.7296 52.5297 38.854L53.9816 40.3474C54.0646 40.4718 54.2305 40.5133 54.3549 40.5133C54.5209 40.5133 54.6868 40.4718 54.8112 40.3474L57.632 37.817C57.8808 37.6096 57.9223 37.1948 57.6734 36.9459C57.549 36.8214 57.4246 36.7385 57.2586 36.7385C57.0927 36.7385 56.9268 36.78 56.8023 36.9044L54.7283 38.7711C54.5623 38.937 54.3134 38.8955 54.1475 38.7296L53.4009 37.9414C53.2764 37.8585 53.1105 37.7755 52.9446 37.7755ZM48.1327 53.1237H45.6438C44.8971 53.1237 44.3164 52.5429 44.3164 51.7963V49.3074C44.3164 48.5607 44.8971 47.98 45.6438 47.98H48.1327C48.8794 47.98 49.4601 48.5607 49.4601 49.3074V51.7963C49.5016 52.5429 48.8794 53.1237 48.1327 53.1237ZM45.6438 48.8096C45.3534 48.8096 45.146 49.017 45.146 49.3074V51.7963C45.146 52.0866 45.3534 52.294 45.6438 52.294H48.1327C48.4231 52.294 48.6305 52.0866 48.6305 51.7963V49.3074C48.6305 49.017 48.4231 48.8096 48.1327 48.8096H45.6438ZM62.4438 50.2614H52.5712C52.3223 50.2614 52.1564 50.0955 52.1564 49.8466C52.1564 49.5977 52.3223 49.4318 52.5712 49.4318H62.4438C62.6927 49.4318 62.8586 49.5977 62.8586 49.8466C62.8586 50.0955 62.6512 50.2614 62.4438 50.2614ZM58.669 52.1696H52.5712C52.3223 52.1696 52.1564 52.0037 52.1564 51.7548C52.1564 51.5059 52.3223 51.34 52.5712 51.34H58.7105C58.9594 51.34 59.1253 51.5059 59.1253 51.7548C59.1253 52.0037 58.9179 52.1696 58.669 52.1696Z" fill="#E2E7EC"/>
</g>
<defs>
<linearGradient id="paint0_linear_1_85682" x1="76.5023" y1="42.4297" x2="76.5023" y2="-9.10757" gradientUnits="userSpaceOnUse">
<stop stop-color="#DEDEDE" stop-opacity="0"/>
<stop offset="1" stop-color="#A9A9A9" stop-opacity="0.3"/>
</linearGradient>
<linearGradient id="paint1_linear_1_85682" x1="70.1002" y1="86.0827" x2="70.1002" y2="71.4666" gradientUnits="userSpaceOnUse">
<stop stop-color="white" stop-opacity="0"/>
<stop offset="1" stop-color="#96A1C5" stop-opacity="0.373"/>
</linearGradient>
<linearGradient id="paint2_linear_1_85682" x1="73.9997" y1="90.255" x2="73.9997" y2="66.2524" gradientUnits="userSpaceOnUse">
<stop stop-color="white" stop-opacity="0"/>
<stop offset="1" stop-color="#919191" stop-opacity="0.15"/>
</linearGradient>
<clipPath id="clip0_1_85682">
<rect width="84.2343" height="73.705" fill="white" transform="translate(30.3789 15.4167)"/>
</clipPath>
</defs>
</svg>
