<svg width="98" height="60" viewBox="0 0 98 60" fill="none" xmlns="http://www.w3.org/2000/svg">
<rect width="97.2076" height="59.5074" transform="translate(0.39621 0.246094)" fill="white" fill-opacity="0.01"/>
<path opacity="0.8" fill-rule="evenodd" clip-rule="evenodd" d="M19.914 11.3947C20.9136 8.25067 21.8438 6.29317 22.7032 5.52142C25.0831 3.38542 28.3736 4.54792 29.0732 4.71442C31.5307 5.30092 30.7317 1.44142 32.8402 0.656923C34.2453 0.134173 35.401 0.773173 36.3079 2.57392C37.1107 0.893923 38.3342 0.124423 39.9783 0.261673C42.4449 0.469423 43.3081 8.75767 46.6974 6.94342C50.0874 5.12842 54.2434 4.71367 56.0187 7.41067C56.4024 7.99417 56.5494 7.08892 59.1592 3.99817C61.769 0.906673 64.3713 -0.455327 69.71 1.34467C72.1374 2.16217 74.1336 4.37842 75.7008 7.99267C75.7008 13.1512 79.5153 16.2052 87.1427 17.1524C98.5854 18.5737 89.7035 30.8129 75.7008 34.3972C61.6974 37.9822 29.4577 39.9172 11.9624 30.8602C0.298882 24.8234 2.9494 18.3344 19.9132 11.3947H19.914Z" fill="url(#paint0_linear_990_3318)"/>
<path d="M48.6054 56.9797C60.2574 56.9797 69.7032 54.8045 69.7032 52.1212C69.7032 49.4379 60.2574 47.2627 48.6054 47.2627C36.9533 47.2627 27.5075 49.4379 27.5075 52.1212C27.5075 54.8045 36.9533 56.9797 48.6054 56.9797Z" fill="url(#paint1_linear_990_3318)"/>
<path opacity="0.675" fill-rule="evenodd" clip-rule="evenodd" d="M84.2246 58.1832C68.3614 62.1417 14.2149 57.6139 8.45174 55.5462C5.64668 54.5389 3.11828 52.6452 0.86729 49.8642C0.615355 49.5532 0.456998 49.1777 0.410518 48.781C0.364038 48.3843 0.431333 47.9826 0.604625 47.6223C0.777918 47.262 1.05014 46.9579 1.38982 46.745C1.72951 46.5322 2.1228 46.4193 2.52424 46.4194H97.1425C99.1063 51.6229 94.8003 55.5439 84.2246 58.1832Z" fill="url(#paint2_linear_990_3318)"/>
<path d="M64.795 39.1005L57.5799 30.7065C57.4093 30.5063 57.1972 30.345 56.9582 30.2337C56.7193 30.1224 56.459 30.0636 56.1951 30.0615H40.6809C40.1487 30.0615 39.6429 30.3045 39.2961 30.7065L32.0811 39.1005V43.7085H64.795V39.1005Z" fill="url(#paint3_linear_990_3318)"/>
<path d="M62.7505 43.8782L56.4356 36.5672C56.2829 36.3946 56.0947 36.2567 55.8837 36.1629C55.6727 36.0691 55.4439 36.0215 55.2128 36.0235H41.6632C41.1981 36.0235 40.7435 36.2155 40.4405 36.5672L34.1255 43.8782V47.8937H62.7505V43.8782Z" fill="url(#paint4_linear_990_3318)"/>
<path d="M64.795 48.9894C64.795 49.6291 64.5055 50.2044 64.0486 50.5899L63.9559 50.6649C63.5937 50.938 63.1515 51.0855 62.697 51.0849H34.1798C33.9219 51.0849 33.6754 51.0384 33.4478 50.9529L33.3347 50.9079C32.9616 50.7427 32.6447 50.4736 32.4222 50.133C32.1997 49.7923 32.0812 49.3949 32.0811 48.9886V39.1509H40.0183C40.895 39.1509 41.6014 39.8686 41.6014 40.7394V40.7506C41.6014 41.6221 42.316 42.3249 43.1927 42.3249H53.6833C54.1047 42.3245 54.5088 42.158 54.807 41.8618C55.1053 41.5656 55.2734 41.1639 55.2746 40.7446C55.2746 39.8701 55.9817 39.1509 56.8577 39.1509H64.7957L64.795 48.9894Z" fill="url(#paint5_linear_990_3318)"/>
<defs>
<linearGradient id="paint0_linear_990_3318" x1="50.664" y1="27.9586" x2="50.664" y2="-6.30402" gradientUnits="userSpaceOnUse">
<stop stop-color="#DEDEDE" stop-opacity="0"/>
<stop offset="1" stop-color="#A9A9A9" stop-opacity="0.3"/>
</linearGradient>
<linearGradient id="paint1_linear_990_3318" x1="46.407" y1="56.9797" x2="46.407" y2="47.2627" gradientUnits="userSpaceOnUse">
<stop stop-color="white" stop-opacity="0"/>
<stop offset="1" stop-color="#96A1C5" stop-opacity="0.373"/>
</linearGradient>
<linearGradient id="paint2_linear_990_3318" x1="49" y1="59.7532" x2="49" y2="43.796" gradientUnits="userSpaceOnUse">
<stop stop-color="white" stop-opacity="0"/>
<stop offset="1" stop-color="#919191" stop-opacity="0.15"/>
</linearGradient>
<linearGradient id="paint3_linear_990_3318" x1="48.438" y1="30.0615" x2="48.438" y2="36.1959" gradientUnits="userSpaceOnUse">
<stop stop-color="#52B9EB"/>
<stop offset="1" stop-color="#149ADE"/>
</linearGradient>
<linearGradient id="paint4_linear_990_3318" x1="52.258" y1="47.8937" x2="52.258" y2="35.3924" gradientUnits="userSpaceOnUse">
<stop stop-color="#CFEBF8"/>
<stop offset="1" stop-color="#EFFAFF"/>
</linearGradient>
<linearGradient id="paint5_linear_990_3318" x1="48.4384" y1="39.1509" x2="48.4384" y2="51.0849" gradientUnits="userSpaceOnUse">
<stop stop-color="#7BCFF9"/>
<stop offset="1" stop-color="#BAE8FF"/>
</linearGradient>
</defs>
</svg>
