<svg width="20" height="20" viewBox="0 0 20 20" fill="none" xmlns="http://www.w3.org/2000/svg">
<path d="M16.1162 12.0743L15.2828 10.6909C15.1078 10.3826 14.9495 9.79928 14.9495 9.45761V7.3493C14.9495 4.63266 12.7412 2.41602 10.0162 2.41602C7.29126 2.41602 5.08295 4.63266 5.08295 7.3493V9.45761C5.08295 9.79928 4.92461 10.3826 4.74962 10.6826L3.90796 12.0743C3.57463 12.6326 3.49963 13.2492 3.70796 13.8159C3.90796 14.3742 4.38295 14.8076 4.99961 15.0159C6.61626 15.5659 8.31625 15.8325 10.0162 15.8325C11.7162 15.8325 13.4162 15.5659 15.0328 15.0242C15.6162 14.8326 16.0662 14.3909 16.2828 13.8159C16.4995 13.2409 16.4412 12.6076 16.1162 12.0743Z" fill="#EF8F4C"/>
<path d="M11.8743 2.766C11.2993 2.54101 10.6743 2.41601 10.016 2.41601C9.366 2.41601 8.74101 2.53267 8.16602 2.766C8.52435 2.09101 9.23267 1.66602 10.016 1.66602C10.8077 1.66602 11.5076 2.09101 11.8743 2.766Z" fill="#F9D2B7"/>
<path d="M12.3587 16.6743C12.0087 17.641 11.0837 18.3327 10.0004 18.3327C9.34204 18.3327 8.69205 18.066 8.23372 17.591C7.96705 17.341 7.76706 17.0077 7.65039 16.666C7.75872 16.6827 7.86705 16.691 7.98372 16.7077C8.17539 16.7327 8.37538 16.7577 8.57538 16.7743C9.05038 16.816 9.53371 16.841 10.017 16.841C10.492 16.841 10.967 16.816 11.4337 16.7743C11.6087 16.7577 11.7837 16.7493 11.9503 16.7243C12.0837 16.7077 12.217 16.691 12.3587 16.6743Z" fill="#F9D2B7"/>
</svg>
