<svg width="48" height="48" viewBox="0 0 48 48" fill="none" xmlns="http://www.w3.org/2000/svg">
<g clip-path="url(#clip0_1_108895)">
<path d="M24 34V42" stroke="#109BDE" stroke-width="2" stroke-linecap="round" stroke-linejoin="round"/>
<path d="M20 40L28 36" stroke="#109BDE" stroke-width="2" stroke-linecap="round" stroke-linejoin="round"/>
<path d="M20 36L28 40" stroke="#109BDE" stroke-width="2" stroke-linecap="round" stroke-linejoin="round"/>
<path d="M10 34V42" stroke="#109BDE" stroke-width="2" stroke-linecap="round" stroke-linejoin="round"/>
<path d="M6 40L14 36" stroke="#109BDE" stroke-width="2" stroke-linecap="round" stroke-linejoin="round"/>
<path d="M6 36L14 40" stroke="#109BDE" stroke-width="2" stroke-linecap="round" stroke-linejoin="round"/>
<path d="M38 34V42" stroke="#109BDE" stroke-width="2" stroke-linecap="round" stroke-linejoin="round"/>
<path d="M34 40L42 36" stroke="#109BDE" stroke-width="2" stroke-linecap="round" stroke-linejoin="round"/>
<path d="M34 36L42 40" stroke="#109BDE" stroke-width="2" stroke-linecap="round" stroke-linejoin="round"/>
<path d="M14 28V12C14 10.9391 14.4214 9.92172 15.1716 9.17157C15.9217 8.42143 16.9391 8 18 8H30C31.0609 8 32.0783 8.42143 32.8284 9.17157C33.5786 9.92172 34 10.9391 34 12V28" stroke="#109BDE" stroke-width="2" stroke-linecap="round" stroke-linejoin="round"/>
<path d="M22 10H26" stroke="#109BDE" stroke-width="2" stroke-linecap="round" stroke-linejoin="round"/>
<path d="M24 34V34.02" stroke="#109BDE" stroke-width="2" stroke-linecap="round" stroke-linejoin="round"/>
</g>
<defs>
<clipPath id="clip0_1_108895">
<rect width="48" height="48" fill="white"/>
</clipPath>
</defs>
</svg>
