<svg width="17" height="18" viewBox="0 0 17 18" fill="none" xmlns="http://www.w3.org/2000/svg">
<path fill-rule="evenodd" clip-rule="evenodd" d="M11.8474 4.11041C11.8354 4.39383 11.8229 4.69049 11.8229 4.81534C11.8319 4.81582 11.8487 4.81415 11.8715 4.81189C12.0644 4.79273 12.6851 4.73106 12.609 5.57386C12.4401 7.45297 11.7553 7.21965 11.657 7.18617C11.651 7.18411 11.6472 7.1828 11.6458 7.1828C11.2688 8.39411 10.6826 9.1641 10.1103 9.65138C9.2253 10.4053 8.36789 10.488 8.3541 10.488C8.32881 10.4903 8.3035 10.4903 8.28051 10.4903C8.26789 10.4903 8.25583 10.4897 8.24377 10.4892C8.2317 10.4886 8.21962 10.488 8.20696 10.488C8.19089 10.488 7.32888 10.4053 6.43928 9.64216C5.8692 9.15259 5.28763 8.38489 4.91294 7.18278C4.9116 7.18278 4.90777 7.18408 4.90171 7.18615C4.80346 7.21963 4.11866 7.45295 3.94978 5.57384C3.87373 4.73326 4.49422 4.79498 4.68723 4.81417C4.71008 4.81644 4.72694 4.81812 4.73594 4.81763C4.73594 4.69129 4.72334 4.39363 4.71133 4.10994C4.7004 3.85172 4.68997 3.60508 4.68997 3.50979C4.68997 1.57217 6.26228 0 8.20008 0H8.20698H8.2139H8.28054H8.3472H8.35412H8.36099C10.2988 0 11.8712 1.56987 11.8689 3.5075C11.8689 3.60302 11.8584 3.85118 11.8474 4.11041ZM16.4932 16.2133C16.5185 16.2846 16.5369 16.3581 16.5484 16.4363C16.5576 16.5029 16.5645 16.5742 16.5645 16.6431C16.5645 17.3924 15.9576 17.9992 15.2082 17.9992H13.9141H8.35578H8.28223H8.20867C6.9735 18.0007 5.73833 18.0002 4.50316 17.9997C3.88557 17.9995 3.26799 17.9992 2.6504 17.9992H1.35623C0.606857 17.9992 0 17.3924 0 16.6431C0 16.5741 0.00459731 16.5029 0.0160908 16.4362C0.0275843 16.3604 0.045974 16.2846 0.0712597 16.2133C0.252857 15.5122 0.668922 14.2412 0.857416 13.6712C0.878104 13.5723 0.910286 13.4758 0.951663 13.3861V13.3838C1.0666 13.1356 1.25509 12.9288 1.48726 12.7885C1.50105 12.777 1.53094 12.761 1.57001 12.7426C1.5861 12.7334 1.6022 12.7265 1.61829 12.7196C2.07573 12.5058 3.48024 11.9427 3.48024 11.9427C4.18364 11.6393 4.91003 11.3796 5.65251 11.1152C5.78354 11.6669 7.04322 15.3307 7.24551 15.8386L7.40412 12.4369C7.36388 12.3756 7.33296 12.3077 7.30224 12.2403C7.2926 12.2191 7.28298 12.198 7.2731 12.1771L6.75819 11.1612C7.1283 11.4577 7.67077 11.6439 8.27533 11.6439C8.8937 11.6439 9.44767 11.4485 9.81776 11.1405L9.29368 12.1772C9.28376 12.1981 9.2741 12.2193 9.26443 12.2405C9.23373 12.3079 9.20285 12.3757 9.16263 12.4369L9.32124 15.8387C9.5212 15.3307 10.7786 11.6692 10.9119 11.1176C11.6544 11.3819 12.3808 11.6416 13.0842 11.945C13.0842 11.945 14.4887 12.5059 14.9461 12.7219C14.9543 12.7254 14.9624 12.7295 14.9705 12.7335C14.9785 12.7375 14.9865 12.7415 14.9945 12.7449C15.0335 12.7656 15.0634 12.7817 15.0772 12.7909C15.3094 12.9288 15.4979 13.1357 15.6128 13.3839V13.3862C15.6542 13.4758 15.6864 13.5724 15.7071 13.6712C15.8956 14.2412 16.3116 15.5146 16.4932 16.2133Z" fill="#109BDE"/>
</svg>
