<svg xmlns="http://www.w3.org/2000/svg" width="40" height="40" viewBox="0 0 40 40" fill="none">
<path d="M37.873 23.3124L37.8614 23.3181C36.4903 24.3696 35.9094 26.1589 36.3974 27.8147L36.4032 27.8263C37.1816 30.4581 35.253 33.1129 32.5108 33.1827H32.4992C30.768 33.2292 29.2459 34.3329 28.6707 35.9654V35.9712C27.7527 38.5622 24.6273 39.5788 22.3674 38.016C20.9641 37.0578 19.1091 37.0078 17.6327 38.016H17.6269C15.367 39.573 12.2415 38.5621 11.3294 35.9653C11.0478 35.1685 10.5311 34.4759 9.84757 33.9791C9.16399 33.4822 8.34573 33.2045 7.50094 33.1826H7.4893C4.74727 33.1128 2.81844 30.458 3.59695 27.8263L3.60273 27.8146C4.09062 26.1588 3.50969 24.3695 2.13875 23.3181L2.12711 23.3123C-0.0514844 21.6391 -0.0514844 18.3626 2.12711 16.6895L2.13875 16.6837C3.50969 15.6322 4.09063 13.8428 3.59695 12.1871V12.1755C2.81258 9.54385 4.74719 6.88885 7.4893 6.81916H7.50094C9.22633 6.77267 10.7542 5.66885 11.3294 4.03642V4.03064C12.2414 1.43963 15.367 0.422987 17.6269 1.9858H17.6327C19.0559 2.9676 20.9382 2.9676 22.3674 1.9858C24.6501 0.409471 27.7581 1.45517 28.6707 4.03064V4.03642C29.2459 5.66306 30.7679 6.77275 32.4992 6.81916H32.5108C35.2529 6.88885 37.1816 9.54385 36.4032 12.1755L36.3974 12.1871C35.9094 13.8428 36.4903 15.6322 37.8614 16.6837L37.873 16.6895C40.0516 18.3626 40.0516 21.6392 37.873 23.3124Z" fill="#3FC43B"/>
<path d="M20.0004 30.821C25.977 30.821 30.822 25.976 30.822 19.9994C30.822 14.0227 25.977 9.17773 20.0004 9.17773C14.0237 9.17773 9.17871 14.0227 9.17871 19.9994C9.17871 25.976 14.0237 30.821 20.0004 30.821Z" fill="#8CDC89"/>
<path d="M28.3088 13.0728C26.437 11.533 24.0423 10.6074 21.4316 10.6074C15.4551 10.6074 10.6074 15.4551 10.6074 21.4316C10.6074 24.0423 11.533 26.437 13.0727 28.3088C10.6945 26.325 9.17969 23.3409 9.17969 19.9998C9.17969 14.0231 14.0232 9.17969 19.9998 9.17969C23.3409 9.17969 26.325 10.6945 28.3088 13.0728Z" fill="#B2E7B1"/>
<path d="M17.4257 24.2359L15.0327 21.69C14.406 21.0231 14.4383 19.9746 15.1049 19.3479C15.7716 18.7204 16.8206 18.7541 17.4467 19.4205L18.5891 20.6353L23.4448 15.0855C24.0467 14.3967 25.0935 14.3269 25.7828 14.9296C26.4716 15.5323 26.5411 16.5789 25.9387 17.2676L19.8797 24.1923C19.2342 24.9292 18.0951 24.9485 17.4257 24.2359Z" fill="white"/>
</svg>