<svg width="68" height="68" viewBox="0 0 68 68" fill="none" xmlns="http://www.w3.org/2000/svg">
<rect width="68" height="68" rx="8" fill="#F9FAFC"/>
<path d="M51.401 35.3314L27.1633 48.6708C26.5252 49.0219 25.7737 49.1051 25.0742 48.9021C24.3747 48.6991 23.7845 48.2266 23.4333 47.5885L16.0469 34.1685C15.696 33.5304 15.6129 32.779 15.8159 32.0797C16.0188 31.3803 16.4912 30.7902 17.1292 30.4391L41.3663 17.0979C42.0044 16.7468 42.7559 16.6636 43.4554 16.8666C44.1549 17.0696 44.7451 17.5421 45.0963 18.1802L52.4827 31.6008C52.8336 32.2389 52.9167 32.9903 52.7137 33.6896C52.5108 34.389 52.0384 34.9791 51.4004 35.3302L51.401 35.3314Z" fill="#FEBC1F"/>
<path d="M50.8723 34.3705L26.634 47.7099C25.9959 48.0609 25.2444 48.1441 24.5449 47.9412C23.8454 47.7382 23.2552 47.2657 22.904 46.6275L15.5176 33.2075C15.1667 32.5694 15.0836 31.8181 15.2866 31.1187C15.4895 30.4194 15.9619 29.8293 16.5999 29.4781L40.8376 16.137C41.4757 15.7859 42.2272 15.7027 42.9267 15.9057C43.6262 16.1087 44.2164 16.5812 44.5676 17.2193L51.954 30.6399C52.3049 31.278 52.388 32.0293 52.185 32.7287C51.982 33.4281 51.5096 34.0182 50.8717 34.3693L50.8723 34.3705Z" fill="#FFD475"/>
<path d="M40.8378 16.1382L16.6002 29.4776C15.962 29.8287 15.4895 30.4189 15.2865 31.1184C15.0836 31.8179 15.1668 32.5694 15.5178 33.2076L22.9043 46.6287C22.9043 46.6287 16.0219 33.4664 43.2884 16.0429C42.9006 15.8672 42.4772 15.7844 42.0518 15.8009C41.6265 15.8174 41.2108 15.9329 40.8378 16.1382Z" fill="#FEBC1F"/>
<path d="M17.6887 34.8538L18.6164 36.5391C18.7287 36.743 18.9174 36.894 19.1409 36.9588C19.3645 37.0237 19.6047 36.9971 19.8087 36.885L45.3781 22.8126C45.582 22.7003 45.733 22.5116 45.7979 22.288C45.8627 22.0645 45.8362 21.8243 45.724 21.6203L44.7964 19.935C44.684 19.7311 44.4954 19.5801 44.2718 19.5152C44.0482 19.4504 43.808 19.477 43.604 19.5891L18.0346 33.6615C17.8307 33.7738 17.6797 33.9625 17.6149 34.186C17.55 34.4096 17.5766 34.6498 17.6887 34.8538Z" fill="#1D2943"/>
<path d="M17.4334 34.387L18.3611 36.0723C18.4734 36.2762 18.6621 36.4272 18.8857 36.4921C19.1093 36.5569 19.3494 36.5303 19.5534 36.4182L45.1229 22.3458C45.3268 22.2335 45.4777 22.0448 45.5426 21.8213C45.6075 21.5977 45.5809 21.3575 45.4687 21.1535L44.5411 19.4682C44.4288 19.2643 44.2401 19.1133 44.0165 19.0484C43.7929 18.9836 43.5527 19.0102 43.3487 19.1223L17.7787 33.1952C17.5748 33.3076 17.4238 33.4962 17.359 33.7198C17.2941 33.9434 17.3207 34.1836 17.4329 34.3876L17.4334 34.387Z" fill="#4C5C75"/>
<path d="M47.0231 52.2018H19.3578C18.6295 52.2018 17.931 51.9125 17.416 51.3976C16.9009 50.8827 16.6115 50.1842 16.6113 49.4559V34.1365C16.6115 33.4082 16.9009 32.7098 17.416 32.1948C17.931 31.6799 18.6295 31.3906 19.3578 31.3906H47.0225C47.7508 31.3906 48.4493 31.6799 48.9643 32.1948C49.4794 32.7098 49.7688 33.4082 49.769 34.1365V49.4559C49.7688 50.1842 49.4794 50.8827 48.9643 51.3976C48.4493 51.9125 47.7514 52.2018 47.0231 52.2018Z" fill="#5094FF"/>
<path d="M19.3572 51.1047H47.0225C47.3832 51.1048 47.7404 51.0338 48.0737 50.8958C48.407 50.7579 48.7098 50.5556 48.9649 50.3005C49.22 50.0455 49.4224 49.7427 49.5604 49.4094C49.6985 49.0762 49.7696 48.719 49.7696 48.3583V33.0394C49.7696 32.311 49.4802 31.6125 48.9651 31.0974C48.4501 30.5823 47.7515 30.293 47.0231 30.293H19.3578C18.9971 30.293 18.64 30.364 18.3068 30.502C17.9736 30.6401 17.6708 30.8424 17.4158 31.0974C17.1607 31.3524 16.9584 31.6552 16.8204 31.9884C16.6824 32.3216 16.6113 32.6788 16.6113 33.0394V48.3583C16.6113 48.719 16.6822 49.0762 16.8202 49.4095C16.9582 49.7428 17.1605 50.0456 17.4155 50.3007C17.6706 50.5558 17.9734 50.7581 18.3066 50.8962C18.6399 51.0343 18.9971 51.1053 19.3578 51.1053L19.3572 51.1047Z" fill="#57B3FE"/>
<path d="M19.3537 30.2955H47.019C47.7473 30.2955 48.4458 30.5848 48.9608 31.0997C49.4759 31.6147 49.7653 32.3131 49.7654 33.0414V48.3602C49.7654 48.3602 49.4496 33.5108 17.1602 31.3932C17.4152 31.0523 17.7462 30.7755 18.1268 30.5849C18.5075 30.3942 18.9274 30.2949 19.3531 30.2949L19.3537 30.2955Z" fill="#5094FF"/>
<path d="M47.6133 46.1762V46.602H47.6074C47.6186 47.1785 47.138 47.6626 46.558 47.6626H43.7715C43.2027 47.6626 42.7109 47.1873 42.7227 46.602H42.7168V46.1762H42.785C42.9497 45.762 43.3974 45.4785 43.868 45.4785H46.4621C46.9327 45.4785 47.3803 45.762 47.545 46.1762H47.6133Z" fill="#E3E7F0"/>
<path d="M46.5552 47.2384H43.8617C43.3193 47.2384 42.8064 46.8701 42.7299 46.3325C42.7079 46.1817 42.7186 46.028 42.7612 45.8817C42.8039 45.7355 42.8775 45.6001 42.9771 45.4848C43.0767 45.3695 43.1999 45.277 43.3385 45.2136C43.477 45.1501 43.6276 45.1173 43.7799 45.1172H46.4629C47.0381 45.1172 47.5746 45.5348 47.6093 46.109C47.6192 46.2535 47.5993 46.3985 47.5509 46.535C47.5024 46.6715 47.4264 46.7966 47.3275 46.9026C47.2287 47.0085 47.1091 47.0929 46.9762 47.1507C46.8434 47.2085 46.7001 47.2383 46.5552 47.2384Z" fill="white"/>
<path d="M39.6269 46.1762V46.602H39.6211C39.6328 47.1785 39.1516 47.6626 38.5722 47.6626H35.7858C35.2164 47.6626 34.7252 47.1873 34.7364 46.602H34.7305V46.1762H34.7987C34.9634 45.762 35.4116 45.4785 35.8822 45.4785H38.4758C38.9464 45.4785 39.3946 45.762 39.5593 46.1762H39.6269Z" fill="#E3E7F0"/>
<path d="M38.5728 47.2384H35.8787C35.3363 47.2384 34.8234 46.8701 34.7475 46.3325C34.7255 46.1818 34.7361 46.0281 34.7787 45.8819C34.8214 45.7356 34.8949 45.6003 34.9945 45.485C35.094 45.3697 35.2172 45.2772 35.3556 45.2138C35.4941 45.1503 35.6446 45.1174 35.7969 45.1172H38.4798C39.0557 45.1172 39.5916 45.5348 39.6269 46.109C39.6368 46.2535 39.6169 46.3985 39.5684 46.535C39.52 46.6715 39.4439 46.7966 39.3451 46.9026C39.2462 47.0085 39.1267 47.0929 38.9938 47.1507C38.861 47.2085 38.7177 47.2383 38.5728 47.2384Z" fill="white"/>
<path d="M31.6451 46.1762V46.602H31.6392C31.6504 47.1785 31.1698 47.6626 30.5898 47.6626H27.8033C27.2339 47.6626 26.7428 47.1873 26.7539 46.602H26.748V46.1762H26.8169C26.9816 45.762 27.4292 45.4785 27.8998 45.4785H30.4939C30.9645 45.4785 31.4122 45.762 31.5769 46.1762H31.6451Z" fill="#E3E7F0"/>
<path d="M30.5845 47.2384H27.891C27.3486 47.2384 26.8357 46.8701 26.7592 46.3325C26.7372 46.1817 26.7478 46.028 26.7905 45.8817C26.8331 45.7355 26.9068 45.6001 27.0064 45.4848C27.106 45.3695 27.2292 45.277 27.3678 45.2136C27.5063 45.1501 27.6568 45.1173 27.8092 45.1172H30.4916C31.068 45.1172 31.6033 45.5348 31.6386 46.109C31.6485 46.2535 31.6286 46.3985 31.5802 46.535C31.5317 46.6715 31.4557 46.7966 31.3568 46.9026C31.258 47.0085 31.1384 47.0929 31.0055 47.1507C30.8727 47.2085 30.7294 47.2383 30.5845 47.2384Z" fill="white"/>
<path d="M23.6562 46.1762V46.602H23.6504C23.6621 47.1785 23.1809 47.6626 22.6015 47.6626H19.8151C19.2456 47.6626 18.7545 47.1873 18.7656 46.602H18.7598V46.1762H18.828C18.9927 45.762 19.4404 45.4785 19.9115 45.4785H22.5051C22.9756 45.4785 23.4239 45.762 23.588 46.1762H23.6562Z" fill="#E3E7F0"/>
<path d="M22.5982 47.2403H19.9041C19.3617 47.2403 18.8488 46.8721 18.7729 46.3344C18.7509 46.1837 18.7615 46.03 18.8041 45.8838C18.8467 45.7376 18.9203 45.6023 19.0199 45.487C19.1194 45.3717 19.2426 45.2792 19.381 45.2157C19.5195 45.1522 19.67 45.1193 19.8223 45.1191H22.5052C23.0811 45.1191 23.617 45.5368 23.6523 46.1109C23.6622 46.2554 23.6423 46.4005 23.5938 46.537C23.5453 46.6735 23.4693 46.7986 23.3705 46.9045C23.2716 47.0104 23.1521 47.0949 23.0192 47.1526C22.8864 47.2104 22.743 47.2403 22.5982 47.2403Z" fill="white"/>
<path d="M18.7617 35.1348V37.6972C18.7617 38.3431 19.2852 38.8666 19.9311 38.8666H24.73C25.3758 38.8666 25.8994 38.3431 25.8994 37.6972V35.1348C25.8994 34.489 25.3758 33.9648 24.73 33.9648H19.9311C19.2852 33.9648 18.7617 34.4884 18.7617 35.1348Z" fill="#FEBC1F"/>
<path d="M18.7617 34.7345V37.2968C18.7617 37.9427 19.2852 38.4668 19.9311 38.4668H24.73C25.3758 38.4668 25.8994 37.9433 25.8994 37.2968V34.7345C25.8994 34.0886 25.3758 33.5645 24.73 33.5645H19.9311C19.2852 33.5645 18.7617 34.088 18.7617 34.7345Z" fill="#FFD475"/>
<path d="M22.2058 35.7392V33.5645H21.65V35.7392H18.7617V36.2945H20.3417V38.4668H20.897V36.2945H23.3988V38.4668H23.9541V36.2945H25.8988V35.7392H22.2058Z" fill="#FEBC1F"/>
<path d="M47.1059 37.6561H43.9776C43.717 37.6561 43.4711 37.4796 43.4341 37.2214C43.4234 37.149 43.4285 37.0751 43.449 37.0048C43.4694 36.9345 43.5048 36.8695 43.5526 36.814C43.6004 36.7586 43.6596 36.7142 43.7261 36.6837C43.7927 36.6531 43.865 36.6373 43.9382 36.6373H47.0617C47.3376 36.6373 47.5947 36.8378 47.6117 37.1137C47.6165 37.1831 47.6069 37.2527 47.5837 37.3183C47.5604 37.3838 47.5239 37.4438 47.4765 37.4947C47.4291 37.5455 47.3717 37.5861 47.3079 37.6139C47.2442 37.6416 47.1754 37.656 47.1059 37.6561ZM47.1059 35.4755H41.6141C41.3535 35.4755 41.1076 35.299 41.0706 35.0402C41.06 34.9678 41.0652 34.894 41.0856 34.8238C41.1061 34.7536 41.1415 34.6886 41.1893 34.6333C41.2371 34.5779 41.2963 34.5335 41.3628 34.503C41.4293 34.4726 41.5015 34.4567 41.5747 34.4567H47.0611C47.3376 34.4567 47.5947 34.6567 47.6117 34.9331C47.6165 35.0025 47.6069 35.0721 47.5837 35.1377C47.5604 35.2032 47.5239 35.2633 47.4765 35.3141C47.4291 35.365 47.3717 35.4055 47.3079 35.4333C47.2442 35.461 47.1754 35.4754 47.1059 35.4755ZM46.2706 23.5996C47.5752 25.2701 48.6499 27.1081 49.4659 29.0643C48.1613 27.3938 47.0863 25.5559 46.2706 23.5996ZM21.9082 29.0626C23.807 27.6073 25.8718 26.3826 28.0594 25.4143C26.1606 26.8695 24.0957 28.0942 21.9082 29.0626ZM37.6423 49.7261C40.0176 49.4431 42.4182 49.4431 44.7935 49.7261C42.4111 50.0102 40.0247 50.0084 37.6423 49.7261Z" fill="white"/>
</svg>
