<svg width="24" height="25" viewBox="0 0 24 25" fill="none" xmlns="http://www.w3.org/2000/svg">
<path d="M21.4868 8.4669L9.76943 1.46603C8.85425 0.920349 7.77135 0.591718 6.64081 0.516577C5.51026 0.441437 4.37625 0.622724 3.36451 1.04034C2.35278 1.45795 1.50285 2.09557 0.908969 2.88249C0.315093 3.66942 0.000474119 4.5749 0 5.49853V19.5003C0.000202379 20.4243 0.314839 21.3303 0.90899 22.1175C1.50314 22.9048 2.35357 23.5426 3.36589 23.9602C4.37822 24.3778 5.51285 24.5589 6.64386 24.4832C7.77486 24.4076 8.85802 24.0783 9.77311 23.5318L21.4905 16.5309C22.2683 16.0664 22.9008 15.4593 23.3368 14.7587C23.7728 14.0582 24 13.2838 24 12.4984C24 11.713 23.7728 10.9386 23.3368 10.2381C22.9008 9.53748 22.2683 8.93036 21.4905 8.4659L21.4868 8.4669Z" fill="white"/>
</svg>
