<svg xmlns="http://www.w3.org/2000/svg" width="17" height="18" viewBox="0 0 17 18" fill="none">
<g clip-path="url(#clip0_2106_4907)">
<path d="M12.1485 12.4663H13.5346C13.9023 12.4663 14.2548 12.3203 14.5148 12.0603C14.7747 11.8004 14.9208 11.4478 14.9208 11.0802V8.30798C14.9208 7.94036 14.7747 7.5878 14.5148 7.32786C14.2548 7.06791 13.9023 6.92188 13.5346 6.92188H3.83191C3.46429 6.92188 3.11173 7.06791 2.85178 7.32786C2.59184 7.5878 2.4458 7.94036 2.4458 8.30798L2.4458 11.0802C2.4458 11.4478 2.59184 11.8004 2.85178 12.0603C3.11173 12.3203 3.46429 12.4663 3.83191 12.4663H5.21801" stroke="#109BDE" stroke-width="2" stroke-linecap="round" stroke-linejoin="round"/>
<path d="M12.1488 6.92199V4.14978C12.1488 3.78216 12.0028 3.4296 11.7428 3.16965C11.4829 2.90971 11.1303 2.76367 10.7627 2.76367H6.60437C6.23675 2.76367 5.88419 2.90971 5.62424 3.16965C5.3643 3.4296 5.21826 3.78216 5.21826 4.14978V6.92199" stroke="#109BDE" stroke-width="2" stroke-linecap="round" stroke-linejoin="round"/>
<path d="M5.21826 11.0795C5.21826 10.7118 5.3643 10.3593 5.62424 10.0993C5.88419 9.8394 6.23675 9.69336 6.60437 9.69336H10.7627C11.1303 9.69336 11.4829 9.8394 11.7428 10.0993C12.0028 10.3593 12.1488 10.7118 12.1488 11.0795V13.8517C12.1488 14.2193 12.0028 14.5719 11.7428 14.8318C11.4829 15.0917 11.1303 15.2378 10.7627 15.2378H6.60437C6.23675 15.2378 5.88419 15.0917 5.62424 14.8318C5.3643 14.5719 5.21826 14.2193 5.21826 13.8517V11.0795Z" stroke="#109BDE" stroke-width="2" stroke-linecap="round" stroke-linejoin="round"/>
</g>
<defs>
<clipPath id="clip0_2106_4907">
<rect width="16.6333" height="16.6333" fill="white" transform="translate(0.366699 0.683594)"/>
</clipPath>
</defs>
</svg>