<svg width="24" height="25" viewBox="0 0 24 25" fill="none" xmlns="http://www.w3.org/2000/svg">
<path fill-rule="evenodd" clip-rule="evenodd" d="M9.85669 10.4823H7.42435C7.19939 10.4823 7.00256 10.2995 7.00256 10.0605V7.7125C7.00256 7.48754 7.19939 7.2907 7.42435 7.2907H9.85669C10.0816 7.2907 10.2644 7.48754 10.2644 7.7125V10.0605C10.2644 10.2995 10.0816 10.4823 9.85669 10.4823ZM23.4806 22.7705H0.506951C0.281995 22.7705 0.0992181 22.5737 0.0992181 22.3487V20.5772C0.0992181 20.3382 0.281995 20.1554 0.506951 20.1554H1.60361V6.46118C1.60361 6.2784 1.73015 6.10968 1.89887 6.05344L10.9815 3.24149V1.10441C10.9815 0.865394 11.1642 0.682617 11.4033 0.682617H21.9762C22.2012 0.682617 22.3839 0.865394 22.3839 1.10441V20.1554H23.4806C23.7196 20.1554 23.9024 20.3382 23.9024 20.5772V22.3487C23.9024 22.5737 23.7196 22.7705 23.4806 22.7705ZM0.928744 21.9269H23.0729V20.999H0.928744V21.9269ZM11.811 20.1554H13.3294V12.296C13.3294 12.057 13.5122 11.8742 13.7512 11.8742H19.6142C19.8532 11.8742 20.0359 12.057 20.0359 12.296V20.1554H21.5544V1.5262H11.811V20.1554ZM2.4472 20.1554H10.9815V4.1132L2.4472 6.77049V20.1554ZM14.159 20.1554H16.2679V12.7037H14.159V20.1554ZM17.0975 20.1554H19.2064V12.7037H17.0975V20.1554ZM15.9164 9.97612H12.8795C12.6546 9.97612 12.4577 9.79334 12.4577 9.55432V6.99545C12.4577 6.75643 12.6546 6.57366 12.8795 6.57366H15.9164C16.1555 6.57366 16.3382 6.75643 16.3382 6.99545V9.55432C16.3382 9.77928 16.1555 9.97612 15.9164 9.97612ZM13.3013 9.13253H15.5087V7.41724H13.3013V9.13253ZM20.4859 9.97612H17.449C17.2099 9.97612 17.0272 9.79334 17.0272 9.55432V6.99545C17.0272 6.75643 17.2099 6.57366 17.449 6.57366H20.4859C20.7108 6.57366 20.9077 6.75643 20.9077 6.99545V9.55432C20.9077 9.77928 20.7108 9.97612 20.4859 9.97612ZM17.8567 9.13253H20.0641V7.41724H17.8567V9.13253ZM15.9164 5.77225H12.8795C12.6546 5.77225 12.4577 5.57541 12.4577 5.35046V2.79158C12.4577 2.55256 12.6546 2.36979 12.8795 2.36979H15.9164C16.1555 2.36979 16.3382 2.55256 16.3382 2.79158V5.35046C16.3382 5.57541 16.1555 5.77225 15.9164 5.77225ZM13.3013 4.92866H15.5087V3.21337H13.3013V4.92866ZM20.4859 5.77225H17.449C17.2099 5.77225 17.0272 5.57541 17.0272 5.35046V2.79158C17.0272 2.55256 17.2099 2.36979 17.449 2.36979H20.4859C20.7108 2.36979 20.9077 2.55256 20.9077 2.79158V5.35046C20.9077 5.57541 20.7108 5.77225 20.4859 5.77225ZM17.8567 4.92866H20.0641V3.21337H17.8567V4.92866ZM7.49465 24.3171H0.506951C-0.0413795 24.3171 -0.0413795 23.4735 0.506951 23.4735H7.49465C8.04298 23.4735 8.04298 24.3171 7.49465 24.3171ZM23.4806 24.3171H16.507C15.9586 24.3171 15.9586 23.4735 16.507 23.4735H23.4806C24.0289 23.4735 24.0289 24.3171 23.4806 24.3171ZM5.99025 18.4682H3.57198C3.34702 18.4682 3.15018 18.2854 3.15018 18.0464V15.6984C3.15018 15.4594 3.34702 15.2766 3.57198 15.2766H5.99025C6.22927 15.2766 6.41205 15.4594 6.41205 15.6984V18.0464C6.41205 18.2854 6.22927 18.4682 5.99025 18.4682ZM3.99377 17.6246H5.58252V16.1202H3.99377V17.6246ZM9.85669 18.4682H7.42435C7.19939 18.4682 7.00256 18.2854 7.00256 18.0464V15.6984C7.00256 15.4594 7.19939 15.2766 7.42435 15.2766H9.85669C10.0816 15.2766 10.2644 15.4594 10.2644 15.6984V18.0464C10.2644 18.2854 10.0816 18.4682 9.85669 18.4682ZM7.84614 17.6246H9.43489V16.1202H7.84614V17.6246ZM5.99025 14.4752H3.57198C3.34702 14.4752 3.15018 14.2925 3.15018 14.0534V11.7055C3.15018 11.4805 3.34702 11.2837 3.57198 11.2837H5.99025C6.22927 11.2837 6.41205 11.4805 6.41205 11.7055V14.0534C6.41205 14.2925 6.22927 14.4752 5.99025 14.4752ZM3.99377 13.6457H5.58252V12.1273H3.99377V13.6457ZM9.85669 14.4752H7.42435C7.19939 14.4752 7.00256 14.2925 7.00256 14.0534V11.7055C7.00256 11.4805 7.19939 11.2837 7.42435 11.2837H9.85669C10.0816 11.2837 10.2644 11.4805 10.2644 11.7055V14.0534C10.2644 14.2925 10.0816 14.4752 9.85669 14.4752ZM7.84614 13.6457H9.43489V12.1273H7.84614V13.6457ZM5.99025 10.4823H3.57198C3.34702 10.4823 3.15018 10.2995 3.15018 10.0605V7.7125C3.15018 7.48754 3.34702 7.2907 3.57198 7.2907H5.99025C6.22927 7.2907 6.41205 7.48754 6.41205 7.7125V10.0605C6.41205 10.2995 6.22927 10.4823 5.99025 10.4823ZM3.99377 9.65274H5.58252V8.13429H3.99377V9.65274ZM7.84614 9.65274H9.43489V8.13429H7.84614V9.65274Z" fill="#151515"/>
<path fill-rule="evenodd" clip-rule="evenodd" d="M7.8457 9.65322H9.43446V8.13477H7.8457V9.65322Z" fill="#CAD1D9"/>
<path fill-rule="evenodd" clip-rule="evenodd" d="M5.58289 9.65322V8.13477H3.99414V9.65322H5.58289Z" fill="#CAD1D9"/>
<path fill-rule="evenodd" clip-rule="evenodd" d="M5.58289 12.1279H3.99414V13.6464H5.58289V12.1279Z" fill="#CAD1D9"/>
<path fill-rule="evenodd" clip-rule="evenodd" d="M7.8457 12.1279V13.6464H9.43446V12.1279H7.8457Z" fill="#CAD1D9"/>
<path fill-rule="evenodd" clip-rule="evenodd" d="M9.43446 16.1211H7.8457V17.6255H9.43446V16.1211Z" fill="#CAD1D9"/>
<path fill-rule="evenodd" clip-rule="evenodd" d="M5.58289 17.6255V16.1211H3.99414V17.6255H5.58289Z" fill="#CAD1D9"/>
<path fill-rule="evenodd" clip-rule="evenodd" d="M6.41212 15.6985V18.0465C6.41212 18.2855 6.22934 18.4683 5.99032 18.4683H3.57205C3.34709 18.4683 3.15025 18.2855 3.15025 18.0465V15.6985C3.15025 15.4595 3.34709 15.2767 3.57205 15.2767H5.99032C6.22934 15.2767 6.41212 15.4595 6.41212 15.6985ZM9.85676 18.4683H7.42442C7.19946 18.4683 7.00263 18.2855 7.00263 18.0465V15.6985C7.00263 15.4595 7.19946 15.2767 7.42442 15.2767H9.85676C10.0817 15.2767 10.2645 15.4595 10.2645 15.6985V18.0465C10.2645 18.2855 10.0817 18.4683 9.85676 18.4683ZM9.85676 14.4753H7.42442C7.19946 14.4753 7.00263 14.2925 7.00263 14.0535V11.7055C7.00263 11.4806 7.19946 11.2838 7.42442 11.2838H9.85676C10.0817 11.2838 10.2645 11.4806 10.2645 11.7055V14.0535C10.2645 14.2925 10.0817 14.4753 9.85676 14.4753ZM9.85676 10.4824H7.42442C7.19946 10.4824 7.00263 10.2996 7.00263 10.0606V7.71258C7.00263 7.48762 7.19946 7.29079 7.42442 7.29079H9.85676C10.0817 7.29079 10.2645 7.48762 10.2645 7.71258V10.0606C10.2645 10.2996 10.0817 10.4824 9.85676 10.4824ZM2.44727 20.1555H10.9815V4.11328L2.44727 6.77058V20.1555ZM5.99032 14.4753H3.57205C3.34709 14.4753 3.15025 14.2925 3.15025 14.0535V11.7055C3.15025 11.4806 3.34709 11.2838 3.57205 11.2838H5.99032C6.22934 11.2838 6.41212 11.4806 6.41212 11.7055V14.0535C6.41212 14.2925 6.22934 14.4753 5.99032 14.4753ZM5.99032 10.4824H3.57205C3.34709 10.4824 3.15025 10.2996 3.15025 10.0606V7.71258C3.15025 7.48762 3.34709 7.29079 3.57205 7.29079H5.99032C6.22934 7.29079 6.41212 7.48762 6.41212 7.71258V10.0606C6.41212 10.2996 6.22934 10.4824 5.99032 10.4824Z" fill="#109BDE"/>
<path fill-rule="evenodd" clip-rule="evenodd" d="M23.0738 20.999H0.929688V21.927H23.0738V20.999Z" fill="#109BDE"/>
<path fill-rule="evenodd" clip-rule="evenodd" d="M13.329 20.1555V12.2961C13.329 12.0571 13.5118 11.8743 13.7508 11.8743H19.6137C19.8527 11.8743 20.0355 12.0571 20.0355 12.2961V20.1555H21.554V1.52637H11.8105V20.1555H13.329ZM15.916 9.97628H12.8791C12.6541 9.97628 12.4573 9.7935 12.4573 9.55449V6.99561C12.4573 6.7566 12.6541 6.57382 12.8791 6.57382H15.916C16.155 6.57382 16.3378 6.7566 16.3378 6.99561V9.55449C16.3378 9.77944 16.155 9.97628 15.916 9.97628ZM20.4854 9.97628H17.4485C17.2095 9.97628 17.0267 9.7935 17.0267 9.55449V6.99561C17.0267 6.7566 17.2095 6.57382 17.4485 6.57382H20.4854C20.7104 6.57382 20.9072 6.7566 20.9072 6.99561V9.55449C20.9072 9.77944 20.7104 9.97628 20.4854 9.97628ZM15.916 5.77241H12.8791C12.6541 5.77241 12.4573 5.57558 12.4573 5.35062V2.79175C12.4573 2.55273 12.6541 2.36995 12.8791 2.36995H15.916C16.155 2.36995 16.3378 2.55273 16.3378 2.79175V5.35062C16.3378 5.57558 16.155 5.77241 15.916 5.77241ZM20.4854 5.77241H17.4485C17.2095 5.77241 17.0267 5.57558 17.0267 5.35062V2.79175C17.0267 2.55273 17.2095 2.36995 17.4485 2.36995H20.4854C20.7104 2.36995 20.9072 2.55273 20.9072 2.79175V5.35062C20.9072 5.57558 20.7104 5.77241 20.4854 5.77241Z" fill="#E2E7EC"/>
<path fill-rule="evenodd" clip-rule="evenodd" d="M14.1582 12.7041V20.1558H16.2672V12.7041H14.1582Z" fill="#CAD1D9"/>
<path fill-rule="evenodd" clip-rule="evenodd" d="M17.0977 12.7041V20.1558H19.2066V12.7041H17.0977Z" fill="#CAD1D9"/>
<path fill-rule="evenodd" clip-rule="evenodd" d="M17.8574 9.13228H20.0648V7.41699H17.8574V9.13228Z" fill="#CAD1D9"/>
<path fill-rule="evenodd" clip-rule="evenodd" d="M15.5082 9.13228V7.41699H13.3008V9.13228H15.5082Z" fill="#CAD1D9"/>
<path fill-rule="evenodd" clip-rule="evenodd" d="M13.3008 4.92818H15.5082V3.21289H13.3008V4.92818Z" fill="#CAD1D9"/>
<path fill-rule="evenodd" clip-rule="evenodd" d="M17.8574 3.21289V4.92818H20.0648V3.21289H17.8574Z" fill="#CAD1D9"/>
</svg>
