<svg xmlns="http://www.w3.org/2000/svg" width="24" height="25" viewBox="0 0 24 25" fill="none">
<g clip-path="url(#clip0_3988_402825)">
<path d="M12 9.5V13.5" stroke="#798595" stroke-width="2" stroke-linecap="round" stroke-linejoin="round"/>
<path d="M10.363 4.09119L2.25699 17.6252C2.08988 17.9146 2.00145 18.2427 2.0005 18.5768C1.99954 18.911 2.08609 19.2396 2.25153 19.5299C2.41698 19.8203 2.65555 20.0622 2.94353 20.2317C3.2315 20.4013 3.55884 20.4924 3.89299 20.4962H20.107C20.441 20.4923 20.7682 20.4011 21.056 20.2317C21.3438 20.0622 21.5823 19.8204 21.7477 19.5302C21.9131 19.24 21.9997 18.9116 21.9989 18.5776C21.9981 18.2435 21.9098 17.9155 21.743 17.6262L13.637 4.09019C13.4664 3.80869 13.2262 3.57593 12.9394 3.41439C12.6527 3.25284 12.3291 3.16797 12 3.16797C11.6709 3.16797 11.3473 3.25284 11.0605 3.41439C10.7738 3.57593 10.5335 3.80869 10.363 4.09019V4.09119Z" stroke="#798595" stroke-width="2" stroke-linecap="round" stroke-linejoin="round"/>
<path d="M12 16.5H12.01" stroke="#798595" stroke-width="2" stroke-linecap="round" stroke-linejoin="round"/>
</g>
<defs>
<clipPath id="clip0_3988_402825">
<rect width="24" height="24" fill="white" transform="translate(0 0.5)"/>
</clipPath>
</defs>
</svg>