<svg xmlns="http://www.w3.org/2000/svg" width="20" height="21" viewBox="0 0 20 21" fill="none">
<path d="M18.7411 10.49C18.1074 10.4956 17.575 10.9655 17.4935 11.5911C16.8897 15.6973 13.0566 18.5388 8.93181 17.9378C4.80706 17.3368 1.95268 13.5209 2.55638 9.41474C3.16009 5.30858 6.99328 2.46706 11.118 3.06805C12.524 3.2729 13.8434 3.86868 14.9244 4.78689L13.9775 5.7295C13.6503 6.05529 13.6504 6.58347 13.9776 6.90918C14.1353 7.06613 14.3494 7.15403 14.5724 7.15341H18.4152C18.8779 7.15341 19.2531 6.77995 19.2531 6.31926V2.49381C19.253 2.03312 18.8777 1.65974 18.415 1.65982C18.1928 1.65986 17.9798 1.74772 17.8227 1.90404L16.7066 3.01514C12.5542 -0.647224 6.20551 -0.265128 2.52653 3.86864C-1.15245 8.00241 -0.76855 14.3224 3.38389 17.9848C7.53634 21.6472 13.885 21.2651 17.564 17.1313C18.859 15.6762 19.6999 13.8767 19.9838 11.9531C20.0948 11.2645 19.6241 10.6166 18.9323 10.506C18.8691 10.4958 18.8052 10.4905 18.7411 10.49Z" fill="#109BDE"/>
</svg>