<svg xmlns="http://www.w3.org/2000/svg" width="21" height="21" viewBox="0 0 21 21" fill="none">
<path d="M19.2411 10.49C18.6074 10.4956 18.075 10.9655 17.9935 11.5911C17.3897 15.6973 13.5566 18.5388 9.43181 17.9378C5.30706 17.3368 2.45268 13.5209 3.05638 9.41474C3.66009 5.30858 7.49328 2.46706 11.618 3.06805C13.024 3.2729 14.3434 3.86868 15.4244 4.78689L14.4775 5.7295C14.1503 6.05529 14.1504 6.58347 14.4776 6.90918C14.6353 7.06613 14.8494 7.15403 15.0724 7.15341H18.9152C19.3779 7.15341 19.7531 6.77995 19.7531 6.31926V2.49381C19.753 2.03312 19.3777 1.65974 18.915 1.65982C18.6928 1.65986 18.4798 1.74772 18.3227 1.90404L17.2066 3.01514C13.0542 -0.647224 6.70551 -0.265128 3.02653 3.86864C-0.652455 8.00241 -0.26855 14.3224 3.88389 17.9848C8.03634 21.6472 14.385 21.2651 18.064 17.1313C19.359 15.6762 20.1999 13.8767 20.4838 11.9531C20.5948 11.2645 20.1241 10.6166 19.4323 10.506C19.3691 10.4958 19.3052 10.4905 19.2411 10.49Z" fill="#798595"/>
</svg>