<svg width="8" height="9" viewBox="0 0 8 9" fill="none" xmlns="http://www.w3.org/2000/svg">
<path d="M7.49645 4.49601C7.24298 4.49825 7.03 4.68621 6.99738 4.93644C6.7559 6.57891 5.22262 7.71552 3.57272 7.47512C1.92282 7.23473 0.781071 5.70836 1.02255 4.0659C1.26403 2.42343 2.79731 1.28682 4.44721 1.52722C5.00961 1.60916 5.53735 1.84747 5.96974 2.21476L5.59099 2.5918C5.46012 2.72212 5.46015 2.93339 5.59105 3.06367C5.65413 3.12645 5.73976 3.16161 5.82895 3.16136H7.36606C7.55117 3.16136 7.70123 3.01198 7.70123 2.82771V1.29752C7.70118 1.11325 7.55109 0.963896 7.36598 0.963928C7.27714 0.963943 7.19192 0.999087 7.12909 1.06162L6.68264 1.50606C5.02166 0.0411103 2.48221 0.193949 1.01061 1.84746C-0.460982 3.50096 -0.30742 6.02898 1.35356 7.49394C3.01453 8.9589 5.55401 8.80605 7.02558 7.15254C7.54362 6.57046 7.87998 5.85067 7.99351 5.08126C8.03794 4.8058 7.84964 4.54662 7.57293 4.50239C7.54764 4.49834 7.52207 4.49621 7.49645 4.49601Z" fill="#109BDE"/>
</svg>
