<svg viewBox="0 0 68 25" fill="none" xmlns="http://www.w3.org/2000/svg">
    <path
        d="M27.8152 0.502612H24.3752C22.7444 5.01007 20.0218 12.4856 18.5164 16.5969C18.3675 16.9923 18.1787 17.3716 17.9531 17.7288H18.1038H20.3327C20.9785 17.693 21.5612 17.3294 21.8772 16.765C21.9293 16.6787 21.9733 16.5877 22.0087 16.4933L23.441 12.5579C25.2215 7.67519 27.6376 1.03546 27.8178 0.5"
        fill="#939598" />
    <path
        d="M63.9234 9.2248L62.4886 13.162C62.2197 13.8598 61.5716 14.3393 60.8256 14.3922H58.4408C58.6884 14.0053 58.8927 13.5925 59.0503 13.1611L60.4878 9.22567H57.0365L55.6042 13.1611C55.333 13.8599 54.6829 14.3395 53.9351 14.3922H51.5504C51.798 14.0057 52.0024 13.5931 52.1598 13.162L53.5973 9.2248H50.1486L48.7146 13.162C48.4443 13.8602 47.795 14.3395 47.0481 14.3922H36.0359C36.2852 14.014 36.4916 13.6093 36.6515 13.1855L37.0145 12.1764C37.9531 9.59744 36.6184 7.5 34.0403 7.5H30.1162L28.8659 10.9461H32.7909C33.0936 10.9272 33.3827 11.0743 33.5456 11.3301C33.7086 11.5859 33.7196 11.91 33.5745 12.1764L33.1906 13.1855C32.9213 13.8773 32.2731 14.3486 31.5319 14.3913H25.8674L24.6162 17.8383H59.5997C62.4361 17.6481 64.9067 15.8345 65.9382 13.1855L67.3835 9.22393L63.9234 9.2248Z"
        fill="#EE7623" />
    <path
        d="M9.72254 17.732H0.616211L1.86997 14.2859H10.9763C11.7263 14.2338 12.3794 13.7551 12.655 13.0556L13.0102 12.0709C13.1551 11.8045 13.144 11.4803 12.9811 11.2244C12.8183 10.9686 12.5293 10.8213 12.2266 10.8398H6.57333L7.82361 7.39453H13.4769C16.0558 7.39453 17.3897 9.49197 16.4519 12.0709L16.1037 13.0556C15.057 15.7139 12.5751 17.5334 9.72515 17.732"
        fill="#EE7623" />
    <path d="M25.0519 21.6617H24.6287L24.4711 22.0918H24.8943L25.0519 21.6617Z" fill="#939598" />
    <path
        d="M25.9444 22.9366C25.8955 23.1052 25.7848 23.2492 25.6344 23.3397C25.4971 23.3981 25.348 23.4235 25.1991 23.4137H24.1369C23.9652 23.4319 23.7927 23.3877 23.651 23.2892C23.5404 23.1891 23.5317 23.0106 23.624 22.7572L23.8669 22.0938H23.4368L23.1939 22.7572C22.9249 23.4903 23.2035 23.8551 24.0254 23.8551H25.4333C25.8154 23.8526 26.1512 23.6012 26.2613 23.2352L26.6783 22.0946H26.2517L25.9444 22.9366Z"
        fill="#939598" />
    <path d="M25.7878 21.6617H25.3655L25.2079 22.0918H25.631L25.7878 21.6617Z" fill="#939598" />
    <path
        d="M28.6951 22.9973C28.745 22.8546 28.8279 22.7257 28.9372 22.6212C29.0397 22.5133 29.181 22.4506 29.3299 22.4471C29.5353 22.4471 29.6346 22.5481 29.6276 22.7457L30.063 22.5716C30.0601 22.426 29.9957 22.2884 29.8856 22.1929C29.7756 22.0975 29.6303 22.0532 29.4857 22.0709C29.2141 22.074 28.9518 22.1699 28.7422 22.3426C28.5185 22.5123 28.3481 22.7426 28.2511 23.006C28.2002 23.1355 28.1785 23.2747 28.1875 23.4135H27.4849C27.3774 23.4269 27.2684 23.4036 27.1758 23.3473C27.1157 23.289 27.1184 23.1645 27.188 22.9747L27.7818 21.3535H27.3517L26.6943 23.1497C26.6176 23.3071 26.6069 23.4886 26.6647 23.6538C26.7451 23.7996 26.9075 23.8801 27.0722 23.8558H29.6128L29.7748 23.4135H28.6812C28.6258 23.2797 28.6303 23.1286 28.6934 22.9982"
        fill="#939598" />
    <path d="M34.6257 21.3004H34.2034L34.0458 21.7305H34.4681L34.6257 21.3004Z" fill="#939598" />
    <path fill-rule="evenodd" clip-rule="evenodd"
        d="M34.1391 22.0566C33.592 22.08 33.1146 22.4352 32.935 22.9526C32.8766 23.0989 32.8571 23.2579 32.8784 23.414H31.8145L31.979 22.9639C32.1653 22.4554 31.9651 22.0932 31.4914 22.0932C30.9586 22.1133 30.4907 22.4536 30.3073 22.9543C30.1201 23.4663 30.357 23.8581 30.8297 23.8581H31.245C31.1325 24.048 30.926 24.1623 30.7052 24.1567L30.5807 24.498C31.0378 24.5264 31.4658 24.2726 31.6604 23.8581H33.4809C34.0242 23.8325 34.4974 23.4792 34.6764 22.9656C34.8627 22.4571 34.6555 22.0584 34.14 22.0584L34.1391 22.0566ZM31.3844 23.4158H31.0004C30.7679 23.4158 30.6652 23.199 30.7627 22.9308C30.8461 22.6788 31.0773 22.5053 31.3426 22.4955C31.5672 22.4955 31.6395 22.6583 31.5794 22.8873L31.3844 23.4158ZM33.3825 22.9499C33.2807 23.2294 33.3738 23.4584 33.635 23.4584C33.9157 23.4315 34.1516 23.2363 34.2306 22.9656C34.3385 22.6713 34.241 22.4537 33.9798 22.4537C33.6971 22.4792 33.4594 22.6766 33.3825 22.9499Z"
        fill="#939598" />
    <path fill-rule="evenodd" clip-rule="evenodd"
        d="M41.975 23.2855C42.032 23.1989 42.0768 23.1049 42.1082 23.006L42.7168 21.3535H43.1522L42.4939 23.1532C42.3905 23.5697 42.0141 23.8603 41.585 23.8549H39.0339C38.8122 24.069 38.5167 24.1897 38.2085 24.1919C37.9633 24.2242 37.7277 24.0852 37.6373 23.8549H34.7197L34.8817 23.4126H36.2861C36.4759 22.9042 36.3853 22.6116 36.0249 22.5246C35.9005 22.4978 35.7733 22.4858 35.6461 22.4889L35.7906 22.0927C35.933 22.0927 36.04 22.0962 36.1113 22.0985C36.1468 22.0997 36.1735 22.1005 36.1912 22.1005C36.2643 22.1077 36.3359 22.1259 36.4036 22.1545C36.8587 22.3292 36.9666 22.7483 36.7275 23.4118H37.6286C37.64 23.3709 37.6556 23.3265 37.6713 23.2838C37.7634 23.0286 37.9284 22.8061 38.1458 22.6438C38.353 22.4819 38.6081 22.3931 38.8711 22.3914C39.0844 22.367 39.2925 22.469 39.4039 22.6526C39.5004 22.8577 39.5004 23.0952 39.4039 23.3003L39.363 23.4126H40.0273C40.1448 23.4175 40.2581 23.3688 40.3355 23.2803C40.404 23.1921 40.4562 23.0925 40.4897 22.986L41.0878 21.3535H41.5179L40.9285 22.9634C40.8794 23.1325 40.7897 23.287 40.6673 23.4135H41.6529C41.7741 23.4222 41.8928 23.3751 41.975 23.2855ZM38.3635 23.7896C38.4989 23.7878 38.6288 23.7353 38.7274 23.6425V23.6442C38.8306 23.5486 38.9087 23.429 38.9547 23.296C39.0035 23.1848 39.0121 23.0602 38.979 22.9434C38.9332 22.8365 38.8231 22.7719 38.7074 22.784C38.5684 22.7866 38.4356 22.8424 38.3365 22.9399C38.2348 23.0337 38.1574 23.1508 38.111 23.2812C38.0091 23.5615 38.0962 23.7896 38.3635 23.7896Z"
        fill="#939598" />
    <path
        d="M45.2094 22.1564C45.1417 22.1276 45.0701 22.1091 44.9969 22.1016C44.9438 22.1016 44.8097 22.0938 44.5964 22.0938L44.4519 22.4899C44.5791 22.4866 44.7062 22.4983 44.8306 22.5247C45.1911 22.6118 45.2808 22.9043 45.0918 23.4128H43.6883L43.5264 23.8551H45.3687L45.5298 23.4128C45.7695 22.7499 45.6615 22.3312 45.2059 22.1564"
        fill="#939598" />
    <path d="M45.7754 23.8554H46.2064L47.1232 21.3496H46.6931L45.7754 23.8554Z" fill="#939598" />
    <path
        d="M52.0798 22.991C51.9762 23.2739 51.8186 23.4176 51.594 23.4176H51.1717C51.2956 23.2834 51.3853 23.1212 51.4329 22.9448L51.7429 22.0985H51.3075L50.9828 22.9866C50.8774 23.2739 50.7163 23.4167 50.4952 23.4167H50.0921L50.1008 23.3932C50.2072 23.2601 50.2868 23.1075 50.335 22.9439L50.6449 22.0977H50.2096L49.8944 22.9587C49.7821 23.2652 49.6175 23.4158 49.3973 23.4158H48.578C48.8165 22.7524 48.7103 22.3336 48.2541 22.1595C48.1861 22.1308 48.1142 22.1126 48.0408 22.1055C47.9877 22.1055 47.8536 22.0977 47.6403 22.0977L47.4957 22.4938C47.6229 22.4906 47.75 22.5023 47.8745 22.5286C48.2349 22.6157 48.3246 22.9091 48.1357 23.4167H46.7313L46.5693 23.859H51.4503C51.9684 23.8031 52.4002 23.4372 52.5404 22.9352L52.8469 22.0977H52.4115L52.0798 22.991Z"
        fill="#939598" />
    <path fill-rule="evenodd" clip-rule="evenodd"
        d="M54.9547 22.0918H56.0482C56.5646 22.0918 56.7709 22.4914 56.5837 23.0034C56.402 23.515 55.9304 23.867 55.3883 23.8958C54.8728 23.8958 54.6587 23.4962 54.8432 22.9921C54.9035 22.8224 54.9974 22.6666 55.1192 22.5341H54.8015C54.5115 22.5341 54.2312 22.7909 54.0762 23.2132L53.6043 24.5009H53.1689L53.6731 23.1235C53.8361 22.5412 54.351 22.1267 54.9547 22.0918ZM55.2899 22.9877C55.1863 23.2716 55.2847 23.4962 55.5459 23.4962C55.824 23.4656 56.0569 23.2715 56.1371 23.0034C56.2441 22.7126 56.1536 22.4914 55.8863 22.4914C55.6045 22.5187 55.3679 22.7155 55.2899 22.9877Z"
        fill="#939598" />
    <path d="M61.0499 21.3082H60.6268L60.4692 21.7383H60.8923L61.0499 21.3082Z" fill="#939598" />
    <path d="M63.34 21.3082H62.9168L62.7592 21.7383H63.1824L63.34 21.3082Z" fill="#939598" />
    <path fill-rule="evenodd" clip-rule="evenodd"
        d="M62.2921 23.0071L62.6255 22.0955L63.053 22.0964L62.6656 23.1551C62.5622 23.5713 62.1863 23.8619 61.7575 23.8569H57.3092C57.1446 23.8812 56.9821 23.8007 56.9018 23.6549C56.8443 23.4896 56.855 23.3082 56.9314 23.1508L57.5887 21.3555H58.0188L57.425 22.9767C57.3554 23.1665 57.3536 23.2901 57.4128 23.3484C57.5057 23.4048 57.615 23.4282 57.7228 23.4146H58.6118L59.3658 21.3555H59.7924L59.2247 22.759C59.5929 22.3746 60.0877 22.1365 60.6178 22.0886C61.2769 22.0886 61.451 22.5344 61.1402 23.4146H61.8367C61.958 23.4232 62.0765 23.3761 62.1589 23.2866C62.2159 23.2 62.2607 23.106 62.2921 23.0071ZM58.9565 23.4146H60.6866C60.7059 23.3725 60.7196 23.3353 60.7346 23.2943L60.7362 23.2901C60.9182 22.7938 60.8093 22.476 60.4367 22.476C59.84 22.5846 59.3092 22.9212 58.9565 23.4146Z"
        fill="#939598" />
</svg>