<svg width="112" height="32" viewBox="0 0 112 32" fill="none" xmlns="http://www.w3.org/2000/svg">
<rect x="1.05469" y="0.5" width="109.604" height="31" rx="3.5" fill="white" stroke="#13243E"/>
<path fill-rule="evenodd" clip-rule="evenodd" d="M39.6728 18.6295V20.1171H43.2369C43.1291 20.9532 42.8517 21.5636 42.4255 21.9894C41.9068 22.5075 41.0954 23.0769 39.6728 23.0769C37.4748 23.0769 35.7596 21.3071 35.7596 19.1168C35.7596 16.9265 37.4748 15.1567 39.6728 15.1567C40.8592 15.1567 41.7219 15.6235 42.3587 16.2186L43.4116 15.167C42.5179 14.3155 41.3368 13.6641 39.6728 13.6641C36.6634 13.6641 34.1367 16.1108 34.1367 19.1117C34.1367 22.1125 36.6634 24.5593 39.6728 24.5593C41.2956 24.5593 42.5231 24.0258 43.4783 23.0307C44.4643 22.0458 44.7673 20.666 44.7673 19.5477C44.7673 19.204 44.7416 18.8808 44.6851 18.6193H39.6677L39.6728 18.6295ZM48.8244 17.5523C46.8832 17.5523 45.2963 19.0296 45.2963 21.0609C45.2963 23.0923 46.878 24.5696 48.8244 24.5696C50.7708 24.5696 52.3525 23.082 52.3525 21.0609C52.3525 19.0398 50.7708 17.5523 48.8244 17.5523ZM52.9894 21.0609C52.9894 19.0296 54.5762 17.5523 56.5175 17.5523C58.4638 17.5523 60.0456 19.0398 60.0456 21.0609C60.0456 23.082 58.4638 24.5696 56.5175 24.5696C54.5711 24.5696 52.9894 23.0923 52.9894 21.0609ZM54.5352 21.0609C54.5352 22.3125 55.4544 23.1897 56.5175 23.1897C57.5805 23.1897 58.4998 22.3279 58.4998 21.0609C58.4998 19.7939 57.5805 18.9321 56.5175 18.9321C55.4544 18.9321 54.5352 19.8093 54.5352 21.0609ZM46.842 21.0609C46.842 22.3125 47.7614 23.1897 48.8244 23.1897C49.8875 23.1897 50.8067 22.3279 50.8067 21.0609C50.8067 19.7939 49.8875 18.9321 48.8244 18.9321C47.7614 18.9321 46.842 19.8093 46.842 21.0609ZM74.0862 17.5523C75.9094 17.5523 76.803 18.9988 77.0959 19.7837V19.7888L77.2545 20.1889L72.5558 22.1279C72.9153 22.8306 73.4751 23.1897 74.2608 23.1897C75.0466 23.1897 75.591 22.805 75.9915 22.2202L77.1882 23.0153C76.803 23.5847 75.8734 24.5696 74.2608 24.5696C72.2631 24.5696 70.7738 23.0256 70.7738 21.0609C70.7738 18.9732 72.2631 17.5523 74.0862 17.5523ZM72.3042 20.9532C72.2631 19.599 73.357 18.9065 74.1427 18.9065C74.7539 18.9065 75.2726 19.2142 75.4472 19.6503L72.3093 20.9532H72.3042ZM70.0292 24.3541H68.4833V14.0385H70.0292V24.3541ZM65.9566 18.3319H65.9053C65.5612 17.9216 64.8935 17.5471 64.0564 17.5471C62.3001 17.5471 60.6875 19.0912 60.6875 21.0711C60.6875 23.0512 62.3001 24.5644 64.0564 24.5644C64.8935 24.5644 65.5612 24.19 65.9053 23.7694H65.9566V24.2721C65.9566 25.616 65.2376 26.3342 64.0822 26.3342C63.1372 26.3342 62.5518 25.6571 62.3103 25.0825L60.9649 25.6417C61.3501 26.5701 62.3772 27.714 64.077 27.714C65.8847 27.714 67.4152 26.6522 67.4152 24.0566V17.7575H65.9515V18.3268L65.9566 18.3319ZM62.2282 21.0711C62.2282 22.292 63.1218 23.1846 64.1848 23.1846C65.2325 23.1846 66.0594 22.3074 66.0594 21.0711C66.0594 19.835 65.2479 18.9321 64.1848 18.9321C63.1218 18.9321 62.2282 19.8503 62.2282 21.0711ZM84.3218 14.0385H80.6291V24.3541H82.1699V20.4454H84.3218C86.0312 20.4454 87.7108 19.2091 87.7108 17.2445C87.7108 15.2798 86.0312 14.0436 84.3218 14.0436V14.0385ZM82.1699 19.0091H84.3622V19.0142C85.5178 19.0142 86.17 18.0601 86.17 17.2445C86.17 16.4289 85.5125 15.4748 84.3622 15.4748H82.1699V19.0091ZM93.8887 17.5266C92.7742 17.5266 91.6194 18.019 91.1411 19.1066L92.5073 19.6759C92.8002 19.1066 93.3448 18.9219 93.9146 18.9219C94.711 18.9219 95.5218 19.3989 95.5378 20.2504V20.3582C95.2602 20.1991 94.6591 19.9581 93.9299 19.9581C92.4562 19.9581 90.9565 20.7685 90.9565 22.2817C90.9565 23.6616 92.1633 24.549 93.5195 24.549C94.5569 24.549 95.1267 24.0823 95.486 23.5385H95.5378V24.3336H97.0268V20.3787C97.0268 18.5474 95.6606 17.5266 93.894 17.5266H93.8887ZM92.4974 22.3023C92.4974 22.9281 93.2006 23.1794 93.7041 23.1794V23.1743C94.5927 23.1743 95.4196 22.4972 95.5378 21.5431C95.1267 21.3431 94.8078 21.1995 94.1305 21.1995C93.3753 21.1995 92.4974 21.5072 92.4974 22.3023ZM102.445 17.7523L100.678 22.2254H100.627L98.7934 17.7523H97.1343L99.8819 24.0002L98.3159 27.4781H99.9231L104.16 17.7523H102.445ZM90.1037 24.349H88.5636V14.0334H90.1037V24.349Z" fill="#202020"/>
<path d="M8.85268 5.82986C8.61133 6.08121 8.47266 6.4762 8.47266 6.98916V25.2198C8.47266 25.7328 8.61644 26.1225 8.85268 26.3791L8.91431 26.4406L19.1392 16.2275V15.9865L8.91431 5.77344L8.85268 5.83499V5.82986Z" fill="#5BC9F4"/>
<path d="M22.5507 19.6391L19.1406 16.2331V15.992L22.5507 12.5859L22.6277 12.6321L26.6642 14.9251C27.8197 15.5816 27.8197 16.6486 26.6642 17.3052L22.6277 19.5981L22.5507 19.6443V19.6391Z" fill="url(#paint0_linear_3318_29678)"/>
<path d="M22.6291 19.5924L19.142 16.1094L8.85547 26.384C9.23549 26.7841 9.86205 26.8354 10.5708 26.4353L22.6291 19.5924Z" fill="url(#paint1_linear_3318_29678)"/>
<path d="M22.6291 12.6203L10.5708 5.77746C9.86205 5.37735 9.23549 5.42352 8.85547 5.82876L19.142 16.1034L22.6291 12.6203Z" fill="url(#paint2_linear_3318_29678)"/>
<path d="M38.1062 6.41316C37.7981 6.13616 37.3872 5.96175 36.9353 5.96175C35.9184 5.96175 35.1378 6.79787 35.1378 7.82894C35.1378 8.85995 35.9184 9.68586 36.9353 9.68586C37.8083 9.68586 38.4451 9.17805 38.4862 8.37782H37.1048V7.80837H39.236C39.236 9.51146 38.327 10.3168 36.9353 10.3168C35.5435 10.3168 34.4805 9.20365 34.4805 7.82894C34.4805 6.45419 35.5538 5.33594 36.9353 5.33594C37.5772 5.33594 38.1575 5.58216 38.5786 5.97714L38.1062 6.41316Z" fill="#202020"/>
<path d="M43.0061 5.39844V6.00885H40.7824V7.55803H42.7236V8.17358H40.7824V9.64062H43.0728V10.2511H40.125V5.39844H43.0009H43.0061Z" fill="#202020"/>
<path d="M47.2588 5.39844V6.01912H45.7849V10.2511H45.1224V6.01912H43.6484V5.39844H47.2588Z" fill="#202020"/>
<path d="M50.4054 5.39844V10.2511H49.748V5.39844H50.4054Z" fill="#202020"/>
<path d="M54.8798 5.39844V6.01912H53.4059V10.2511H52.7434V6.01912H51.2695V5.39844H54.8798Z" fill="#202020"/>
<path fill-rule="evenodd" clip-rule="evenodd" d="M61.9758 7.82894C61.9758 6.44907 60.8973 5.33594 59.5056 5.33594C58.1241 5.33594 57.0508 6.45419 57.0508 7.82894C57.0508 9.20365 58.1138 10.3168 59.5056 10.3168C60.8973 10.3168 61.9758 9.20875 61.9758 7.82894ZM61.3133 7.82894C61.3133 8.85485 60.5276 9.68068 59.5056 9.68068C58.4887 9.68068 57.7082 8.85995 57.7082 7.82894C57.7082 6.79787 58.4785 5.96688 59.5056 5.96688C60.5327 5.96688 61.3133 6.80301 61.3133 7.82894Z" fill="#202020"/>
<path d="M65.8552 10.2511L63.6417 6.59363V10.2511H62.9844V5.39844H63.6314L65.8244 9.02508V5.39844H66.4817V10.2511H65.8552Z" fill="#202020"/>
<defs>
<linearGradient id="paint0_linear_3318_29678" x1="25.9144" y1="7.70908" x2="5.94226" y2="7.70908" gradientUnits="userSpaceOnUse">
<stop stop-color="#FEE000"/>
<stop offset="0.42" stop-color="#FBBC0E"/>
<stop offset="0.78" stop-color="#F9A318"/>
<stop offset="1" stop-color="#F99B1C"/>
</linearGradient>
<linearGradient id="paint1_linear_3318_29678" x1="8.54818" y1="10.7745" x2="-4.57031" y2="32.8918" gradientUnits="userSpaceOnUse">
<stop stop-color="#EF4547"/>
<stop offset="1" stop-color="#C6186D"/>
</linearGradient>
<linearGradient id="paint2_linear_3318_29678" x1="-8.08226" y1="1.27209" x2="2.63228" y2="19.3304" gradientUnits="userSpaceOnUse">
<stop stop-color="#279E6F"/>
<stop offset="0.04" stop-color="#2B9F6E"/>
<stop offset="0.46" stop-color="#52B16B"/>
<stop offset="0.8" stop-color="#6BBC69"/>
<stop offset="1" stop-color="#74C169"/>
</linearGradient>
</defs>
</svg>
