<svg width="104" height="32" viewBox="0 0 104 32" fill="none" xmlns="http://www.w3.org/2000/svg">
<rect x="1.28906" y="0.5" width="101.977" height="31" rx="3.5" fill="white" stroke="#13243E"/>
<path fill-rule="evenodd" clip-rule="evenodd" d="M35.4019 21.3385H38.9798L39.8768 23.7237H41.5225L37.9445 14.8125H36.4595L32.9609 23.7237H34.5333L35.4019 21.3385ZM38.5221 20.1195H35.8575L36.8054 17.5554C36.9396 17.1612 37.0657 16.7772 37.1817 16.3993C37.3078 16.826 37.438 17.2161 37.5682 17.5675L38.5221 20.1195Z" fill="black"/>
<path fill-rule="evenodd" clip-rule="evenodd" d="M42.1055 17.0851C42.138 17.677 42.1543 18.2188 42.1543 18.7106L42.1421 26.4942L43.6635 26.3641V23.6152C44.0931 23.7655 44.5449 23.8424 44.9999 23.8428C45.5783 23.854 46.1488 23.7072 46.6496 23.4181C47.1364 23.1226 47.5233 22.688 47.7603 22.1706C48.0435 21.5471 48.1825 20.868 48.1671 20.1836C48.1883 19.5558 48.0695 18.9312 47.8192 18.355C47.6409 17.9359 47.3414 17.5794 46.9592 17.3311C46.5769 17.0828 46.1292 16.954 45.6733 16.9612C45.2844 16.9663 44.9013 17.0553 44.5502 17.2223C44.1991 17.3893 43.8883 17.6301 43.6391 17.9283C43.6195 17.6453 43.5828 17.3637 43.5293 17.0851H42.1055ZM46.6191 20.2689C46.6191 21.0816 46.4625 21.6911 46.1533 22.0975C45.9958 22.2988 45.7918 22.459 45.5586 22.5641C45.3254 22.6692 45.0702 22.7161 44.8149 22.7009C44.6138 22.7001 44.4134 22.6783 44.2169 22.6359C44.0341 22.5992 43.8565 22.5405 43.688 22.4611V18.9056C43.8967 18.6849 44.1374 18.4965 44.4019 18.3468C44.651 18.2099 44.9313 18.1399 45.2156 18.1437C45.4129 18.1386 45.6086 18.1814 45.7857 18.2685C45.9629 18.3555 46.1162 18.4842 46.2326 18.6435C46.4903 18.9861 46.6191 19.528 46.6191 20.2689Z" fill="black"/>
<path fill-rule="evenodd" clip-rule="evenodd" d="M49.043 17.0851C49.0755 17.677 49.0918 18.2188 49.0918 18.7106L49.0897 26.4942L50.6113 26.3641V23.6152C51.0408 23.7655 51.4926 23.8424 51.9477 23.8428C52.5261 23.8543 53.0966 23.7074 53.5974 23.4181C54.0849 23.1229 54.4725 22.6883 54.71 22.1706C54.9898 21.5464 55.1253 20.8672 55.1066 20.1836C55.1278 19.5558 55.009 18.9312 54.7588 18.355C54.5804 17.9359 54.281 17.5794 53.8987 17.3311C53.5164 17.0828 53.0687 16.954 52.6128 16.9612C51.8493 16.9612 51.1713 17.2836 50.5787 17.9283C50.5594 17.6452 50.522 17.3635 50.4669 17.0851H49.043ZM53.5607 20.2689C53.5607 21.0721 53.4061 21.6816 53.097 22.0975C52.9392 22.2986 52.7351 22.4585 52.5021 22.5636C52.269 22.6687 52.0138 22.7158 51.7585 22.7009C51.5574 22.7001 51.357 22.6783 51.1605 22.6359C50.9779 22.5986 50.8004 22.5399 50.6316 22.4611V18.9056C50.8404 18.6849 51.0811 18.4965 51.3456 18.3468C51.5947 18.2102 51.875 18.1403 52.1592 18.1437C52.3566 18.1386 52.5522 18.1814 52.7294 18.2685C52.9065 18.3555 53.0598 18.4842 53.1763 18.6435C53.4326 18.9861 53.5607 19.528 53.5607 20.2689Z" fill="black"/>
<path d="M57.9059 23.2965C57.2554 22.9409 56.7273 22.3979 56.3904 21.7382C56.0216 20.9931 55.8401 20.1696 55.8616 19.3387C55.8352 18.4497 56.0458 17.5698 56.4718 16.7888C56.8565 16.1111 57.4343 15.5631 58.1316 15.2142C58.8645 14.8566 59.6715 14.6763 60.4871 14.688C60.9818 14.6859 61.4749 14.7432 61.9557 14.8587C62.4056 14.9645 62.8422 15.1198 63.2576 15.3219L62.863 16.4902C62.1435 16.1277 61.3518 15.9305 60.5461 15.9132C59.9774 15.9037 59.4162 16.0438 58.9188 16.3195C58.4469 16.5901 58.0676 16.9965 57.8306 17.4858C57.558 18.0659 57.4255 18.7021 57.4441 19.3427C57.434 19.92 57.5348 20.4938 57.7411 21.0332C57.9284 21.5105 58.2578 21.919 58.6849 22.2035C59.1715 22.5075 59.7387 22.6577 60.3122 22.6342C60.6094 22.6334 60.9061 22.6083 61.199 22.559C61.4827 22.5139 61.7612 22.4419 62.031 22.3437V20.5313H59.9684V19.3509H63.5098V23.1075C62.996 23.3467 62.458 23.5299 61.9049 23.6541C61.3565 23.7803 60.7956 23.8444 60.2329 23.8451C59.423 23.8645 58.6217 23.6756 57.9059 23.2965Z" fill="black"/>
<path fill-rule="evenodd" clip-rule="evenodd" d="M68.8076 22.8422C68.8205 23.1377 68.8558 23.4318 68.9134 23.7219L70.3332 23.724C70.3006 23.1632 70.2843 22.7474 70.2843 22.4765V19.8352C70.3108 19.2453 70.1942 18.6578 69.9447 18.1224C69.745 17.7227 69.4119 17.405 69.0028 17.2244C68.5378 17.0379 68.0393 16.9487 67.5383 16.9623C67.0654 16.9608 66.594 17.0126 66.1327 17.1167C65.766 17.1954 65.4077 17.309 65.0628 17.456L65.3028 18.5613C65.6182 18.4181 65.9465 18.3052 66.2833 18.224C66.6232 18.1339 66.973 18.0861 67.3247 18.0818C67.7174 18.0559 68.1045 18.1851 68.4028 18.4415C68.6523 18.6825 68.7771 19.0956 68.7771 19.6808V19.8108C68.3775 19.7538 67.9745 19.7253 67.5709 19.7255C66.4873 19.7241 65.7137 19.9158 65.2499 20.3005C65.0219 20.4854 64.8402 20.7209 64.719 20.9882C64.598 21.2556 64.5408 21.5474 64.5522 21.8405C64.54 22.2271 64.6366 22.6093 64.8309 22.9438C65.0068 23.2384 65.2668 23.474 65.5774 23.6204C65.9045 23.7733 66.2618 23.8504 66.6229 23.8459C67.0642 23.8529 67.5005 23.7525 67.8943 23.5533C68.2433 23.3797 68.5539 23.1379 68.8076 22.8422ZM68.7771 21.936C68.5587 22.1742 68.2953 22.3668 68.0021 22.5029C67.713 22.6491 67.3944 22.7276 67.0705 22.7325C66.8115 22.7468 66.5568 22.6618 66.3585 22.4948C66.2651 22.3994 66.1933 22.2851 66.1481 22.1596C66.1028 22.0341 66.0851 21.9004 66.0961 21.7674C66.0905 21.6136 66.12 21.4604 66.1824 21.3196C66.2448 21.1788 66.3384 21.054 66.4561 20.9547C66.6975 20.7516 67.1322 20.6499 67.76 20.6499C68.0999 20.6547 68.4394 20.6771 68.7771 20.717V21.936Z" fill="black"/>
<path d="M71.4609 22.1286V14.286L72.9743 14.1641V21.8583C72.9528 22.0719 73.0037 22.2865 73.1188 22.4678C73.1769 22.5302 73.2485 22.5786 73.3282 22.6092C73.4078 22.6399 73.4934 22.652 73.5784 22.6446C73.7164 22.6387 73.8531 22.6154 73.9853 22.5755L74.1643 23.6646C73.9939 23.7288 73.8174 23.775 73.6375 23.8027C73.4433 23.8364 73.2466 23.854 73.0496 23.8555C71.9905 23.8487 71.4609 23.2731 71.4609 22.1286Z" fill="black"/>
<path d="M75.2461 22.1286V14.286L76.7615 14.1641V21.8583C76.7399 22.0719 76.7908 22.2865 76.9059 22.4678C76.964 22.5302 77.0357 22.5786 77.1153 22.6092C77.1949 22.6399 77.2805 22.652 77.3656 22.6446C77.5036 22.6387 77.64 22.6154 77.7727 22.5755L77.9496 23.6646C77.7795 23.7288 77.6041 23.7751 77.4246 23.8027C77.2297 23.8364 77.0325 23.8541 76.8347 23.8555C75.777 23.8487 75.2474 23.2731 75.2461 22.1286Z" fill="black"/>
<path fill-rule="evenodd" clip-rule="evenodd" d="M79.8245 20.594H84.1717V20.1856C84.1793 19.6289 84.0755 19.0762 83.8665 18.5602C83.6758 18.0866 83.3501 17.6789 82.9306 17.3879C82.4653 17.0815 81.9153 16.9273 81.3585 16.947C80.7971 16.936 80.2433 17.0809 79.7597 17.3656C79.2875 17.6571 78.9115 18.0811 78.6796 18.5846C78.4065 19.1779 78.2738 19.8256 78.2906 20.4782C78.2738 21.1009 78.3989 21.7193 78.6567 22.2864C78.8909 22.7759 79.2738 23.1786 79.7513 23.4364C80.3028 23.7208 80.9168 23.8607 81.537 23.8428C82.4028 23.8559 83.2601 23.6709 84.0435 23.3023L83.7094 22.262C83.4066 22.3903 83.0931 22.4923 82.7719 22.5668C82.4577 22.6408 82.1365 22.6789 81.8139 22.6806C80.5568 22.6806 79.8939 21.9851 79.8245 20.594ZM82.2815 18.4383C82.5492 18.7775 82.6926 19.1974 82.6888 19.6289L79.8611 19.6249C79.9008 19.1868 80.077 18.7721 80.3638 18.4383C80.4866 18.3068 80.6361 18.2025 80.8024 18.1325C80.9687 18.0625 81.1472 18.0283 81.328 18.0319C81.5072 18.0255 81.685 18.0587 81.8497 18.1289C82.0153 18.1991 82.1625 18.3048 82.2815 18.4383Z" fill="black"/>
<path d="M85.3245 18.7516C85.3245 18.3878 85.3062 17.8312 85.2734 17.0855H86.6976C86.722 17.2704 86.7441 17.4918 86.7685 17.7459C86.7929 17.9998 86.8051 18.2111 86.8135 18.3716C86.9668 18.1126 87.1407 17.8667 87.3345 17.6362C87.5023 17.4391 87.7052 17.2745 87.9325 17.1505C88.1713 17.0216 88.4398 16.9565 88.7113 16.9616C88.9173 16.9565 89.1232 16.9819 89.3216 17.0368L89.1301 18.3533C88.8921 18.2845 88.6419 18.2669 88.3963 18.302C88.1514 18.337 87.9157 18.4238 87.7067 18.5565C87.3696 18.8064 87.0767 19.1098 86.8379 19.4545V23.7212H85.3245V18.7516Z" fill="black"/>
<path d="M90.168 26.4381C89.9827 26.4081 89.7996 26.364 89.6211 26.306L89.898 25.1987C90.0254 25.2331 90.155 25.2609 90.2862 25.282C90.4327 25.308 90.5807 25.3216 90.7294 25.3227C91.4075 25.3227 91.9125 24.8899 92.2428 24.0244L92.3427 23.7785L89.8919 17.0859H91.5189L92.7638 20.8264C92.9232 21.3075 93.0521 21.7981 93.1505 22.2953C93.2665 21.8158 93.4007 21.3364 93.5571 20.8568L94.7981 17.0859H96.3298L93.8889 23.809C93.7043 24.3505 93.4533 24.8671 93.1421 25.347C92.9049 25.7095 92.58 26.007 92.1986 26.2126C91.7889 26.4121 91.3374 26.5097 90.882 26.497C90.6432 26.4979 90.4045 26.4782 90.168 26.4381Z" fill="black"/>
<path d="M32.9609 6.32812H35.6662L35.591 6.98235H33.7501V8.24812H35.4852V8.85763H33.7501V10.2595H35.6887L35.6215 10.9239H32.9609V6.32812Z" fill="black"/>
<path d="M37.5362 8.5793L36.1124 6.32812H37.0155L37.9837 7.98197L39.0008 6.32812H39.8775L38.4536 8.55088L39.9935 10.9239H39.0781L37.9817 9.11568L36.865 10.9239H35.9883L37.5362 8.5793Z" fill="black"/>
<path fill-rule="evenodd" clip-rule="evenodd" d="M41.815 6.32812H40.5742V10.9239H41.3696V9.15431C41.5707 9.19332 41.7749 9.21435 41.9798 9.21725C42.2749 9.22296 42.5672 9.16041 42.8341 9.03439C43.0743 8.91972 43.2757 8.73755 43.4138 8.5102C43.5554 8.26842 43.6258 7.9917 43.6172 7.71174C43.6285 7.51574 43.5923 7.31993 43.5115 7.14093C43.4308 6.96194 43.3079 6.80508 43.1534 6.68368C42.8429 6.44665 42.3968 6.32812 41.815 6.32812ZM42.7659 8.084C42.7221 8.1959 42.6544 8.29695 42.5676 8.38019C42.3583 8.54646 42.0939 8.62776 41.8273 8.60772C41.6737 8.60384 41.5207 8.58822 41.3696 8.56102V6.93561H41.8008C42.0682 6.918 42.3347 6.98328 42.5636 7.12254C42.6534 7.19514 42.724 7.28873 42.7691 7.39504C42.8141 7.50134 42.8322 7.61708 42.8219 7.73206C42.8289 7.85203 42.8099 7.97211 42.7659 8.084Z" fill="black"/>
<path d="M44.4062 6.32812H45.1996V10.2454H47.1035L47.0363 10.9239H44.4062V6.32812Z" fill="black"/>
<path fill-rule="evenodd" clip-rule="evenodd" d="M47.5368 9.88003C47.707 10.2222 47.9763 10.5053 48.3097 10.6927C48.6784 10.8963 49.0948 10.998 49.5159 10.9873C49.9515 10.9972 50.3823 10.895 50.7669 10.6907C51.1153 10.4967 51.3985 10.204 51.5806 9.84955C51.7799 9.45069 51.8783 9.00909 51.8674 8.56346C51.8763 8.14677 51.7864 7.73391 51.605 7.3586C51.4366 7.01708 51.1695 6.73394 50.8381 6.5459C50.4708 6.34704 50.0576 6.24823 49.64 6.25943C49.1984 6.2437 48.7602 6.34313 48.3687 6.54794C48.019 6.74023 47.7354 7.03337 47.5551 7.38908C47.3583 7.7837 47.2606 8.2202 47.2703 8.66098C47.2603 9.08269 47.3517 9.50075 47.5368 9.88003ZM50.8686 9.52041C50.7668 9.76909 50.5925 9.98151 50.3683 10.1299C50.1274 10.2891 49.8434 10.3706 49.5546 10.3635C49.2762 10.3781 49.0005 10.3036 48.7675 10.1508C48.5344 9.99812 48.3563 9.77511 48.2588 9.51431C48.1491 9.22921 48.0953 8.92574 48.1002 8.62029C48.0958 8.3239 48.1533 8.02981 48.2691 7.75683C48.3735 7.50414 48.5486 7.28688 48.7735 7.13105C49.0212 6.97967 49.3059 6.89956 49.5963 6.89956C49.8866 6.89956 50.1714 6.97967 50.4191 7.13105C50.6326 7.28281 50.7956 7.49517 50.8869 7.74057C50.9889 8.02391 51.0385 8.32336 51.0334 8.62441C51.0387 8.931 50.9828 9.23569 50.8686 9.52041Z" fill="black"/>
<path fill-rule="evenodd" clip-rule="evenodd" d="M54.1941 6.32508H52.7539V10.9209H53.5554V9.0923H54.1391L55.3372 10.9209H56.2627L54.8389 8.88917C55.0007 8.82814 55.1518 8.74167 55.2864 8.63317C55.4369 8.50852 55.5602 8.35432 55.6485 8.18007C55.7494 7.98134 55.7997 7.76082 55.7949 7.53803C55.8045 7.3667 55.7724 7.1956 55.7016 7.03927C55.6308 6.88293 55.5232 6.74596 55.3881 6.64001C55.0359 6.406 54.616 6.29525 54.1941 6.32508ZM54.5114 8.38731C54.3526 8.46456 54.1775 8.50289 54.0008 8.49908L53.5493 8.50715V6.93664H54.1249C54.3494 6.92173 54.5729 6.9779 54.7636 7.09715C54.8393 7.1567 54.899 7.23411 54.9374 7.32241C54.9758 7.41071 54.9915 7.50715 54.9833 7.60305C54.9861 7.76922 54.9432 7.93296 54.8592 8.07645C54.7751 8.21088 54.6545 8.31867 54.5114 8.38731Z" fill="black"/>
<path d="M56.8828 6.32812H59.5943L59.517 6.98235H57.6863V8.24812H59.4051V8.85763H57.67V10.2595H59.6086L59.5495 10.9239H56.8828V6.32812Z" fill="black"/>
<path d="M62.543 6.32812H63.3363V10.9239H62.543V6.32812Z" fill="black"/>
<path d="M65.4356 6.99047H64.0117L64.0809 6.32812H67.6609L67.5877 6.99047H66.231V10.9239H65.4356V6.99047Z" fill="black"/>
<path fill-rule="evenodd" clip-rule="evenodd" d="M70.3396 9.87958C70.5091 10.2216 70.7777 10.5047 71.1105 10.6922C71.4804 10.8965 71.8983 10.9982 72.3208 10.9869C72.7564 10.9973 73.1873 10.8951 73.5718 10.6902C73.9206 10.4968 74.2039 10.204 74.3854 9.84911C74.5864 9.45071 74.6855 9.00888 74.6742 8.56301C74.6825 8.14616 74.5919 7.73329 74.4098 7.35816C74.2421 7.0162 73.9748 6.73289 73.6429 6.54546C73.2731 6.34121 72.8552 6.23949 72.4327 6.25086C71.993 6.2395 71.558 6.34168 71.1695 6.54749C70.8202 6.74029 70.5367 7.03329 70.3559 7.38863C70.1591 7.78325 70.0613 8.21976 70.0711 8.66053C70.0607 9.08255 70.1529 9.50084 70.3396 9.87958ZM73.6694 9.51996C73.5677 9.76812 73.3942 9.98038 73.1711 10.1295C72.9304 10.2875 72.6474 10.369 72.3595 10.3631C72.0711 10.3739 71.7866 10.2943 71.5458 10.1356C71.3259 9.98076 71.1567 9.76446 71.0597 9.51387C70.9499 9.22876 70.8961 8.9253 70.901 8.61985C70.8976 8.32354 70.955 8.02966 71.0698 7.75638C71.1742 7.5037 71.3494 7.28643 71.5743 7.1306C71.8222 6.97904 72.1074 6.89884 72.3981 6.89884C72.6888 6.89884 72.9739 6.97904 73.2219 7.1306C73.4348 7.28248 73.5972 7.49487 73.6877 7.74012C73.7896 8.02346 73.8393 8.32291 73.8342 8.62396C73.8395 8.93055 73.7835 9.23524 73.6694 9.51996Z" fill="black"/>
<path d="M75.5547 6.32812H76.466L78.7424 9.88978C78.7218 9.5505 78.7134 9.23965 78.7134 8.95317V6.32812H79.4503V10.9239H78.5669L76.2565 7.3054C76.2788 7.71174 76.291 8.07949 76.291 8.3985V10.9239H75.5547V6.32812Z" fill="black"/>
<path fill-rule="evenodd" clip-rule="evenodd" d="M21.7714 6.35156H13.3278C9.34705 6.35156 7.89062 7.80629 7.89062 11.7824V20.2223C7.89062 24.1984 9.34705 25.6532 13.3278 25.6532H21.7714C25.7521 25.6532 27.2106 24.1984 27.2106 20.2223V11.7824C27.2146 7.80629 25.7582 6.35156 21.7714 6.35156Z" fill="#C8102E"/>
<path fill-rule="evenodd" clip-rule="evenodd" d="M11.7168 16H12.2294V18.5255H11.7168V17.4994H10.5595V18.5255H10.0469V16H10.5595V17.0158H11.7168V16ZM14.6053 17.4446C14.6053 17.8509 14.4019 18.0744 14.0317 18.0744C13.6614 18.0744 13.454 17.8509 13.454 17.4222V16H12.9414V17.4425C12.9414 18.1516 13.336 18.5579 14.0235 18.5579C14.711 18.5579 15.1179 18.1516 15.1179 17.4202V16H14.6053V17.4446ZM19.955 16L20.5286 17.7351L21.0879 16H21.6209L20.7401 18.5255H20.311L19.7374 16.8676L19.1657 18.5255H18.7406L17.8598 16H18.405L18.9643 17.7371L19.5339 16H19.955ZM22.5383 17.4364H23.472V16.9793H22.5383V16.4632H23.893V16H22.0338V18.5194H23.9418V18.0642H22.5383V17.4364ZM25.0586 18.5194H24.5521V16H25.0586V18.5194ZM16.1309 17.9972L15.901 18.5214H15.3782L16.4828 16H16.9343L18.0429 18.5214H17.514L17.2964 17.9992L16.1309 17.9972ZM17.093 17.5421H16.322L16.7065 16.64L17.093 17.5421Z" fill="white"/>
<path d="M17.5558 12.7903C16.703 12.7898 15.8854 12.4512 15.2824 11.8489C14.6794 11.2466 14.3405 10.4299 14.3398 9.57812H14.7935C14.7935 10.3099 15.0845 11.0116 15.6026 11.5291C16.1206 12.0465 16.8232 12.3372 17.5558 12.3372C18.2884 12.3372 18.991 12.0465 19.509 11.5291C20.027 11.0116 20.3181 10.3099 20.3181 9.57812H20.7717C20.7712 10.4299 20.4322 11.2466 19.8292 11.8489C19.2262 12.4512 18.4086 12.7898 17.5558 12.7903Z" fill="white"/>
</svg>
