<svg width="111" height="32" viewBox="0 0 111 32" fill="none" xmlns="http://www.w3.org/2000/svg">
<rect x="0.5" y="0.5" width="109.604" height="31" rx="3.5" fill="white" stroke="#13243E"/>
<path fill-rule="evenodd" clip-rule="evenodd" d="M36.3255 10.4511L36.7928 8.92244H38.508L38.9959 10.4511H40.0538L38.2975 5.05469H37.0393L35.3086 10.4511H36.3255ZM37.9123 6.85005L38.3385 8.1786H36.9519L37.368 6.85005C37.4288 6.64863 37.4816 6.42728 37.5327 6.21333C37.5636 6.08402 37.5938 5.9574 37.6247 5.83952H37.6401C37.6617 5.92173 37.6837 6.00784 37.7061 6.09608C37.7692 6.34367 37.8366 6.60801 37.9123 6.85005Z" fill="#202020"/>
<path d="M41.5279 6.55469L42.1595 8.5347C42.2726 8.8784 42.3495 9.19131 42.4266 9.50933H42.4523C42.5242 9.19131 42.6115 8.8835 42.7193 8.5347L43.3459 6.55469H44.3781L42.8888 10.4532H41.9182L40.4648 6.55469H41.5331H41.5279Z" fill="#202020"/>
<path fill-rule="evenodd" clip-rule="evenodd" d="M48.365 10.4623C48.3188 10.2211 48.3034 9.87751 48.3034 9.52353V8.12826C48.3034 7.27165 47.9439 6.47656 46.6909 6.47656C46.0746 6.47656 45.5661 6.64583 45.2786 6.82024L45.4686 7.46144C45.7305 7.29214 46.131 7.1742 46.5163 7.1742C47.2096 7.1742 47.3122 7.59995 47.3122 7.85641V7.91797C45.8692 7.90769 44.9961 8.41557 44.9961 9.3902C44.9961 9.98007 45.4377 10.5494 46.2235 10.5494C46.7371 10.5494 47.1479 10.334 47.379 10.0313H47.4047L47.4766 10.4623H48.365ZM45.9822 9.28247C45.9822 8.69252 46.6446 8.5438 47.343 8.55409V9.0875C47.343 9.15934 47.343 9.23119 47.3174 9.30296C47.225 9.5851 46.9425 9.84155 46.5419 9.84155C46.2286 9.84155 45.9822 9.66715 45.9822 9.28247Z" fill="#202020"/>
<path fill-rule="evenodd" clip-rule="evenodd" d="M49.6445 5.46829C49.6445 5.75555 49.867 5.99664 50.2059 5.99664H50.2165C50.5661 5.99664 50.7885 5.75555 50.7885 5.46829C50.7779 5.16051 50.5554 4.92969 50.2165 4.92969C49.8775 4.92969 49.6445 5.16565 49.6445 5.46829ZM49.7028 6.55577V10.4543H50.7196V6.55577H49.7028Z" fill="#202020"/>
<path d="M52.1055 4.76562H53.0915V10.4595H52.1055V4.76562Z" fill="#202020"/>
<path fill-rule="evenodd" clip-rule="evenodd" d="M57.611 10.4623C57.5649 10.2211 57.5495 9.87751 57.5495 9.52353L57.5546 9.52864V8.12826C57.5546 7.27165 57.19 6.47656 55.9421 6.47656C55.3257 6.47656 54.8173 6.64583 54.5298 6.82024L54.7198 7.46144C54.9817 7.29214 55.3823 7.1742 55.7674 7.1742C56.4556 7.1742 56.5583 7.59995 56.5583 7.85641V7.91797C55.1152 7.90769 54.2422 8.41557 54.2422 9.3902C54.2422 9.98007 54.6838 10.5494 55.4696 10.5494C55.9831 10.5494 56.3939 10.334 56.6251 10.0313H56.6508L56.7226 10.4623H57.611ZM55.2282 9.28247C55.2282 8.69252 55.8907 8.5438 56.5891 8.55409V9.0875C56.5891 9.15934 56.5891 9.23119 56.5634 9.30296C56.471 9.5851 56.1885 9.84155 55.788 9.84155C55.4747 9.84155 55.2282 9.66715 55.2282 9.28247Z" fill="#202020"/>
<path fill-rule="evenodd" clip-rule="evenodd" d="M59.9258 4.76562H58.9449V9.37203C58.9449 9.76189 58.9295 10.1927 58.9141 10.4595H59.7563L59.8026 9.87473H59.818C60.0952 10.3518 60.5472 10.5467 61.0505 10.5467C61.9338 10.5467 62.8223 9.84905 62.8223 8.44867C62.8274 7.26376 62.1495 6.46866 61.1943 6.46866C60.6088 6.46866 60.1826 6.72001 59.9412 7.09446H59.9258V4.76562ZM59.9515 9.07961C59.936 9.00783 59.9258 8.93088 59.9258 8.84882L59.9309 8.84364V8.21271C59.9309 8.11526 59.9463 8.02802 59.9618 7.95625C60.0644 7.52532 60.4342 7.23808 60.8348 7.23808C61.4921 7.23808 61.8208 7.79724 61.8208 8.48456C61.8208 9.27968 61.4408 9.767 60.8245 9.767C60.3983 9.767 60.0542 9.47976 59.9515 9.07961Z" fill="#202020"/>
<path d="M63.9844 4.76562H64.9704V10.4595H63.9844V4.76562Z" fill="#202020"/>
<path fill-rule="evenodd" clip-rule="evenodd" d="M68.2912 9.79277C67.6647 9.79277 67.1152 9.48496 67.0895 8.78217H67.0947H69.7087C69.7241 8.69501 69.7395 8.55139 69.7395 8.36671C69.7395 7.5101 69.308 6.46875 68.055 6.46875C66.8019 6.46875 66.1445 7.48442 66.1445 8.56678C66.1445 9.76198 66.8892 10.5365 68.1577 10.5365C68.7175 10.5365 69.1797 10.4339 69.5186 10.2903L69.3748 9.61837C69.0667 9.72092 68.7483 9.79277 68.2912 9.79277ZM67.9934 7.14073C68.6507 7.14073 68.8151 7.73577 68.8048 8.09486H67.0895C67.1255 7.69471 67.3822 7.14073 67.9934 7.14073Z" fill="#202020"/>
<path fill-rule="evenodd" clip-rule="evenodd" d="M72.6484 8.536C72.6484 9.79277 73.506 10.5468 74.6051 10.5468L74.6 10.5416H74.6103C75.5962 10.5416 76.6077 9.90042 76.6077 8.46926C76.6077 7.28435 75.8428 6.46875 74.6667 6.46875C73.4906 6.46875 72.6484 7.27924 72.6484 8.536ZM75.5911 8.49494C75.5911 9.29006 75.1957 9.83376 74.6359 9.83376H74.6257C74.0401 9.83376 73.6653 9.26438 73.6653 8.51033C73.6653 7.864 73.9734 7.18179 74.6462 7.18179C75.319 7.18179 75.5911 7.8845 75.5911 8.49494Z" fill="#202020"/>
<path d="M77.7688 7.72308C77.7688 7.27675 77.7535 6.89719 77.7383 6.56376H78.5957L78.6422 7.14852H78.6674C78.842 6.84589 79.2684 6.47656 79.9206 6.47656C80.5728 6.47656 81.3074 6.91771 81.3074 8.14883V10.4623H80.3211V8.26167C80.3211 7.70251 80.1106 7.27675 79.5766 7.27675C79.1861 7.27675 78.9145 7.55889 78.8062 7.85131C78.7757 7.93336 78.7604 8.05138 78.7604 8.16422V10.4623H77.7741V7.72308H77.7688Z" fill="#202020"/>
<path d="M85.8451 5.55201V6.55228H86.7849V7.29091H85.8451V9.00421C85.8451 9.48642 85.974 9.72238 86.3486 9.72238C86.5232 9.72238 86.6209 9.71209 86.7338 9.68131L86.749 10.4252C86.6056 10.4815 86.3387 10.5277 86.0358 10.5277C85.6659 10.5277 85.373 10.4098 85.1884 10.2097C84.9725 9.98402 84.8749 9.62493 84.8749 9.11194V7.28581H84.3203V6.54715H84.8749V5.81875L85.8451 5.54688V5.55201Z" fill="#202020"/>
<path d="M87.8796 4.76562H88.8659V7.08936H88.8811C88.9994 6.90467 89.1687 6.75078 89.3693 6.64819C89.5699 6.53534 89.8003 6.47379 90.052 6.47379C90.7149 6.47379 91.4136 6.91493 91.4136 8.16143V10.4595H90.4273V8.26399C90.4273 7.7049 90.2168 7.26886 89.6721 7.26886C89.2869 7.26886 89.0146 7.52532 88.9017 7.82284C88.8712 7.91008 88.8605 8.01782 88.8605 8.12037V10.4595H87.875V4.76562H87.8796Z" fill="#202020"/>
<path fill-rule="evenodd" clip-rule="evenodd" d="M94.7137 9.79277C94.0866 9.79277 93.5374 9.48496 93.5115 8.78217H93.5168H96.1309C96.1462 8.69501 96.1614 8.55139 96.1614 8.36671C96.1614 7.5101 95.7305 6.46875 94.4772 6.46875C93.2239 6.46875 92.5664 7.48442 92.5664 8.56678C92.5664 9.76198 93.3117 10.5365 94.5794 10.5365C95.1393 10.5365 95.6015 10.4339 95.941 10.2903L95.7968 9.61837C95.4887 9.72092 95.1706 9.79277 94.7137 9.79277ZM94.4154 7.14073C95.0729 7.14073 95.2369 7.73577 95.227 8.09486H93.5115C93.5474 7.69471 93.8044 7.14073 94.4154 7.14073Z" fill="#202020"/>
<path d="M24.5294 15.6939C24.5037 13.0213 26.7171 11.7235 26.8198 11.662C25.5668 9.83582 23.6203 9.58446 22.9373 9.56397C21.3042 9.39467 19.7225 10.5386 18.8905 10.5386C18.0585 10.5386 16.7592 9.57936 15.3829 9.60504C13.606 9.63582 11.9472 10.6617 11.0331 12.2519C9.15351 15.5041 10.5555 20.2797 12.3581 22.9112C13.2619 24.1987 14.3147 25.6351 15.6911 25.5837C17.0366 25.5273 17.5398 24.7271 19.1678 24.7271C20.7958 24.7271 21.2529 25.5837 22.66 25.553C24.1082 25.5273 25.0172 24.2603 25.8851 22.9625C26.9276 21.4852 27.3436 20.0335 27.3642 19.9617C27.3282 19.9514 24.555 18.8947 24.5242 15.6887" fill="#202020"/>
<path d="M21.8678 7.83599C22.5918 6.92805 23.09 5.69694 22.9513 4.44531C21.9037 4.49148 20.589 5.16859 19.834 6.05601C19.1665 6.83571 18.5656 8.11812 18.7197 9.31842C19.9009 9.40566 21.1077 8.72338 21.8678 7.83088" fill="#202020"/>
<path fill-rule="evenodd" clip-rule="evenodd" d="M42.1333 25.3729H44.0129L40.454 14.375H38.2662L34.7227 25.3729H36.5509L37.5318 22.1412H41.1061L42.1333 25.3729ZM39.8685 17.9144L40.798 20.787H37.8451L38.7592 17.9144C39.0006 17.0014 39.1752 16.3089 39.2831 15.8421H39.3139C39.586 16.9296 39.7709 17.6221 39.8685 17.9144Z" fill="#202020"/>
<path fill-rule="evenodd" clip-rule="evenodd" d="M52.0334 24.5062C52.7627 23.7265 53.1273 22.6595 53.1273 21.3105L53.1222 21.3002C53.1222 20.0947 52.8089 19.1201 52.1823 18.3814C51.561 17.6427 50.7752 17.2734 49.8405 17.2734C48.6439 17.2734 47.7504 17.7454 47.1649 18.6943H47.1289L47.0314 17.4376H45.4805C45.5267 18.3301 45.5472 19.2022 45.5472 20.0485V28.5996H47.3138V24.4241H47.3446C47.8017 25.173 48.5515 25.5475 49.5992 25.5475C50.5698 25.5475 51.3812 25.2038 52.0334 24.5062ZM50.8008 19.4587C51.1501 19.9563 51.3247 20.5974 51.3247 21.3668L51.3195 21.3617C51.3195 22.203 51.1347 22.875 50.7649 23.388C50.3952 23.9009 49.8765 24.1522 49.214 24.1522C48.6491 24.1522 48.1868 23.9573 47.8325 23.5572C47.4781 23.1622 47.3035 22.6749 47.3035 22.1004V20.777C47.3035 20.6334 47.3292 20.4589 47.3858 20.2383C47.4935 19.7716 47.7247 19.3971 48.0791 19.1047C48.4334 18.8174 48.8288 18.6738 49.2654 18.6738C49.9073 18.6738 50.4208 18.9355 50.8008 19.4587Z" fill="#202020"/>
<path fill-rule="evenodd" clip-rule="evenodd" d="M61.165 24.5062C61.8943 23.7265 62.259 22.6595 62.259 21.3105V21.3002C62.259 20.0947 61.9457 19.1201 61.3191 18.3814C60.6926 17.6427 59.912 17.2734 58.9773 17.2734C57.7807 17.2734 56.8872 17.7454 56.3017 18.6943H56.2657L56.1682 17.4376H54.6172C54.6634 18.3301 54.684 19.2022 54.684 20.0485V28.5996H56.4455V24.4241H56.4763C56.9333 25.173 57.6883 25.5475 58.7308 25.5475C59.7014 25.5475 60.5129 25.2038 61.165 24.5062ZM59.9376 19.4587C60.2868 19.9563 60.4615 20.5974 60.4615 21.3668L60.4563 21.3617C60.4563 22.203 60.2714 22.875 59.9017 23.388C59.5319 23.9009 59.0133 24.1522 58.3507 24.1522C57.7807 24.1522 57.3236 23.9573 56.9693 23.5572C56.6149 23.1622 56.4403 22.6749 56.4403 22.1004V20.777C56.4403 20.6334 56.466 20.4589 56.5225 20.2383C56.6303 19.7716 56.8615 19.3971 57.2158 19.1047C57.5702 18.8174 57.9656 18.6738 58.4021 18.6738C59.044 18.6738 59.5576 18.9355 59.9376 19.4587Z" fill="#202020"/>
<path d="M72.4682 22.2954C72.4682 23.229 72.1447 23.9933 71.4873 24.5781C70.7684 25.2193 69.772 25.5424 68.4882 25.5424C67.3019 25.5424 66.3517 25.3168 65.6328 24.8602L66.0437 23.3932C66.8191 23.86 67.6665 24.096 68.596 24.096C69.2585 24.096 69.7772 23.9472 70.1469 23.6496C70.5167 23.347 70.7015 22.9469 70.7015 22.4493C70.7015 22.0031 70.5475 21.6286 70.2445 21.3208C69.9415 21.0131 69.4331 20.7309 68.7244 20.4693C66.7986 19.7511 65.833 18.6996 65.833 17.3146C65.833 16.4118 66.172 15.668 66.8448 15.0935C67.5175 14.5138 68.4162 14.2266 69.541 14.2266C70.5424 14.2266 71.3743 14.401 72.0368 14.7498L71.5952 16.1861C70.9738 15.8475 70.2702 15.6782 69.4896 15.6782C68.8682 15.6782 68.3854 15.8321 68.0362 16.1348C67.7435 16.4067 67.5946 16.7401 67.5946 17.13C67.5946 17.5659 67.764 17.925 68.0978 18.2071C68.3906 18.4688 68.9247 18.7509 69.7002 19.0586C70.6451 19.4382 71.3435 19.8845 71.7904 20.3975C72.2371 20.9104 72.4579 21.5465 72.4579 22.3057" fill="#202020"/>
<path d="M78.2984 18.7671H76.3571V22.6195C76.3571 23.5992 76.7019 24.0865 77.3899 24.0865C77.7027 24.0865 77.9651 24.0608 78.1702 24.0044L78.2168 25.3433C77.8728 25.4715 77.4105 25.5382 76.8453 25.5382C76.1469 25.5382 75.6025 25.3279 75.2122 24.9021C74.8219 24.4764 74.6216 23.7634 74.6216 22.7631V18.7671H73.4609V17.4437H74.6216V15.992L76.3525 15.4688V17.4437H78.2938V18.7671H78.2984Z" fill="#202020"/>
<path fill-rule="evenodd" clip-rule="evenodd" d="M86.0247 24.3525C86.7181 23.5729 87.0674 22.5726 87.0674 21.3518C87.0674 20.1668 86.7333 19.2024 86.056 18.4484C85.3466 17.6738 84.4533 17.2891 83.2466 17.2891C82.0399 17.2891 81.0795 17.6789 80.3655 18.4638C79.6516 19.2435 79.2969 20.2488 79.2969 21.48C79.2969 22.6546 79.6409 23.6293 80.3343 24.3987C81.0231 25.1733 81.911 25.558 83.1177 25.558C84.3252 25.558 85.2955 25.1579 86.0247 24.3525ZM84.7668 19.5256C85.0796 20.0488 85.239 20.6798 85.239 21.4081C85.239 22.1417 85.0796 22.7726 84.7508 23.3061C84.3709 23.9473 83.8576 24.2705 83.1696 24.2705C82.4815 24.2705 81.9468 23.9525 81.5669 23.3215C81.2489 22.7982 81.0948 22.193 81.0948 21.4389C81.0948 20.6849 81.2489 20.0488 81.5669 19.5256C81.9369 18.8946 82.5021 18.5766 83.1848 18.5766C83.8675 18.5766 84.3969 18.8946 84.7668 19.5256Z" fill="#202020"/>
<path d="M92.798 19.0024C92.6233 18.9716 92.4387 18.9562 92.2434 18.9562C91.6225 18.9562 91.1443 19.1921 90.8056 19.659C90.5127 20.0744 90.3639 20.5925 90.3639 21.2235V25.3836H88.6027L88.6179 19.9514C88.6179 19.0382 88.5973 18.2073 88.5508 17.4533H90.0863L90.1534 18.9716H90.1999C90.3845 18.4484 90.682 18.0277 91.0832 17.7148C91.473 17.4327 91.8994 17.2891 92.3563 17.2891C92.5211 17.2891 92.6645 17.2993 92.798 17.3198V19.0024Z" fill="#202020"/>
<path fill-rule="evenodd" clip-rule="evenodd" d="M100.626 21.8388C100.667 21.6182 100.688 21.3566 100.688 21.0385V21.0436C100.688 20.0536 100.457 19.2227 99.9892 18.5456C99.4034 17.6992 98.5514 17.2734 97.3904 17.2734C96.2302 17.2734 95.3004 17.6992 94.6177 18.5456C93.9655 19.3406 93.6367 20.3102 93.6367 21.531C93.6367 22.7518 93.9907 23.7214 94.6894 24.4446C95.3881 25.1678 96.3584 25.5321 97.5857 25.5321C98.6132 25.5321 99.501 25.3679 100.251 25.0396L99.974 23.8136C99.3264 24.065 98.6132 24.1881 97.8321 24.1881C97.1234 24.1881 96.5483 24.0034 96.1013 23.6341C95.6139 23.2187 95.3568 22.6236 95.3362 21.8388H100.626ZM98.6643 19.2329C98.9053 19.6125 99.019 20.0639 99.0083 20.5871H95.3362C95.3881 20.0536 95.562 19.5971 95.8549 19.2175C96.2149 18.7405 96.6818 18.4994 97.2569 18.4994C97.8885 18.4994 98.3614 18.7456 98.6643 19.2329Z" fill="#202020"/>
</svg>
