<svg width="30" height="30" viewBox="0 0 30 30" fill="none" xmlns="http://www.w3.org/2000/svg">
<g clip-path="url(#clip0_35_76)">
<path d="M29.8935 21.6113C29.6854 21.0431 29.2879 20.7394 28.836 20.4881C28.7612 20.4444 28.6842 20.4043 28.6054 20.3681L28.1948 20.16C26.7848 19.4119 25.6842 18.4687 24.921 17.3512C24.704 17.037 24.5157 16.7037 24.3585 16.3556C24.2948 16.1681 24.2985 16.0631 24.3435 15.9675C24.3905 15.893 24.4524 15.8292 24.5254 15.78C24.7673 15.6188 25.0167 15.4556 25.1854 15.3469C25.4892 15.1519 25.7273 14.9963 25.881 14.8875C26.4604 14.4825 26.8654 14.0512 27.1185 13.5712C27.2949 13.2392 27.3978 12.8731 27.4201 12.4978C27.4424 12.1225 27.3837 11.7468 27.2479 11.3963C26.8635 10.3875 25.911 9.76125 24.756 9.76125C24.4476 9.76062 24.1404 9.80162 23.8429 9.88312C23.8541 9.19312 23.8392 8.46375 23.7773 7.7475C23.5598 5.2275 22.6767 3.9075 21.7579 2.85375C21.1689 2.1941 20.4752 1.63601 19.7048 1.20187C18.3079 0.405 16.7254 0 14.9985 0C13.2735 0 11.6985 0.405 10.3017 1.20187C9.52915 1.63687 8.8354 2.19563 8.24478 2.8575C7.32603 3.91125 6.44478 5.23312 6.2254 7.75125C6.16353 8.4675 6.1504 9.19875 6.1579 9.885C5.86039 9.80351 5.55325 9.76252 5.24478 9.76312C4.09165 9.76312 3.13728 10.3912 2.75478 11.4C2.61826 11.7506 2.55882 12.1265 2.58049 12.5021C2.60217 12.8777 2.70446 13.2443 2.8804 13.5769C3.1354 14.0569 3.5404 14.4881 4.1179 14.8912C4.27165 15 4.51165 15.1537 4.81353 15.3525L5.44915 15.7669C5.53071 15.8209 5.60028 15.8911 5.65353 15.9731C5.70228 16.0725 5.70415 16.1794 5.63103 16.38C5.47596 16.7208 5.29086 17.0471 5.0779 17.355C4.33165 18.4481 3.2629 19.3744 1.8979 20.115C1.17603 20.4975 0.424151 20.7525 0.107276 21.615C-0.132724 22.2675 0.0247764 23.0081 0.632276 23.6306C0.855401 23.865 1.11415 24.0619 1.39915 24.2119C1.99132 24.5372 2.62097 24.7891 3.27415 24.9619C3.40899 24.9964 3.53704 25.0535 3.6529 25.1306C3.87415 25.3256 3.84415 25.6181 4.13853 26.0456C4.28665 26.2669 4.47603 26.4581 4.69353 26.6081C5.31228 27.0375 6.0079 27.0638 6.74665 27.0919C7.41228 27.1181 8.1679 27.1481 9.02853 27.4294C9.38478 27.5494 9.7579 27.7781 10.1873 28.0444C11.2185 28.6781 12.6342 29.5481 14.9985 29.5481C17.3648 29.5481 18.786 28.6744 19.8285 28.0369C20.2542 27.7744 20.6235 27.5494 20.9704 27.435C21.8329 27.15 22.5885 27.12 23.2542 27.0956C23.991 27.0675 24.6867 27.0394 25.3073 26.6119C25.5656 26.4311 25.7807 26.1955 25.9373 25.9219C26.151 25.5619 26.1435 25.3087 26.3442 25.1344C26.4529 25.0604 26.5733 25.0052 26.7004 24.9712C27.3629 24.7978 28.0014 24.5434 28.6016 24.2137C28.9016 24.0506 29.1754 23.8388 29.406 23.5838L29.4135 23.5744C29.9835 22.965 30.126 22.245 29.8935 21.6113ZM27.7916 22.74C26.5091 23.4488 25.656 23.3719 24.9923 23.7994C24.4298 24.1612 24.7635 24.9431 24.3548 25.2244C23.8504 25.5731 22.3654 25.2019 20.4454 25.8356C18.861 26.3588 17.8504 27.8644 15.0023 27.8644C12.1542 27.8644 11.1679 26.3625 9.55728 25.8319C7.64103 25.1981 6.15228 25.5694 5.64978 25.2225C5.24103 24.9412 5.5729 24.1575 5.0104 23.7956C4.34665 23.3681 3.49353 23.445 2.2129 22.74C1.3954 22.29 1.85853 22.0088 2.1304 21.8775C6.77665 19.6294 7.51728 16.1587 7.54915 15.9C7.5904 15.5887 7.63353 15.3431 7.2904 15.0262C6.95853 14.7187 5.48665 13.8075 5.0779 13.5225C4.4029 13.05 4.1029 12.5794 4.32415 12C4.4779 11.5988 4.85103 11.4469 5.2429 11.4469C5.36714 11.4474 5.49097 11.4613 5.61228 11.4881C6.35478 11.6494 7.07478 12.0225 7.49103 12.1219C7.54165 12.135 7.59228 12.1406 7.64478 12.1425C7.86603 12.1425 7.94478 12.03 7.92978 11.7769C7.88103 10.965 7.76665 9.3825 7.89415 7.90313C8.0704 5.87063 8.72665 4.86188 9.50478 3.97125C9.87978 3.54188 11.6367 1.68375 14.9985 1.68375C18.3585 1.68375 20.121 3.53437 20.4942 3.96187C21.2742 4.8525 21.9304 5.86125 22.1048 7.89562C22.2323 9.37312 22.1217 10.9556 22.0692 11.7675C22.0504 12.0338 22.1329 12.1331 22.3542 12.1331C22.406 12.133 22.4576 12.1267 22.5079 12.1144C22.9242 12.0131 23.646 11.64 24.3866 11.4806C24.5078 11.4529 24.6317 11.4384 24.756 11.4375C25.1498 11.4375 25.5229 11.5912 25.6748 11.9906C25.8942 12.57 25.5998 13.0406 24.9229 13.5131C24.5142 13.7981 23.0423 14.7094 22.7104 15.0169C22.3654 15.3337 22.4104 15.5794 22.4498 15.8906C22.4835 16.1531 23.2242 19.6237 27.8685 21.87C28.1442 22.0069 28.6073 22.2863 27.7916 22.74Z" fill="#798595"/>
</g>
<defs>
<clipPath id="clip0_35_76">
<rect width="30" height="30" fill="white"/>
</clipPath>
</defs>
</svg>
