<svg width="145" height="42" viewBox="0 0 145 42" fill="none" xmlns="http://www.w3.org/2000/svg">
<rect x="0.5" y="0.5" width="144" height="41" rx="7.5" fill="white" stroke="#13243E"/>
<path fill-rule="evenodd" clip-rule="evenodd" d="M47.6198 13.7209L48.2324 11.7146H50.4811L51.1207 13.7209H52.5076L50.2051 6.63818H48.5556L46.2867 13.7209H47.6198ZM49.7001 8.99459L50.2589 10.7383H48.4411L48.9865 8.99459C49.0662 8.73023 49.1355 8.43971 49.2024 8.1589C49.2429 7.98917 49.2825 7.82299 49.3231 7.66827H49.3433C49.3716 7.77618 49.4003 7.8892 49.4298 8.00502C49.5125 8.32998 49.6008 8.67692 49.7001 8.99459Z" fill="#202020"/>
<path d="M54.4399 8.60425L55.268 11.203C55.4162 11.6541 55.5171 12.0648 55.6181 12.4822H55.6518C55.7461 12.0648 55.8605 11.6608 56.0019 11.203L56.8233 8.60425H58.1765L56.2241 13.721H54.9516L53.0463 8.60425H54.4467H54.4399Z" fill="#202020"/>
<path fill-rule="evenodd" clip-rule="evenodd" d="M63.4078 13.7277C63.3472 13.4112 63.327 12.9602 63.327 12.4956V10.6643C63.327 9.54001 62.8557 8.49646 61.213 8.49646C60.4051 8.49646 59.7385 8.71863 59.3615 8.94754L59.6106 9.78911C59.954 9.56691 60.4791 9.41211 60.9841 9.41211C61.893 9.41211 62.0276 9.97091 62.0276 10.3075V10.3883C60.1358 10.3748 58.9912 11.0414 58.9912 12.3206C58.9912 13.0948 59.5702 13.8421 60.6003 13.8421C61.2736 13.8421 61.8122 13.5594 62.1151 13.1621H62.1488L62.2431 13.7277H63.4078ZM60.2839 12.1792C60.2839 11.4049 61.1524 11.2097 62.068 11.2232V11.9233C62.068 12.0176 62.068 12.1119 62.0344 12.2061C61.9132 12.5764 61.5429 12.913 61.0177 12.913C60.607 12.913 60.2839 12.6841 60.2839 12.1792Z" fill="#202020"/>
<path fill-rule="evenodd" clip-rule="evenodd" d="M65.0842 7.17689C65.0842 7.55392 65.367 7.87035 65.7979 7.87035H65.8113C66.2557 7.87035 66.5385 7.55392 66.5385 7.17689C66.525 6.77293 66.2422 6.46997 65.8113 6.46997C65.3804 6.46997 65.0842 6.77967 65.0842 7.17689ZM65.1583 8.6042V13.721H66.4509V8.6042H65.1583Z" fill="#202020"/>
<path d="M68.3091 6.25452H69.6017V13.7277H68.3091V6.25452Z" fill="#202020"/>
<path fill-rule="evenodd" clip-rule="evenodd" d="M75.5266 13.7277C75.4661 13.4112 75.4459 12.9602 75.4459 12.4956L75.4526 12.5023V10.6643C75.4526 9.54001 74.9746 8.49646 73.3386 8.49646C72.5306 8.49646 71.8641 8.71863 71.4871 8.94754L71.7362 9.78911C72.0796 9.56691 72.6047 9.41211 73.1096 9.41211C74.0118 9.41211 74.1465 9.97091 74.1465 10.3075V10.3883C72.2546 10.3748 71.1101 11.0414 71.1101 12.3206C71.1101 13.0948 71.6891 13.8421 72.7192 13.8421C73.3924 13.8421 73.931 13.5594 74.234 13.1621H74.2677L74.3619 13.7277H75.5266ZM72.4027 12.1792C72.4027 11.4049 73.2712 11.2097 74.1869 11.2232V11.9233V11.9233C74.1869 12.0176 74.1869 12.1119 74.1532 12.2061C74.032 12.5764 73.6617 12.913 73.1366 12.913C72.7259 12.913 72.4027 12.6841 72.4027 12.1792Z" fill="#202020"/>
<path fill-rule="evenodd" clip-rule="evenodd" d="M78.563 6.25452H77.277V12.3004C77.277 12.8121 77.2568 13.3776 77.2366 13.7277H78.3408L78.4014 12.9602H78.4216C78.7851 13.5863 79.3776 13.8422 80.0374 13.8422C81.1954 13.8422 82.3602 12.9265 82.3602 11.0885C82.3669 9.53332 81.4782 8.48975 80.2259 8.48975C79.4584 8.48975 78.8996 8.81965 78.5832 9.31112H78.563V6.25452ZM78.5966 11.9166C78.5764 11.8224 78.563 11.7214 78.563 11.6137L78.5697 11.6069V10.7788C78.5697 10.6509 78.5899 10.5364 78.6101 10.4422C78.7447 9.87662 79.2295 9.49962 79.7546 9.49962C80.6164 9.49962 81.0473 10.2335 81.0473 11.1356C81.0473 12.1792 80.5491 12.8188 79.7412 12.8188C79.1824 12.8188 78.7313 12.4418 78.5966 11.9166Z" fill="#202020"/>
<path d="M83.8817 6.25452H85.1744V13.7277H83.8817V6.25452Z" fill="#202020"/>
<path fill-rule="evenodd" clip-rule="evenodd" d="M89.5304 12.8525C88.709 12.8525 87.9886 12.4485 87.9549 11.5261H87.9617H91.3886C91.4088 11.4117 91.429 11.2232 91.429 10.9808C91.429 9.85652 90.8634 8.48975 89.2207 8.48975C87.5779 8.48975 86.7161 9.82282 86.7161 11.2434C86.7161 12.8121 87.6924 13.8287 89.3553 13.8287C90.0892 13.8287 90.6951 13.694 91.1394 13.5055L90.9509 12.6236C90.547 12.7582 90.1296 12.8525 89.5304 12.8525ZM89.1399 9.37172C90.0016 9.37172 90.2171 10.1527 90.2036 10.624H87.9549C88.0021 10.0988 88.3387 9.37172 89.1399 9.37172Z" fill="#202020"/>
<path fill-rule="evenodd" clip-rule="evenodd" d="M95.2395 11.203C95.2395 12.8525 96.3638 13.8422 97.8046 13.8422L97.7979 13.8354H97.8114C99.104 13.8354 100.43 12.9938 100.43 11.1154C100.43 9.56022 99.4272 8.48975 97.8854 8.48975C96.3436 8.48975 95.2395 9.55352 95.2395 11.203ZM99.0973 11.1491C99.0973 12.1927 98.5789 12.9063 97.845 12.9063H97.8316C97.064 12.9063 96.5726 12.159 96.5726 11.1693C96.5726 10.321 96.9765 9.42562 97.8585 9.42562C98.7405 9.42562 99.0973 10.3479 99.0973 11.1491Z" fill="#202020"/>
<path d="M101.952 10.1325C101.952 9.54671 101.932 9.04853 101.912 8.61091H103.036L103.097 9.37841H103.13C103.359 8.9812 103.918 8.49646 104.773 8.49646C105.628 8.49646 106.591 9.07546 106.591 10.6913V13.7277H105.298V10.8394C105.298 10.1055 105.022 9.54671 104.322 9.54671C103.81 9.54671 103.454 9.91701 103.312 10.3008C103.272 10.4085 103.252 10.5634 103.252 10.7115V13.7277H101.959V10.1325H101.952Z" fill="#202020"/>
<path d="M112.542 7.29141V8.60426H113.774V9.57372H112.542V11.8224C112.542 12.4553 112.711 12.765 113.202 12.765C113.431 12.765 113.559 12.7515 113.707 12.7111L113.727 13.6874C113.539 13.7614 113.189 13.822 112.792 13.822C112.307 13.822 111.923 13.6672 111.681 13.4046C111.398 13.1084 111.27 12.6371 111.27 11.9638V9.56702H110.543V8.59753H111.27V7.6415L112.542 7.28467V7.29141Z" fill="#202020"/>
<path d="M115.208 6.25452H116.501V9.30442H116.521C116.676 9.06202 116.898 8.86004 117.161 8.72539C117.424 8.57727 117.726 8.49648 118.056 8.49648C118.925 8.49648 119.841 9.07548 119.841 10.7115V13.7277H118.548V10.8461C118.548 10.1123 118.272 9.54002 117.558 9.54002C117.053 9.54002 116.696 9.87662 116.548 10.2671C116.508 10.3816 116.494 10.523 116.494 10.6576V13.7277H115.202V6.25452H115.208Z" fill="#202020"/>
<path fill-rule="evenodd" clip-rule="evenodd" d="M124.17 12.8525C123.348 12.8525 122.628 12.4485 122.594 11.5261H122.601H126.028C126.048 11.4117 126.068 11.2232 126.068 10.9808C126.068 9.85652 125.503 8.48975 123.86 8.48975C122.217 8.48975 121.355 9.82282 121.355 11.2434C121.355 12.8121 122.332 13.8287 123.994 13.8287C124.728 13.8287 125.334 13.694 125.779 13.5055L125.59 12.6236C125.186 12.7582 124.769 12.8525 124.17 12.8525ZM123.779 9.37172C124.641 9.37172 124.856 10.1527 124.843 10.624H122.594C122.641 10.0988 122.978 9.37172 123.779 9.37172Z" fill="#202020"/>
<path d="M32.1549 20.595C32.1212 17.0873 35.023 15.3839 35.1576 15.3032C33.5149 12.9063 30.9632 12.5764 30.0678 12.5495C27.9268 12.3273 25.8532 13.8287 24.7625 13.8287C23.6718 13.8287 21.9684 12.5697 20.1641 12.6034C17.8346 12.6438 15.66 13.9903 14.4616 16.0774C11.9975 20.3459 13.8355 26.6139 16.1986 30.0678C17.3835 31.7576 18.7637 33.6428 20.5681 33.5754C22.332 33.5014 22.9918 32.4511 25.126 32.4511C27.2603 32.4511 27.8595 33.5754 29.7042 33.5351C31.6028 33.5014 32.7945 31.8384 33.9323 30.1351C35.299 28.1961 35.8443 26.2908 35.8713 26.1965C35.8241 26.183 32.1885 24.7961 32.1481 20.5882" fill="#202020"/>
<path d="M28.6675 10.2874C29.6167 9.09575 30.2698 7.47992 30.088 5.83716C28.7146 5.89776 26.991 6.78646 26.0013 7.9512C25.1261 8.97456 24.3384 10.6577 24.5404 12.2331C26.0889 12.3476 27.671 11.4521 28.6675 10.2807" fill="#202020"/>
<path fill-rule="evenodd" clip-rule="evenodd" d="M55.2345 33.3062H57.6986L53.0329 18.8714H50.1648L45.5193 33.3062H47.9161L49.202 29.0646H53.8879L55.2345 33.3062ZM52.2654 23.5169L53.484 27.2872H49.6127L50.8111 23.5169C51.1276 22.3185 51.3565 21.4096 51.4979 20.797H51.5383C51.8951 22.2243 52.1375 23.1332 52.2654 23.5169Z" fill="#202020"/>
<path fill-rule="evenodd" clip-rule="evenodd" d="M68.2148 32.1684C69.1708 31.145 69.6488 29.7446 69.6488 27.974L69.6421 27.9605C69.6421 26.3783 69.2314 25.0991 68.41 24.1296C67.5954 23.1601 66.5653 22.6754 65.3399 22.6754C63.7712 22.6754 62.5998 23.2948 61.8323 24.5403H61.7851L61.6572 22.8908H59.624C59.6846 24.0623 59.7115 25.2069 59.7115 26.3177V37.541H62.0275V32.0607H62.0679C62.6671 33.0436 63.6501 33.5351 65.0235 33.5351C66.296 33.5351 67.3597 33.084 68.2148 32.1684ZM66.5989 25.5435C67.0568 26.1966 67.2857 27.0381 67.2857 28.048L67.2789 28.0413C67.2789 29.1454 67.0366 30.0274 66.5518 30.7007C66.0671 31.3739 65.3871 31.7038 64.5186 31.7038C63.778 31.7038 63.172 31.448 62.7075 30.9228C62.2429 30.4044 62.014 29.7648 62.014 29.0108V27.2738C62.014 27.0853 62.0477 26.8563 62.1218 26.5668C62.2631 25.9542 62.5661 25.4627 63.0307 25.0789C63.4952 24.7019 64.0136 24.5134 64.5859 24.5134C65.4275 24.5134 66.1007 24.8568 66.5989 25.5435Z" fill="#202020"/>
<path fill-rule="evenodd" clip-rule="evenodd" d="M80.1854 32.1684C81.1414 31.145 81.6195 29.7446 81.6195 27.974V27.9605C81.6195 26.3783 81.2088 25.0991 80.3874 24.1296C79.566 23.1601 78.5427 22.6754 77.3173 22.6754C75.7486 22.6754 74.5772 23.2948 73.8096 24.5403H73.7625L73.6346 22.8908H71.6013C71.6619 24.0623 71.6889 25.2069 71.6889 26.3177V37.541H73.9982V32.0607H74.0385C74.6377 33.0436 75.6274 33.5351 76.9942 33.5351C78.2666 33.5351 79.3304 33.084 80.1854 32.1684ZM78.5763 25.5435C79.0341 26.1966 79.2631 27.0381 79.2631 28.048L79.2563 28.0413C79.2563 29.1454 79.0139 30.0274 78.5292 30.7007C78.0444 31.3739 77.3645 31.7038 76.4959 31.7038C75.7486 31.7038 75.1494 31.448 74.6849 30.9228C74.2203 30.4044 73.9914 29.7648 73.9914 29.0108V27.2738C73.9914 27.0853 74.0251 26.8563 74.0991 26.5668C74.2405 25.9542 74.5435 25.4627 75.008 25.0789C75.4726 24.7019 75.991 24.5134 76.5633 24.5134C77.4048 24.5134 78.0781 24.8568 78.5763 25.5435Z" fill="#202020"/>
<path d="M95.004 29.2598C95.004 30.4851 94.5798 31.4883 93.718 32.2558C92.7755 33.0974 91.4693 33.5215 89.7862 33.5215C88.231 33.5215 86.9854 33.2253 86.0429 32.6261L86.5815 30.7006C87.5981 31.3133 88.709 31.623 89.9276 31.623C90.7961 31.623 91.4761 31.4277 91.9608 31.0372C92.4456 30.64 92.6879 30.1148 92.6879 29.4618C92.6879 28.8761 92.486 28.3846 92.0887 27.9806C91.6915 27.5767 91.025 27.2064 90.0959 26.863C87.5712 25.9204 86.3054 24.5403 86.3054 22.7224C86.3054 21.5375 86.7498 20.5613 87.6318 19.8072C88.5137 19.0464 89.6919 18.6694 91.1664 18.6694C92.4792 18.6694 93.5699 18.8983 94.4384 19.3561L93.8594 21.2413C93.0448 20.7969 92.1224 20.5747 91.099 20.5747C90.2844 20.5747 89.6515 20.7767 89.1937 21.1739C88.81 21.5308 88.6147 21.9684 88.6147 22.4801C88.6147 23.0523 88.8369 23.5236 89.2745 23.8939C89.6583 24.2373 90.3585 24.6076 91.3751 25.0115C92.6139 25.5097 93.5295 26.0955 94.1153 26.7687C94.701 27.442 94.9905 28.2768 94.9905 29.2733" fill="#202020"/>
<path d="M102.645 24.6346H100.1V29.6908C100.1 30.9767 100.552 31.6163 101.454 31.6163C101.864 31.6163 102.208 31.5826 102.477 31.5086L102.538 33.2658C102.087 33.4341 101.481 33.5216 100.74 33.5216C99.8244 33.5216 99.1107 33.2456 98.5991 32.6868C98.0874 32.128 97.8248 31.1922 97.8248 29.8793V24.6346H96.3032V22.8976H97.8248V20.9923L100.094 20.3055V22.8976H102.639V24.6346H102.645Z" fill="#202020"/>
<path fill-rule="evenodd" clip-rule="evenodd" d="M112.778 31.9596C113.687 30.9363 114.145 29.6234 114.145 28.0211C114.145 26.4658 113.707 25.2001 112.819 24.2104C111.889 23.1938 110.718 22.6888 109.136 22.6888C107.554 22.6888 106.295 23.2005 105.359 24.2306C104.423 25.254 103.958 26.5735 103.958 28.1894C103.958 29.7311 104.409 31.0103 105.318 32.0202C106.221 33.0368 107.385 33.5418 108.967 33.5418C110.55 33.5418 111.822 33.0166 112.778 31.9596ZM111.129 25.6242C111.539 26.311 111.748 27.1391 111.748 28.0951C111.748 29.0579 111.539 29.886 111.108 30.5862C110.61 31.4278 109.937 31.8519 109.035 31.8519C108.133 31.8519 107.432 31.4345 106.934 30.6064C106.517 29.9196 106.315 29.1252 106.315 28.1355C106.315 27.1458 106.517 26.311 106.934 25.6242C107.419 24.7961 108.16 24.3787 109.055 24.3787C109.95 24.3787 110.644 24.7961 111.129 25.6242Z" fill="#202020"/>
<path d="M121.658 24.9375C121.429 24.8971 121.187 24.8769 120.931 24.8769C120.117 24.8769 119.49 25.1866 119.046 25.7993C118.662 26.3446 118.467 27.0246 118.467 27.8527V33.3129H116.158L116.178 26.1831C116.178 24.9846 116.151 23.894 116.09 22.9043H118.103L118.191 24.8971H118.252C118.494 24.2104 118.884 23.6583 119.41 23.2476C119.921 22.8773 120.48 22.6888 121.079 22.6888C121.295 22.6888 121.483 22.7023 121.658 22.7292V24.9375Z" fill="#202020"/>
<path fill-rule="evenodd" clip-rule="evenodd" d="M131.919 28.6606C131.973 28.3719 132 28.0296 132 27.6138C132 27.6149 132 27.6159 132 27.617V27.6103C132 27.6115 132 27.6126 132 27.6138C131.999 26.3158 131.696 25.2263 131.084 24.3383C130.316 23.2274 129.199 22.6686 127.677 22.6686C126.156 22.6686 124.937 23.2274 124.042 24.3383C123.187 25.3818 122.756 26.6543 122.756 28.2566C122.756 29.859 123.22 31.1315 124.136 32.0807C125.052 33.03 126.324 33.5081 127.933 33.5081C129.28 33.5081 130.444 33.2926 131.427 32.8617L131.064 31.2526C130.215 31.5825 129.28 31.7441 128.256 31.7441C127.327 31.7441 126.573 31.5017 125.987 31.017C125.348 30.4717 125.011 29.6907 124.984 28.6606H131.919ZM129.347 25.2404C129.663 25.7386 129.812 26.3311 129.798 27.0178H124.984C125.052 26.3176 125.28 25.7184 125.664 25.2202C126.136 24.5941 126.748 24.2777 127.502 24.2777C128.33 24.2777 128.95 24.6008 129.347 25.2404Z" fill="#202020"/>
</svg>
