<svg width="136" height="42" viewBox="0 0 136 42" fill="none" xmlns="http://www.w3.org/2000/svg">
<rect x="0.924011" y="0.5" width="134" height="41" rx="7.5" fill="white" stroke="#13243E"/>
<path fill-rule="evenodd" clip-rule="evenodd" d="M45.8 28.0027H50.4906L51.6666 31.1333H53.824L49.1333 19.4373H47.1866L42.6 31.1333H44.6613L45.8 28.0027ZM49.8906 26.4027H46.3973L47.64 23.0373C47.816 22.52 47.9813 22.016 48.1333 21.52C48.2986 22.08 48.4693 22.592 48.64 23.0533L49.8906 26.4027Z" fill="black"/>
<path fill-rule="evenodd" clip-rule="evenodd" d="M54.5894 22.4213C54.632 23.1982 54.6534 23.9093 54.6534 24.5547L54.6374 34.7707L56.632 34.6V30.992C57.1951 31.1893 57.7874 31.2903 58.384 31.2907C59.1422 31.3055 59.8901 31.1128 60.5467 30.7333C61.1849 30.3455 61.692 29.7751 62.0027 29.096C62.374 28.2777 62.5563 27.3864 62.536 26.488C62.5638 25.6641 62.4081 24.8443 62.08 24.088C61.8462 23.5379 61.4536 23.07 60.9525 22.7441C60.4513 22.4182 59.8644 22.2492 59.2667 22.2587C58.7569 22.2653 58.2547 22.3822 57.7944 22.6014C57.3341 22.8205 56.9266 23.1366 56.6 23.528C56.5742 23.1566 56.5262 22.787 56.456 22.4213H54.5894ZM60.5067 26.6C60.5067 27.6667 60.3014 28.4667 59.896 29C59.6896 29.2643 59.4221 29.4745 59.1164 29.6125C58.8107 29.7504 58.4761 29.812 58.1414 29.792C57.8778 29.791 57.615 29.7624 57.3574 29.7067C57.1178 29.6585 56.885 29.5815 56.664 29.4773V24.8107C56.9377 24.521 57.2532 24.2738 57.6 24.0773C57.9265 23.8976 58.294 23.8057 58.6667 23.8107C58.9254 23.804 59.1819 23.8602 59.4141 23.9745C59.6464 24.0887 59.8474 24.2576 60 24.4667C60.3378 24.9164 60.5067 25.6276 60.5067 26.6Z" fill="black"/>
<path fill-rule="evenodd" clip-rule="evenodd" d="M63.6853 22.4213C63.728 23.1982 63.7493 23.9093 63.7493 24.5547L63.7466 34.7707L65.7413 34.6V30.992C66.3044 31.1893 66.8967 31.2903 67.4933 31.2907C68.2516 31.3059 68.9995 31.1131 69.656 30.7333C70.2951 30.3459 70.8033 29.7755 71.1146 29.096C71.4814 28.2767 71.6591 27.3853 71.6346 26.488C71.6624 25.6641 71.5067 24.8443 71.1786 24.088C70.9448 23.5379 70.5522 23.07 70.0511 22.7441C69.5499 22.4182 68.963 22.2492 68.3653 22.2587C67.3644 22.2587 66.4755 22.6818 65.6986 23.528C65.6733 23.1564 65.6243 22.7867 65.552 22.4213H63.6853ZM69.608 26.6C69.608 27.6542 69.4053 28.4542 69 29C68.7932 29.264 68.5256 29.4739 68.2201 29.6118C67.9145 29.7498 67.58 29.8116 67.2453 29.792C66.9817 29.791 66.7189 29.7624 66.4613 29.7067C66.222 29.6577 65.9893 29.5807 65.768 29.4773V24.8107C66.0417 24.521 66.3572 24.2738 66.704 24.0773C67.0306 23.898 67.398 23.8062 67.7706 23.8107C68.0294 23.804 68.2858 23.8602 68.5181 23.9745C68.7503 24.0887 68.9513 24.2576 69.104 24.4667C69.44 24.9164 69.608 25.6276 69.608 26.6Z" fill="black"/>
<path d="M75.3013 30.5813C74.4486 30.1146 73.7563 29.4019 73.3146 28.536C72.8311 27.5581 72.5932 26.4772 72.6213 25.3867C72.5867 24.2199 72.8628 23.065 73.4213 22.04C73.9256 21.1505 74.6831 20.4312 75.5973 19.9733C76.5581 19.5039 77.616 19.2673 78.6853 19.2827C79.3338 19.2799 79.9802 19.3551 80.6106 19.5067C81.2003 19.6455 81.7727 19.8494 82.3173 20.1147L81.8 21.648C80.8567 21.1722 79.8189 20.9134 78.7626 20.8907C78.0171 20.8782 77.2813 21.0622 76.6293 21.424C76.0106 21.7791 75.5134 22.3126 75.2026 22.9547C74.8452 23.7162 74.6716 24.5511 74.696 25.392C74.6827 26.1496 74.8149 26.9028 75.0853 27.6107C75.3308 28.2372 75.7627 28.7734 76.3226 29.1467C76.9605 29.5458 77.7041 29.7429 78.456 29.712C78.8456 29.711 79.2345 29.678 79.6186 29.6133C79.9904 29.5542 80.3556 29.4596 80.7093 29.3307V26.952H78.0053V25.4027H82.648V30.3333C81.9744 30.6472 81.269 30.8877 80.544 31.0507C79.825 31.2163 79.0897 31.3004 78.352 31.3013C77.2902 31.3268 76.2397 31.0789 75.3013 30.5813Z" fill="black"/>
<path fill-rule="evenodd" clip-rule="evenodd" d="M89.5947 29.9787C89.6116 30.3665 89.6579 30.7525 89.7334 31.1333L91.5947 31.136C91.552 30.4 91.5307 29.8542 91.5307 29.4987V26.032C91.5654 25.2577 91.4126 24.4866 91.0854 23.784C90.8236 23.2593 90.387 22.8424 89.8507 22.6053C89.241 22.3605 88.5875 22.2434 87.9307 22.2613C87.3108 22.2593 86.6927 22.3273 86.088 22.464C85.6073 22.5672 85.1376 22.7163 84.6854 22.9093L85 24.36C85.4135 24.172 85.8439 24.0238 86.2854 23.9173C86.731 23.799 87.1896 23.7363 87.6507 23.7307C88.1655 23.6967 88.673 23.8662 89.064 24.2027C89.3911 24.5191 89.5547 25.0613 89.5547 25.8293V26C89.0309 25.9252 88.5025 25.8878 87.9734 25.888C86.5529 25.8862 85.5387 26.1378 84.9307 26.6427C84.6318 26.8854 84.3935 27.1945 84.2347 27.5453C84.076 27.8962 84.0011 28.2792 84.016 28.664C84 29.1713 84.1266 29.673 84.3814 30.112C84.612 30.4987 84.9528 30.8079 85.36 31C85.7888 31.2008 86.2573 31.302 86.7307 31.296C87.3092 31.3052 87.8812 31.1734 88.3974 30.912C88.855 30.6842 89.2621 30.3668 89.5947 29.9787ZM89.5547 28.7893C89.2684 29.1019 88.9231 29.3547 88.5387 29.5333C88.1597 29.7252 87.7421 29.8283 87.3174 29.8347C86.9779 29.8535 86.644 29.7419 86.384 29.5227C86.2616 29.3975 86.1675 29.2475 86.1082 29.0828C86.0488 28.918 86.0256 28.7425 86.04 28.568C86.0327 28.3661 86.0714 28.1651 86.1532 27.9803C86.235 27.7955 86.3577 27.6317 86.512 27.5013C86.8285 27.2347 87.3983 27.1013 88.2214 27.1013C88.667 27.1076 89.1121 27.137 89.5547 27.1893V28.7893Z" fill="black"/>
<path d="M93.072 29.0427V18.7493L95.056 18.5893V28.688C95.0278 28.9683 95.0945 29.25 95.2454 29.488C95.3216 29.5699 95.4155 29.6334 95.5199 29.6736C95.6243 29.7138 95.7365 29.7297 95.848 29.72C96.0289 29.7122 96.2081 29.6817 96.3814 29.6293L96.616 31.0587C96.3927 31.143 96.1613 31.2037 95.9254 31.24C95.6708 31.2842 95.413 31.3073 95.1547 31.3093C93.7662 31.3004 93.072 30.5449 93.072 29.0427Z" fill="black"/>
<path d="M98.0347 29.0427V18.7493L100.021 18.5893V28.688C99.9931 28.9683 100.06 29.25 100.211 29.488C100.287 29.5699 100.381 29.6334 100.485 29.6736C100.59 29.7138 100.702 29.7297 100.813 29.72C100.994 29.7122 101.173 29.6817 101.347 29.6293L101.579 31.0587C101.356 31.143 101.126 31.2038 100.891 31.24C100.635 31.2843 100.377 31.3075 100.117 31.3093C98.7307 31.3004 98.0364 30.5449 98.0347 29.0427Z" fill="black"/>
<path fill-rule="evenodd" clip-rule="evenodd" d="M104.04 27.032H109.739V26.496C109.749 25.7653 109.613 25.0399 109.339 24.3627C109.089 23.741 108.662 23.206 108.112 22.824C107.502 22.4218 106.781 22.2195 106.051 22.2453C105.315 22.2309 104.589 22.421 103.955 22.7947C103.336 23.1773 102.843 23.7338 102.539 24.3947C102.181 25.1734 102.007 26.0235 102.029 26.88C102.007 27.6973 102.171 28.509 102.509 29.2533C102.816 29.8958 103.318 30.4243 103.944 30.7627C104.667 31.1359 105.472 31.3195 106.285 31.296C107.42 31.3132 108.544 31.0705 109.571 30.5867L109.133 29.2213C108.736 29.3897 108.325 29.5235 107.904 29.6213C107.492 29.7184 107.071 29.7685 106.648 29.7707C105 29.7707 104.131 28.8578 104.04 27.032ZM107.261 24.2027C107.612 24.6478 107.8 25.199 107.795 25.7653L104.088 25.76C104.14 25.1851 104.371 24.6407 104.747 24.2027C104.908 24.03 105.104 23.8932 105.322 23.8013C105.54 23.7094 105.774 23.6645 106.011 23.6693C106.246 23.6609 106.479 23.7044 106.695 23.7965C106.912 23.8887 107.105 24.0274 107.261 24.2027Z" fill="black"/>
<path d="M111.248 24.6107C111.248 24.1333 111.224 23.4027 111.181 22.424H113.048C113.08 22.6667 113.109 22.9573 113.141 23.2907C113.173 23.624 113.189 23.9013 113.2 24.112C113.401 23.7721 113.629 23.4493 113.883 23.1467C114.103 22.8881 114.369 22.672 114.667 22.5093C114.98 22.3401 115.332 22.2547 115.688 22.2613C115.958 22.2547 116.228 22.288 116.488 22.36L116.237 24.088C115.925 23.9976 115.597 23.9746 115.275 24.0206C114.954 24.0666 114.645 24.1805 114.371 24.3547C113.929 24.6827 113.545 25.0809 113.232 25.5333V31.1333H111.248V24.6107Z" fill="black"/>
<path d="M117.597 34.6987C117.354 34.6593 117.114 34.6014 116.88 34.5253L117.243 33.072C117.41 33.1172 117.58 33.1536 117.752 33.1813C117.944 33.2154 118.138 33.2333 118.333 33.2347C119.222 33.2347 119.884 32.6667 120.317 31.5307L120.448 31.208L117.235 22.424H119.368L121 27.3333C121.209 27.9648 121.378 28.6087 121.507 29.2613C121.659 28.632 121.835 28.0027 122.04 27.3733L123.667 22.424H125.675L122.475 31.248C122.233 31.9588 121.904 32.6368 121.496 33.2667C121.185 33.7424 120.759 34.1329 120.259 34.4027C119.722 34.6646 119.13 34.7927 118.533 34.776C118.22 34.7772 117.907 34.7513 117.597 34.6987Z" fill="black"/>
<path d="M42.6 8.30133H46.1466L46.048 9.16H43.6346V10.8213H45.9093V11.6213H43.6346V13.4613H46.176L46.088 14.3333H42.6V8.30133Z" fill="black"/>
<path d="M48.5973 11.256L46.7307 8.30133H47.9147L49.184 10.472L50.5173 8.30133H51.6667L49.8 11.2187L51.8187 14.3333H50.6187L49.1813 11.96L47.7173 14.3333H46.568L48.5973 11.256Z" fill="black"/>
<path fill-rule="evenodd" clip-rule="evenodd" d="M54.2106 8.30133H52.584V14.3333H53.6267V12.0107C53.8903 12.0619 54.1581 12.0895 54.4267 12.0933C54.8135 12.1008 55.1968 12.0187 55.5466 11.8533C55.8615 11.7028 56.1256 11.4637 56.3066 11.1653C56.4922 10.848 56.5846 10.4848 56.5733 10.1173C56.5881 9.86008 56.5406 9.60307 56.4347 9.36814C56.3289 9.13321 56.1678 8.92733 55.9653 8.768C55.5582 8.45689 54.9733 8.30133 54.2106 8.30133ZM55.4573 10.6059C55.3998 10.7528 55.3111 10.8854 55.1973 10.9947C54.9229 11.2129 54.5763 11.3196 54.2267 11.2933C54.0254 11.2882 53.8248 11.2677 53.6267 11.232V9.09866H54.192C54.5426 9.07554 54.8919 9.16122 55.192 9.344C55.3098 9.43929 55.4023 9.56212 55.4614 9.70165C55.5204 9.84117 55.5442 9.99309 55.5307 10.144C55.5399 10.3015 55.5149 10.4591 55.4573 10.6059Z" fill="black"/>
<path d="M57.6027 8.30133H58.6427V13.4427H61.1387L61.0507 14.3333H57.6027V8.30133Z" fill="black"/>
<path fill-rule="evenodd" clip-rule="evenodd" d="M61.7094 12.9707C61.9326 13.4198 62.2856 13.7914 62.7227 14.0373C63.2061 14.3045 63.7519 14.438 64.304 14.424C64.875 14.437 65.4398 14.3029 65.944 14.0347C66.4008 13.7801 66.772 13.3959 67.0107 12.9307C67.272 12.4072 67.4011 11.8276 67.3867 11.2427C67.3984 10.6958 67.2805 10.1539 67.0427 9.66134C66.822 9.21309 66.4718 8.84147 66.0374 8.59467C65.5559 8.33366 65.0142 8.20398 64.4667 8.21867C63.8877 8.19803 63.3133 8.32853 62.8 8.59734C62.3416 8.84973 61.9698 9.23447 61.7334 9.70134C61.4754 10.2193 61.3473 10.7922 61.36 11.3707C61.347 11.9242 61.4668 12.4729 61.7094 12.9707ZM66.0774 12.4987C65.9439 12.8251 65.7154 13.1039 65.4214 13.2987C65.1056 13.5076 64.7333 13.6146 64.3547 13.6053C63.9898 13.6244 63.6283 13.5266 63.3228 13.3261C63.0173 13.1257 62.7838 12.833 62.656 12.4907C62.5122 12.1165 62.4416 11.7182 62.448 11.3173C62.4423 10.9283 62.5176 10.5423 62.6694 10.184C62.8063 9.85236 63.0359 9.5672 63.3307 9.36267C63.6554 9.16399 64.0287 9.05884 64.4094 9.05884C64.79 9.05884 65.1633 9.16399 65.488 9.36267C65.768 9.56186 65.9817 9.84058 66.1014 10.1627C66.235 10.5346 66.3001 10.9276 66.2934 11.3227C66.3004 11.7251 66.227 12.125 66.0774 12.4987Z" fill="black"/>
<path fill-rule="evenodd" clip-rule="evenodd" d="M70.4346 8.30133H68.5466V14.3333H69.5973V11.9333H70.3626L71.9333 14.3333H73.1466L71.28 11.6667C71.4921 11.5866 71.6902 11.4731 71.8666 11.3307C72.064 11.1671 72.2256 10.9647 72.3413 10.736C72.4736 10.4752 72.5396 10.1857 72.5333 9.89333C72.5458 9.66846 72.5038 9.44389 72.4109 9.2387C72.3181 9.03351 72.1771 8.85374 72 8.71467C71.5383 8.40754 70.9878 8.26218 70.4346 8.30133ZM70.8506 11.008C70.6424 11.1094 70.4129 11.1597 70.1813 11.1547L69.5893 11.1653V9.104H70.344C70.6383 9.08443 70.9313 9.15815 71.1813 9.31467C71.2805 9.39283 71.3588 9.49443 71.4091 9.61033C71.4594 9.72622 71.48 9.85279 71.4693 9.97867C71.473 10.1968 71.4167 10.4117 71.3066 10.6C71.1963 10.7764 71.0382 10.9179 70.8506 11.008Z" fill="black"/>
<path d="M73.96 8.30133H77.5147L77.4134 9.16H75.0134V10.8213H77.2667V11.6213H74.992V13.4613H77.5334L77.456 14.3333H73.96V8.30133Z" fill="black"/>
<path d="M81.3813 8.30133H82.4213V14.3333H81.3813V8.30133Z" fill="black"/>
<path d="M85.176 9.17066H83.3093L83.4 8.30133H88.0933L87.9973 9.17066H86.2187V14.3333H85.176V9.17066Z" fill="black"/>
<path fill-rule="evenodd" clip-rule="evenodd" d="M91.6027 12.9707C91.8249 13.4196 92.177 13.7912 92.6133 14.0373C93.0983 14.3054 93.6461 14.4389 94.2 14.424C94.7711 14.4377 95.336 14.3036 95.84 14.0347C96.2973 13.7808 96.6687 13.3965 96.9067 12.9307C97.1701 12.4078 97.3001 11.8279 97.2853 11.2427C97.2962 10.6956 97.1774 10.1537 96.9387 9.66134C96.7188 9.21252 96.3684 8.84068 95.9333 8.59467C95.4484 8.32659 94.9006 8.19309 94.3467 8.20801C93.7703 8.1931 93.2 8.32721 92.6907 8.59734C92.2327 8.85039 91.8611 9.23495 91.624 9.70134C91.366 10.2193 91.2379 10.7922 91.2507 11.3707C91.2371 11.9246 91.3579 12.4736 91.6027 12.9707ZM95.968 12.4987C95.8347 12.8244 95.6072 13.103 95.3147 13.2987C94.9992 13.5061 94.6282 13.6131 94.2507 13.6053C93.8727 13.6195 93.4997 13.515 93.184 13.3067C92.8957 13.1035 92.6739 12.8196 92.5467 12.4907C92.4028 12.1165 92.3322 11.7182 92.3387 11.3173C92.3342 10.9284 92.4095 10.5427 92.56 10.184C92.6969 9.85236 92.9265 9.5672 93.2213 9.36267C93.5464 9.16375 93.9202 9.05849 94.3013 9.05849C94.6825 9.05849 95.0562 9.16375 95.3813 9.36267C95.6605 9.56201 95.8733 9.84077 95.992 10.1627C96.1256 10.5345 96.1907 10.9276 96.184 11.3227C96.191 11.7251 96.1176 12.125 95.968 12.4987Z" fill="black"/>
<path d="M98.44 8.30133H99.6347L102.619 12.976C102.592 12.5307 102.581 12.1227 102.581 11.7467V8.30133H103.547V14.3333H102.389L99.36 9.584C99.3893 10.1173 99.4053 10.6 99.4053 11.0187V14.3333H98.44V8.30133Z" fill="black"/>
<path fill-rule="evenodd" clip-rule="evenodd" d="M27.9333 8.33334H16.864C11.6453 8.33334 9.73596 10.2427 9.73596 15.4613V26.5387C9.73596 31.7573 11.6453 33.6667 16.864 33.6667H27.9333C33.152 33.6667 35.064 31.7573 35.064 26.5387V15.4613C35.0693 10.2427 33.16 8.33334 27.9333 8.33334Z" fill="#C8102E"/>
<path fill-rule="evenodd" clip-rule="evenodd" d="M14.752 21H15.424V24.3147H14.752V22.968H13.2347V24.3147H12.5627V21H13.2347V22.3333H14.752V21ZM18.5387 22.896C18.5387 23.4293 18.272 23.7227 17.7867 23.7227C17.3013 23.7227 17.0293 23.4293 17.0293 22.8667V21H16.3573V22.8933C16.3573 23.824 16.8747 24.3573 17.776 24.3573C18.6773 24.3573 19.2107 23.824 19.2107 22.864V21H18.5387V22.896ZM25.552 21L26.304 23.2773L27.0373 21H27.736L26.5813 24.3147H26.0187L25.2667 22.1387L24.5173 24.3147H23.96L22.8053 21H23.52L24.2533 23.28L25 21H25.552ZM28.9387 22.8853H30.1627V22.2853H28.9387V21.608H30.7147V21H28.2773V24.3067H30.7787V23.7093H28.9387V22.8853ZM32.2427 24.3067H31.5787V21H32.2427V24.3067ZM20.5387 23.6213L20.2373 24.3093H19.552L21 21H21.592L23.0453 24.3093H22.352L22.0667 23.624L20.5387 23.6213ZM21.8 23.024H20.7893L21.2933 21.84L21.8 23.024Z" fill="white"/>
<path d="M22.4026 16.784C21.2847 16.7833 20.2128 16.3389 19.4223 15.5484C18.6318 14.7579 18.1874 13.6859 18.1866 12.568H18.7813C18.7813 13.5284 19.1628 14.4495 19.842 15.1287C20.5211 15.8078 21.4422 16.1893 22.4026 16.1893C23.3631 16.1893 24.2842 15.8078 24.9633 15.1287C25.6424 14.4495 26.024 13.5284 26.024 12.568H26.6186C26.6179 13.6859 26.1735 14.7579 25.383 15.5484C24.5925 16.3389 23.5206 16.7833 22.4026 16.784Z" fill="white"/>
</svg>
