<svg viewBox="0 0 17 17" fill="none" xmlns="http://www.w3.org/2000/svg">
    <path
        d="M8.49997 3.60059C5.3133 3.60059 2.71997 6.19392 2.71997 9.38059C2.71997 12.5673 5.3133 15.1673 8.49997 15.1673C11.6866 15.1673 14.28 12.5739 14.28 9.38725C14.28 6.20059 11.6866 3.60059 8.49997 3.60059ZM8.99997 9.16725C8.99997 9.44059 8.7733 9.66725 8.49997 9.66725C8.22664 9.66725 7.99997 9.44059 7.99997 9.16725V5.83392C7.99997 5.56059 8.22664 5.33392 8.49997 5.33392C8.7733 5.33392 8.99997 5.56059 8.99997 5.83392V9.16725Z"
        fill="currentColor" />
    <path
        d="M10.4266 2.79967L6.57326 2.79967C6.30659 2.79967 6.09326 2.58634 6.09326 2.31967C6.09326 2.05301 6.30659 1.83301 6.57326 1.83301L10.4266 1.83301C10.6933 1.83301 10.9066 2.04634 10.9066 2.31301C10.9066 2.57967 10.6933 2.79967 10.4266 2.79967Z"
        fill="currentColor" />
</svg>