<svg xmlns="http://www.w3.org/2000/svg" width="151" height="100" viewBox="0 0 151 100" fill="none">
  <g clip-path="url(#clip0_779_299854)">
    <mask id="mask0_779_299854" style="mask-type:luminance" maskUnits="userSpaceOnUse" x="-2" y="-1" width="156" height="104">
      <path d="M153.658 -0.919922H-1.58594V102.576H153.658V-0.919922Z" fill="white"/>
    </mask>
    <g mask="url(#mask0_779_299854)">
      <path d="M16.1703 70.757C16.1703 67.2474 13.3252 64.4023 9.8156 64.4023C6.30602 64.4023 3.46094 67.2474 3.46094 70.757V78.1466C3.46094 81.6562 6.30602 84.5013 9.8156 84.5013C13.3252 84.5013 16.1703 81.6562 16.1703 78.1466V70.757Z" fill="#149ADE"/>
      <path d="M67.9713 71.3392C67.9713 67.5081 64.8656 64.4023 61.0345 64.4023C57.2034 64.4023 54.0977 67.5081 54.0977 71.3392V77.5645C54.0977 81.3956 57.2034 84.5013 61.0345 84.5013C64.8656 84.5013 67.9713 81.3956 67.9713 77.5645V71.3392Z" fill="#149ADE"/>
      <path fill-rule="evenodd" clip-rule="evenodd" d="M14.4382 53.5663L17.8019 41.3123C18.2784 39.5762 19.8568 38.373 21.6571 38.373H49.7796C51.5799 38.373 53.1582 39.5762 53.6348 41.3123L56.9984 53.5456C58.763 53.775 60.5285 54.0337 62.2948 54.3218C63.7311 54.5589 64.7569 55.8415 64.6726 57.2947C64.4553 61.1551 64.0413 68.5163 63.7903 72.9589C63.6776 75.019 61.9725 76.6309 59.9092 76.6278H11.5429C9.47965 76.6309 7.77462 75.019 7.66183 72.9589C7.40309 68.5189 6.99686 61.1629 6.78211 57.3025C6.69833 55.8467 7.72834 54.5631 9.16769 54.3296C10.9237 54.0484 12.6805 53.794 14.4382 53.5663Z" fill="white"/>
      <mask id="mask1_779_299854" style="mask-type:luminance" maskUnits="userSpaceOnUse" x="6" y="38" width="59" height="39">
        <path d="M14.4382 53.5663L17.8019 41.3123C18.2784 39.5762 19.8568 38.373 21.6571 38.373H49.7796C51.5799 38.373 53.1582 39.5762 53.6348 41.3123L56.9984 53.5456C58.763 53.775 60.5285 54.0337 62.2948 54.3218C63.7311 54.5589 64.7569 55.8415 64.6726 57.2947C64.4553 61.1551 64.0413 68.5163 63.7903 72.9589C63.6776 75.019 61.9725 76.6309 59.9092 76.6278H11.5429C9.47965 76.6309 7.77462 75.019 7.66183 72.9589C7.40308 68.5189 6.99686 61.1629 6.78211 57.3025C6.69833 55.8467 7.72834 54.5631 9.16769 54.3296C10.9237 54.0484 12.6805 53.794 14.4382 53.5663Z" fill="white"/>
      </mask>
      <g mask="url(#mask1_779_299854)">
        <path fill-rule="evenodd" clip-rule="evenodd" d="M18.8901 61.8721C18.8901 59.4585 16.9336 57.502 14.52 57.502H6.75781V64.4026H17.8836C18.4309 64.4026 18.8746 63.9589 18.8746 63.4116L18.8901 61.8721Z" fill="#149ADE"/>
        <path fill-rule="evenodd" clip-rule="evenodd" d="M47.6115 69.3592C47.6115 68.5675 46.9698 67.9258 46.1781 67.9258H25.2615C24.4699 67.9258 23.8281 68.5675 23.8281 69.3592V76.221H47.6089L47.6115 69.3592Z" fill="#76B740"/>
        <path fill-rule="evenodd" clip-rule="evenodd" d="M52.7812 61.8721C52.7812 59.4585 54.7378 57.502 57.1514 57.502H64.9136V64.4026H53.7877C53.2404 64.4026 52.7968 63.9589 52.7968 63.4116L52.7812 61.8721Z" fill="#149ADE"/>
      </g>
      <path fill-rule="evenodd" clip-rule="evenodd" d="M14.4382 53.5663L17.8019 41.3123C18.2784 39.5762 19.8568 38.373 21.6571 38.373H49.7796C51.5799 38.373 53.1582 39.5762 53.6348 41.3123L56.9984 53.5456C58.763 53.775 60.5285 54.0337 62.2948 54.3218C63.7311 54.5589 64.7569 55.8415 64.6726 57.2947C64.4553 61.1551 64.0413 68.5163 63.7903 72.9589C63.6775 75.019 61.9725 76.6309 59.9092 76.6278H11.5429C9.47965 76.6309 7.77462 75.019 7.66183 72.9589C7.40309 68.5189 6.99686 61.1629 6.78211 57.3025C6.69833 55.8467 7.72834 54.5631 9.16769 54.3296C10.9237 54.0484 12.6805 53.794 14.4382 53.5663Z" stroke="#565271" stroke-width="0.8" stroke-linejoin="round"/>
      <path d="M63.9928 47.4231L60.0625 39.7541L68.5518 44.1061C68.7774 44.2215 69.0423 44.232 69.2764 44.1349C69.5105 44.0377 69.6902 43.8428 69.7678 43.6015L72.6942 31.2363L74.0164 36.8225" stroke="#565271" stroke-width="0.8" stroke-linejoin="round"/>
      <path d="M75.0078 41.0547L75.6107 43.6033C75.6884 43.8446 75.868 44.0395 76.1021 44.1367C76.3362 44.2338 76.6011 44.2233 76.8268 44.1079L85.316 39.7559L81.3858 47.4249" stroke="#565271" stroke-width="0.8" stroke-linejoin="round"/>
      <path fill-rule="evenodd" clip-rule="evenodd" d="M52.5184 51.9085C52.5988 52.2201 52.5298 52.5514 52.3316 52.8049C52.1333 53.0584 51.8285 53.2052 51.5067 53.2023H19.9404C19.6191 53.2044 19.315 53.0572 19.1173 52.8038C18.9197 52.5505 18.851 52.2197 18.9313 51.9085L21.2859 42.6896C21.4676 41.982 22.1078 41.4891 22.8383 41.4942H48.6425C49.3733 41.4882 50.014 41.9815 50.1949 42.6896L52.5184 51.9085Z" fill="#149ADE"/>
      <path d="M18.7852 62.33V61.8617C18.7852 59.4539 16.8332 57.502 14.4254 57.502H6.73047" stroke="#565271" stroke-width="0.8" stroke-linejoin="round"/>
      <path d="M52.7539 62.33V61.8617C52.7539 59.4539 54.7058 57.502 57.1137 57.502H64.8086" stroke="#565271" stroke-width="0.8" stroke-linejoin="round"/>
      <path d="M23.8281 60.7383H47.6089" stroke="#565271" stroke-width="0.8"/>
      <path d="M0 84.5039H149.49" stroke="#565271" stroke-width="0.8" stroke-linejoin="round"/>
      <mask id="mask2_779_299854" style="mask-type:luminance" maskUnits="userSpaceOnUse" x="69" y="37" width="81" height="39">
        <path d="M79.9908 75.8853H74.9402C73.1466 75.8845 71.6298 74.5579 71.3903 72.7804L69.9258 62.1203L73.7241 60.736L72.1716 56.221L87.5693 52.8393L96.796 40.3525C98.0374 38.6717 100.003 37.6797 102.092 37.6797H128.264C130.215 37.6797 132.091 38.4292 133.506 39.7729L147.711 53.2662C148.918 54.4127 149.566 56.0279 149.486 57.6907C149.305 61.4346 148.968 68.3223 148.777 72.4621C148.686 74.3733 147.109 75.8757 145.196 75.8749H143.711C144.291 70.9254 141.977 66.0827 137.761 63.425C133.545 60.7674 128.178 60.7674 123.962 63.425C119.747 66.0827 117.432 70.9254 118.013 75.8749H105.689C105.747 75.3759 105.776 74.874 105.777 74.3716C105.777 70.5622 104.098 66.9462 101.188 64.4879C98.2782 62.0296 94.4326 60.9788 90.6767 61.6157C85.7087 62.2955 81.6485 65.9188 80.4099 70.7777C80.0693 71.9454 79.8951 73.1553 79.8925 74.3716C79.8959 74.8777 79.9288 75.383 79.9908 75.8853Z" fill="white"/>
      </mask>
      <g mask="url(#mask2_779_299854)">
        <path d="M113.806 67.9883H109.133" stroke="#565271" stroke-width="0.8" stroke-linejoin="round"/>
        <path d="M76.7885 67.9883H70.4727" stroke="#565271" stroke-width="0.8" stroke-linejoin="round"/>
        <path d="M148.954 67.9883H144.281" stroke="#565271" stroke-width="0.8" stroke-linejoin="round"/>
      </g>
      <path fill-rule="evenodd" clip-rule="evenodd" d="M79.9908 75.8853H74.9402C73.1466 75.8845 71.6298 74.5579 71.3903 72.7804L69.9258 62.1203L73.7241 60.736L72.1716 56.221L87.5693 52.8393L96.796 40.3525C98.0374 38.6717 100.003 37.6797 102.092 37.6797H128.264C130.215 37.6797 132.091 38.4292 133.506 39.7729L147.711 53.2662C148.918 54.4127 149.566 56.0279 149.486 57.6907C149.305 61.4346 148.968 68.3223 148.777 72.4621C148.686 74.3733 147.109 75.8757 145.196 75.8749H143.711C144.291 70.9254 141.977 66.0826 137.761 63.425C133.545 60.7674 128.178 60.7674 123.962 63.425C119.747 66.0826 117.432 70.9254 118.013 75.8749H105.689C105.747 75.3759 105.776 74.874 105.777 74.3716C105.777 70.5622 104.098 66.9462 101.188 64.4879C98.2782 62.0296 94.4326 60.9788 90.6768 61.6157C85.7087 62.2956 81.6486 65.9188 80.4099 70.7777C80.0694 71.9454 79.8951 73.1553 79.8925 74.3716C79.8959 74.8777 79.9288 75.383 79.9908 75.8853Z" stroke="#565271" stroke-width="0.8" stroke-linejoin="round"/>
      <path fill-rule="evenodd" clip-rule="evenodd" d="M128.667 51.0158L123.81 42.3532C123.795 42.3274 123.768 42.3116 123.738 42.3118H101.784C101.755 42.3119 101.729 42.3266 101.714 42.3506L96.1586 51.0184L128.667 51.0158ZM130.367 50.9667C130.553 51.2891 130.551 51.6868 130.363 52.008C130.175 52.3292 129.828 52.5244 129.456 52.5191H95.3021C94.9179 52.5255 94.5617 52.3184 94.3772 51.9813C94.1926 51.6442 94.21 51.2326 94.4224 50.9124L100.436 41.533C100.727 41.0769 101.232 40.8009 101.773 40.8008H123.727C124.303 40.8005 124.833 41.1113 125.114 41.6132L130.367 50.9667Z" fill="#565271"/>
      <path d="M72.375 48.6914L87.7519 52.8442" stroke="#565271" stroke-width="0.8" stroke-linejoin="round"/>
      <path d="M119.52 54.1311V39.1914" stroke="white" stroke-width="2" stroke-linejoin="round"/>
      <path fill-rule="evenodd" clip-rule="evenodd" d="M102.256 74.3752C102.256 69.1737 98.0396 64.957 92.8381 64.957C87.6366 64.957 83.4199 69.1737 83.4199 74.3752C83.4199 79.5767 87.6366 83.7933 92.8381 83.7933C98.0396 83.7933 102.256 79.5767 102.256 74.3752ZM103.762 74.3752C103.762 68.342 98.8712 63.4512 92.8381 63.4512C86.8049 63.4512 81.9141 68.342 81.9141 74.3752C81.9141 80.4083 86.8049 85.2992 92.8381 85.2992C98.8712 85.2992 103.762 80.4083 103.762 74.3752Z" fill="#565271"/>
      <path d="M88.2578 78.9547C89.472 80.17 91.1197 80.8523 92.8375 80.8513C96.41 80.8513 99.306 77.9553 99.306 74.3828" stroke="#565271" stroke-width="0.8" stroke-linejoin="round"/>
      <path d="M97.4195 69.8028C96.2054 68.5876 94.5577 67.9052 92.8398 67.9063" stroke="#565271" stroke-width="0.8" stroke-linejoin="round"/>
      <path fill-rule="evenodd" clip-rule="evenodd" d="M140.28 74.3752C140.28 69.1737 136.063 64.957 130.862 64.957C125.66 64.957 121.443 69.1737 121.443 74.3752C121.443 79.5767 125.66 83.7933 130.862 83.7933C136.063 83.7933 140.28 79.5767 140.28 74.3752ZM141.786 74.3752C141.786 68.342 136.895 63.4512 130.862 63.4512C124.828 63.4512 119.938 68.342 119.938 74.3752C119.938 80.4083 124.828 85.2992 130.862 85.2992C136.895 85.2992 141.786 80.4083 141.786 74.3752Z" fill="#565271"/>
      <path d="M126.281 78.9547C127.495 80.17 129.143 80.8523 130.861 80.8513C134.433 80.8513 137.329 77.9553 137.329 74.3828" stroke="#565271" stroke-width="0.8" stroke-linejoin="round"/>
      <path d="M135.439 69.8028C134.225 68.5876 132.577 67.9052 130.859 67.9063" stroke="#565271" stroke-width="0.8" stroke-linejoin="round"/>
      <path fill-rule="evenodd" clip-rule="evenodd" d="M43.6642 8.41115C43.8727 8.25942 43.9959 8.01697 43.9954 7.75912V3.69949H38.8206C38.4986 3.70123 38.1828 3.6115 37.9098 3.44075L35.8244 2.11858L33.7389 3.44075C33.4659 3.61137 33.1501 3.70109 32.8282 3.69949H27.6534V8.29471C27.652 8.48275 27.4999 8.63484 27.3118 8.63625H25.9431C25.7551 8.63484 25.603 8.48275 25.6016 8.29471V3.34501C25.6016 2.8944 25.7807 2.46229 26.0996 2.1439C26.4185 1.82551 26.8509 1.64699 27.3015 1.64768H32.7169L34.9059 0.260828C35.4595 -0.0869428 36.1634 -0.0869428 36.717 0.260828L38.906 1.64768H44.3214C44.772 1.64699 45.2044 1.82551 45.5233 2.1439C45.8422 2.46229 46.0213 2.8944 46.0213 3.34501V8.68023C46.02 9.001 45.8699 9.30299 45.6151 9.49785L36.2772 16.3674C36.1879 16.4323 36.0699 16.4419 35.9713 16.3923C35.8727 16.3427 35.8101 16.2423 35.8089 16.132V14.5148C35.8084 14.257 35.9316 14.0145 36.1401 13.8628L43.6642 8.41115ZM28.0855 15.9146C28.0071 15.8588 27.9043 15.8511 27.8185 15.8945C27.7327 15.938 27.6781 16.0254 27.6767 16.1216V19.0195C27.6775 19.4069 27.8593 19.7716 28.1683 20.0053L35.0922 25.2293C35.5332 25.5622 36.1415 25.5622 36.5825 25.2293L43.5064 20.0053C43.8153 19.7716 43.9972 19.4069 43.998 19.0195V16.1733C43.9959 16.0781 43.9417 15.9916 43.8568 15.9484C43.7719 15.9051 43.6701 15.912 43.5918 15.9664L36.4454 21.1851C36.0827 21.4484 35.5919 21.4484 35.2293 21.1851L28.0855 15.9146ZM35.5579 18.8772C35.7254 19.0014 35.9544 19.0014 36.1219 18.8772L45.3202 12.1034C45.4594 12.0007 45.6447 11.9853 45.799 12.0636C45.9533 12.1418 46.0503 12.3004 46.0498 12.4734V19.8112C46.0492 20.3432 45.7992 20.8441 45.3745 21.1644L36.8593 27.5916C36.2528 28.0487 35.4167 28.0487 34.8101 27.5916L26.295 21.1644C25.8703 20.8441 25.6203 20.3432 25.6197 19.8112V12.3932C25.6194 12.2197 25.7172 12.061 25.8723 11.9832C26.0273 11.9054 26.213 11.9219 26.3519 12.0257L35.5579 18.8772Z" fill="#76B456"/>
      <path d="M99.3503 91.9785H128.562C130.777 91.9785 132.573 93.7741 132.573 95.989C132.573 98.2039 130.777 99.9995 128.562 99.9995H99.3503C97.1354 99.9995 95.3398 98.2039 95.3398 95.989C95.3398 93.7741 97.1354 91.9785 99.3503 91.9785Z" fill="#76B740"/>
    </g>
  </g>
  <defs>
    <clipPath id="clip0_779_299854">
      <rect width="150.871" height="100" fill="white"/>
    </clipPath>
  </defs>
</svg>