<svg width="34" height="34" viewBox="0 0 34 34" fill="none" xmlns="http://www.w3.org/2000/svg">
<path fill-rule="evenodd" clip-rule="evenodd" d="M11.9999 9.51677C13.4799 8.52784 15.22 8 17 8C19.3862 8.00258 21.6738 8.95162 23.3611 10.6389C25.0484 12.3262 25.9974 14.6138 26 17C26 18.78 25.4722 20.5201 24.4832 22.0001C23.4943 23.4802 22.0887 24.6337 20.4442 25.3149C18.7996 25.9961 16.99 26.1743 15.2442 25.8271C13.4984 25.4798 11.8947 24.6226 10.636 23.364C9.37737 22.1053 8.5202 20.5016 8.17294 18.7558C7.82567 17.01 8.0039 15.2004 8.68509 13.5558C9.36628 11.9113 10.5198 10.5057 11.9999 9.51677ZM21.0695 13.25H23.4853C22.4917 11.5381 20.8636 10.2867 18.9538 9.767C19.8167 10.8246 20.5287 11.9967 21.0695 13.25ZM20.375 17C20.3688 17.7636 20.2485 18.522 20.018 19.25H13.982C13.7515 18.522 13.6312 17.7636 13.625 17C13.6312 16.2364 13.7515 15.478 13.982 14.75H20.018C20.2485 15.478 20.3688 16.2364 20.375 17ZM17 24.191C17.9661 23.1656 18.7799 22.0068 19.4165 20.75H14.5835C15.2197 22.007 16.0335 23.1659 17 24.191ZM14.5835 13.25C15.2201 11.9932 16.0339 10.8344 17 9.809C17.9665 10.8341 18.7803 11.993 19.4165 13.25H14.5835ZM12.9305 13.25C13.4724 11.9965 14.1857 10.8243 15.05 9.767C13.1387 10.2858 11.5091 11.5373 10.5148 13.25H12.9305ZM9.84575 14.75H12.425C12.2306 15.4844 12.1298 16.2404 12.125 17C12.1298 17.7596 12.2306 18.5156 12.425 19.25H9.84575C9.38476 17.7854 9.38476 16.2146 9.84575 14.75ZM12.9305 20.75H10.5148C11.5091 22.4627 13.1387 23.7142 15.05 24.233C14.1857 23.1757 13.4724 22.0035 12.9305 20.75ZM18.9538 24.233C19.8167 23.1754 20.5287 22.0033 21.0695 20.75H23.4853C22.4917 22.4619 20.8636 23.7133 18.9538 24.233ZM21.575 19.25H24.1528C24.6137 17.7854 24.6137 16.2146 24.1528 14.75H21.575C21.7694 15.4844 21.8702 16.2404 21.875 17C21.8702 17.7596 21.7694 18.5156 21.575 19.25Z" fill="#13243E"/>
</svg>
