<svg width="16" height="16" viewBox="0 0 16 16" fill="none" xmlns="http://www.w3.org/2000/svg">
<g id="007-whatsapp">
<path id="Shape" fill-rule="evenodd" clip-rule="evenodd" d="M7.998 0H8.002C12.413 0 16 3.589 16 8C16 12.411 12.413 16 8.002 16C6.375 16 4.866 15.516 3.601 14.678L0.526 15.661L1.523 12.689C0.564 11.372 0 9.75 0 8C0 3.588 3.587 0 7.998 0ZM11.087 12.426C11.698 12.294 12.464 11.842 12.657 11.297C12.85 10.751 12.85 10.286 12.794 10.187C12.7488 10.1085 12.6419 10.057 12.4822 9.98012C12.4407 9.96011 12.3955 9.93838 12.347 9.914C12.112 9.797 10.969 9.232 10.753 9.157C10.541 9.077 10.339 9.105 10.179 9.331C10.1486 9.3736 10.1182 9.41629 10.088 9.45874C9.89499 9.73023 9.70879 9.9921 9.554 10.159C9.413 10.309 9.183 10.328 8.99 10.248C8.96896 10.2392 8.94485 10.2295 8.91783 10.2186C8.61225 10.0952 7.93445 9.82141 7.114 9.091C6.422 8.475 5.952 7.708 5.816 7.478C5.68247 7.24727 5.79765 7.11198 5.9041 6.98694C5.90607 6.98462 5.90804 6.98231 5.91 6.98C5.97863 6.89508 6.04523 6.82438 6.11216 6.75332C6.16031 6.7022 6.20863 6.6509 6.258 6.594C6.26533 6.58555 6.27246 6.57735 6.27941 6.56936C6.38424 6.44883 6.44666 6.37706 6.517 6.227C6.597 6.072 6.54 5.912 6.483 5.794C6.44378 5.71136 6.20151 5.12353 5.99353 4.61893C5.90454 4.40302 5.82183 4.20234 5.764 4.063C5.609 3.692 5.491 3.678 5.256 3.668C5.2488 3.66764 5.24153 3.66727 5.23418 3.6669C5.1599 3.66314 5.07809 3.659 4.988 3.659C4.682 3.659 4.363 3.749 4.17 3.946C4.16326 3.95289 4.15623 3.96004 4.14893 3.96746C3.90202 4.21857 3.352 4.77794 3.352 5.893C3.352 7.01021 4.14471 8.09143 4.29138 8.29149C4.29542 8.297 4.29897 8.30184 4.302 8.306C4.31083 8.31759 4.32746 8.34168 4.35167 8.37674C4.65115 8.81044 6.10983 10.9228 8.285 11.824C10.123 12.586 10.669 12.515 11.087 12.426Z" fill="#13243E"/>
</g>
</svg>
