<svg width="36" height="36" viewBox="0 0 36 36" fill="none" xmlns="http://www.w3.org/2000/svg">
<rect width="36" height="36" rx="18" fill="#F3FAFD"/>
<path d="M12.9141 24.6654C14.2474 23.4154 15.9974 22.582 17.9974 22.582C19.9141 22.582 21.7474 23.332 23.0807 24.6654" stroke="#13243E" stroke-width="1.25" stroke-linecap="round" stroke-linejoin="round"/>
<path fill-rule="evenodd" clip-rule="evenodd" d="M19.7464 15.8324C20.7464 16.8324 20.7464 18.4157 19.7464 19.3324C18.7464 20.249 17.1631 20.3324 16.2464 19.3324C15.3298 18.3324 15.2464 16.749 16.2464 15.8324C17.2464 14.9157 18.7464 14.8324 19.7464 15.8324Z" fill="#13243E"/>
<path d="M19.7464 15.8324C20.7464 16.8324 20.7464 18.4157 19.7464 19.3324C18.7464 20.249 17.1631 20.3324 16.2464 19.3324C15.3298 18.3324 15.2464 16.749 16.2464 15.8324C17.2464 14.9157 18.7464 14.8324 19.7464 15.8324" stroke="#13243E" stroke-width="1.25" stroke-linecap="round" stroke-linejoin="round"/>
<path d="M11.3333 22.1654C10.8333 21.1654 10.5 19.9987 10.5 18.832C10.5 14.6654 13.8333 11.332 18 11.332C22.1667 11.332 25.5 14.6654 25.5 18.832C25.5 19.9987 25.1667 21.1654 24.6667 22.1654" stroke="#13243E" stroke-width="1.25" stroke-linecap="round" stroke-linejoin="round"/>
</svg>
