<svg width="74" height="24" viewBox="0 0 74 24" fill="none" xmlns="http://www.w3.org/2000/svg">
<path fill-rule="evenodd" clip-rule="evenodd" d="M53.8447 1.01043L52.9845 5.98943C50.4013 4.56686 44.5275 4.23315 44.5275 6.85228C44.5275 7.89283 45.8571 8.60853 47.4598 9.47126C49.8912 10.7801 52.9513 12.4273 52.9513 16.0605C52.9513 21.8704 46.7398 23.9976 42.6184 23.9976C40.281 24.0369 37.9609 23.591 35.8046 22.688L36.7021 17.483C39.1723 19.4667 46.6601 20.0277 46.6601 16.8834C46.6601 15.5624 45.1865 14.7832 43.4776 13.8796C41.119 12.6325 38.3121 11.1483 38.3121 7.67525C38.3121 1.30957 45.421 0 48.4163 0C50.268 0.0460119 52.1005 0.387106 53.8447 1.01043ZM15.2146 16.3596L20.9687 0.414806L27.4633 0.413477L17.8603 23.5961H11.5717L6.32813 3.45672C4.37118 2.25686 2.24247 1.36287 0.015625 0.805682L0.125974 0.413477H9.6386C10.9952 0.241623 12.2507 1.15673 12.5024 2.5008L14.5338 12.9255L15.2146 16.3596ZM26.0434 23.5974H32.082L35.8512 0.414806H29.8152L26.0434 23.5974ZM73.9841 23.5974H68.4427L67.7328 20.1553H60.0602L58.8011 23.5988H52.5112L61.512 2.14317C61.9649 1.0188 63.0956 0.318868 64.304 0.414806H69.1567L73.9841 23.5974ZM64.9674 6.72199L61.7952 15.397H66.7516L64.9674 6.72199Z" fill="#0055A5"/>
<path d="M14.5358 12.9292L12.5043 2.50453C12.2526 1.16045 10.9971 0.245346 9.64055 0.4172H0.127927L0.0175781 0.809405C3.29349 1.64394 6.34968 3.17838 8.9758 5.30713C11.471 7.31101 13.3896 9.94124 14.5358 12.9292Z" fill="#FC9220"/>
</svg>
