<svg width="24" height="25" viewBox="0 0 24 25" fill="none" xmlns="http://www.w3.org/2000/svg">
<g clip-path="url(#clip0_421_258678)">
<path d="M8 6.47656H18C18.5304 6.47656 19.0391 6.68728 19.4142 7.06235C19.7893 7.43742 20 7.94613 20 8.47656V18.4766C20 19.007 19.7893 19.5157 19.4142 19.8908C19.0391 20.2658 18.5304 20.4766 18 20.4766H6" stroke="#109BDE" stroke-width="1.5" stroke-linecap="round" stroke-linejoin="round"/>
<path d="M4 18.4766C4 19.007 4.21071 19.5157 4.58579 19.8908C4.96086 20.2658 5.46957 20.4766 6 20.4766C6.53043 20.4766 7.03914 20.2658 7.41421 19.8908C7.78929 19.5157 8 19.007 8 18.4766C8 17.9461 7.78929 17.4374 7.41421 17.0623C7.03914 16.6873 6.53043 16.4766 6 16.4766C5.46957 16.4766 4.96086 16.6873 4.58579 17.0623C4.21071 17.4374 4 17.9461 4 18.4766Z" stroke="#109BDE" stroke-width="1.5" stroke-linecap="round" stroke-linejoin="round"/>
<path d="M8 18.4766V6.47656C8 5.94613 7.78929 5.43742 7.41421 5.06235C7.03914 4.68728 6.53043 4.47656 6 4.47656C5.46957 4.47656 4.96086 4.68728 4.58579 5.06235C4.21071 5.43742 4 5.94613 4 6.47656L4 18.4766" stroke="#109BDE" stroke-width="1.5" stroke-linecap="round" stroke-linejoin="round"/>
</g>
<defs>
<clipPath id="clip0_421_258678">
<rect width="24" height="24" fill="white" transform="translate(0 0.476562)"/>
</clipPath>
</defs>
</svg>
