<svg width="20" height="21" viewBox="0 0 20 21" fill="none" xmlns="http://www.w3.org/2000/svg">
<path d="M15.0159 10.7752L13.9992 9.75858C13.7576 9.55025 13.6159 9.24192 13.6076 8.90026C13.5909 8.52526 13.7409 8.15027 14.0159 7.87527L15.0159 6.87528C15.8826 6.00862 16.2076 5.1753 15.9326 4.51697C15.6659 3.86698 14.8409 3.50865 13.6242 3.50865H4.916V2.79199C4.916 2.45032 4.63267 2.16699 4.29101 2.16699C3.94935 2.16699 3.66602 2.45032 3.66602 2.79199V18.2085C3.66602 18.5502 3.94935 18.8335 4.29101 18.8335C4.63267 18.8335 4.916 18.5502 4.916 18.2085V14.1419H13.6242C14.8242 14.1419 15.6326 13.7752 15.9076 13.1169C16.1826 12.4586 15.8659 11.6336 15.0159 10.7752Z" fill="#C6B437"/>
</svg>
