<svg xmlns="http://www.w3.org/2000/svg" width="60" height="61" viewBox="0 0 60 61" fill="none">
  <path d="M42.1342 0H13.7445C11.1252 0 9 2.13118 9 4.74454V51.1658C9 53.7851 11.1312 55.9103 13.7445 55.9103H42.1342C44.7535 55.9103 46.8787 53.7791 46.8787 51.1658V4.74454C46.8787 2.12523 44.7476 0 42.1342 0ZM44.8547 51.1658C44.8547 52.6659 43.6344 53.8863 42.1342 53.8863H13.7445C12.2444 53.8863 11.024 52.6659 11.024 51.1658V4.74454C11.024 3.24439 12.2444 2.02402 13.7445 2.02402H42.1342C43.6344 2.02402 44.8547 3.24439 44.8547 4.74454V51.1658Z" fill="#163B3E"/>
  <path d="M27.936 3.30981C28.2217 3.30981 28.4598 3.07764 28.4598 2.78595C28.4598 2.49425 28.2277 2.26208 27.936 2.26208C27.6443 2.26208 27.4121 2.49425 27.4121 2.78595C27.4121 3.07764 27.6443 3.30981 27.936 3.30981Z" fill="#163B3E"/>
  <path d="M25.9769 5.41726H29.894C30.1797 5.41726 30.4119 5.18509 30.4119 4.89339C30.4119 4.6017 30.1797 4.37549 29.894 4.37549H25.9769C25.6911 4.37549 25.459 4.60765 25.459 4.89339C25.459 5.17914 25.6911 5.41726 25.9769 5.41726Z" fill="#163B3E"/>
  <path d="M24.2329 5.30414C24.4591 5.30414 24.6377 5.1196 24.6377 4.89934C24.6377 4.67908 24.4532 4.49451 24.2329 4.49451C24.0127 4.49451 23.8281 4.67313 23.8281 4.89934C23.8281 5.12555 24.0067 5.30414 24.2329 5.30414Z" fill="#163B3E"/>
  <path d="M27.9358 47.2606C26.2153 47.2606 24.8164 48.6596 24.8164 50.38C24.8164 52.1004 26.2153 53.4993 27.9358 53.4993C29.6562 53.4993 31.0551 52.1004 31.0551 50.38C31.0551 48.6596 29.6562 47.2606 27.9358 47.2606ZM27.9358 52.4933C26.7749 52.4933 25.8284 51.5468 25.8284 50.3859C25.8284 49.2251 26.7749 48.2786 27.9358 48.2786C29.0966 48.2786 30.0431 49.2251 30.0431 50.3859C30.0431 51.5468 29.0966 52.4933 27.9358 52.4933Z" fill="#163B3E"/>
  <path d="M41.2529 6.60181H14.6193C14.3395 6.60181 14.1133 6.828 14.1133 7.10779V46.5581C14.1133 46.8379 14.3395 47.0641 14.6193 47.0641H41.2529C41.5327 47.0641 41.7589 46.8379 41.7589 46.5581V7.10779C41.7589 6.828 41.5327 6.60181 41.2529 6.60181ZM40.7469 46.0521H15.1253V7.61382H40.7469V46.0521Z" fill="#163B3E"/>
  <path d="M35.1865 16.692C36.5246 16.692 37.6094 15.6073 37.6094 14.2692C37.6094 12.9311 36.5246 11.8463 35.1865 11.8463C33.8484 11.8463 32.7637 12.9311 32.7637 14.2692C32.7637 15.6073 33.8484 16.692 35.1865 16.692Z" fill="#A3CCF2"/>
  <path d="M37.8174 14.8169C37.8889 14.4538 37.8889 14.0728 37.8115 13.7097C37.7579 13.4775 37.6746 13.2513 37.5912 13.031C37.5555 12.9417 37.5198 12.8465 37.4662 12.7691C37.4126 12.6857 37.3472 12.6203 37.2757 12.5488C37.1567 12.4298 37.0376 12.3047 36.9066 12.1976C36.3232 11.7035 35.5255 11.4713 34.7636 11.5844C34.0016 11.6975 33.3051 12.1381 32.8824 12.775C32.2812 13.6918 32.2871 14.93 32.93 15.823C33.3587 16.4183 34.0254 16.8468 34.7517 16.96C35.7934 17.1147 36.9007 16.6028 37.4603 15.7098C37.5496 15.5729 37.621 15.4241 37.6805 15.2693C37.74 15.1265 37.7817 14.9776 37.8115 14.8229L37.8174 14.8169ZM35.1505 16.6325C33.8468 16.6325 32.7812 15.5729 32.7812 14.2633C32.7812 12.9536 33.8409 11.894 35.1505 11.894C36.4602 11.894 37.5198 12.9536 37.5198 14.2633C37.5198 15.5729 36.4602 16.6325 35.1505 16.6325Z" fill="#163B3E"/>
  <path d="M35.1498 16.0968C36.1618 16.0968 36.9774 15.2752 36.9774 14.2632C36.9774 13.2512 36.1559 12.4357 35.1498 12.4357C34.1438 12.4357 33.3223 13.2572 33.3223 14.2632C33.3223 15.2693 34.1438 16.0968 35.1498 16.0968ZM35.1498 12.6678C36.0309 12.6678 36.7512 13.3822 36.7512 14.2632C36.7512 15.1443 36.0368 15.8646 35.1498 15.8646C34.2628 15.8646 33.5544 15.1502 33.5544 14.2632C33.5544 13.3762 34.2688 12.6678 35.1498 12.6678Z" fill="#163B3E"/>
  <path d="M34.5784 15.1265C34.6439 15.1741 34.7213 15.2098 34.8106 15.2336C34.8403 15.2455 34.8761 15.2515 34.9058 15.2574V15.4301C34.9058 15.4955 34.9594 15.5491 35.0189 15.5491H35.3166C35.3821 15.5491 35.4357 15.4955 35.4357 15.4301V15.2276C35.5428 15.186 35.6321 15.1264 35.7035 15.0431C35.7988 14.93 35.8583 14.7871 35.8583 14.6383C35.8583 14.5609 35.8464 14.4835 35.8226 14.4181C35.7869 14.3169 35.7214 14.2276 35.6321 14.1561C35.5547 14.0966 35.4654 14.043 35.3404 13.9894C35.3404 13.9894 35.3345 13.9894 35.3285 13.9894C35.2035 13.9358 35.1559 13.9061 35.132 13.8882C35.1261 13.8823 35.1201 13.8763 35.1142 13.8704C35.1142 13.8704 35.1142 13.8704 35.1142 13.8525C35.1142 13.8466 35.1142 13.8347 35.1261 13.8287C35.1439 13.8168 35.1737 13.8049 35.2154 13.8049C35.269 13.8049 35.3225 13.8109 35.3702 13.8287C35.4118 13.8406 35.4416 13.8584 35.4654 13.8704L35.5309 13.9061C35.5309 13.9061 35.5964 13.9239 35.6262 13.912C35.6559 13.9001 35.6857 13.8763 35.6976 13.8466L35.8107 13.5489C35.8286 13.4953 35.8107 13.4358 35.7631 13.406L35.7154 13.3763C35.6381 13.3287 35.5487 13.2989 35.4595 13.281V13.1203C35.4595 13.0548 35.4059 13.0072 35.3404 13.0072H35.0487C34.9832 13.0072 34.9356 13.0608 34.9356 13.1203V13.3167C34.8404 13.3524 34.757 13.406 34.6915 13.4775C34.5903 13.5846 34.5308 13.7275 34.5308 13.8823C34.5308 13.9656 34.5487 14.0371 34.5784 14.1085C34.6201 14.2037 34.6915 14.2871 34.7927 14.3585C34.8701 14.4121 34.9654 14.4597 35.0904 14.5133C35.1916 14.555 35.2392 14.5907 35.2511 14.6086C35.263 14.6205 35.269 14.6324 35.269 14.6383C35.269 14.6383 35.269 14.6502 35.269 14.6681C35.269 14.6919 35.263 14.7038 35.2452 14.7157C35.2213 14.7336 35.1797 14.7455 35.132 14.7455C35.0189 14.7455 34.9118 14.7038 34.8463 14.6621L34.7808 14.6145C34.7808 14.6145 34.7153 14.5907 34.6796 14.6026C34.6439 14.6145 34.6201 14.6383 34.6082 14.674L34.501 14.9776C34.4832 15.0253 34.501 15.0788 34.5427 15.1086L34.5844 15.1383L34.5784 15.1265ZM34.7689 14.8764C34.8761 14.9359 35.0011 14.9657 35.1261 14.9657C35.2332 14.9657 35.3225 14.9359 35.394 14.8824C35.4595 14.8228 35.5011 14.7454 35.5011 14.6561C35.5011 14.6145 35.4952 14.5728 35.4773 14.5371C35.4595 14.5014 35.4416 14.4716 35.4118 14.4359C35.3583 14.3823 35.2809 14.3347 35.1678 14.293C35.0606 14.2514 34.9832 14.2097 34.9178 14.168C34.8523 14.1204 34.8106 14.0728 34.7868 14.0133C34.7689 13.9716 34.763 13.9299 34.763 13.8763C34.763 13.7811 34.7987 13.6918 34.8582 13.6263C34.9118 13.5668 34.9892 13.5251 35.0785 13.5072C35.1321 13.4953 35.1678 13.4477 35.1678 13.3941V13.2275H35.2273V13.3763C35.2273 13.4358 35.2749 13.4834 35.3344 13.4894C35.4178 13.4953 35.4952 13.5191 35.5607 13.5489L35.5309 13.6263C35.5309 13.6263 35.4833 13.6025 35.4476 13.5906C35.3761 13.5668 35.2987 13.5549 35.2213 13.5549C35.1142 13.5549 35.0308 13.5846 34.9654 13.6442C34.9118 13.6918 34.888 13.7632 34.888 13.8346C34.888 13.8763 34.8939 13.918 34.9118 13.9477C34.9297 13.9835 34.9535 14.0132 34.9832 14.0371C35.0368 14.0847 35.1202 14.1263 35.2511 14.1799C35.3583 14.2216 35.4297 14.2633 35.4892 14.3109C35.5488 14.3585 35.5845 14.4121 35.6083 14.4776C35.6261 14.5192 35.6321 14.5669 35.6321 14.6204C35.6321 14.7157 35.5964 14.805 35.5368 14.8764C35.4773 14.9419 35.394 14.9895 35.2987 15.0133C35.2452 15.0253 35.2094 15.0729 35.2094 15.1265V15.2991H35.1439V15.1443C35.1439 15.0848 35.0963 15.0371 35.0368 15.0312C34.9832 15.0312 34.9297 15.0193 34.8761 15.0014C34.8285 14.9895 34.7808 14.9657 34.7451 14.9479L34.7749 14.8645L34.7689 14.8764Z" fill="#163B3E"/>
  <path d="M35.1865 25.5264C36.5246 25.5264 37.6094 24.4416 37.6094 23.1035C37.6094 21.7654 36.5246 20.6807 35.1865 20.6807C33.8484 20.6807 32.7637 21.7654 32.7637 23.1035C32.7637 24.4416 33.8484 25.5264 35.1865 25.5264Z" fill="#A3CCF2"/>
  <path d="M37.8174 23.6512C37.8889 23.288 37.8889 22.907 37.8115 22.5439C37.7579 22.3117 37.6746 22.0855 37.5912 21.8653C37.5555 21.776 37.5198 21.6807 37.4662 21.6033C37.4126 21.52 37.3472 21.4545 37.2757 21.3831C37.1567 21.264 37.0376 21.139 36.9066 21.0318C36.3232 20.5377 35.5255 20.3056 34.7636 20.4187C34.0016 20.5318 33.3051 20.9723 32.8824 21.6093C32.2812 22.526 32.2871 23.7643 32.93 24.6572C33.3587 25.2525 34.0254 25.6811 34.7517 25.7942C35.7934 25.949 36.9007 25.4371 37.4603 24.5441C37.5496 24.4072 37.621 24.2583 37.6805 24.1036C37.74 23.9607 37.7817 23.8119 37.8115 23.6571L37.8174 23.6512ZM35.1505 25.4668C33.8468 25.4668 32.7812 24.4072 32.7812 23.0975C32.7812 21.7879 33.8409 20.7282 35.1505 20.7282C36.4602 20.7282 37.5198 21.7879 37.5198 23.0975C37.5198 24.4072 36.4602 25.4668 35.1505 25.4668Z" fill="#163B3E"/>
  <path d="M35.1498 24.9311C36.1618 24.9311 36.9774 24.1096 36.9774 23.0975C36.9774 22.0855 36.1559 21.27 35.1498 21.27C34.1438 21.27 33.3223 22.0915 33.3223 23.0975C33.3223 24.1036 34.1438 24.9311 35.1498 24.9311ZM35.1498 21.5022C36.0309 21.5022 36.7512 22.2165 36.7512 23.0975C36.7512 23.9786 36.0368 24.6989 35.1498 24.6989C34.2628 24.6989 33.5544 23.9845 33.5544 23.0975C33.5544 22.2106 34.2688 21.5022 35.1498 21.5022Z" fill="#163B3E"/>
  <path d="M34.5784 23.9607C34.6439 24.0083 34.7213 24.044 34.8106 24.0678C34.8403 24.0797 34.8761 24.0857 34.9058 24.0917V24.2643C34.9058 24.3298 34.9594 24.3834 35.0189 24.3834H35.3166C35.3821 24.3834 35.4357 24.3298 35.4357 24.2643V24.0619C35.5428 24.0202 35.6321 23.9607 35.7035 23.8774C35.7988 23.7643 35.8583 23.6214 35.8583 23.4725C35.8583 23.3951 35.8464 23.3178 35.8226 23.2523C35.7869 23.1511 35.7214 23.0618 35.6321 22.9903C35.5547 22.9308 35.4654 22.8773 35.3404 22.8237C35.3404 22.8237 35.3345 22.8237 35.3285 22.8237C35.2035 22.7701 35.1559 22.7404 35.132 22.7225C35.1261 22.7165 35.1201 22.7106 35.1142 22.7046C35.1142 22.7046 35.1142 22.7046 35.1142 22.6868C35.1142 22.6808 35.1142 22.6689 35.1261 22.6629C35.1439 22.651 35.1737 22.6391 35.2154 22.6391C35.269 22.6391 35.3225 22.6451 35.3702 22.6629C35.4118 22.6748 35.4416 22.6927 35.4654 22.7046L35.5309 22.7403C35.5309 22.7403 35.5964 22.7582 35.6262 22.7463C35.6559 22.7344 35.6857 22.7106 35.6976 22.6808L35.8107 22.3832C35.8286 22.3296 35.8107 22.2701 35.7631 22.2403L35.7154 22.2105C35.6381 22.1629 35.5487 22.1331 35.4595 22.1153V21.9545C35.4595 21.8891 35.4059 21.8414 35.3404 21.8414H35.0487C34.9832 21.8414 34.9356 21.895 34.9356 21.9545V22.151C34.8404 22.1867 34.757 22.2403 34.6915 22.3117C34.5903 22.4189 34.5308 22.5618 34.5308 22.7165C34.5308 22.7999 34.5487 22.8713 34.5784 22.9428C34.6201 23.038 34.6915 23.1213 34.7927 23.1928C34.8701 23.2463 34.9654 23.294 35.0904 23.3475C35.1916 23.3892 35.2392 23.4249 35.2511 23.4428C35.263 23.4547 35.269 23.4666 35.269 23.4725C35.269 23.4725 35.269 23.4845 35.269 23.5023C35.269 23.5261 35.263 23.538 35.2452 23.5499C35.2213 23.5678 35.1797 23.5797 35.132 23.5797C35.0189 23.5797 34.9118 23.538 34.8463 23.4964L34.7808 23.4487C34.7808 23.4487 34.7153 23.4249 34.6796 23.4368C34.6439 23.4487 34.6201 23.4725 34.6082 23.5083L34.501 23.8119C34.4832 23.8595 34.501 23.9131 34.5427 23.9428L34.5844 23.9726L34.5784 23.9607ZM34.7689 23.7107C34.8761 23.7702 35.0011 23.8 35.1261 23.8C35.2332 23.8 35.3225 23.7702 35.394 23.7166C35.4595 23.6571 35.5011 23.5797 35.5011 23.4904C35.5011 23.4487 35.4952 23.4071 35.4773 23.3713C35.4595 23.3356 35.4416 23.3059 35.4118 23.2702C35.3583 23.2166 35.2809 23.169 35.1678 23.1273C35.0606 23.0856 34.9832 23.0439 34.9178 23.0023C34.8523 22.9546 34.8106 22.907 34.7868 22.8475C34.7689 22.8058 34.763 22.7642 34.763 22.7106C34.763 22.6153 34.7987 22.526 34.8582 22.4606C34.9118 22.401 34.9892 22.3594 35.0785 22.3415C35.1321 22.3296 35.1678 22.282 35.1678 22.2284V22.0617H35.2273V22.2105C35.2273 22.27 35.2749 22.3177 35.3344 22.3236C35.4178 22.3296 35.4952 22.3534 35.5607 22.3832L35.5309 22.4606C35.5309 22.4606 35.4833 22.4368 35.4476 22.4248C35.3761 22.401 35.2987 22.3891 35.2213 22.3891C35.1142 22.3891 35.0308 22.4189 34.9654 22.4784C34.9118 22.526 34.888 22.5975 34.888 22.6689C34.888 22.7106 34.8939 22.7522 34.9118 22.782C34.9297 22.8177 34.9535 22.8475 34.9832 22.8713C35.0368 22.9189 35.1202 22.9606 35.2511 23.0142C35.3583 23.0559 35.4297 23.0975 35.4892 23.1451C35.5488 23.1928 35.5845 23.2464 35.6083 23.3118C35.6261 23.3535 35.6321 23.4011 35.6321 23.4547C35.6321 23.5499 35.5964 23.6392 35.5368 23.7107C35.4773 23.7762 35.394 23.8238 35.2987 23.8476C35.2452 23.8595 35.2094 23.9071 35.2094 23.9607V24.1333H35.1439V23.9786C35.1439 23.919 35.0963 23.8714 35.0368 23.8655C34.9832 23.8655 34.9297 23.8536 34.8761 23.8357C34.8285 23.8238 34.7808 23.8 34.7451 23.7821L34.7749 23.6988L34.7689 23.7107Z" fill="#163B3E"/>
  <path d="M35.1865 34.3606C36.5246 34.3606 37.6094 33.2759 37.6094 31.9378C37.6094 30.5996 36.5246 29.5149 35.1865 29.5149C33.8484 29.5149 32.7637 30.5996 32.7637 31.9378C32.7637 33.2759 33.8484 34.3606 35.1865 34.3606Z" fill="#A3CCF2"/>
  <path d="M37.8174 32.4854C37.8889 32.1222 37.8889 31.7412 37.8115 31.3781C37.7579 31.1459 37.6746 30.9197 37.5912 30.6995C37.5555 30.6102 37.5198 30.5149 37.4662 30.4375C37.4126 30.3542 37.3472 30.2887 37.2757 30.2173C37.1567 30.0982 37.0376 29.9732 36.9066 29.8661C36.3232 29.372 35.5255 29.1398 34.7636 29.2529C34.0016 29.366 33.3051 29.8065 32.8824 30.4435C32.2812 31.3602 32.2871 32.5985 32.93 33.4914C33.3587 34.0867 34.0254 34.5153 34.7517 34.6284C35.7934 34.7832 36.9007 34.2712 37.4603 33.3783C37.5496 33.2414 37.621 33.0926 37.6805 32.9378C37.74 32.7949 37.7817 32.6461 37.8115 32.4913L37.8174 32.4854ZM35.1505 34.301C33.8468 34.301 32.7812 33.2414 32.7812 31.9317C32.7812 30.6221 33.8409 29.5625 35.1505 29.5625C36.4602 29.5625 37.5198 30.6221 37.5198 31.9317C37.5198 33.2414 36.4602 34.301 35.1505 34.301Z" fill="#163B3E"/>
  <path d="M35.1498 33.7652C36.1618 33.7652 36.9774 32.9437 36.9774 31.9317C36.9774 30.9197 36.1559 30.1041 35.1498 30.1041C34.1438 30.1041 33.3223 30.9256 33.3223 31.9317C33.3223 32.9377 34.1438 33.7652 35.1498 33.7652ZM35.1498 30.3363C36.0309 30.3363 36.7512 31.0507 36.7512 31.9317C36.7512 32.8127 36.0368 33.533 35.1498 33.533C34.2628 33.533 33.5544 32.8187 33.5544 31.9317C33.5544 31.0447 34.2688 30.3363 35.1498 30.3363Z" fill="#163B3E"/>
  <path d="M34.5784 32.7889C34.6439 32.8366 34.7213 32.8723 34.8106 32.8961C34.8403 32.908 34.8761 32.9139 34.9058 32.9199V33.0925C34.9058 33.158 34.9594 33.2116 35.0189 33.2116H35.3166C35.3821 33.2116 35.4357 33.158 35.4357 33.0925V32.8901C35.5428 32.8485 35.6321 32.7889 35.7035 32.7056C35.7988 32.5925 35.8583 32.4496 35.8583 32.3008C35.8583 32.2234 35.8464 32.146 35.8226 32.0805C35.7869 31.9793 35.7214 31.89 35.6321 31.8186C35.5547 31.7591 35.4654 31.7055 35.3404 31.6519C35.3404 31.6519 35.3345 31.6519 35.3285 31.6519C35.2035 31.5984 35.1559 31.5686 35.132 31.5507C35.1261 31.5448 35.1201 31.5388 35.1142 31.5329C35.1142 31.5329 35.1142 31.5328 35.1142 31.515C35.1142 31.509 35.1142 31.4971 35.1261 31.4912C35.1439 31.4793 35.1737 31.4674 35.2154 31.4674C35.269 31.4674 35.3225 31.4733 35.3702 31.4912C35.4118 31.5031 35.4416 31.521 35.4654 31.5329L35.5309 31.5686C35.5309 31.5686 35.5964 31.5864 35.6262 31.5745C35.6559 31.5626 35.6857 31.5388 35.6976 31.509L35.8107 31.2114C35.8286 31.1578 35.8107 31.0983 35.7631 31.0685L35.7154 31.0388C35.6381 30.9911 35.5487 30.9614 35.4595 30.9435V30.7828C35.4595 30.7173 35.4059 30.6697 35.3404 30.6697H35.0487C34.9832 30.6697 34.9356 30.7233 34.9356 30.7828V30.9792C34.8404 31.015 34.757 31.0685 34.6915 31.1399C34.5903 31.2471 34.5308 31.39 34.5308 31.5447C34.5308 31.6281 34.5487 31.6995 34.5784 31.771C34.6201 31.8662 34.6915 31.9496 34.7927 32.021C34.8701 32.0746 34.9654 32.1222 35.0904 32.1758C35.1916 32.2174 35.2392 32.2532 35.2511 32.271C35.263 32.2829 35.269 32.2948 35.269 32.3008C35.269 32.3008 35.269 32.3127 35.269 32.3305C35.269 32.3544 35.263 32.3663 35.2452 32.3782C35.2213 32.396 35.1797 32.4079 35.132 32.4079C35.0189 32.4079 34.9118 32.3663 34.8463 32.3246L34.7808 32.277C34.7808 32.277 34.7153 32.2532 34.6796 32.2651C34.6439 32.277 34.6201 32.3008 34.6082 32.3365L34.501 32.6401C34.4832 32.6877 34.501 32.7413 34.5427 32.7711L34.5844 32.8009L34.5784 32.7889ZM34.7689 32.5449C34.8761 32.6044 35.0011 32.6342 35.1261 32.6342C35.2332 32.6342 35.3225 32.6044 35.394 32.5508C35.4595 32.4913 35.5011 32.4139 35.5011 32.3246C35.5011 32.2829 35.4952 32.2413 35.4773 32.2056C35.4595 32.1698 35.4416 32.14 35.4118 32.1043C35.3583 32.0508 35.2809 32.0031 35.1678 31.9615C35.0606 31.9198 34.9832 31.8781 34.9178 31.8365C34.8523 31.7888 34.8106 31.7412 34.7868 31.6817C34.7689 31.64 34.763 31.5983 34.763 31.5447C34.763 31.4495 34.7987 31.3602 34.8582 31.2947C34.9118 31.2352 34.9892 31.1935 35.0785 31.1757C35.1321 31.1638 35.1678 31.1161 35.1678 31.0626V30.8959H35.2273V31.0447C35.2273 31.1042 35.2749 31.1519 35.3344 31.1578C35.4178 31.1638 35.4952 31.1876 35.5607 31.2173L35.5309 31.2947C35.5309 31.2947 35.4833 31.2709 35.4476 31.259C35.3761 31.2352 35.2987 31.2233 35.2213 31.2233C35.1142 31.2233 35.0308 31.2531 34.9654 31.3126C34.9118 31.3602 34.888 31.4317 34.888 31.5031C34.888 31.5448 34.8939 31.5865 34.9118 31.6162C34.9297 31.6519 34.9535 31.6817 34.9832 31.7055C35.0368 31.7531 35.1202 31.7948 35.2511 31.8484C35.3583 31.89 35.4297 31.9317 35.4892 31.9793C35.5488 32.027 35.5845 32.0805 35.6083 32.146C35.6261 32.1877 35.6321 32.2353 35.6321 32.2889C35.6321 32.3841 35.5964 32.4734 35.5368 32.5449C35.4773 32.6104 35.394 32.658 35.2987 32.6818C35.2452 32.6937 35.2094 32.7413 35.2094 32.7949V32.9675H35.1439V32.8127C35.1439 32.7532 35.0963 32.7056 35.0368 32.6996C34.9832 32.6996 34.9297 32.6877 34.8761 32.6699C34.8285 32.658 34.7808 32.6342 34.7451 32.6163L34.7749 32.533L34.7689 32.5449Z" fill="#163B3E"/>
  <path d="M29.6575 13.8407H17.0312V14.6503H29.6575V13.8407Z" fill="white"/>
  <path d="M16.9174 15.3706H29.7758C30.0972 15.3706 30.3592 15.1087 30.3592 14.7872V13.7395C30.3592 13.418 30.0972 13.1561 29.7758 13.1561H16.9174C16.5959 13.1561 16.334 13.418 16.334 13.7395V14.7872C16.334 15.1087 16.5959 15.3706 16.9174 15.3706ZM17.0305 13.8586H29.6567V14.6682H17.0305V13.8586Z" fill="#163B3E"/>
  <path d="M29.6575 22.6926H17.0312V23.5023H29.6575V22.6926Z" fill="white"/>
  <path d="M16.9174 24.2048H29.7758C30.0972 24.2048 30.3592 23.9428 30.3592 23.6213V22.5737C30.3592 22.2522 30.0972 21.9902 29.7758 21.9902H16.9174C16.5959 21.9902 16.334 22.2522 16.334 22.5737V23.6213C16.334 23.9428 16.5959 24.2048 16.9174 24.2048ZM17.0305 22.6927H29.6567V23.5023H17.0305V22.6927Z" fill="#163B3E"/>
  <path d="M30.3592 32.4556V31.4078C30.3592 31.0864 30.0972 30.8245 29.7758 30.8245H16.9174C16.5959 30.8245 16.334 31.0864 16.334 31.4078V32.4556C16.334 32.777 16.5959 33.0389 16.9174 33.0389H29.7758C30.0972 33.0389 30.3592 32.777 30.3592 32.4556ZM29.6567 32.3365H17.0305V31.5269H29.6567V32.3365Z" fill="#163B3E"/>
  <path d="M29.6575 31.5269H17.0312V32.3365H29.6575V31.5269Z" fill="white"/>
  <path d="M41.7586 59.0237C41.7586 59.0237 41.7408 59.0237 41.711 59.0058C37.6511 57.2199 35.0794 54.2911 33.8531 50.0407C33.5376 48.9453 33.3828 47.7845 33.3828 46.4867C33.3828 46.4867 33.3828 42.3256 33.3828 42.3137C33.3888 42.3137 36.1212 41.1767 36.1212 41.1767C37.9904 40.4028 39.8537 39.6289 41.7229 38.8491C41.7527 38.8372 41.7646 38.8372 41.7646 38.8372C43.6755 39.6349 45.5804 40.4266 47.4854 41.2124L50.1345 42.3137C50.1345 42.8673 50.1345 43.415 50.1345 43.9687C50.1345 44.8318 50.1345 45.689 50.1345 46.5522C50.0988 52.0706 46.9139 56.8449 41.8182 59.0058C41.7825 59.0237 41.7646 59.0237 41.7586 59.0237Z" fill="white"/>
  <path d="M41.7582 39.8789C43.5441 40.623 45.33 41.3612 47.1159 42.1053L49.1696 42.9566C49.1696 43.2959 49.1696 43.6352 49.1696 43.9745C49.1696 44.8318 49.1696 45.683 49.1696 46.5403C49.1399 51.5467 46.3122 55.8983 41.7701 57.97C38.1804 56.2972 35.8945 53.6124 34.7873 49.7728C34.4956 48.7667 34.3586 47.6952 34.3586 46.4867V42.9566L36.5077 42.0637C38.2638 41.3374 40.014 40.6052 41.7701 39.8789M41.7641 37.8668C41.6272 37.8668 41.4903 37.8966 41.3534 37.9561C38.5853 39.111 35.8112 40.2599 33.043 41.4088C32.5906 41.5993 32.418 41.8613 32.418 42.3613C32.418 43.2245 32.418 44.0877 32.418 44.9568V46.4927C32.418 47.7904 32.5668 49.0643 32.924 50.3145C34.2217 54.8209 37.0256 58.0116 41.3236 59.8987C41.4724 59.9642 41.6153 60 41.7641 60C41.913 60 42.0499 59.9702 42.1987 59.9047C47.6159 57.6068 51.0686 52.4456 51.1043 46.5641C51.1163 45.1532 51.1043 43.7424 51.1043 42.3256C51.1043 41.897 50.9138 41.5993 50.521 41.4326C47.729 40.2718 44.943 39.1169 42.1511 37.9561C42.0201 37.9025 41.8951 37.8787 41.7701 37.8787" fill="#163B3E"/>
  <path d="M37.043 46.7189C37.043 46.2843 37.043 45.8438 37.043 45.4092C37.043 45.1592 37.1323 45.0223 37.3586 44.927C38.7575 44.3436 40.1565 43.7662 41.5495 43.1828C41.6864 43.1292 41.8173 43.1233 41.9483 43.1828C43.3532 43.7662 44.7641 44.3496 46.169 44.9389C46.3714 45.0223 46.4666 45.1711 46.4666 45.3914C46.4666 46.1057 46.4666 46.8141 46.4666 47.5285C46.4488 50.4931 44.7045 53.1005 41.9721 54.2553C41.8233 54.3208 41.6804 54.3208 41.5316 54.2553C39.3647 53.3029 37.9539 51.6896 37.2931 49.4215C37.1145 48.7965 37.0371 48.1476 37.0371 47.4928V46.7189" fill="#51AD61"/>
</svg>