<svg xmlns="http://www.w3.org/2000/svg" width="60" height="61" viewBox="0 0 60 61" fill="none">
  <path d="M41.0934 59.684C41.3751 59.684 41.6499 59.581 41.8628 59.3817L53.8505 48.0811C54.0772 47.8681 54.1871 47.5727 54.194 47.2773C54.3107 47.0781 54.3863 46.8514 54.3863 46.6041V4.73324C54.3863 2.12275 52.2636 0 49.6531 0H9.73323C7.12274 0 5 2.12275 5 4.73324V55.2668C5 57.8773 7.12274 60 9.73323 60H40.2485C40.5713 60 40.8599 59.8764 41.0866 59.6909L41.0934 59.684ZM42.2132 55.9744V51.6327C42.2132 49.8397 43.6696 48.3833 45.4626 48.3833H50.2645L42.2132 55.9744ZM38.9432 57.3689H9.73323C8.57225 57.3689 7.6311 56.4209 7.6311 55.2599V4.72636C7.6311 3.56538 8.57912 2.61736 9.73323 2.61736H49.6462C50.8072 2.61736 51.7483 3.55851 51.7483 4.72636V45.2782H45.6137C41.9247 45.2782 38.9295 48.2734 38.9295 51.9625V57.362L38.9432 57.3689Z" fill="#163B3E"/>
  <path d="M15.2301 17.4559H44.1584C44.8866 17.4559 45.4705 16.8651 45.4705 16.1438V13.7875C45.4705 13.0593 44.8797 12.4753 44.1584 12.4753H15.2301C14.5019 12.4753 13.918 13.0661 13.918 13.7875V16.1438C13.918 16.872 14.5088 17.4559 15.2301 17.4559ZM15.4911 14.0485H43.8974V15.8759H15.4911V14.0485Z" fill="#163B3E"/>
  <path d="M15.2301 25.6859H44.1584C44.8866 25.6859 45.4705 25.0951 45.4705 24.3737V22.0174C45.4705 21.2892 44.8797 20.7053 44.1584 20.7053H15.2301C14.5019 20.7053 13.918 21.2961 13.918 22.0174V24.3737C13.918 25.1019 14.5088 25.6859 15.2301 25.6859ZM15.4911 22.2853H43.8974V24.1127H15.4911V22.2853Z" fill="#163B3E"/>
  <path d="M45.4764 32.6104V30.2541C45.4764 29.5259 44.8856 28.942 44.1643 28.942H15.2359C14.5078 28.942 13.9238 29.5328 13.9238 30.2541V32.6104C13.9238 33.3386 14.5146 33.9226 15.2359 33.9226H44.1643C44.8925 33.9226 45.4764 33.3318 45.4764 32.6104ZM43.8964 32.3494H15.4901V30.522H43.8964V32.3494Z" fill="#163B3E"/>
  <path d="M43.8965 14.0486H15.4902V15.8759H43.8965V14.0486Z" fill="white"/>
  <path d="M43.8965 22.2853H15.4902V24.1126H43.8965V22.2853Z" fill="white"/>
  <path d="M43.8965 30.5221H15.4902V32.3494H43.8965V30.5221Z" fill="white"/>
  <path d="M42.2131 55.9743V51.6327C42.2131 51.6327 42.1306 48.6306 45.4624 48.3833H50.2644L42.2131 55.9743Z" fill="#A3CCF2"/>
</svg>