<svg xmlns="http://www.w3.org/2000/svg" width="60" height="61" viewBox="0 0 60 61" fill="none">
  <path d="M10.3891 52.9607L23.0399 42.3922C23.0399 42.3922 23.2594 42.2731 23.4726 42.2981C23.4726 42.2981 23.7988 42.4236 23.9619 42.9693L10.4581 55.1434L10.3828 52.9544L10.3891 52.9607Z" fill="#A3CCF2"/>
  <path d="M25.0963 21.2553L24.375 17.9687L29.5871 14.3623H33.3315V32.9841H37.239V35.7313H25.09V32.9841H29.0163V18.1569L25.0963 21.2553Z" fill="white"/>
  <path d="M24.1431 21.6317C24.2121 21.939 24.4316 22.1836 24.7264 22.2902C25.0212 22.3906 25.3599 22.3404 25.5983 22.146L28.0005 20.2456V31.9681H24.9899C24.7515 31.9681 24.5132 32.0684 24.3501 32.2378C24.1808 32.4071 24.0804 32.6392 24.0804 32.8838V35.8317C24.0804 36.07 24.1745 36.3083 24.3438 36.4714C24.5132 36.647 24.7452 36.7411 24.9899 36.7411H37.3396C37.5842 36.7411 37.8163 36.647 37.9793 36.4777C38.1549 36.3083 38.249 36.0763 38.249 35.8317V32.8838C38.249 32.6392 38.1549 32.4134 37.9856 32.244C37.8163 32.0684 37.5842 31.9743 37.3396 31.9743H34.3478V14.262C34.3478 14.0174 34.2537 13.7853 34.0844 13.6222C33.915 13.4466 33.683 13.3525 33.4383 13.3525H29.5622C29.374 13.3525 29.1921 13.409 29.0416 13.5156L23.748 17.1785C23.4407 17.3918 23.2964 17.7618 23.3779 18.1256L24.1494 21.6379L24.1431 21.6317ZM29.5873 14.3623H33.3317V32.9904H37.2392V35.7313H25.0965V32.9904H29.0165V18.1632L25.1028 21.2616L24.3815 17.9751L29.5936 14.3686L29.5873 14.3623Z" fill="#163B3E"/>
  <path d="M0.0459331 48.7019C0.15883 49.0343 0.453618 49.2664 0.804854 49.2977L8.53205 49.9249L8.77039 57.0939C8.78293 57.4326 8.98991 57.7399 9.30351 57.8716C9.41641 57.9218 9.52931 57.9406 9.64848 57.9406C9.86173 57.9406 10.0687 57.8654 10.2381 57.7148L24.6137 44.7505L25.3036 46.6384C25.6423 47.5604 26.3197 48.1123 27.1288 48.1123C27.7246 48.1123 28.3142 47.7987 28.7783 47.2279L31.331 44.1044C31.5443 43.841 31.8516 43.6968 32.1778 43.6968C32.3659 43.6968 32.6482 43.7469 32.9179 43.9853L35.9097 46.7011C36.3738 47.1276 36.9006 47.3534 37.415 47.3534C37.7662 47.3534 38.1551 47.2405 38.4875 46.9771L48.8866 58.5051C49.0559 58.6933 49.2943 58.7936 49.5389 58.7936C49.6267 58.7936 49.7208 58.7811 49.8023 58.7497C50.1284 58.6494 50.3668 58.3609 50.4044 58.0159L51.2261 50.9975L58.9282 50.2887C59.2606 50.2573 59.5428 50.0441 59.662 49.7368C59.7812 49.4294 59.7185 49.0782 59.4989 48.8336L46.7164 34.6587C46.7164 34.6587 46.7415 34.596 46.7603 34.5646C46.9109 34.3075 47.1618 34.1256 47.4628 34.0566L51.3891 33.1409C52.2233 32.9464 52.8129 32.4509 53.0136 31.7861C53.2143 31.115 52.9885 30.3811 52.3927 29.7602L49.5953 26.85C49.3821 26.6242 49.2692 26.3357 49.288 26.0409C49.3005 25.7398 49.4385 25.4701 49.6706 25.2631L52.7251 22.6226C53.3711 22.0644 53.6659 21.3494 53.5279 20.6657C53.3962 19.982 52.8505 19.4364 52.0414 19.1604L48.2155 17.8809C47.9207 17.7868 47.6886 17.5798 47.5632 17.3101C47.4377 17.0404 47.4315 16.7331 47.5444 16.4446L49.0183 12.6939C49.3131 11.9475 49.2754 11.2325 48.9054 10.6994C48.4852 10.0847 47.7576 9.79619 46.8105 9.95299L42.8278 10.599C42.188 10.6994 41.6361 10.2666 41.5671 9.63939L41.128 5.63153C40.9838 4.30812 40.0994 3.71855 39.284 3.71855C38.8199 3.71855 38.3432 3.89417 37.8916 4.23286L34.6678 6.65388C34.166 7.0302 33.4447 6.90476 33.0998 6.39045L30.8481 3.04116C30.3965 2.37005 29.7881 2 29.1295 2C28.3832 2 27.7246 2.47668 27.3357 3.30459L25.6046 6.94867C25.3412 7.50688 24.6513 7.73895 24.0931 7.43789L20.5431 5.51863C19.6336 5.02941 18.6803 5.11722 18.1032 5.72561C17.8335 6.00786 17.5199 6.52217 17.5513 7.38144L17.7144 11.4144C17.7269 11.7217 17.6203 12.0102 17.4133 12.2235C17.2063 12.4367 16.9241 12.5559 16.6042 12.5559L12.5274 12.5057C11.6869 12.5057 11.0095 12.8444 10.6646 13.4465C10.3196 14.0487 10.3635 14.8138 10.7837 15.5477L12.7971 19.0412C12.9476 19.3109 12.9915 19.612 12.9037 19.9005C12.8221 20.189 12.6214 20.4211 12.3455 20.5653L8.75157 22.3968C7.98638 22.7857 7.53479 23.4066 7.49716 24.1028C7.4658 24.799 7.86094 25.4576 8.58223 25.9154L11.9942 28.073C12.2514 28.2361 12.4333 28.4932 12.4897 28.7818C12.5462 29.0765 12.4835 29.3776 12.3016 29.6285L9.96836 32.9213C9.47286 33.6175 9.35996 34.3827 9.65475 35.0099C9.94954 35.6371 10.6081 36.0448 11.4611 36.1138L13.0856 36.2455L0.290544 47.7736C0.033389 48.0057 -0.0669642 48.3757 0.0459331 48.7019ZM46.9736 41.7587C47.03 41.7022 47.0802 41.6395 47.1241 41.5768C47.2747 41.4764 47.4064 41.3573 47.5193 41.2067C47.8956 40.7113 47.9834 40.0276 47.7702 39.2938L47.4064 38.0456L57.0152 48.7081L50.348 49.3228C49.934 49.3604 49.6079 49.6803 49.5577 50.0943L48.8803 55.8959L39.3091 45.2899L40.0555 41.6521C40.0806 41.5203 40.137 41.4012 40.1998 41.2946C40.4318 41.1691 40.7078 41.1377 40.9712 41.2005L44.8787 42.2165C45.7129 42.4361 46.4718 42.2667 46.9611 41.765L46.9736 41.7587ZM11.5991 34.389C11.3294 34.3702 11.2228 34.2886 11.2102 34.2698C11.2102 34.2698 11.2102 34.251 11.2102 34.2322C11.2165 34.1757 11.2541 34.0566 11.367 33.8935L13.7002 30.6007C13.8131 30.4376 13.9072 30.2682 13.9825 30.0989C14.2146 29.5783 14.2773 29.0013 14.1644 28.4305C14.0138 27.6716 13.5685 27.0256 12.9037 26.6054L9.49168 24.4415C9.37878 24.3725 9.30979 24.3035 9.26588 24.2533C9.22198 24.2031 9.20943 24.1655 9.20943 24.1655C9.20943 24.1342 9.2847 24.0213 9.52304 23.8958L11.367 22.955L13.1169 22.0644C13.8194 21.7069 14.3212 21.1047 14.5407 20.3584C14.7477 19.6496 14.6724 18.9032 14.3212 18.2509C14.3024 18.2196 14.2898 18.1882 14.271 18.1569L12.2577 14.6633C12.1573 14.4877 12.1322 14.3685 12.1322 14.3121C12.1322 14.2933 12.1322 14.2807 12.1322 14.2807C12.1322 14.2682 12.151 14.2619 12.1699 14.2494C12.22 14.2243 12.3329 14.1866 12.5336 14.1866L13.5748 14.1992L16.6042 14.2368C17.3819 14.2368 18.1032 13.9295 18.6364 13.3775C18.8998 13.1016 19.1005 12.7754 19.2322 12.4305C19.2448 12.3991 19.251 12.3615 19.2573 12.3301C19.3639 12.0102 19.4204 11.6715 19.4078 11.3203L19.2448 7.28736C19.2322 7.01766 19.3012 6.89849 19.3514 6.87967C19.3953 6.87967 19.5145 6.89222 19.7089 6.99884L22.6254 8.57313L23.2589 8.9181C23.3028 8.94319 23.3467 8.95573 23.3906 8.98082C23.7732 9.16271 24.1871 9.26306 24.6011 9.26306C25.3287 9.26306 25.9998 8.98082 26.5078 8.50414C26.7587 8.2658 26.972 7.98356 27.1288 7.65741L28.8598 4.01334C28.8912 3.94434 28.9226 3.88789 28.9539 3.84399C29.0104 3.76245 29.0543 3.71855 29.0794 3.706C29.0856 3.706 29.0982 3.69346 29.0982 3.69346C29.1045 3.69346 29.1358 3.706 29.1672 3.72482C29.186 3.73736 29.1985 3.74991 29.2174 3.76873C29.2675 3.81263 29.3302 3.87535 29.3992 3.9757L30.9234 6.24619L31.6509 7.32499C31.8265 7.58215 32.0398 7.80794 32.2844 7.98983C32.7673 8.35988 33.3569 8.57313 33.9779 8.57313C34.1597 8.57313 34.3354 8.54805 34.5173 8.51669C34.9312 8.43515 35.3264 8.2658 35.6713 8.00865L36.9885 7.01766L38.8952 5.58763C39.0708 5.45591 39.1837 5.42455 39.2339 5.41828C39.2464 5.41828 39.2589 5.41828 39.2589 5.41828C39.2778 5.43082 39.3593 5.53745 39.3907 5.80715L39.8297 9.82128C39.8924 10.4109 40.137 10.944 40.5071 11.3642C40.6451 11.521 40.7956 11.659 40.9649 11.7844C41.542 12.2109 42.2884 12.4179 43.0724 12.2862L47.0551 11.6402C47.2747 11.6025 47.444 11.6527 47.4565 11.659C47.4565 11.659 47.4565 11.6778 47.4628 11.6904C47.4691 11.7468 47.4691 11.866 47.3938 12.0667L45.9199 15.8237C45.8823 15.9177 45.8509 16.0055 45.8258 16.0934C45.8258 16.0934 45.8195 16.1373 45.8133 16.1561C45.6753 16.6767 45.6941 17.2098 45.8572 17.7115C45.8948 17.8182 45.9324 17.9311 45.9826 18.0377C46.0453 18.1694 46.1206 18.2886 46.2021 18.4077C46.5471 18.9221 47.0363 19.3109 47.6384 19.5116L50.4922 20.465L51.4644 20.7911C51.6337 20.8476 51.7278 20.9103 51.778 20.9542C51.8031 20.973 51.8156 20.9918 51.8219 20.9981C51.8219 21.0169 51.7968 21.0797 51.7278 21.1675C51.6902 21.2176 51.6463 21.2678 51.571 21.3243L49.658 22.9801L48.5228 23.9648C47.9332 24.4791 47.582 25.1879 47.5444 25.9531C47.5067 26.7245 47.789 27.4646 48.3284 28.0291L51.1257 30.9394C51.3139 31.1338 51.339 31.2655 51.339 31.2843C51.339 31.2843 51.3264 31.2969 51.3201 31.3031C51.3201 31.3031 51.3201 31.3031 51.3139 31.3094C51.27 31.347 51.1696 31.4098 50.9689 31.4599L47.0426 32.3819C46.2774 32.5576 45.6439 33.028 45.2488 33.6928C45.161 33.8433 45.092 33.9939 45.0355 34.1507V34.1632C44.9791 34.32 44.9352 34.4893 44.9101 34.6524C44.5526 35.242 44.3832 35.7124 44.5463 36.2706L45.669 40.1468L41.8179 39.1495C41.6611 39.1056 41.4981 39.0868 41.3413 39.0742C41.2597 39.0742 41.1782 39.0617 41.0967 39.0617C40.9461 39.0617 40.8019 39.0742 40.6639 39.0993C40.6325 39.0993 40.6012 39.1119 40.5698 39.1119C40.4444 39.137 40.3252 39.1683 40.206 39.2059C40.1558 39.2248 40.1057 39.2436 40.0618 39.2624C39.9865 39.2938 39.9175 39.3251 39.8422 39.3628C39.7482 39.4129 39.6604 39.4631 39.5725 39.5196C39.5412 39.5384 39.5161 39.5572 39.4847 39.5823C39.3468 39.6764 39.2213 39.7893 39.1084 39.9084C38.5 40.3224 38.0798 40.9433 37.9293 41.6772L37.2331 45.0703C37.1954 45.2522 37.2205 45.4404 37.2958 45.6035C37.2958 45.6035 37.2331 45.5721 37.2017 45.547C37.1954 45.547 37.1892 45.5407 37.1829 45.5345C37.139 45.5031 37.0951 45.4718 37.0449 45.4278L34.0531 42.712C33.8336 42.5113 33.5827 42.3608 33.313 42.2416C32.9492 42.0786 32.5604 41.9782 32.159 41.9782C31.676 41.9782 31.2119 42.1099 30.7979 42.342C30.6599 42.4235 30.5219 42.5113 30.3965 42.618C30.2522 42.7371 30.1143 42.8688 29.9888 43.0256L27.4361 46.1491C27.4047 46.193 27.3671 46.2244 27.3357 46.2558C27.2981 46.2934 27.2667 46.3248 27.2354 46.3436C27.2354 46.3436 27.2291 46.3436 27.2291 46.3498C27.2291 46.3498 27.2291 46.3498 27.2228 46.3498C27.1727 46.3812 27.135 46.3937 27.1225 46.4C27.1225 46.4 27.1037 46.3875 27.0911 46.3749C27.0472 46.331 26.9719 46.2369 26.903 46.0551L25.9684 43.5086C26.2068 43.2703 26.2883 42.9128 26.1691 42.5991L26.1064 42.4235C25.8367 41.6834 25.291 41.1064 24.5823 40.7928C24.3377 40.6862 24.0868 40.6172 23.8296 40.5858C23.6854 40.5356 23.5349 40.4917 23.3843 40.4666C23.3843 40.4666 23.378 40.4666 23.3718 40.4666C23.215 40.4353 23.0582 40.4227 22.8951 40.4227C22.7069 40.4227 22.5188 40.4416 22.3306 40.4792C22.1425 40.5168 21.9606 40.5733 21.7849 40.6485L18.2224 42.1664C18.2224 42.135 18.2224 42.1036 18.2287 42.0597L18.7681 38.0582C18.8747 37.2742 18.6614 36.509 18.1722 35.9006C17.7206 35.3361 17.0746 34.9911 16.3533 34.8908C16.2592 34.8531 16.1589 34.828 16.0585 34.803C15.9143 34.7653 15.7763 34.734 15.6258 34.7214L14.2647 34.6085L11.5991 34.3953V34.389ZM15.1428 36.7348L16.0335 36.6281C16.115 36.6846 16.1903 36.7473 16.253 36.8288C16.4411 37.0609 16.5227 37.3557 16.4788 37.663L15.9456 41.6646C15.8516 42.3671 16.0084 42.9943 16.391 43.4271C16.6607 43.7344 17.0307 43.9288 17.4509 43.9915C17.9841 44.2675 18.6489 44.2675 19.3326 43.979L23.0456 42.3984C23.1836 42.3357 23.3341 42.3044 23.4784 42.3044C23.6791 42.4298 23.8359 42.618 23.9237 42.85L23.9676 42.9755L10.4638 55.1496L10.2631 49.0845C10.2506 48.6392 9.89936 48.2754 9.46032 48.2377L2.98126 47.7109L15.1554 36.7285L15.1428 36.7348Z" fill="#163B3E"/>
  <path d="M48.7924 29.798C48.7924 29.798 48.7736 29.798 48.736 29.7791C43.8626 27.6404 40.7767 24.1155 39.3028 19.0163C38.9264 17.7054 38.7383 16.3067 38.7383 14.7513C38.7383 14.7513 38.7383 9.75869 38.7383 9.73987C38.7508 9.73987 42.0248 8.37256 42.0248 8.37256C44.264 7.44429 46.5094 6.50975 48.7485 5.57521C48.7861 5.56267 48.7987 5.5564 48.7987 5.5564C51.0943 6.51602 53.3773 7.46311 55.6603 8.41019L58.8403 9.7336C58.8403 10.3984 58.8403 11.057 58.8403 11.7218C58.8403 12.7567 58.8403 13.7854 58.8403 14.8203C58.7964 21.4498 54.9704 27.1762 48.8551 29.7729C48.8112 29.7917 48.7861 29.7917 48.7861 29.798" fill="white"/>
  <path d="M48.793 6.81702C50.9381 7.70765 53.0768 8.59829 55.2219 9.48892L57.6868 10.5113C57.6868 10.919 57.6868 11.3266 57.6868 11.7343C57.6868 12.7629 57.6868 13.7853 57.6868 14.8139C57.6492 20.8288 54.256 26.0472 48.8055 28.5309C44.4966 26.5239 41.7495 23.3 40.4198 18.6901C40.0686 17.4858 39.8992 16.1938 39.8992 14.7449V10.5113L42.477 9.43875C44.5844 8.56693 46.6856 7.68884 48.793 6.81702ZM48.7993 4.396C48.6362 4.396 48.4731 4.43363 48.3038 4.50262C44.9796 5.88875 41.6554 7.26233 38.3249 8.64846C37.7792 8.87426 37.5723 9.19413 37.5723 9.78998C37.5723 10.8249 37.5723 11.866 37.5723 12.9009V14.7449C37.5723 16.3004 37.7479 17.8371 38.1807 19.3298C39.7424 24.7363 43.1105 28.5686 48.2599 30.8328C48.4418 30.9143 48.6111 30.952 48.7867 30.952C48.9624 30.952 49.1317 30.9143 49.3073 30.8391C55.8115 28.0794 59.951 21.8825 59.9949 14.8265C60.0075 13.133 59.9949 11.4333 59.9949 9.7398C59.9949 9.22549 59.7691 8.86171 59.2925 8.66728C55.9432 7.27488 52.5939 5.88875 49.2446 4.49635C49.0878 4.43363 48.9373 4.40227 48.7867 4.40227" fill="#163B3E"/>
  <path d="M43.1352 15.0273C43.1352 14.5004 43.1352 13.9798 43.1352 13.4593C43.1352 13.1582 43.2418 12.9951 43.5115 12.8822C45.1924 12.186 46.8671 11.4898 48.5417 10.7936C48.7048 10.7246 48.8616 10.7184 49.0247 10.7936C50.7118 11.4961 52.4053 12.1986 54.0925 12.901C54.3308 13.0014 54.45 13.1833 54.4437 13.4404C54.4437 14.2934 54.4437 15.1527 54.4437 16.0057C54.4186 19.5683 52.33 22.6918 49.0497 24.0842C48.8679 24.1594 48.7048 24.1594 48.5229 24.0842C45.92 22.9426 44.2265 21.0046 43.4362 18.2825C43.2167 17.5298 43.1289 16.7521 43.1289 15.9681V15.0398" fill="#51AD61"/>
  <path d="M39.3164 45.2837L48.8876 55.8898L49.1071 53.9956L39.6049 43.8662L39.3164 45.2837Z" fill="#A3CCF2"/>
</svg>