<svg xmlns="http://www.w3.org/2000/svg" width="60" height="61" viewBox="0 0 60 61" fill="none">
  <path d="M41.4906 54.138H7.59849C6.16792 54.138 5 52.9701 5 51.5396V9.67867C5 8.2481 6.16792 7.0802 7.59849 7.0802H41.4906C42.9212 7.0802 44.0891 8.2481 44.0891 9.67867V51.5396C44.0891 52.9701 42.9212 54.138 41.4906 54.138ZM7.59849 9.38252C7.43085 9.38252 7.29673 9.51662 7.29673 9.68426V51.5451C7.29673 51.7128 7.43085 51.8469 7.59849 51.8469H41.4906C41.6583 51.8469 41.7924 51.7128 41.7924 51.5451V9.68426C41.7924 9.51662 41.6583 9.38252 41.4906 9.38252H7.59849Z" fill="#163B3E"/>
  <path d="M13.1588 26.0911H35.9249C36.4949 26.0911 36.9588 25.6273 36.9588 25.0573V23.2077C36.9588 22.6377 36.4949 22.1738 35.9249 22.1738H13.1588C12.5888 22.1738 12.125 22.6377 12.125 23.2077V25.0573C12.125 25.6273 12.5888 26.0911 13.1588 26.0911ZM13.3656 23.4144H35.7182V24.8506H13.3656V23.4144Z" fill="#163B3E"/>
  <path d="M13.1588 32.5678H35.9249C36.4949 32.5678 36.9588 32.104 36.9588 31.534V29.6843C36.9588 29.1143 36.4949 28.6505 35.9249 28.6505H13.1588C12.5888 28.6505 12.125 29.1143 12.125 29.6843V31.534C12.125 32.104 12.5888 32.5678 13.1588 32.5678ZM13.3656 29.8911H35.7182V31.3272H13.3656V29.8911Z" fill="#163B3E"/>
  <path d="M36.9588 38.0162V36.1665C36.9588 35.5965 36.4949 35.1327 35.9249 35.1327H13.1588C12.5888 35.1327 12.125 35.5965 12.125 36.1665V38.0162C12.125 38.5862 12.5888 39.05 13.1588 39.05H35.9249C36.4949 39.05 36.9588 38.5862 36.9588 38.0162ZM35.7182 37.8094H13.3656V36.3733H35.7182V37.8094Z" fill="#163B3E"/>
  <path d="M35.7178 23.3809H13.3652V24.817H35.7178V23.3809Z" fill="white"/>
  <path d="M35.7178 29.8911H13.3652V31.3273H35.7178V29.8911Z" fill="white"/>
  <path d="M35.7178 36.3733H13.3652V37.8095H35.7178V36.3733Z" fill="white"/>
  <path d="M15.6565 60C15.2933 60 14.9468 59.8267 14.7289 59.5362L9.30277 52.3107C9.03454 51.953 8.99542 51.4892 9.19101 51.098C9.39218 50.7013 9.78894 50.4554 10.2304 50.4554H12.6892V42.9673C12.6892 42.3302 13.2089 41.8049 13.8515 41.8049H17.6235C18.2606 41.8049 18.7859 42.3246 18.7859 42.9673V50.4554H21.0826C21.5241 50.4554 21.9264 50.7013 22.122 51.098C22.3176 51.4892 22.2785 51.9586 22.0102 52.3107L16.5841 59.5362C16.3662 59.8267 16.0197 60 15.6565 60ZM10.236 51.5004C10.1913 51.5004 10.1522 51.5227 10.1298 51.5675C10.1131 51.6066 10.1131 51.6513 10.141 51.6904L15.5671 58.9159C15.6118 58.9717 15.7068 58.9717 15.7515 58.9159L21.1776 51.6904C21.2055 51.6568 21.2111 51.6066 21.1888 51.573C21.1664 51.5339 21.1273 51.506 21.0826 51.506H17.7409V42.9729C17.7409 42.9114 17.6906 42.8555 17.6235 42.8555H13.8515C13.7901 42.8555 13.7342 42.9058 13.7342 42.9729V51.506H10.2304L10.236 51.5004ZM15.6565 58.6476L10.4651 51.7295H13.8515C13.913 51.7295 13.9689 51.6792 13.9689 51.6121V43.079H17.5118V51.6121C17.5118 51.6736 17.5621 51.7295 17.6291 51.7295H20.8535L15.6621 58.6476H15.6565ZM12.5551 52.7745L15.6565 56.9097L18.7579 52.7745H17.6235C16.9809 52.7745 16.4612 52.2548 16.4612 51.6121V44.124H15.0083V51.6121C15.0083 52.2492 14.4886 52.7745 13.8459 52.7745H12.5495H12.5551Z" fill="#163B3E"/>
  <path d="M14.4883 43.6044V51.6122C14.4883 51.6122 14.4883 52.2492 13.8512 52.2492H11.5098L15.6562 57.7759L19.8026 52.2492H17.6232C17.6232 52.2492 16.9862 52.2325 16.9862 51.6122V43.6044H14.4883Z" fill="#A3CCF2"/>
  <path d="M43.5827 24.3643C43.5827 24.3643 43.5659 24.3643 43.5268 24.3475C38.8495 22.2911 35.8934 18.9159 34.4795 14.0262C34.1163 12.7689 33.9375 11.4277 33.9375 9.9357C33.9375 9.9357 33.9375 5.14663 33.9375 5.12987C33.9487 5.12987 37.0892 3.82226 37.0892 3.82226C39.2407 2.92815 41.3921 2.03964 43.5379 1.13995C43.5715 1.12877 43.5882 1.12317 43.5882 1.12317C45.79 2.03963 47.9805 2.95051 50.1711 3.86138L53.2222 5.12987C53.2222 5.76691 53.2222 6.40398 53.2222 7.03545C53.2222 8.02455 53.2222 9.01924 53.2222 10.0083C53.1831 16.3677 49.5117 21.8608 43.6497 24.3475C43.605 24.3643 43.5882 24.3699 43.5827 24.3699" fill="white"/>
  <path d="M43.5814 2.32469C45.6379 3.17968 47.6943 4.03464 49.7451 4.88404L52.1089 5.86756C52.1089 6.25873 52.1089 6.64992 52.1089 7.04109C52.1089 8.02461 52.1089 9.00811 52.1089 9.99722C52.0698 15.7642 48.8175 20.7712 43.587 23.1573C39.4518 21.2294 36.8197 18.1391 35.5456 13.7189C35.2104 12.5622 35.0483 11.3272 35.0483 9.93575V5.87316L37.5183 4.84495C39.5356 4.00673 41.5585 3.16851 43.5758 2.33028M43.587 0.0111872C43.4305 0.0111872 43.2741 0.0447121 43.112 0.11177C39.9212 1.44175 36.7303 2.76055 33.5451 4.08494C33.0254 4.30288 32.8242 4.60465 32.8242 5.18023C32.8242 6.17492 32.8242 7.16959 32.8242 8.16428V9.93016C32.8242 11.4222 32.9975 12.8919 33.411 14.328C34.9086 19.5138 38.1386 23.1908 43.0785 25.3646C43.2517 25.4429 43.4194 25.4764 43.5814 25.4764C43.7435 25.4764 43.9111 25.4373 44.0843 25.3646C50.3207 22.7159 54.2939 16.7757 54.3386 10.0028C54.3498 8.37666 54.3386 6.75051 54.3386 5.12436C54.3386 4.6326 54.1207 4.28612 53.6624 4.09613C50.4493 2.76056 47.2361 1.43059 44.0229 0.0950232C43.872 0.0335535 43.7267 0 43.5814 0" fill="#163B3E"/>
  <path d="M38.1562 10.2039C38.1562 9.70097 38.1562 9.19803 38.1562 8.69509C38.1562 8.40451 38.2568 8.25363 38.5195 8.14187C40.1289 7.47129 41.7383 6.80632 43.3476 6.13574C43.5041 6.06868 43.655 6.06868 43.8115 6.13574C45.432 6.81191 47.0526 7.48248 48.6732 8.15306C48.9023 8.24806 49.014 8.42129 49.014 8.67275C49.014 9.49421 49.014 10.3157 49.014 11.1316C48.9917 14.5459 46.9855 17.5468 43.8394 18.8823C43.6662 18.955 43.5041 18.955 43.3309 18.8823C40.8386 17.787 39.2068 15.9318 38.4524 13.3165C38.2457 12.5956 38.1562 11.8524 38.1562 11.098V10.2039Z" fill="#51AD61"/>
</svg>