<svg xmlns="http://www.w3.org/2000/svg" width="60" height="61" viewBox="0 0 60 61" fill="none">
  <path d="M3.1373 7.73315L7.26888 10.0017L13.3803 34.4337L10.4999 36.7092C9.81245 37.2523 9.4206 38.0635 9.4206 38.9434V43.2262C9.4206 44.773 10.6786 46.0516 12.2254 46.0723L15.0646 46.1135C14.9202 46.5603 14.8446 47.0278 14.8446 47.509C14.8446 50.0182 16.8863 52.0668 19.4024 52.0668C21.9184 52.0668 23.9602 50.0251 23.9602 47.509C23.9602 47.0691 23.8983 46.6428 23.7814 46.2372L42.6588 46.4985C42.5832 46.8285 42.542 47.1653 42.542 47.509C42.542 50.0182 44.5837 52.0668 47.0998 52.0668C49.6158 52.0668 51.6576 50.0251 51.6576 47.509C51.6576 47.2065 51.6301 46.9109 51.5682 46.6222L52.8125 46.636C54.3592 46.636 55.631 45.3779 55.6585 43.8312C55.6723 43.0681 55.3835 42.3531 54.8542 41.8101C54.3249 41.267 53.6168 40.9576 52.8537 40.9507L15.1196 40.4214V40.3183L17.1201 38.744C17.3057 38.7715 17.4844 38.7853 17.6631 38.7853L48.5296 39.074C50.4683 39.074 52.1181 37.7541 52.5512 35.8705L56.5522 18.4574C57.0609 16.2369 55.6723 14.0233 53.4518 13.5146C51.2313 13.0059 49.0109 14.3945 48.5022 16.615L45.2436 30.7971L20.9216 30.5702L14.8446 6.262C14.5627 5.15521 13.834 4.19965 12.8304 3.64969L7.11764 0.508046C5.12404 -0.585 2.60797 0.143697 1.50805 2.1373C0.415 4.13091 1.14369 6.64698 3.1373 7.74002V7.73315ZM3.48791 3.2166C3.98287 2.31604 5.12404 1.98606 6.0246 2.47415L11.7304 5.6158C12.1841 5.87016 12.5141 6.29638 12.6447 6.79822L18.9349 31.952C19.0587 32.4539 19.5055 32.8045 20.0211 32.8113L46.1236 33.0519C46.6598 33.0244 47.1204 32.6945 47.2372 32.172L50.6951 17.11C50.9288 16.1063 51.9325 15.4807 52.9362 15.7076C53.9399 15.9413 54.5655 16.9381 54.3386 17.9418L50.3376 35.3549C50.1452 36.2073 49.3959 36.8054 48.5022 36.8054L17.6631 36.5167C17.505 36.5167 17.34 36.4892 17.1544 36.4342C16.8038 36.3242 16.4188 36.3998 16.1301 36.6267L13.2772 38.8746C13.0022 39.0878 12.8441 39.4177 12.8441 39.7615V41.5213C12.8441 42.14 13.3391 42.6419 13.9578 42.6556L52.8125 43.2056C52.9706 43.2056 53.115 43.2675 53.2249 43.3843C53.2868 43.4462 53.3899 43.5906 53.3899 43.7968C53.3899 44.113 53.1218 44.3743 52.7987 44.3743L49.8496 44.333C49.4165 44.333 49.0246 44.5667 48.8252 44.9517C48.6328 45.3367 48.6672 45.7973 48.9284 46.141C49.2309 46.5466 49.389 47.0209 49.389 47.5022C49.389 48.7671 48.3578 49.7982 47.0929 49.7982C45.828 49.7982 44.7968 48.7671 44.7968 47.5022C44.7968 46.8628 45.0718 46.3816 45.3055 46.086C45.5736 45.7491 45.6217 45.2886 45.443 44.8967C45.2574 44.5049 44.8656 44.2574 44.4393 44.2505L21.8291 43.9343H21.8153C21.3616 43.9343 20.9491 44.2093 20.7704 44.6286C20.5917 45.0548 20.6879 45.5429 21.0179 45.8729C21.4579 46.306 21.6985 46.8834 21.6985 47.5022C21.6985 48.7671 20.6673 49.7982 19.4024 49.7982C18.1375 49.7982 17.1063 48.7671 17.1063 47.5022C17.1063 46.8697 17.3675 46.2716 17.8419 45.8316C18.1787 45.5154 18.2956 45.0273 18.1306 44.5942C17.9656 44.1611 17.5531 43.8793 17.0925 43.8655L12.2529 43.7968C11.9367 43.7968 11.6823 43.5356 11.6823 43.2193V38.9365C11.6823 38.7578 11.7648 38.5928 11.9023 38.4828L15.3533 35.7605C15.7039 35.4855 15.8551 35.0318 15.752 34.5987L9.34498 8.97743C9.26936 8.67496 9.07001 8.41372 8.79502 8.26249L4.23035 5.75329C3.32979 5.25833 2.99981 4.11716 3.49478 3.22347L3.48791 3.2166Z" fill="#163B3E"/>
  <path d="M35.6396 4.83899H30.2706C28.662 4.83899 27.349 6.15202 27.349 7.76065V14.6902H25.6922C24.661 14.6902 23.8567 15.1095 23.4924 15.8382C23.128 16.5669 23.2655 17.4675 23.8842 18.2924L30.7106 27.4492C31.2743 28.2123 32.0924 28.6454 32.9586 28.6454C33.8247 28.6454 34.6359 28.2054 35.2065 27.4492L42.0329 18.2924C42.6516 17.4606 42.7891 16.5669 42.4247 15.8382C42.0535 15.1095 41.2561 14.6902 40.2249 14.6902H38.5682V7.76065C38.5682 6.15202 37.2551 4.83899 35.6465 4.83899H35.6396ZM40.2043 16.9519L33.3848 26.1018C33.1167 26.4662 32.7936 26.4662 32.5186 26.1018L25.6991 16.9519H28.4764C29.102 16.9519 29.6107 16.4432 29.6107 15.8176V7.75378C29.6107 7.38943 29.9063 7.09383 30.2706 7.09383H35.6396C36.004 7.09383 36.2996 7.38943 36.2996 7.75378V15.8176C36.2996 16.4432 36.8083 16.9519 37.4339 16.9519H40.2111H40.2043Z" fill="#163B3E"/>
  <path d="M25.7061 16.9519L32.5256 26.1019C32.5256 26.1019 32.8625 26.6312 33.3918 26.1019L40.2113 16.9519H37.434C37.434 16.9519 36.3616 16.9657 36.2997 15.8176V7.90506C36.2997 7.90506 36.4028 7.09387 35.6397 7.09387H30.2708C30.2708 7.09387 29.6108 7.13512 29.6108 7.75382V15.8176C29.6108 15.8176 29.5283 16.9519 28.4765 16.9519H25.6992H25.7061Z" fill="#A3CCF2"/>
  <path d="M47.7669 58.8864C47.7669 58.8864 47.7462 58.8864 47.7119 58.8658C43.0441 56.8172 40.0881 53.4418 38.6788 48.5609C38.3144 47.3028 38.1426 45.9692 38.1426 44.4774C38.1426 44.4774 38.1426 39.6928 38.1426 39.679C38.1495 39.679 41.2911 38.3729 41.2911 38.3729C43.4359 37.4792 45.5877 36.5924 47.7325 35.6987C47.7669 35.6849 47.7806 35.6849 47.7806 35.6849C49.9805 36.5992 52.1666 37.5067 54.3526 38.421L57.398 39.6859C57.398 40.3252 57.398 40.9577 57.398 41.5901C57.398 42.5801 57.398 43.57 57.398 44.5599C57.3568 50.9051 53.6927 56.3909 47.8356 58.8795C47.7944 58.9001 47.7738 58.9001 47.7669 58.9001" fill="white"/>
  <path d="M47.7663 36.881C49.8149 37.7335 51.8704 38.5859 53.9259 39.4384L56.2838 40.4214C56.2838 40.8133 56.2838 41.2051 56.2838 41.5901C56.2838 42.5731 56.2838 43.5562 56.2838 44.5392C56.2495 50.3001 52.9978 55.2978 47.7801 57.6764C43.6554 55.7516 41.0224 52.6649 39.7507 48.2515C39.4138 47.0966 39.2557 45.8591 39.2557 44.4774V40.4214L41.7236 39.3971C43.7379 38.5584 45.759 37.7197 47.7732 36.881M47.7732 34.5643C47.6151 34.5643 47.4639 34.5987 47.2989 34.6674C44.116 35.9942 40.9331 37.3141 37.7433 38.634C37.2208 38.8471 37.0215 39.1565 37.0215 39.7271C37.0215 40.7239 37.0215 41.7138 37.0215 42.7106V44.4774C37.0215 45.9691 37.1934 47.4403 37.6058 48.8702C39.1045 54.0467 42.3217 57.7177 47.2576 59.89C47.4295 59.9656 47.5945 60 47.7595 60C47.9244 60 48.0894 59.9656 48.2613 59.89C54.4896 57.2433 58.4562 51.3106 58.4974 44.553C58.5112 42.9306 58.4974 41.3082 58.4974 39.6858C58.4974 39.1909 58.2843 38.8471 57.8237 38.6615C54.6133 37.3279 51.4098 36.0011 48.1994 34.6674C48.0482 34.6056 47.9038 34.5781 47.7595 34.5781" fill="#163B3E"/>
  <path d="M42.3487 44.7386C42.3487 44.2368 42.3487 43.735 42.3487 43.2331C42.3487 42.9444 42.4518 42.7932 42.713 42.6832C44.3217 42.0163 45.9234 41.3495 47.5321 40.6827C47.6902 40.6208 47.8345 40.6139 47.9926 40.6827C49.6081 41.3564 51.2305 42.0301 52.846 42.6969C53.0729 42.7932 53.1829 42.965 53.1829 43.2125C53.1829 44.0306 53.1829 44.8486 53.1829 45.6667C53.1623 49.0764 51.1618 52.0669 48.0201 53.4005C47.8483 53.4761 47.6902 53.4761 47.5114 53.4005C45.0229 52.3075 43.3936 50.4514 42.6374 47.839C42.4312 47.1172 42.3418 46.3748 42.3418 45.6254V44.7386" fill="#51AD61"/>
</svg>