<svg xmlns="http://www.w3.org/2000/svg" width="60" height="61" viewBox="0 0 60 61" fill="none">
  <path d="M3.1373 7.73315L7.26888 10.0017L13.3803 34.4337L10.4999 36.7092C9.81245 37.2523 9.4206 38.0635 9.4206 38.9434V43.2262C9.4206 44.773 10.6786 46.0516 12.2254 46.0723L15.0646 46.1135C14.9202 46.5603 14.8446 47.0278 14.8446 47.509C14.8446 50.0182 16.8863 52.0668 19.4024 52.0668C21.9184 52.0668 23.9602 50.0251 23.9602 47.509C23.9602 47.0691 23.8983 46.6428 23.7814 46.2372L42.6588 46.4985C42.5832 46.8285 42.542 47.1653 42.542 47.509C42.542 50.0182 44.5837 52.0668 47.0998 52.0668C49.6158 52.0668 51.6576 50.0251 51.6576 47.509C51.6576 47.2065 51.6301 46.9109 51.5682 46.6222L52.8125 46.636C54.3592 46.636 55.631 45.3779 55.6585 43.8312C55.6723 43.0681 55.3835 42.3531 54.8542 41.8101C54.3249 41.267 53.6168 40.9576 52.8537 40.9507L15.1196 40.4214V40.3183L17.1201 38.744C17.3057 38.7715 17.4844 38.7853 17.6631 38.7853L48.5296 39.074C50.4683 39.074 52.1181 37.7541 52.5512 35.8705L56.5522 18.4574C57.0609 16.2369 55.6723 14.0233 53.4518 13.5146C51.2313 13.0059 49.0109 14.3945 48.5022 16.615L45.2436 30.7971L20.9216 30.5702L14.8446 6.262C14.5627 5.15521 13.834 4.19965 12.8304 3.64969L7.11764 0.508046C5.12404 -0.585 2.60797 0.143697 1.50805 2.1373C0.415 4.13091 1.14369 6.64698 3.1373 7.74002V7.73315ZM3.48791 3.2166C3.98287 2.31604 5.12404 1.98606 6.0246 2.47415L11.7304 5.6158C12.1841 5.87016 12.5141 6.29638 12.6447 6.79822L18.9349 31.952C19.0587 32.4539 19.5055 32.8045 20.0211 32.8113L46.1236 33.0519C46.6598 33.0244 47.1204 32.6945 47.2372 32.172L50.6951 17.11C50.9288 16.1063 51.9325 15.4807 52.9362 15.7076C53.9399 15.9413 54.5655 16.9381 54.3386 17.9418L50.3376 35.3549C50.1452 36.2073 49.3959 36.8054 48.5022 36.8054L17.6631 36.5167C17.505 36.5167 17.34 36.4892 17.1544 36.4342C16.8038 36.3242 16.4188 36.3998 16.1301 36.6267L13.2772 38.8746C13.0022 39.0878 12.8441 39.4177 12.8441 39.7615V41.5213C12.8441 42.14 13.3391 42.6419 13.9578 42.6556L52.8125 43.2056C52.9706 43.2056 53.115 43.2675 53.2249 43.3843C53.2868 43.4462 53.3899 43.5906 53.3899 43.7968C53.3899 44.113 53.1218 44.3743 52.7987 44.3743L49.8496 44.333C49.4165 44.333 49.0246 44.5667 48.8252 44.9517C48.6328 45.3367 48.6672 45.7973 48.9284 46.141C49.2309 46.5466 49.389 47.0209 49.389 47.5022C49.389 48.7671 48.3578 49.7982 47.0929 49.7982C45.828 49.7982 44.7968 48.7671 44.7968 47.5022C44.7968 46.8628 45.0718 46.3816 45.3055 46.086C45.5736 45.7491 45.6217 45.2886 45.443 44.8967C45.2574 44.5049 44.8656 44.2574 44.4393 44.2505L21.8291 43.9343H21.8153C21.3616 43.9343 20.9491 44.2093 20.7704 44.6286C20.5917 45.0548 20.6879 45.5429 21.0179 45.8729C21.4579 46.306 21.6985 46.8834 21.6985 47.5022C21.6985 48.7671 20.6673 49.7982 19.4024 49.7982C18.1375 49.7982 17.1063 48.7671 17.1063 47.5022C17.1063 46.8697 17.3675 46.2716 17.8419 45.8316C18.1787 45.5154 18.2956 45.0273 18.1306 44.5942C17.9656 44.1611 17.5531 43.8793 17.0925 43.8655L12.2529 43.7968C11.9367 43.7968 11.6823 43.5356 11.6823 43.2193V38.9365C11.6823 38.7578 11.7648 38.5928 11.9023 38.4828L15.3533 35.7605C15.7039 35.4855 15.8551 35.0318 15.752 34.5987L9.34498 8.97743C9.26936 8.67496 9.07001 8.41372 8.79502 8.26249L4.23035 5.75329C3.32979 5.25833 2.99981 4.11716 3.49478 3.22347L3.48791 3.2166Z" fill="#163B3E"/>
  <path d="M35.6396 4.83887H30.2706C28.662 4.83887 27.349 6.1519 27.349 7.76053V14.69H25.6922C24.661 14.69 23.8567 15.1094 23.4924 15.8381C23.128 16.5668 23.2655 17.4673 23.8842 18.2923L30.7106 27.4491C31.2743 28.2122 32.0924 28.6453 32.9586 28.6453C33.8247 28.6453 34.6359 28.2053 35.2065 27.4491L42.0329 18.2923C42.6516 17.4605 42.7891 16.5668 42.4247 15.8381C42.0535 15.1094 41.2561 14.69 40.2249 14.69H38.5682V7.76053C38.5682 6.1519 37.2551 4.83887 35.6465 4.83887H35.6396ZM40.2043 16.9517L33.3848 26.1017C33.1167 26.4661 32.7936 26.4661 32.5186 26.1017L25.6991 16.9517H28.4764C29.102 16.9517 29.6107 16.443 29.6107 15.8174V7.75366C29.6107 7.38931 29.9063 7.0937 30.2706 7.0937H35.6396C36.004 7.0937 36.2996 7.38931 36.2996 7.75366V15.8174C36.2996 16.443 36.8083 16.9517 37.4339 16.9517H40.2111H40.2043Z" fill="#163B3E"/>
  <path d="M25.7061 16.9518L32.5256 26.1018C32.5256 26.1018 32.8625 26.6311 33.3918 26.1018L40.2113 16.9518H37.434C37.434 16.9518 36.3616 16.9655 36.2997 15.8175V7.90494C36.2997 7.90494 36.4028 7.09375 35.6397 7.09375H30.2708C30.2708 7.09375 29.6108 7.135 29.6108 7.7537V15.8175C29.6108 15.8175 29.5283 16.9518 28.4765 16.9518H25.6992H25.7061Z" fill="#A3CCF2"/>
  <path d="M47.7669 58.8865C47.7669 58.8865 47.7462 58.8865 47.7119 58.8659C43.0441 56.8173 40.0881 53.4419 38.6788 48.561C38.3144 47.303 38.1426 45.9693 38.1426 44.4775C38.1426 44.4775 38.1426 39.6929 38.1426 39.6791C38.1495 39.6791 41.2911 38.373 41.2911 38.373C43.4359 37.4793 45.5877 36.5925 47.7325 35.6988C47.7669 35.6851 47.7806 35.6851 47.7806 35.6851C49.9805 36.5994 52.1666 37.5068 54.3526 38.4211L57.398 39.686C57.398 40.3253 57.398 40.9578 57.398 41.5903C57.398 42.5802 57.398 43.5701 57.398 44.56C57.3568 50.9052 53.6927 56.3911 47.8356 58.8796C47.7944 58.9003 47.7738 58.9003 47.7669 58.9003" fill="white"/>
  <path d="M47.7663 36.8812C49.8149 37.7336 51.8704 38.586 53.9259 39.4385L56.2838 40.4215C56.2838 40.8134 56.2838 41.2052 56.2838 41.5902C56.2838 42.5733 56.2838 43.5563 56.2838 44.5394C56.2495 50.3002 52.9978 55.298 47.7801 57.6765C43.6554 55.7517 41.0224 52.665 39.7507 48.2516C39.4138 47.0967 39.2557 45.8593 39.2557 44.4775V40.4215L41.7236 39.3972C43.7379 38.5585 45.759 37.7199 47.7732 36.8812M47.7732 34.5645C47.6151 34.5645 47.4639 34.5988 47.2989 34.6676C44.116 35.9944 40.9331 37.3143 37.7433 38.6342C37.2208 38.8473 37.0215 39.1566 37.0215 39.7272C37.0215 40.724 37.0215 41.7139 37.0215 42.7107V44.4775C37.0215 45.9693 37.1934 47.4404 37.6058 48.8703C39.1045 54.0468 42.3217 57.7178 47.2576 59.8901C47.4295 59.9657 47.5945 60.0001 47.7595 60.0001C47.9244 60.0001 48.0894 59.9657 48.2613 59.8901C54.4896 57.2434 58.4562 51.3107 58.4974 44.5531C58.5112 42.9307 58.4974 41.3083 58.4974 39.686C58.4974 39.191 58.2843 38.8473 57.8237 38.6617C54.6133 37.328 51.4098 36.0012 48.1994 34.6676C48.0482 34.6057 47.9038 34.5782 47.7595 34.5782" fill="#163B3E"/>
  <path d="M42.3487 44.7388C42.3487 44.2369 42.3487 43.7351 42.3487 43.2332C42.3487 42.9445 42.4518 42.7933 42.713 42.6833C44.3217 42.0165 45.9234 41.3496 47.5321 40.6828C47.6902 40.6209 47.8345 40.6141 47.9926 40.6828C49.6081 41.3565 51.2305 42.0302 52.846 42.697C53.0729 42.7933 53.1829 42.9651 53.1829 43.2126C53.1829 44.0307 53.1829 44.8488 53.1829 45.6668C53.1623 49.0766 51.1618 52.067 48.0201 53.4006C47.8483 53.4763 47.6902 53.4763 47.5114 53.4006C45.0229 52.3076 43.3936 50.4515 42.6374 47.8392C42.4312 47.1173 42.3418 46.3749 42.3418 45.6256V44.7388" fill="#51AD61"/>
</svg>